<svg width="489" height="835" fill="none" xmlns="http://www.w3.org/2000/svg"><path d="M119.322 17.521a.24.24 0 100-.48.24.24 0 000 .48zm8.641 0a.24.24 0 100-.48.24.24 0 000 .48zm8.639 0a.24.24 0 100-.48.24.24 0 000 .48zm8.64 0a.24.24 0 100-.48.24.24 0 000 .48zm8.64 0a.24.24 0 100-.48.24.24 0 000 .48zm8.641 0a.24.24 0 100-.48.24.24 0 000 .48zm8.64 0a.24.24 0 100-.48.24.24 0 000 .48zm8.639 0a.24.24 0 100-.48.24.24 0 000 .48zm8.641 0a.24.24 0 100-.48.24.24 0 000 .48zm8.64 0a.24.24 0 100-.481.24.24 0 000 .481zm8.64 0a.24.24 0 100-.48.24.24 0 000 .48zM102.041 26.16a.24.24 0 100-.479.24.24 0 000 .48zm8.64 0a.24.24 0 100-.479.24.24 0 000 .48zm8.641 0a.24.24 0 100-.479.24.24 0 000 .48zm8.641 0a.24.24 0 100-.48.24.24 0 000 .48zm8.639.24a.48.48 0 100-.96.48.48 0 000 .96zm8.64 0a.48.48 0 100-.96.48.48 0 000 .96zm8.641 0a.48.48 0 100-.96.48.48 0 000 .96zm8.64 0a.48.48 0 100-.96.48.48 0 000 .96zm8.64 0a.48.48 0 100-.96.48.48 0 000 .96zm8.64 0a.48.48 0 100-.96.48.48 0 000 .96zm8.64 0a.48.48 0 100-.96.48.48 0 000 .96zm8.64-.24a.24.24 0 100-.48.24.24 0 000 .48zm8.64 0a.24.24 0 100-.48.24.24 0 000 .48zm8.64 0a.24.24 0 100-.479.24.24 0 000 .48zm8.64 0a.24.24 0 100-.479.24.24 0 000 .48zm8.641 0a.24.24 0 100-.479.24.24 0 000 .48zM84.761 34.8a.24.24 0 100-.48.24.24 0 000 .48zm8.64 0a.24.24 0 100-.48.24.24 0 000 .48zm8.64 0a.24.24 0 100-.48.24.24 0 000 .48zm8.64.24a.48.48 0 10.001-.959.48.48 0 00-.001.96zm8.641 0a.48.48 0 100-.96.48.48 0 000 .96zm8.64 0a.48.48 0 100-.96.48.48 0 000 .96zm8.64 0a.48.48 0 100-.96.48.48 0 000 .96zm8.64 0a.48.48 0 100-.96.48.48 0 000 .96zm8.641 0a.48.48 0 100-.96.48.48 0 000 .96zm8.64 0a.48.48 0 100-.96.48.48 0 000 .96zm8.64 0a.48.48 0 100-.96.48.48 0 000 .96zm8.64 0a.48.48 0 100-.96.48.48 0 000 .96zm8.64 0a.48.48 0 100-.96.48.48 0 000 .96zm8.639 0a.48.48 0 10.001-.959.48.48 0 00-.001.96zm8.641 0a.48.48 0 100-.96.48.48 0 000 .96zm8.641 0a.48.48 0 100-.96.48.48 0 000 .96zm8.639-.24a.24.24 0 100-.48.24.24 0 000 .48zm8.641 0a.24.24 0 100-.48.24.24 0 000 .48zm8.641 0a.24.24 0 100-.48.24.24 0 000 .48zM76.121 43.44a.24.24 0 100-.48.24.24 0 000 .48zm8.64 0a.24.24 0 100-.48.24.24 0 000 .48zm8.64.24a.48.48 0 100-.96.48.48 0 000 .96zm8.641 0a.48.48 0 100-.96.48.48 0 000 .96zm8.639 0a.48.48 0 10.001-.958.48.48 0 00-.001.959zm8.641 0a.48.48 0 100-.96.48.48 0 000 .96zm8.64.24a.72.72 0 100-1.44.72.72 0 000 1.44zm8.64 0a.72.72 0 100-1.44.72.72 0 000 1.44zm8.641 0a.72.72 0 100-1.44.72.72 0 000 1.44zm8.639 0a.72.72 0 100-1.44.72.72 0 000 1.44zm8.641 0a.72.72 0 100-1.44.72.72 0 000 1.44zm8.64 0a.72.72 0 100-1.44.72.72 0 000 1.44zm8.64 0a.72.72 0 100-1.44.72.72 0 000 1.44zm8.64 0a.72.72 0 100-1.44.72.72 0 000 1.44zm8.64 0a.72.72 0 100-1.44.72.72 0 000 1.44zm8.64-.24a.48.48 0 100-.96.48.48 0 000 .96zm8.641 0a.48.48 0 100-.96.48.48 0 000 .96zm8.639 0a.48.48 0 10.001-.958.48.48 0 00-.001.959zm8.641 0a.48.48 0 100-.96.48.48 0 000 .96zm8.641-.24a.24.24 0 100-.48.24.24 0 000 .48zm8.639 0a.24.24 0 100-.478.24.24 0 000 .479zM67.48 52.08a.24.24 0 100-.48.24.24 0 000 .48zm8.641 0a.24.24 0 100-.48.24.24 0 000 .48zm8.641.241a.48.48 0 100-.96.48.48 0 000 .96zm8.639 0a.48.48 0 100-.96.48.48 0 000 .96zm8.641 0a.48.48 0 100-.96.48.48 0 000 .96zm8.639.24a.72.72 0 100-1.44.72.72 0 000 1.44zm8.64 0a.72.72 0 100-1.44.72.72 0 000 1.44zm8.641 0a.72.72 0 100-1.44.72.72 0 000 1.44zm8.64 0a.72.72 0 100-1.44.72.72 0 000 1.44zm8.64.239a.96.96 0 10.001-1.918.96.96 0 00-.001 1.919zm8.641 0a.96.96 0 100-1.92.96.96 0 000 1.92zm8.64 0a.96.96 0 100-1.92.96.96 0 000 1.92zm8.64 0a.96.96 0 100-1.92.96.96 0 000 1.92zm8.64 0a.96.96 0 100-1.92.96.96 0 000 1.92zm8.64-.239a.72.72 0 100-1.44.72.72 0 000 1.44zm8.64 0a.72.72 0 100-1.44.72.72 0 000 1.44zm8.64 0a.72.72 0 100-1.44.72.72 0 000 1.44zm8.64 0a.72.72 0 100-1.44.72.72 0 000 1.44zm8.64-.24a.48.48 0 10.001-.959.48.48 0 00-.001.96zm8.641 0a.48.48 0 100-.96.48.48 0 000 .96zm8.64 0a.48.48 0 100-.96.48.48 0 000 .96zm8.64-.241a.24.24 0 100-.479.24.24 0 000 .48zm8.641 0a.24.24 0 100-.48.24.24 0 000 .48zm8.639 0a.24.24 0 100-.48.24.24 0 000 .48zM58.84 60.721a.24.24 0 100-.48.24.24 0 000 .48zm8.64 0a.24.24 0 100-.48.24.24 0 000 .48zm8.641.24a.48.48 0 100-.96.48.48 0 000 .96zm8.641 0a.48.48 0 100-.96.48.48 0 000 .96zm8.639.239a.72.72 0 100-1.44.72.72 0 000 1.44zm8.641 0a.72.72 0 100-1.44.72.72 0 000 1.44zm8.639 0a.72.72 0 100-1.439.72.72 0 000 1.44zm8.641.241a.96.96 0 100-1.92.96.96 0 000 1.92zm8.64 0a.96.96 0 10.001-1.918.96.96 0 00-.001 1.918zm8.641 0a.96.96 0 100-1.92.96.96 0 000 1.92zm8.639 0a.96.96 0 10.001-1.918.96.96 0 00-.001 1.918zm8.641 0a.96.96 0 100-1.92.96.96 0 000 1.92zm8.64 0a.96.96 0 100-1.92.96.96 0 000 1.92zm8.64 0a.96.96 0 100-1.92.96.96 0 000 1.92zm8.64 0a.96.96 0 100-1.92.96.96 0 000 1.92zm8.64 0a.96.96 0 100-1.92.96.96 0 000 1.92zm8.64 0a.96.96 0 100-1.92.96.96 0 000 1.92zm8.64 0a.96.96 0 100-1.92.96.96 0 000 1.92zm8.64-.241a.72.72 0 100-1.439.72.72 0 000 1.44zm8.641 0a.72.72 0 100-1.439.72.72 0 000 1.44zm8.64 0a.72.72 0 100-1.439.72.72 0 000 1.44zm8.64-.239a.48.48 0 100-.96.48.48 0 000 .96zm8.64 0a.48.48 0 100-.96.48.48 0 000 .96zm8.641-.24a.24.24 0 100-.48.24.24 0 000 .48zm8.639 0a.24.24 0 100-.48.24.24 0 000 .48zm8.641 0a.24.24 0 100-.48.24.24 0 000 .48zM50.2 69.36a.24.24 0 100-.48.24.24 0 000 .48zm8.64 0a.24.24 0 100-.48.24.24 0 000 .48zm8.64.242a.48.48 0 100-.96.48.48 0 000 .96zm8.641 0a.48.48 0 100-.96.48.48 0 000 .96zm8.64.238a.72.72 0 100-1.44.72.72 0 000 1.44zm8.64 0a.72.72 0 100-1.44.72.72 0 000 1.44zm8.641 0a.72.72 0 100-1.44.72.72 0 000 1.44zm8.64.241a.96.96 0 100-1.92.96.96 0 000 1.92zm8.64 0a.96.96 0 100-1.92.96.96 0 000 1.92zm8.64 0a.96.96 0 100-1.919.96.96 0 000 1.92zm8.64.241a1.2 1.2 0 100-2.4 1.2 1.2 0 000 2.4zm8.64 0a1.2 1.2 0 10-.001-2.401 1.2 1.2 0 00.001 2.4zm8.64 0a1.2 1.2 0 100-2.4 1.2 1.2 0 000 2.4zm8.641 0a1.2 1.2 0 10-.001-2.401 1.2 1.2 0 00.001 2.4zm8.639 0a1.2 1.2 0 100-2.4 1.2 1.2 0 000 2.4zm8.641 0a1.2 1.2 0 10-.001-2.401 1.2 1.2 0 00.001 2.4zm8.64 0a1.2 1.2 0 100-2.4 1.2 1.2 0 000 2.4zm8.64-.241a.96.96 0 100-1.92.96.96 0 000 1.92zm8.64 0a.96.96 0 100-1.92.96.96 0 000 1.92zm8.641 0a.96.96 0 100-1.92.96.96 0 000 1.92zm8.64 0a.96.96 0 100-1.919.96.96 0 000 1.92zm8.64-.241a.72.72 0 100-1.44.72.72 0 000 1.44zm8.639 0a.72.72 0 100-1.44.72.72 0 000 1.44zm8.641-.238a.48.48 0 100-.96.48.48 0 000 .96zm8.64 0a.48.48 0 100-.96.48.48 0 000 .96zm8.64-.242a.24.24 0 100-.48.24.24 0 000 .48zm8.641 0a.24.24 0 100-.48.24.24 0 000 .48zM41.56 78.001a.24.24 0 100-.48.24.24 0 000 .48zm8.64 0a.24.24 0 100-.48.24.24 0 000 .48zm8.64.24a.48.48 0 100-.96.48.48 0 000 .96zm8.64 0a.48.48 0 100-.96.48.48 0 000 .96zm8.642.24a.72.72 0 100-1.44.72.72 0 000 1.44zm8.639 0a.72.72 0 100-1.44.72.72 0 000 1.44zm8.64.239a.96.96 0 100-1.92.96.96 0 000 1.92zm8.64 0a.96.96 0 10.001-1.918.96.96 0 00-.001 1.919zm8.641 0a.96.96 0 100-1.92.96.96 0 000 1.92zm8.64.24a1.2 1.2 0 100-2.4 1.2 1.2 0 000 2.4zm8.64 0a1.2 1.2 0 100-2.4 1.2 1.2 0 000 2.4zm8.64 0a1.2 1.2 0 100-2.4 1.2 1.2 0 000 2.4zm8.64 0a1.2 1.2 0 10-.001-2.4 1.2 1.2 0 00.001 2.4zm8.64 0a1.2 1.2 0 100-2.4 1.2 1.2 0 000 2.4zm8.64.242a1.44 1.44 0 100-2.88 1.44 1.44 0 000 2.88zm8.641 0a1.44 1.44 0 100-2.88 1.44 1.44 0 000 2.88zm8.64-.242a1.2 1.2 0 10-.001-2.4 1.2 1.2 0 00.001 2.4zm8.64 0a1.2 1.2 0 100-2.4 1.2 1.2 0 000 2.4zm8.64 0a1.2 1.2 0 100-2.4 1.2 1.2 0 000 2.4zm8.64 0a1.2 1.2 0 100-2.4 1.2 1.2 0 000 2.4zm8.641-.24a.96.96 0 100-1.92.96.96 0 000 1.92zm8.64 0a.96.96 0 10.001-1.918.96.96 0 00-.001 1.919zm8.64 0a.96.96 0 100-1.92.96.96 0 000 1.92zm8.639-.239a.72.72 0 100-1.44.72.72 0 000 1.44zm8.641 0a.72.72 0 100-1.44.72.72 0 000 1.44zm8.64-.24a.48.48 0 100-.96.48.48 0 000 .96zm8.641 0a.48.48 0 100-.96.48.48 0 000 .96zm8.64-.24a.24.24 0 100-.48.24.24 0 000 .48zm8.64 0a.24.24 0 100-.48.24.24 0 000 .48zM41.56 86.642a.24.24 0 100-.48.24.24 0 000 .48zm8.64.24a.48.48 0 100-.96.48.48 0 000 .96zm8.64 0a.48.48 0 100-.96.48.48 0 000 .96zm8.641.24a.72.72 0 100-1.44.72.72 0 000 1.44zm8.641 0a.72.72 0 100-1.44.72.72 0 000 1.44zm8.638.24a.96.96 0 100-1.92.96.96 0 000 1.92zm8.641 0a.96.96 0 100-1.92.96.96 0 000 1.92zm8.64 0a.96.96 0 100-1.92.96.96 0 000 1.92zm8.641.239a1.2 1.2 0 100-2.4 1.2 1.2 0 000 2.4zm8.64 0a1.2 1.2 0 100-2.4 1.2 1.2 0 000 2.4zm8.64.24a1.44 1.44 0 100-2.88 1.44 1.44 0 000 2.88zm8.64 0a1.44 1.44 0 100-2.88 1.44 1.44 0 000 2.88zm8.64 0a1.44 1.44 0 100-2.88 1.44 1.44 0 000 2.88zm8.64 0a1.44 1.44 0 100-2.88 1.44 1.44 0 000 2.88zm8.64 0a1.44 1.44 0 100-2.88 1.44 1.44 0 000 2.88zm8.641 0a1.44 1.44 0 100-2.88 1.44 1.44 0 000 2.88zm8.64 0a1.44 1.44 0 100-2.88 1.44 1.44 0 000 2.88zm8.641 0a1.44 1.44 0 100-2.88 1.44 1.44 0 000 2.88zm8.64 0a1.44 1.44 0 100-2.88 1.44 1.44 0 000 2.88zm8.639-.24a1.2 1.2 0 100-2.4 1.2 1.2 0 000 2.4zm8.641 0a1.2 1.2 0 10-.001-2.4 1.2 1.2 0 00.001 2.4zm8.64 0a1.2 1.2 0 100-2.4 1.2 1.2 0 000 2.4zm8.64-.239a.96.96 0 100-1.92.96.96 0 000 1.92zm8.64 0a.96.96 0 100-1.92.96.96 0 000 1.92zm8.64-.24a.72.72 0 100-1.441.72.72 0 000 1.44zm8.641 0a.72.72 0 100-1.441.72.72 0 000 1.44zm8.64-.24a.48.48 0 100-.96.48.48 0 000 .96zm8.639 0a.48.48 0 100-.96.48.48 0 000 .96zm8.641-.24a.24.24 0 100-.48.24.24 0 000 .48zm8.639 0a.24.24 0 100-.48.24.24 0 000 .48zM32.92 95.282a.24.24 0 100-.48.24.24 0 000 .48zm8.64 0a.24.24 0 100-.48.24.24 0 000 .48zm8.64.24a.48.48 0 100-.96.48.48 0 000 .96zm8.64 0a.48.48 0 100-.96.48.48 0 000 .96zm8.641.24a.72.72 0 100-1.44.72.72 0 000 1.44zm8.641 0a.72.72 0 100-1.44.72.72 0 000 1.44zm8.638.24a.96.96 0 100-1.92.96.96 0 000 1.92zm8.641 0a.96.96 0 100-1.92.96.96 0 000 1.92zm8.641.24a1.2 1.2 0 100-2.4 1.2 1.2 0 000 2.4zm8.64 0a1.2 1.2 0 100-2.4 1.2 1.2 0 000 2.4zm8.64.24a1.44 1.44 0 100-2.88 1.44 1.44 0 000 2.88zm8.64 0a1.44 1.44 0 100-2.88 1.44 1.44 0 000 2.88zm8.64 0a1.44 1.44 0 100-2.88 1.44 1.44 0 000 2.88zm8.64.239a1.68 1.68 0 100-3.36 1.68 1.68 0 000 3.36zm8.64 0a1.68 1.68 0 100-3.36 1.68 1.68 0 000 3.36zm8.641 0a1.68 1.68 0 10-.001-3.36 1.68 1.68 0 00.001 3.36zm8.64 0a1.68 1.68 0 100-3.36 1.68 1.68 0 000 3.36zm8.64 0a1.68 1.68 0 100-3.36 1.68 1.68 0 000 3.36zm8.641-.239a1.44 1.44 0 100-2.88 1.44 1.44 0 000 2.88zm8.64 0a1.44 1.44 0 100-2.88 1.44 1.44 0 000 2.88zm8.639 0a1.44 1.44 0 100-2.88 1.44 1.44 0 000 2.88zm8.641-.24a1.2 1.2 0 100-2.401 1.2 1.2 0 000 2.4zm8.64 0a1.2 1.2 0 100-2.4 1.2 1.2 0 000 2.4zm8.64 0a1.2 1.2 0 100-2.4 1.2 1.2 0 000 2.4zm8.64-.24a.96.96 0 100-1.92.96.96 0 000 1.92zm8.64 0a.96.96 0 100-1.92.96.96 0 000 1.92zm8.641-.24a.72.72 0 100-1.44.72.72 0 000 1.44zm8.64-.24a.48.48 0 100-.96.48.48 0 000 .96zm8.639 0a.48.48 0 100-.96.48.48 0 000 .96zm8.641-.24a.24.24 0 100-.481.24.24 0 000 .48zm8.639 0a.24.24 0 100-.48.24.24 0 000 .48zM32.92 103.921a.24.24 0 10.001-.48.24.24 0 000 .48zm8.64.24a.48.48 0 100-.96.48.48 0 000 .96zm8.64 0a.48.48 0 100-.96.48.48 0 000 .96zm8.641.24a.72.72 0 100-1.44.72.72 0 000 1.44zm8.64 0a.72.72 0 100-1.44.72.72 0 000 1.44zm8.639.241a.96.96 0 100-1.92.96.96 0 000 1.92zm8.64 0a.96.96 0 100-1.92.96.96 0 000 1.92zm8.641.239a1.2 1.2 0 100-2.4 1.2 1.2 0 000 2.4zm8.641 0a1.2 1.2 0 100-2.4 1.2 1.2 0 000 2.4zm8.64.241a1.44 1.44 0 100-2.88 1.44 1.44 0 000 2.88zm8.64 0a1.44 1.44 0 100-2.88 1.44 1.44 0 000 2.88zm8.64.24a1.68 1.68 0 100-3.36 1.68 1.68 0 000 3.36zm8.64 0a1.68 1.68 0 100-3.36 1.68 1.68 0 000 3.36zm8.64 0a1.68 1.68 0 100-3.36 1.68 1.68 0 000 3.36zm8.64 0a1.68 1.68 0 100-3.36 1.68 1.68 0 000 3.36zm8.641 0a1.68 1.68 0 100-3.36 1.68 1.68 0 000 3.36zm8.64 0a1.68 1.68 0 100-3.36 1.68 1.68 0 000 3.36zm8.64 0a1.68 1.68 0 100-3.36 1.68 1.68 0 000 3.36zm8.639 0a1.68 1.68 0 100-3.361 1.68 1.68 0 000 3.361zm8.641 0a1.68 1.68 0 100-3.36 1.68 1.68 0 000 3.36zm8.64-.24a1.44 1.44 0 10.002-2.878 1.44 1.44 0 00-.002 2.878zm8.64 0a1.44 1.44 0 100-2.88 1.44 1.44 0 000 2.88zm8.641-.241a1.2 1.2 0 100-2.4 1.2 1.2 0 000 2.4zm8.64 0a1.2 1.2 0 100-2.4 1.2 1.2 0 000 2.4zm8.64-.239a.96.96 0 100-1.92.96.96 0 000 1.92zm8.64 0a.96.96 0 100-1.92.96.96 0 000 1.92zm8.641-.241a.72.72 0 100-1.44.72.72 0 000 1.44zm8.639 0a.72.72 0 100-1.44.72.72 0 000 1.44zm8.64-.24a.48.48 0 100-.96.48.48 0 000 .96zm8.641 0a.48.48 0 100-.96.48.48 0 000 .96zm8.639-.24a.24.24 0 100-.48.24.24 0 000 .48zm-267.843 8.641a.24.24 0 100-.48.24.24 0 000 .48zm8.639 0a.24.24 0 10.001-.48.24.24 0 000 .48zm8.64.24a.48.48 0 100-.96.48.48 0 000 .96zm8.64 0a.48.48 0 100-.96.48.48 0 000 .96zm8.641.24a.72.72 0 100-1.44.72.72 0 000 1.44zm8.64.239a.96.96 0 10.001-1.919.96.96 0 000 1.919zm8.639 0a.96.96 0 10.002-1.919.96.96 0 00-.001 1.919zm8.64.241a1.2 1.2 0 100-2.4 1.2 1.2 0 000 2.4zm8.641 0a1.2 1.2 0 100-2.4 1.2 1.2 0 000 2.4zm8.641.24a1.44 1.44 0 100-2.88 1.44 1.44 0 000 2.88zm8.64 0a1.44 1.44 0 100-2.88 1.44 1.44 0 000 2.88zm8.64.241a1.68 1.68 0 100-3.36 1.68 1.68 0 000 3.36zm8.64 0a1.68 1.68 0 100-3.36 1.68 1.68 0 000 3.36zm8.64.239a1.92 1.92 0 10.002-3.838 1.92 1.92 0 00-.002 3.838zm8.64 0a1.92 1.92 0 10.002-3.838 1.92 1.92 0 00-.002 3.838zm8.641 0a1.92 1.92 0 100-3.84 1.92 1.92 0 000 3.84zm8.639 0a1.92 1.92 0 10.002-3.838 1.92 1.92 0 00-.002 3.838zm8.641 0a1.92 1.92 0 10.002-3.838 1.92 1.92 0 00-.002 3.838zm8.639 0a1.92 1.92 0 10.002-3.838 1.92 1.92 0 00-.002 3.838zm8.64 0a1.92 1.92 0 10.002-3.84 1.92 1.92 0 00-.002 3.84zm8.641-.239a1.68 1.68 0 100-3.36 1.68 1.68 0 000 3.36zm8.64 0a1.68 1.68 0 100-3.36 1.68 1.68 0 000 3.36zm8.64-.241a1.44 1.44 0 100-2.88 1.44 1.44 0 000 2.88zm8.64 0a1.44 1.44 0 100-2.88 1.44 1.44 0 000 2.88zm8.641-.24a1.2 1.2 0 100-2.4 1.2 1.2 0 000 2.4zm8.639 0a1.2 1.2 0 100-2.4 1.2 1.2 0 000 2.4zm8.641-.241a.96.96 0 100-1.92.96.96 0 000 1.92zm8.64 0a.959.959 0 100-1.92.96.96 0 000 1.92zm8.64-.239a.72.72 0 100-1.44.72.72 0 000 1.44zm8.64-.24a.48.48 0 100-.96.48.48 0 000 .96zm8.641 0a.48.48 0 100-.96.48.48 0 000 .96zm8.639-.24a.24.24 0 100-.48.24.24 0 000 .48zm8.641 0a.24.24 0 100-.48.24.24 0 000 .48zm-276.484 8.641a.24.24 0 100-.48.24.24 0 000 .48zm8.639 0a.24.24 0 100-.48.24.24 0 000 .48zm8.64.239a.48.48 0 10.001-.959.48.48 0 000 .959zm8.64.24a.72.72 0 100-1.44.72.72 0 000 1.44zm8.641 0a.72.72 0 100-1.44.72.72 0 000 1.44zm8.64.24a.96.96 0 100-1.92.96.96 0 000 1.92zm8.639 0a.96.96 0 100-1.92.96.96 0 000 1.92zm8.64.24a1.2 1.2 0 100-2.4 1.2 1.2 0 000 2.4zm8.641.241a1.44 1.44 0 100-2.88 1.44 1.44 0 000 2.88zm8.641 0a1.44 1.44 0 100-2.88 1.44 1.44 0 000 2.88zm8.64.238a1.68 1.68 0 100-3.36 1.68 1.68 0 000 3.36zm8.64 0a1.68 1.68 0 100-3.36 1.68 1.68 0 000 3.36zm8.641.241a1.92 1.92 0 10-.001-3.841 1.92 1.92 0 00.001 3.841zm8.639 0a1.92 1.92 0 100-3.84 1.92 1.92 0 000 3.84zm8.64 0a1.92 1.92 0 100-3.84 1.92 1.92 0 000 3.84zm8.64.24a2.16 2.16 0 100-4.32 2.16 2.16 0 000 4.32zm8.64 0a2.16 2.16 0 100-4.32 2.16 2.16 0 000 4.32zm8.64 0a2.16 2.16 0 100-4.322 2.16 2.16 0 000 4.322zm8.64-.24a1.92 1.92 0 100-3.84 1.92 1.92 0 000 3.84zm8.64 0a1.92 1.92 0 100-3.841 1.92 1.92 0 000 3.841zm8.641 0a1.92 1.92 0 10-.001-3.841 1.92 1.92 0 00.001 3.841zm8.64-.241a1.68 1.68 0 100-3.36 1.68 1.68 0 000 3.36zm8.64 0a1.68 1.68 0 100-3.36 1.68 1.68 0 000 3.36zm8.64-.238a1.44 1.44 0 100-2.88 1.44 1.44 0 000 2.88zm8.64 0a1.44 1.44 0 100-2.88 1.44 1.44 0 000 2.88zm8.64-.241a1.2 1.2 0 100-2.4 1.2 1.2 0 000 2.4zm8.641-.24a.96.96 0 100-1.92.96.96 0 000 1.92zm8.64 0a.96.96 0 100-1.92.96.96 0 000 1.92zm8.64-.24a.72.72 0 100-1.44.72.72 0 000 1.44zm8.64 0a.72.72 0 100-1.44.72.72 0 000 1.44zm8.641-.24a.48.48 0 10.001-.959.48.48 0 00-.001.959zm8.639-.239a.24.24 0 100-.48.24.24 0 000 .48zm8.641 0a.24.24 0 100-.48.24.24 0 000 .48zm-276.484 8.639a.24.24 0 100-.48.24.24 0 000 .48zm8.639.24a.48.48 0 100-.96.48.48 0 000 .96zm8.64 0a.48.48 0 100-.96.48.48 0 000 .96zm8.64.241a.72.72 0 100-1.44.72.72 0 000 1.44zm8.641 0a.72.72 0 100-1.44.72.72 0 000 1.44zm8.64.24a.96.96 0 100-1.92.96.96 0 000 1.92zm8.64.239a1.2 1.2 0 100-2.4 1.2 1.2 0 000 2.4zm8.639 0a1.2 1.2 0 100-2.4 1.2 1.2 0 000 2.4zm8.641.24a1.44 1.44 0 100-2.88 1.44 1.44 0 000 2.88zm8.641 0a1.44 1.44 0 100-2.88 1.44 1.44 0 000 2.88zm8.64.24a1.68 1.68 0 100-3.36 1.68 1.68 0 000 3.36zm8.64.24a1.92 1.92 0 10-.001-3.841 1.92 1.92 0 00.001 3.841zm8.641 0a1.92 1.92 0 10-.001-3.841 1.92 1.92 0 00.001 3.841zm8.639.24a2.16 2.16 0 100-4.32 2.16 2.16 0 000 4.32zm8.64 0a2.16 2.16 0 100-4.32 2.16 2.16 0 000 4.32zm8.64 0a2.16 2.16 0 100-4.32 2.16 2.16 0 000 4.32zm8.64 0a2.16 2.16 0 100-4.32 2.16 2.16 0 000 4.32zm8.64 0a2.16 2.16 0 100-4.322 2.16 2.16 0 000 4.322zm8.641 0a2.16 2.16 0 100-4.32 2.16 2.16 0 000 4.32zm8.64 0a2.16 2.16 0 100-4.32 2.16 2.16 0 000 4.32zm8.64-.24a1.92 1.92 0 10-.001-3.841 1.92 1.92 0 00.001 3.841zm8.64 0a1.92 1.92 0 10-.001-3.841 1.92 1.92 0 00.001 3.841zm8.64-.24a1.68 1.68 0 100-3.36 1.68 1.68 0 000 3.36zm8.64-.24a1.44 1.44 0 100-2.88 1.44 1.44 0 000 2.88zm8.64 0a1.44 1.44 0 100-2.88 1.44 1.44 0 000 2.88zm8.64-.24a1.2 1.2 0 100-2.4 1.2 1.2 0 000 2.4zm8.64 0a1.2 1.2 0 100-2.4 1.2 1.2 0 000 2.4zm8.641-.239a.96.96 0 100-1.92.96.96 0 000 1.92zm8.64-.24a.72.72 0 100-1.44.72.72 0 000 1.44zm8.64 0a.72.72 0 100-1.44.72.72 0 000 1.44zm8.641-.241a.48.48 0 100-.96.48.48 0 000 .96zm8.639 0a.48.48 0 100-.96.48.48 0 000 .96zm8.641-.24a.24.24 0 100-.48.24.24 0 000 .48zm-276.484 8.64a.24.24 0 100-.48.24.24 0 000 .48zm8.639.24a.48.48 0 100-.96.48.48 0 000 .96zm8.64 0a.48.48 0 100-.96.48.48 0 000 .96zm8.64.24a.72.72 0 100-1.44.72.72 0 000 1.44zm8.641.24a.96.96 0 100-1.92.96.96 0 000 1.92zm8.64 0a.96.96 0 100-1.92.96.96 0 000 1.92zm8.64.241a1.2 1.2 0 100-2.4 1.2 1.2 0 000 2.4zm8.639 0a1.2 1.2 0 100-2.4 1.2 1.2 0 000 2.4zm8.641.24a1.44 1.44 0 100-2.88 1.44 1.44 0 000 2.88zm8.641.24a1.68 1.68 0 100-3.36 1.68 1.68 0 000 3.36zm8.64 0a1.68 1.68 0 100-3.36 1.68 1.68 0 000 3.36zm8.64.239a1.92 1.92 0 100-3.84 1.92 1.92 0 000 3.84zm8.641 0a1.92 1.92 0 100-3.84 1.92 1.92 0 000 3.84zm8.639.24a2.16 2.16 0 100-4.32 2.16 2.16 0 000 4.32zm8.64 0a2.16 2.16 0 100-4.32 2.16 2.16 0 000 4.32zm8.641.24a2.4 2.4 0 10-.001-4.801 2.4 2.4 0 00.001 4.801zm8.639 0a2.4 2.4 0 100-4.8 2.4 2.4 0 000 4.8zm8.641 0a2.4 2.4 0 10-.001-4.801 2.4 2.4 0 00.001 4.801zm8.64-.24a2.16 2.16 0 100-4.32 2.16 2.16 0 000 4.32zm8.64 0a2.16 2.16 0 100-4.32 2.16 2.16 0 000 4.32zm8.64-.24a1.92 1.92 0 100-3.84 1.92 1.92 0 000 3.84zm8.64 0a1.92 1.92 0 100-3.84 1.92 1.92 0 000 3.84zm8.64-.239a1.68 1.68 0 100-3.36 1.68 1.68 0 000 3.36zm8.641 0a1.681 1.681 0 10-.002-3.362 1.681 1.681 0 00.002 3.362zm8.639-.24a1.44 1.44 0 100-2.88 1.44 1.44 0 000 2.88zm8.64-.24a1.2 1.2 0 100-2.4 1.2 1.2 0 000 2.4zm8.64 0a1.2 1.2 0 100-2.4 1.2 1.2 0 000 2.4zm8.641-.241a.96.96 0 100-1.92.96.96 0 000 1.92zm8.64 0a.96.96 0 100-1.92.96.96 0 000 1.92zm8.64-.24a.72.72 0 100-1.44.72.72 0 000 1.44zm8.641-.24a.48.48 0 100-.96.48.48 0 000 .96zm8.639 0a.48.48 0 100-.96.48.48 0 000 .96zm8.641-.24a.24.24 0 100-.48.24.24 0 000 .48zm-276.484 8.641a.24.24 0 100-.48.24.24 0 000 .48zm8.639.239a.48.48 0 100-.96.48.48 0 000 .96zm8.64 0a.48.48 0 100-.96.48.48 0 000 .96zm8.64.24a.72.72 0 100-1.44.72.72 0 000 1.44zm8.641.24a.96.96 0 100-1.92.96.96 0 000 1.92zm8.64 0a.96.96 0 100-1.92.96.96 0 000 1.92zm8.64.241a1.2 1.2 0 100-2.401 1.2 1.2 0 000 2.401zm8.639 0a1.2 1.2 0 100-2.401 1.2 1.2 0 000 2.401zm8.641.24a1.44 1.44 0 10.001-2.88 1.44 1.44 0 000 2.88zm8.641.24a1.68 1.68 0 100-3.36 1.68 1.68 0 000 3.36zm8.64 0a1.68 1.68 0 100-3.36 1.68 1.68 0 000 3.36zm8.64.24a1.92 1.92 0 10-.001-3.841 1.92 1.92 0 00.001 3.841zm8.64.24a2.16 2.16 0 100-4.32 2.16 2.16 0 000 4.32zm8.64 0a2.16 2.16 0 100-4.32 2.16 2.16 0 000 4.32zm8.64.239a2.4 2.4 0 10.001-4.799 2.4 2.4 0 00-.001 4.799zm8.641 0a2.4 2.4 0 100-4.8 2.4 2.4 0 000 4.8zm8.639 0a2.4 2.4 0 10.001-4.799 2.4 2.4 0 00-.001 4.799zm8.641 0a2.4 2.4 0 100-4.8 2.4 2.4 0 000 4.8zm8.64 0a2.4 2.4 0 10.001-4.799 2.4 2.4 0 00-.001 4.799zm8.64-.239a2.16 2.16 0 100-4.32 2.16 2.16 0 000 4.32zm8.64 0a2.16 2.16 0 100-4.322 2.16 2.16 0 000 4.322zm8.64-.24a1.92 1.92 0 10-.001-3.841 1.92 1.92 0 00.001 3.841zm8.64-.24a1.68 1.68 0 100-3.36 1.68 1.68 0 000 3.36zm8.641 0a1.68 1.68 0 100-3.36 1.68 1.68 0 000 3.36zm8.639-.24a1.44 1.44 0 10.002-2.878 1.44 1.44 0 00-.002 2.878zm8.641 0a1.44 1.44 0 100-2.88 1.44 1.44 0 000 2.88zm8.639-.24a1.2 1.2 0 100-2.4 1.2 1.2 0 000 2.4zm8.641-.241a.96.96 0 100-1.92.96.96 0 000 1.92zm8.64 0a.96.96 0 100-1.92.96.96 0 000 1.92zm8.64-.24a.72.72 0 100-1.44.72.72 0 000 1.44zm8.641-.24a.48.48 0 100-.96.48.48 0 000 .96zm8.639 0a.48.48 0 100-.96.48.48 0 000 .96zm8.641-.239a.24.24 0 100-.48.24.24 0 000 .48zm8.64 0a.24.24 0 100-.48.24.24 0 000 .48zm-285.124 8.639a.24.24 0 100-.48.24.24 0 000 .48zm8.639.241a.48.48 0 100-.96.48.48 0 000 .96zm8.64 0a.48.48 0 100-.96.48.48 0 000 .96zm8.64.24a.72.72 0 100-1.44.72.72 0 000 1.44zm8.641.24a.96.96 0 100-1.92.96.96 0 000 1.92zm8.64 0a.96.96 0 100-1.92.96.96 0 000 1.92zm8.64.239a1.2 1.2 0 100-2.4 1.2 1.2 0 000 2.4zm8.64.24a1.44 1.44 0 100-2.88 1.44 1.44 0 000 2.88zm8.64 0a1.44 1.44 0 100-2.88 1.44 1.44 0 000 2.88zm8.641.241a1.68 1.68 0 100-3.36 1.68 1.68 0 000 3.36zm8.64 0a1.68 1.68 0 100-3.36 1.68 1.68 0 000 3.36zm8.64.241a1.92 1.92 0 10-.001-3.841 1.92 1.92 0 00.001 3.841zm8.64.238a2.16 2.16 0 100-4.32 2.16 2.16 0 000 4.32zm8.64 0a2.16 2.16 0 100-4.32 2.16 2.16 0 000 4.32zm8.64.241a2.4 2.4 0 10.001-4.799 2.4 2.4 0 00-.001 4.799zm8.641 0a2.4 2.4 0 100-4.8 2.4 2.4 0 000 4.8zm8.639 0a2.4 2.4 0 10.001-4.799 2.4 2.4 0 00-.001 4.799zm8.641 0a2.4 2.4 0 100-4.8 2.4 2.4 0 000 4.8zm8.64 0a2.4 2.4 0 10.001-4.799 2.4 2.4 0 00-.001 4.799zm8.64-.241a2.16 2.16 0 100-4.32 2.16 2.16 0 000 4.32zm8.64 0a2.16 2.16 0 100-4.322 2.16 2.16 0 000 4.322zm8.64-.238a1.92 1.92 0 10-.001-3.841 1.92 1.92 0 00.001 3.841zm8.64-.241a1.68 1.68 0 100-3.36 1.68 1.68 0 000 3.36zm8.641 0a1.68 1.68 0 100-3.36 1.68 1.68 0 000 3.36zm8.639-.241a1.44 1.44 0 100-2.88 1.44 1.44 0 000 2.88zm8.641 0a1.44 1.44 0 100-2.88 1.44 1.44 0 000 2.88zm8.639-.24a1.2 1.2 0 100-2.4 1.2 1.2 0 000 2.4zm8.641-.239a.96.96 0 100-1.92.96.96 0 000 1.92zm8.64 0a.96.96 0 100-1.92.96.96 0 000 1.92zm8.64-.24a.72.72 0 100-1.44.72.72 0 000 1.44zm8.641-.24a.48.48 0 100-.96.48.48 0 000 .96zm8.639 0a.48.48 0 100-.96.48.48 0 000 .96zm8.641-.241a.24.24 0 100-.48.24.24 0 000 .48zm8.64 0a.24.24 0 100-.48.24.24 0 000 .48zm-285.124 8.641a.24.24 0 100-.48.24.24 0 000 .48zm8.639.24a.48.48 0 100-.96.48.48 0 000 .96zm8.64 0a.48.48 0 100-.96.48.48 0 000 .96zm8.64.24a.72.72 0 100-1.44.72.72 0 000 1.44zm8.641.24a.96.96 0 100-1.92.96.96 0 000 1.92zm8.64 0a.96.96 0 100-1.92.96.96 0 000 1.92zm8.64.239a1.2 1.2 0 100-2.4 1.2 1.2 0 000 2.4zm8.64.241a1.44 1.44 0 100-2.88 1.44 1.44 0 000 2.88zm8.64 0a1.44 1.44 0 100-2.88 1.44 1.44 0 000 2.88zm8.641.239a1.68 1.68 0 100-3.36 1.68 1.68 0 000 3.36zm8.64 0a1.68 1.68 0 100-3.36 1.68 1.68 0 000 3.36zm8.64.241a1.92 1.92 0 100-3.84 1.92 1.92 0 000 3.84zm8.64.24a2.16 2.16 0 100-4.32 2.16 2.16 0 000 4.32zm8.64 0a2.16 2.16 0 100-4.32 2.16 2.16 0 000 4.32zm8.64.24a2.4 2.4 0 100-4.8 2.4 2.4 0 000 4.8zm8.641 0a2.4 2.4 0 10-.001-4.801 2.4 2.4 0 00.001 4.801zm8.639 0a2.4 2.4 0 100-4.8 2.4 2.4 0 000 4.8zm8.641 0a2.4 2.4 0 10-.001-4.801 2.4 2.4 0 00.001 4.801zm8.64 0a2.4 2.4 0 100-4.8 2.4 2.4 0 000 4.8zm8.64-.24a2.16 2.16 0 100-4.32 2.16 2.16 0 000 4.32zm8.64 0a2.16 2.16 0 100-4.322 2.16 2.16 0 000 4.322zm8.64-.24a1.92 1.92 0 100-3.84 1.92 1.92 0 000 3.84zm8.64-.241a1.68 1.68 0 100-3.36 1.68 1.68 0 000 3.36zm8.641 0a1.68 1.68 0 100-3.36 1.68 1.68 0 000 3.36zm8.639-.239a1.44 1.44 0 100-2.88 1.44 1.44 0 000 2.88zm8.641 0a1.44 1.44 0 100-2.88 1.44 1.44 0 000 2.88zm8.639-.241a1.2 1.2 0 100-2.4 1.2 1.2 0 000 2.4zm8.641-.239a.96.96 0 100-1.92.96.96 0 000 1.92zm8.64 0a.96.96 0 100-1.92.96.96 0 000 1.92zm8.64-.24a.72.72 0 100-1.44.72.72 0 000 1.44zm8.641-.24a.48.48 0 100-.96.48.48 0 000 .96zm8.639 0a.48.48 0 100-.96.48.48 0 000 .96zm8.641-.24a.24.24 0 100-.48.24.24 0 000 .48zm8.64 0a.24.24 0 100-.48.24.24 0 000 .48zm-285.124 8.64a.24.24 0 100-.48.24.24 0 000 .48zm8.639.239a.48.48 0 100-.96.48.48 0 000 .96zm8.64 0a.48.48 0 100-.96.48.48 0 000 .96zm8.64.24a.72.72 0 100-1.44.72.72 0 000 1.44zm8.641.242a.96.96 0 100-1.92.96.96 0 000 1.92zm8.64 0a.96.96 0 100-1.92.96.96 0 000 1.92zm8.64.239a1.2 1.2 0 100-2.401 1.2 1.2 0 000 2.401zm8.639 0a1.2 1.2 0 100-2.401 1.2 1.2 0 000 2.401zm8.641.239a1.44 1.44 0 10.001-2.88 1.44 1.44 0 000 2.88zm8.641.241a1.68 1.68 0 100-3.36 1.68 1.68 0 000 3.36zm8.64 0a1.68 1.68 0 100-3.36 1.68 1.68 0 000 3.36zm8.64.24a1.92 1.92 0 10-.001-3.841 1.92 1.92 0 00.001 3.841zm8.641 0a1.92 1.92 0 10-.001-3.841 1.92 1.92 0 00.001 3.841zm8.639.24a2.16 2.16 0 100-4.32 2.16 2.16 0 000 4.32zm8.64 0a2.16 2.16 0 100-4.32 2.16 2.16 0 000 4.32zm8.641.239a2.4 2.4 0 100-4.8 2.4 2.4 0 000 4.8zm8.639 0a2.4 2.4 0 10.001-4.799 2.4 2.4 0 00-.001 4.799zm8.641 0a2.4 2.4 0 100-4.8 2.4 2.4 0 000 4.8zm8.64-.239a2.16 2.16 0 100-4.32 2.16 2.16 0 000 4.32zm8.64 0a2.16 2.16 0 100-4.32 2.16 2.16 0 000 4.32zm8.64-.24a1.92 1.92 0 10-.001-3.841 1.92 1.92 0 00.001 3.841zm8.64 0a1.92 1.92 0 10-.001-3.841 1.92 1.92 0 00.001 3.841zm8.64-.24a1.68 1.68 0 100-3.36 1.68 1.68 0 000 3.36zm8.641 0a1.68 1.68 0 100-3.36 1.68 1.68 0 000 3.36zm8.639-.241a1.44 1.44 0 10.002-2.878 1.44 1.44 0 00-.002 2.878zm8.64-.239a1.2 1.2 0 100-2.4 1.2 1.2 0 000 2.4zm8.64 0a1.2 1.2 0 100-2.4 1.2 1.2 0 000 2.4zm8.641-.239a.96.96 0 100-1.92.96.96 0 000 1.92zm8.64 0a.96.96 0 100-1.92.96.96 0 000 1.92zm8.64-.242a.72.72 0 100-1.44.72.72 0 000 1.44zm8.641-.24a.48.48 0 100-.96.48.48 0 000 .96zm8.639 0a.48.48 0 100-.96.48.48 0 000 .96zm8.641-.239a.24.24 0 000-.481.24.24 0 000 .481zm-276.484 8.64a.24.24 0 100-.48.24.24 0 000 .48zm8.639.24a.48.48 0 100-.96.48.48 0 000 .96zm8.64 0a.48.48 0 100-.96.48.48 0 000 .96zm8.64.24a.72.72 0 100-1.44.72.72 0 000 1.44zm8.641 0a.72.72 0 100-1.44.72.72 0 000 1.44zm8.64.239a.96.96 0 10.001-1.919.96.96 0 000 1.919zm8.64.241a1.2 1.2 0 100-2.4 1.2 1.2 0 000 2.4zm8.639 0a1.2 1.2 0 100-2.4 1.2 1.2 0 000 2.4zm8.641.24a1.44 1.44 0 100-2.88 1.44 1.44 0 000 2.88zm8.641 0a1.44 1.44 0 100-2.88 1.44 1.44 0 000 2.88zm8.64.24a1.68 1.68 0 100-3.36 1.68 1.68 0 000 3.36zm8.64.24a1.92 1.92 0 10-.001-3.841 1.92 1.92 0 00.001 3.841zm8.641 0a1.92 1.92 0 10-.001-3.841 1.92 1.92 0 00.001 3.841zm8.639.24a2.16 2.16 0 100-4.32 2.16 2.16 0 000 4.32zm8.64 0a2.16 2.16 0 100-4.32 2.16 2.16 0 000 4.32zm8.64 0a2.16 2.16 0 100-4.32 2.16 2.16 0 000 4.32zm8.64 0a2.16 2.16 0 100-4.32 2.16 2.16 0 000 4.32zm8.64 0a2.16 2.16 0 100-4.322 2.16 2.16 0 000 4.322zm8.641 0a2.16 2.16 0 100-4.32 2.16 2.16 0 000 4.32zm8.64 0a2.16 2.16 0 100-4.32 2.16 2.16 0 000 4.32zm8.64-.24a1.92 1.92 0 10-.001-3.841 1.92 1.92 0 00.001 3.841zm8.64 0a1.92 1.92 0 10-.001-3.841 1.92 1.92 0 00.001 3.841zm8.64-.24a1.68 1.68 0 100-3.36 1.68 1.68 0 000 3.36zm8.64-.24a1.44 1.44 0 100-2.88 1.44 1.44 0 000 2.88zm8.64 0a1.44 1.44 0 100-2.88 1.44 1.44 0 000 2.88zm8.64-.24a1.2 1.2 0 100-2.4 1.2 1.2 0 000 2.4zm8.64 0a1.2 1.2 0 100-2.4 1.2 1.2 0 000 2.4zm8.641-.241a.959.959 0 100-1.92.96.96 0 000 1.92zm8.64-.239a.72.72 0 100-1.44.72.72 0 000 1.44zm8.64 0a.72.72 0 100-1.44.72.72 0 000 1.44zm8.641-.24a.48.48 0 100-.96.48.48 0 000 .96zm8.639 0a.48.48 0 100-.96.48.48 0 000 .96zm8.641-.24a.24.24 0 100-.48.24.24 0 000 .48zm-276.484 8.641a.24.24 0 100-.48.24.24 0 000 .48zm8.639 0a.24.24 0 100-.48.24.24 0 000 .48zm8.64.24a.48.48 0 100-.96.48.48 0 000 .96zm8.64.239a.72.72 0 100-1.44.72.72 0 000 1.44zm8.641 0a.72.72 0 100-1.44.72.72 0 000 1.44zm8.64.24a.96.96 0 100-1.92.96.96 0 000 1.92zm8.639 0a.96.96 0 100-1.92.96.96 0 000 1.92zm8.64.24a1.2 1.2 0 100-2.4 1.2 1.2 0 000 2.4zm8.641.24a1.44 1.44 0 100-2.88 1.44 1.44 0 000 2.88zm8.641 0a1.44 1.44 0 100-2.88 1.44 1.44 0 000 2.88zm8.64.24a1.68 1.68 0 100-3.36 1.68 1.68 0 000 3.36zm8.64 0a1.68 1.68 0 100-3.36 1.68 1.68 0 000 3.36zm8.641.24a1.92 1.92 0 100-3.84 1.92 1.92 0 000 3.84zm8.639 0a1.92 1.92 0 10.002-3.838 1.92 1.92 0 00-.002 3.838zm8.64 0a1.92 1.92 0 10.002-3.838 1.92 1.92 0 00-.002 3.838zm8.64.241a2.16 2.16 0 100-4.32 2.16 2.16 0 000 4.32zm8.64 0a2.16 2.16 0 100-4.32 2.16 2.16 0 000 4.32zm8.64 0a2.16 2.16 0 100-4.322 2.16 2.16 0 000 4.322zm8.64-.241a1.92 1.92 0 10.002-3.838 1.92 1.92 0 00-.002 3.838zm8.64 0a1.92 1.92 0 10.002-3.84 1.92 1.92 0 00-.002 3.84zm8.641 0a1.92 1.92 0 100-3.84 1.92 1.92 0 000 3.84zm8.64-.24a1.68 1.68 0 100-3.36 1.68 1.68 0 000 3.36zm8.64 0a1.68 1.68 0 100-3.36 1.68 1.68 0 000 3.36zm8.64-.24a1.44 1.44 0 100-2.88 1.44 1.44 0 000 2.88zm8.64 0a1.44 1.44 0 100-2.88 1.44 1.44 0 000 2.88zm8.64-.24a1.2 1.2 0 100-2.4 1.2 1.2 0 000 2.4zm8.641-.24a.96.96 0 100-1.92.96.96 0 000 1.92zm8.64 0a.96.96 0 100-1.92.96.96 0 000 1.92zm8.64-.24a.72.72 0 100-1.44.72.72 0 000 1.44zm8.64 0a.72.72 0 100-1.44.72.72 0 000 1.44zm8.641-.239a.48.48 0 100-.96.48.48 0 000 .96zm8.639-.24a.24.24 0 100-.48.24.24 0 000 .48zm8.641 0a.24.24 0 100-.48.24.24 0 000 .48zm-276.484 8.639a.24.24 0 100-.48.24.24 0 000 .48zm8.639 0a.24.24 0 10.001-.48.24.24 0 000 .48zm8.64.24a.48.48 0 100-.96.48.48 0 000 .96zm8.64 0a.48.48 0 100-.96.48.48 0 000 .96zm8.641.241a.72.72 0 100-1.44.72.72 0 000 1.44zm8.64.24a.96.96 0 100-1.92.96.96 0 000 1.92zm8.639 0a.96.96 0 100-1.92.96.96 0 000 1.92zm8.64.239a1.2 1.2 0 100-2.4 1.2 1.2 0 000 2.4zm8.641 0a1.2 1.2 0 100-2.4 1.2 1.2 0 000 2.4zm8.641.24a1.44 1.44 0 100-2.88 1.44 1.44 0 000 2.88zm8.64 0a1.44 1.44 0 100-2.88 1.44 1.44 0 000 2.88zm8.64.24a1.68 1.68 0 100-3.36 1.68 1.68 0 000 3.36zm8.64 0a1.68 1.68 0 100-3.36 1.68 1.68 0 000 3.36zm8.64.24a1.92 1.92 0 100-3.84 1.92 1.92 0 000 3.84zm8.64 0a1.92 1.92 0 100-3.84 1.92 1.92 0 000 3.84zm8.641 0a1.92 1.92 0 10-.001-3.841 1.92 1.92 0 00.001 3.841zm8.639 0a1.92 1.92 0 100-3.84 1.92 1.92 0 000 3.84zm8.641 0a1.92 1.92 0 100-3.84 1.92 1.92 0 000 3.84zm8.639 0a1.92 1.92 0 100-3.84 1.92 1.92 0 000 3.84zm8.64 0a1.92 1.92 0 100-3.841 1.92 1.92 0 000 3.841zm8.641-.24a1.68 1.68 0 100-3.36 1.68 1.68 0 000 3.36zm8.64 0a1.68 1.68 0 100-3.36 1.68 1.68 0 000 3.36zm8.64-.24a1.44 1.44 0 100-2.88 1.44 1.44 0 000 2.88zm8.64 0a1.44 1.44 0 100-2.88 1.44 1.44 0 000 2.88zm8.641-.24a1.2 1.2 0 100-2.4 1.2 1.2 0 000 2.4zm8.639 0a1.2 1.2 0 100-2.4 1.2 1.2 0 000 2.4zm8.641-.239a.96.96 0 100-1.92.96.96 0 000 1.92zm8.64 0a.96.96 0 100-1.92.96.96 0 000 1.92zm8.64-.24a.72.72 0 100-1.44.72.72 0 000 1.44zm8.64-.241a.48.48 0 100-.96.48.48 0 000 .96zm8.641 0a.48.48 0 100-.96.48.48 0 000 .96zm8.639-.24a.24.24 0 100-.48.24.24 0 000 .48zm8.641 0a.24.24 0 100-.48.24.24 0 000 .48zm-267.845 8.64a.24.24 0 10.001-.48.24.24 0 000 .48zm8.64.24a.48.48 0 100-.96.48.48 0 000 .96zm8.64 0a.48.48 0 100-.96.48.48 0 000 .96zm8.641.24a.72.72 0 100-1.44.72.72 0 000 1.44zm8.64 0a.72.72 0 100-1.44.72.72 0 000 1.44zm8.639.24a.96.96 0 10.002-1.919.96.96 0 00-.001 1.919zm8.64 0a.96.96 0 10.002-1.919.96.96 0 00-.001 1.919zm8.641.24a1.2 1.2 0 100-2.4 1.2 1.2 0 000 2.4zm8.641 0a1.2 1.2 0 100-2.4 1.2 1.2 0 000 2.4zm8.64.241a1.44 1.44 0 100-2.88 1.44 1.44 0 000 2.88zm8.64 0a1.44 1.44 0 100-2.88 1.44 1.44 0 000 2.88zm8.64.24a1.68 1.68 0 100-3.36 1.68 1.68 0 000 3.36zm8.64 0a1.68 1.68 0 100-3.36 1.68 1.68 0 000 3.36zm8.64 0a1.68 1.68 0 100-3.36 1.68 1.68 0 000 3.36zm8.64 0a1.68 1.68 0 100-3.36 1.68 1.68 0 000 3.36zm8.641 0a1.681 1.681 0 000-3.36 1.68 1.68 0 100 3.36zm8.64 0a1.68 1.68 0 100-3.36 1.68 1.68 0 000 3.36zm8.64 0a1.68 1.68 0 100-3.36 1.68 1.68 0 000 3.36zm8.639 0a1.68 1.68 0 100-3.359 1.68 1.68 0 000 3.359zm8.641 0a1.68 1.68 0 100-3.36 1.68 1.68 0 000 3.36zm8.64-.24a1.44 1.44 0 100-2.88 1.44 1.44 0 000 2.88zm8.64 0a1.44 1.44 0 100-2.88 1.44 1.44 0 000 2.88zm8.641-.241a1.2 1.2 0 100-2.4 1.2 1.2 0 000 2.4zm8.64 0a1.2 1.2 0 100-2.4 1.2 1.2 0 000 2.4zm8.64-.24a.96.96 0 100-1.92.96.96 0 000 1.92zm8.64 0a.96.96 0 100-1.92.96.96 0 000 1.92zm8.641-.24a.72.72 0 10-.002-1.442.72.72 0 00.002 1.442zm8.639 0a.72.72 0 100-1.44.72.72 0 000 1.44zm8.64-.24a.48.48 0 100-.96.48.48 0 000 .96zm8.641 0a.48.48 0 100-.96.48.48 0 000 .96zm8.639-.24a.24.24 0 100-.48.24.24 0 000 .48zm8.641 0a.24.24 0 100-.48.24.24 0 000 .48zM32.92 216.244a.24.24 0 100-.48.24.24 0 000 .48zm8.64 0a.24.24 0 100-.48.24.24 0 000 .48zm8.64.239a.48.48 0 10.001-.959.48.48 0 00-.001.959zm8.64 0a.48.48 0 10.002-.959.48.48 0 00-.001.959zm8.641.24a.72.72 0 100-1.44.72.72 0 000 1.44zm8.639.241a.96.96 0 100-1.92.96.96 0 000 1.92zm8.64 0a.96.96 0 100-1.92.96.96 0 000 1.92zm8.641.24a1.2 1.2 0 100-2.401 1.2 1.2 0 000 2.401zm8.641 0a1.2 1.2 0 100-2.4 1.2 1.2 0 000 2.4zm8.64 0a1.2 1.2 0 100-2.4 1.2 1.2 0 000 2.4zm8.64.239a1.44 1.44 0 100-2.88 1.44 1.44 0 000 2.88zm8.64 0a1.44 1.44 0 100-2.88 1.44 1.44 0 000 2.88zm8.64 0a1.44 1.44 0 100-2.88 1.44 1.44 0 000 2.88zm8.64.241a1.68 1.68 0 100-3.36 1.68 1.68 0 000 3.36zm8.64 0a1.68 1.68 0 100-3.36 1.68 1.68 0 000 3.36zm8.641 0a1.68 1.68 0 100-3.36 1.68 1.68 0 000 3.36zm8.64 0a1.68 1.68 0 100-3.36 1.68 1.68 0 000 3.36zm8.64 0a1.68 1.68 0 100-3.36 1.68 1.68 0 000 3.36zm8.641-.241a1.44 1.44 0 100-2.88 1.44 1.44 0 000 2.88zm8.64 0a1.44 1.44 0 100-2.88 1.44 1.44 0 000 2.88zm8.639 0a1.44 1.44 0 100-2.88 1.44 1.44 0 000 2.88zm8.641-.239a1.201 1.201 0 10-.002-2.402 1.201 1.201 0 00.002 2.402zm8.64 0a1.2 1.2 0 100-2.4 1.2 1.2 0 000 2.4zm8.64 0a1.2 1.2 0 100-2.4 1.2 1.2 0 000 2.4zm8.64-.24a.96.96 0 100-1.92.96.96 0 000 1.92zm8.64 0a.96.96 0 100-1.92.96.96 0 000 1.92zm8.641-.241a.72.72 0 100-1.44.72.72 0 000 1.44zm8.639 0a.72.72 0 100-1.44.72.72 0 000 1.44zm8.64-.24a.48.48 0 10.001-.959.48.48 0 00-.001.959zm8.641-.239a.24.24 0 100-.48.24.24 0 000 .48zm8.639 0a.24.24 0 100-.48.24.24 0 000 .48zm-259.204 8.64a.24.24 0 10.001-.48.24.24 0 000 .48zm8.64 0a.24.24 0 10.001-.48.24.24 0 000 .48zm8.64.24a.48.48 0 100-.96.48.48 0 000 .96zm8.64 0a.48.48 0 100-.96.48.48 0 000 .96zm8.641.24a.72.72 0 100-1.44.72.72 0 000 1.44zm8.641 0a.72.72 0 10-.001-1.44.72.72 0 000 1.44zm8.638.24a.96.96 0 100-1.92.96.96 0 000 1.92zm8.641 0a.96.96 0 100-1.92.96.96 0 000 1.92zm8.641.239a1.2 1.2 0 100-2.4 1.2 1.2 0 000 2.4zm8.64 0a1.2 1.2 0 100-2.4 1.2 1.2 0 000 2.4zm8.64 0a1.2 1.2 0 100-2.4 1.2 1.2 0 000 2.4zm8.64.24a1.44 1.44 0 100-2.88 1.44 1.44 0 000 2.88zm8.64 0a1.44 1.44 0 100-2.88 1.44 1.44 0 000 2.88zm8.64 0a1.44 1.44 0 100-2.88 1.44 1.44 0 000 2.88zm8.64 0a1.44 1.44 0 100-2.88 1.44 1.44 0 000 2.88zm8.64 0a1.44 1.44 0 100-2.88 1.44 1.44 0 000 2.88zm8.641 0a1.44 1.44 0 100-2.88 1.44 1.44 0 000 2.88zm8.64 0a1.44 1.44 0 100-2.88 1.44 1.44 0 000 2.88zm8.641 0a1.44 1.44 0 100-2.88 1.44 1.44 0 000 2.88zm8.64 0a1.44 1.44 0 100-2.88 1.44 1.44 0 000 2.88zm8.639-.24a1.2 1.2 0 100-2.4 1.2 1.2 0 000 2.4zm8.641 0a1.2 1.2 0 100-2.4 1.2 1.2 0 000 2.4zm8.64 0a1.2 1.2 0 100-2.4 1.2 1.2 0 000 2.4zm8.64-.239a.96.96 0 100-1.92.96.96 0 000 1.92zm8.64 0a.96.96 0 100-1.92.96.96 0 000 1.92zm8.64-.24a.72.72 0 10-.002-1.442.72.72 0 00.002 1.442zm8.641 0a.72.72 0 10-.002-1.442.72.72 0 00.002 1.442zm8.64-.24a.48.48 0 100-.96.48.48 0 000 .96zm8.639 0a.48.48 0 100-.96.48.48 0 000 .96zm8.641-.24a.24.24 0 100-.48.24.24 0 000 .48zm8.639 0a.24.24 0 100-.48.24.24 0 000 .48zm-250.564 8.64a.24.24 0 100-.48.24.24 0 000 .48zm8.64 0a.24.24 0 100-.48.24.24 0 000 .48zm8.64.24a.48.48 0 100-.96.48.48 0 000 .96zm8.64 0a.48.48 0 100-.96.48.48 0 000 .96zm8.642.239a.72.72 0 100-1.44.72.72 0 000 1.44zm8.639 0a.72.72 0 100-1.44.72.72 0 000 1.44zm8.64.241a.96.96 0 100-1.92.96.96 0 000 1.92zm8.64 0a.96.96 0 100-1.92.96.96 0 000 1.92zm8.641 0a.96.96 0 100-1.92.96.96 0 000 1.92zm8.64.24a1.2 1.2 0 100-2.4 1.2 1.2 0 000 2.4zm8.64 0a1.2 1.2 0 100-2.4 1.2 1.2 0 000 2.4zm8.64 0a1.2 1.2 0 100-2.4 1.2 1.2 0 000 2.4zm8.64 0a1.2 1.2 0 100-2.4 1.2 1.2 0 000 2.4zm8.64.24a1.44 1.44 0 100-2.88 1.44 1.44 0 000 2.88zm8.64 0a1.44 1.44 0 100-2.88 1.44 1.44 0 000 2.88zm8.641 0a1.44 1.44 0 100-2.88 1.44 1.44 0 000 2.88zm8.64-.24a1.2 1.2 0 100-2.4 1.2 1.2 0 000 2.4zm8.64 0a1.2 1.2 0 100-2.4 1.2 1.2 0 000 2.4zm8.64 0a1.2 1.2 0 100-2.4 1.2 1.2 0 000 2.4zm8.64 0a1.2 1.2 0 100-2.4 1.2 1.2 0 000 2.4zm8.641-.24a.96.96 0 100-1.92.96.96 0 000 1.92zm8.64 0a.96.96 0 100-1.92.96.96 0 000 1.92zm8.64 0a.96.96 0 100-1.92.96.96 0 000 1.92zm8.639-.241a.72.72 0 100-1.44.72.72 0 000 1.44zm8.641 0a.72.72 0 100-1.44.72.72 0 000 1.44zm8.64-.239a.48.48 0 100-.96.48.48 0 000 .96zm8.641 0a.48.48 0 100-.96.48.48 0 000 .96zm8.64-.24a.24.24 0 100-.48.24.24 0 000 .48zm8.64 0a.24.24 0 100-.48.24.24 0 000 .48zM50.2 242.164a.24.24 0 100-.48.24.24 0 000 .48zm8.64 0a.24.24 0 100-.48.24.24 0 000 .48zm8.64.24a.48.48 0 100-.96.48.48 0 000 .96zm8.641 0a.48.48 0 100-.96.48.48 0 000 .96zm8.64.24a.72.72 0 100-1.44.72.72 0 000 1.44zm8.64 0a.72.72 0 100-1.44.72.72 0 000 1.44zm8.64.24a.96.96 0 100-1.92.96.96 0 000 1.92zm8.641 0a.96.96 0 100-1.92.96.96 0 000 1.92zm8.64 0a.96.96 0 100-1.92.96.96 0 000 1.92zm8.64 0a.96.96 0 100-1.92.96.96 0 000 1.92zm8.64.241a1.2 1.2 0 100-2.4 1.2 1.2 0 000 2.4zm8.64 0a1.201 1.201 0 10-.002-2.402 1.201 1.201 0 00.002 2.402zm8.64 0a1.2 1.2 0 100-2.4 1.2 1.2 0 000 2.4zm8.641 0a1.201 1.201 0 10-.002-2.402 1.201 1.201 0 00.002 2.402zm8.639 0a1.2 1.2 0 100-2.4 1.2 1.2 0 000 2.4zm8.641 0a1.201 1.201 0 10-.002-2.402 1.201 1.201 0 00.002 2.402zm8.64 0a1.2 1.2 0 100-2.4 1.2 1.2 0 000 2.4zm8.64-.241a.96.96 0 100-1.92.96.96 0 000 1.92zm8.64 0a.96.96 0 100-1.92.96.96 0 000 1.92zm8.641 0a.96.96 0 100-1.92.96.96 0 000 1.92zm8.64 0a.96.96 0 100-1.92.96.96 0 000 1.92zm8.64-.24a.72.72 0 100-1.44.72.72 0 000 1.44zm8.639 0a.72.72 0 100-1.44.72.72 0 000 1.44zm8.641-.24a.48.48 0 100-.96.48.48 0 000 .96zm8.64 0a.48.48 0 100-.96.48.48 0 000 .96zm8.64-.24a.24.24 0 100-.48.24.24 0 000 .48zm8.641 0a.24.24 0 100-.48.24.24 0 000 .48zm-216.005 8.64a.24.24 0 10.001-.48.24.24 0 000 .48zm8.64 0a.24.24 0 10.001-.48.24.24 0 000 .48zm8.641.24a.48.48 0 100-.96.48.48 0 000 .96zm8.641 0a.48.48 0 100-.96.48.48 0 000 .96zm8.639.24a.72.72 0 100-1.44.72.72 0 000 1.44zm8.641 0a.72.72 0 10-.002-1.442.72.72 0 00.002 1.442zm8.639 0a.72.72 0 100-1.44.72.72 0 000 1.44zm8.641.24a.96.96 0 100-1.92.96.96 0 000 1.92zm8.64 0a.96.96 0 100-1.92.96.96 0 000 1.92zm8.641 0a.96.96 0 100-1.92.96.96 0 000 1.92zm8.639 0a.96.96 0 100-1.92.96.96 0 000 1.92zm8.641 0a.96.96 0 100-1.92.96.96 0 000 1.92zm8.64 0a.96.96 0 100-1.92.96.96 0 000 1.92zm8.64 0a.96.96 0 100-1.92.96.96 0 000 1.92zm8.64 0a.96.96 0 100-1.92.96.96 0 000 1.92zm8.64 0a.96.96 0 100-1.92.96.96 0 000 1.92zm8.64 0a.96.96 0 100-1.92.96.96 0 000 1.92zm8.64 0a.96.96 0 100-1.92.96.96 0 000 1.92zm8.64-.24a.72.72 0 100-1.44.72.72 0 000 1.44zm8.641 0a.72.72 0 100-1.44.72.72 0 000 1.44zm8.64 0a.72.72 0 100-1.44.72.72 0 000 1.44zm8.64-.24a.48.48 0 100-.96.48.48 0 000 .96zm8.64 0a.48.48 0 100-.96.48.48 0 000 .96zm8.641-.24a.24.24 0 100-.48.24.24 0 000 .48zm8.639 0a.24.24 0 100-.48.24.24 0 000 .48zm8.641 0a.24.24 0 100-.48.24.24 0 000 .48zM58.84 259.445a.24.24 0 100-.48.24.24 0 000 .48zm8.64 0a.24.24 0 100-.48.24.24 0 000 .48zm8.641 0a.24.24 0 100-.48.24.24 0 000 .48zm8.641.24a.48.48 0 100-.96.48.48 0 000 .96zm8.639 0a.48.48 0 100-.96.48.48 0 000 .96zm8.641 0a.48.48 0 100-.96.48.48 0 000 .96zm8.639.239a.72.72 0 100-1.44.72.72 0 000 1.44zm8.64 0a.72.72 0 100-1.44.72.72 0 000 1.44zm8.641 0a.72.72 0 100-1.44.72.72 0 000 1.44zm8.64 0a.72.72 0 100-1.44.72.72 0 000 1.44zm8.64.24a.96.96 0 100-1.92.96.96 0 000 1.92zm8.641 0a.96.96 0 100-1.92.96.96 0 000 1.92zm8.64 0a.96.96 0 100-1.92.96.96 0 000 1.92zm8.64 0a.96.96 0 100-1.92.96.96 0 000 1.92zm8.64 0a.96.96 0 100-1.92.96.96 0 000 1.92zm8.64-.24a.72.72 0 100-1.44.72.72 0 000 1.44zm8.64 0a.72.72 0 100-1.44.72.72 0 000 1.44zm8.64 0a.72.72 0 100-1.44.72.72 0 000 1.44zm8.64 0a.72.72 0 100-1.44.72.72 0 000 1.44zm8.641 0a.72.72 0 100-1.44.72.72 0 000 1.44zm8.64-.239a.48.48 0 100-.96.48.48 0 000 .96zm8.64 0a.48.48 0 100-.96.48.48 0 000 .96zm8.64-.24a.24.24 0 100-.48.24.24 0 000 .48zm8.641 0a.24.24 0 100-.48.24.24 0 000 .48zm8.639 0a.24.24 0 100-.48.24.24 0 000 .48zM67.48 268.084a.24.24 0 10.001-.48.24.24 0 000 .48zm8.641 0a.24.24 0 100-.48.24.24 0 000 .48zm8.64 0a.24.24 0 100-.48.24.24 0 000 .48zm8.64.241a.48.48 0 100-.96.48.48 0 000 .96zm8.641 0a.48.48 0 100-.96.48.48 0 000 .96zm8.639 0a.48.48 0 10.001-.959.48.48 0 00-.001.959zm8.641 0a.48.48 0 100-.96.48.48 0 000 .96zm8.64.24a.72.72 0 100-1.44.72.72 0 000 1.44zm8.64 0a.72.72 0 100-1.44.72.72 0 000 1.44zm8.641 0a.72.72 0 100-1.44.72.72 0 000 1.44zm8.639 0a.72.72 0 100-1.44.72.72 0 000 1.44zm8.641 0a.72.72 0 100-1.44.72.72 0 000 1.44zm8.64 0a.72.72 0 100-1.44.72.72 0 000 1.44zm8.64 0a.72.72 0 100-1.44.72.72 0 000 1.44zm8.64 0a.72.72 0 100-1.44.72.72 0 000 1.44zm8.64 0a.72.72 0 100-1.44.72.72 0 000 1.44zm8.64-.24a.48.48 0 100-.96.48.48 0 000 .96zm8.641 0a.48.48 0 100-.96.48.48 0 000 .96zm8.639 0a.48.48 0 10.001-.959.48.48 0 00-.001.959zm8.641 0a.48.48 0 100-.96.48.48 0 000 .96zm8.641-.241a.24.24 0 100-.48.24.24 0 000 .48zm8.639 0a.24.24 0 100-.48.24.24 0 000 .48zm8.641 0a.24.24 0 100-.48.24.24 0 000 .48zm-172.804 8.641a.24.24 0 100-.48.24.24 0 000 .48zm8.64 0a.24.24 0 100-.48.24.24 0 000 .48zm8.64 0a.24.24 0 100-.48.24.24 0 000 .48zm8.64.24a.48.48 0 10.001-.959.48.48 0 00-.001.959zm8.641 0a.48.48 0 100-.96.48.48 0 000 .96zm8.64 0a.48.48 0 100-.96.48.48 0 000 .96zm8.64 0a.48.48 0 100-.96.48.48 0 000 .96zm8.64 0a.48.48 0 100-.96.48.48 0 000 .96zm8.641 0a.48.48 0 100-.96.48.48 0 000 .96zm8.64 0a.48.48 0 100-.96.48.48 0 000 .96zm8.64 0a.48.48 0 100-.96.48.48 0 000 .96zm8.64 0a.48.48 0 100-.96.48.48 0 000 .96zm8.64 0a.48.48 0 100-.96.48.48 0 000 .96zm8.639 0a.48.48 0 10.001-.959.48.48 0 00-.001.959zm8.641 0a.48.48 0 100-.96.48.48 0 000 .96zm8.641 0a.48.48 0 100-.96.48.48 0 000 .96zm8.639-.24a.24.24 0 100-.48.24.24 0 000 .48zm8.641 0a.24.24 0 100-.48.24.24 0 000 .48zm8.641 0a.24.24 0 100-.48.24.24 0 000 .48zm-146.884 8.64a.24.24 0 100-.48.24.24 0 000 .48zm8.64 0a.24.24 0 100-.48.24.24 0 000 .48zm8.64 0a.24.24 0 100-.48.24.24 0 000 .48zm8.641 0a.24.24 0 100-.48.24.24 0 000 .48zm8.641 0a.24.24 0 100-.48.24.24 0 000 .48zm8.639.24a.48.48 0 100-.96.48.48 0 000 .96zm8.64 0a.48.48 0 100-.96.48.48 0 000 .96zm8.641 0a.48.48 0 100-.96.48.48 0 000 .96zm8.64 0a.48.48 0 100-.96.48.48 0 000 .96zm8.64 0a.48.48 0 100-.96.48.48 0 000 .96zm8.64 0a.48.48 0 100-.96.48.48 0 000 .96zm8.64 0a.48.48 0 100-.96.48.48 0 000 .96zm8.64-.24a.24.24 0 10.001-.48.24.24 0 00-.001.48zm8.64 0a.24.24 0 100-.48.24.24 0 000 .48zm8.64 0a.24.24 0 100-.48.24.24 0 000 .48zm8.64 0a.24.24 0 100-.48.24.24 0 000 .48zm8.641 0a.24.24 0 100-.48.24.24 0 000 .48zm-112.322 8.639a.24.24 0 100-.48.24.24 0 000 .48zm8.641 0a.24.24 0 100-.48.24.24 0 000 .48zm8.639 0a.24.24 0 100-.48.24.24 0 000 .48zm8.64 0a.24.24 0 100-.48.24.24 0 000 .48zm8.64 0a.24.24 0 100-.48.24.24 0 000 .48zm8.641 0a.24.24 0 100-.48.24.24 0 000 .48zm8.64 0a.24.24 0 100-.48.24.24 0 000 .48zm8.639 0a.24.24 0 100-.48.24.24 0 000 .48zm8.641 0a.24.24 0 100-.48.24.24 0 000 .48zm8.64 0a.24.24 0 10.001-.48.24.24 0 00-.001.48zm8.64 0a.24.24 0 100-.48.24.24 0 000 .48zm8.64 0a.24.24 0 100-.48.24.24 0 000 .48zm-60.481 8.641a.24.24 0 100-.48.24.24 0 000 .48zm8.641 0a.24.24 0 100-.48.24.24 0 000 .48zm8.64 0a.24.24 0 100-.48.24.24 0 000 .48zm10.191 71.644a.388.388 0 10-.001-.775.388.388 0 00.001.775zm13.95 0a.388.388 0 100-.777.388.388 0 000 .777zm13.948 0a.388.388 0 100-.777.388.388 0 000 .777zm13.951 0a.388.388 0 10-.001-.775.388.388 0 00.001.775zm13.95 0a.388.388 0 100-.777.388.388 0 000 .777zm13.951 0a.388.388 0 10-.001-.775.388.388 0 00.001.775zm13.95 0a.388.388 0 100-.777.388.388 0 000 .777zm13.95 0a.388.388 0 10-.001-.775.388.388 0 00.001.775zm13.951 0a.388.388 0 10-.001-.775.388.388 0 00.001.775zm13.95 0a.388.388 0 100-.777.388.388 0 000 .777zm13.949 0a.388.388 0 10-.001-.775.388.388 0 00.001.775zm-167.402 13.949a.388.388 0 10-.001-.775.388.388 0 00.001.775zm13.95 0a.388.388 0 100-.777.388.388 0 000 .777zm13.952 0a.388.388 0 10-.001-.775.388.388 0 00.001.775zm13.95 0a.388.388 0 100-.777.388.388 0 000 .777zm13.949.388a.775.775 0 100-1.55.775.775 0 000 1.55zm13.95 0a.774.774 0 10.001-1.549.774.774 0 00-.001 1.549zm13.951 0a.775.775 0 100-1.55.775.775 0 000 1.55zm13.95 0a.775.775 0 10.002-1.55.775.775 0 00-.002 1.55zm13.95 0a.775.775 0 100-1.55.775.775 0 000 1.55zm13.95 0a.775.775 0 100-1.55.775.775 0 000 1.55zm13.95 0a.775.775 0 100-1.55.775.775 0 000 1.55zm13.951-.388a.388.388 0 100-.777.388.388 0 000 .777zm13.949 0a.388.388 0 10-.001-.775.388.388 0 00.001.775zm13.951 0a.388.388 0 10-.001-.775.388.388 0 00.001.775zm13.95 0a.388.388 0 10-.001-.775.388.388 0 00.001.775zm13.951 0a.388.388 0 100-.777.388.388 0 000 .777zm-237.154 13.951a.388.388 0 10.001-.775.388.388 0 00-.001.775zm13.949 0a.388.388 0 10.001-.775.388.388 0 00-.001.775zm13.951 0a.387.387 0 100-.773.387.387 0 000 .773zm13.95.386a.775.775 0 100-1.55.775.775 0 000 1.55zm13.951 0a.775.775 0 100-1.55.775.775 0 000 1.55zm13.95 0a.775.775 0 100-1.55.775.775 0 000 1.55zm13.95 0a.775.775 0 100-1.55.775.775 0 000 1.55zm13.95 0a.774.774 0 10.001-1.549.774.774 0 00-.001 1.549zm13.951 0a.775.775 0 100-1.55.775.775 0 000 1.55zm13.95 0a.775.775 0 10.002-1.55.775.775 0 00-.002 1.55zm13.95 0a.775.775 0 100-1.55.775.775 0 000 1.55zm13.95 0a.775.775 0 100-1.55.775.775 0 000 1.55zm13.95 0a.775.775 0 100-1.55.775.775 0 000 1.55zm13.95 0a.775.775 0 100-1.55.775.775 0 000 1.55zm13.951 0a.775.775 0 100-1.55.775.775 0 000 1.55zm13.95 0a.775.775 0 100-1.55.775.775 0 000 1.55zm13.95-.386a.387.387 0 100-.773.387.387 0 000 .773zm13.951 0a.388.388 0 10.001-.775.388.388 0 00-.001.775zm13.951 0a.387.387 0 100-.773.387.387 0 000 .773zm-265.055 13.949a.387.387 0 100-.773.387.387 0 000 .773zm13.95 0a.388.388 0 10.001-.775.388.388 0 00-.001.775zm13.95.389a.775.775 0 100-1.55.775.775 0 000 1.55zm13.95 0a.775.775 0 10.002-1.55.775.775 0 00-.002 1.55zm13.95 0a.775.775 0 100-1.55.775.775 0 000 1.55zm13.951 0a.775.775 0 100-1.55.775.775 0 000 1.55zm13.95.386a1.163 1.163 0 10-.001-2.325 1.163 1.163 0 00.001 2.325zm13.95 0a1.163 1.163 0 100-2.327 1.163 1.163 0 000 2.327zm13.951 0a1.163 1.163 0 100-2.327 1.163 1.163 0 000 2.327zm13.949 0a1.163 1.163 0 100-2.326 1.163 1.163 0 000 2.326zm13.951 0a1.163 1.163 0 10-.001-2.325 1.163 1.163 0 00.001 2.325zm13.95 0a1.163 1.163 0 100-2.327 1.163 1.163 0 000 2.327zm13.951 0a1.163 1.163 0 10-.001-2.325 1.163 1.163 0 00.001 2.325zm13.949 0a1.163 1.163 0 100-2.326 1.163 1.163 0 000 2.326zm13.95 0a1.163 1.163 0 100-2.327 1.163 1.163 0 000 2.327zm13.951-.386a.775.775 0 100-1.55.775.775 0 000 1.55zm13.95 0a.775.775 0 100-1.55.775.775 0 000 1.55zm13.95 0a.775.775 0 100-1.55.775.775 0 000 1.55zm13.951 0a.775.775 0 100-1.55.775.775 0 000 1.55zm13.951-.389a.387.387 0 100-.773.387.387 0 000 .773zm13.95 0a.387.387 0 100-.773.387.387 0 000 .773zm-292.956 13.95a.387.387 0 10.001-.774.387.387 0 000 .774zm13.951 0a.387.387 0 100-.773.387.387 0 000 .773zm13.951.388a.775.775 0 100-1.55.775.775 0 000 1.55zm13.949 0a.775.775 0 100-1.55.775.775 0 000 1.55zm13.95 0a.775.775 0 10.002-1.55.775.775 0 00-.002 1.55zm13.95.388a1.162 1.162 0 100-2.323 1.162 1.162 0 000 2.323zm13.95 0a1.163 1.163 0 100-2.325 1.163 1.163 0 000 2.325zm13.951 0a1.162 1.162 0 100-2.323 1.162 1.162 0 000 2.323zm13.95 0a1.163 1.163 0 100-2.325 1.163 1.163 0 000 2.325zm13.951.386a1.55 1.55 0 100-3.1 1.55 1.55 0 000 3.1zm13.95 0a1.55 1.55 0 100-3.1 1.55 1.55 0 000 3.1zm13.951 0a1.55 1.55 0 100-3.1 1.55 1.55 0 000 3.1zm13.949 0a1.55 1.55 0 100-3.1 1.55 1.55 0 000 3.1zm13.949 0a1.55 1.55 0 100-3.1 1.55 1.55 0 000 3.1zm13.951-.386a1.162 1.162 0 10.002-2.324 1.162 1.162 0 00-.002 2.324zm13.95 0a1.163 1.163 0 100-2.325 1.163 1.163 0 000 2.325zm13.951 0a1.162 1.162 0 100-2.323 1.162 1.162 0 000 2.323zm13.95 0a1.163 1.163 0 100-2.325 1.163 1.163 0 000 2.325zm13.95-.388a.775.775 0 100-1.55.775.775 0 000 1.55zm13.951 0a.775.775 0 100-1.55.775.775 0 000 1.55zm13.95 0a.775.775 0 100-1.55.775.775 0 000 1.55zm13.951-.388a.387.387 0 100-.773.387.387 0 000 .773zm13.95 0a.387.387 0 100-.773.387.387 0 000 .773zm13.949 0a.387.387 0 100-.773.387.387 0 000 .773zM83.7 444.04a.388.388 0 100-.776.388.388 0 000 .776zm13.951 0a.388.388 0 100-.776.388.388 0 000 .776zm13.951.387a.775.775 0 100-1.55.775.775 0 000 1.55zm13.951 0a.775.775 0 100-1.55.775.775 0 000 1.55zm13.949.386a1.163 1.163 0 100-2.325 1.163 1.163 0 000 2.325zm13.95 0a1.163 1.163 0 100-2.325 1.163 1.163 0 000 2.325zm13.95 0a1.162 1.162 0 100-2.323 1.162 1.162 0 000 2.323zm13.951.389a1.55 1.55 0 100-3.1 1.55 1.55 0 000 3.1zm13.95 0a1.55 1.55 0 100-3.1 1.55 1.55 0 000 3.1zm13.951 0a1.55 1.55 0 100-3.1 1.55 1.55 0 000 3.1zm13.95 0a1.55 1.55 0 100-3.1 1.55 1.55 0 000 3.1zm13.95 0a1.55 1.55 0 100-3.1 1.55 1.55 0 000 3.1zm13.951 0a1.55 1.55 0 100-3.1 1.55 1.55 0 000 3.1zm13.949 0a1.55 1.55 0 100-3.1 1.55 1.55 0 000 3.1zm13.949 0a1.55 1.55 0 100-3.1 1.55 1.55 0 000 3.1zm13.951 0a1.55 1.55 0 100-3.1 1.55 1.55 0 000 3.1zm13.95 0a1.55 1.55 0 100-3.1 1.55 1.55 0 000 3.1zm13.951 0a1.55 1.55 0 100-3.1 1.55 1.55 0 000 3.1zm13.95-.389a1.163 1.163 0 100-2.325 1.163 1.163 0 000 2.325zm13.951 0a1.162 1.162 0 100-2.323 1.162 1.162 0 000 2.323zm13.95 0a1.163 1.163 0 100-2.325 1.163 1.163 0 000 2.325zm13.95-.386a.775.775 0 100-1.55.775.775 0 000 1.55zm13.95 0a.775.775 0 100-1.55.775.775 0 000 1.55zm13.951-.387a.388.388 0 10-.001-.775.388.388 0 00.001.775zm13.949 0a.388.388 0 10-.001-.775.388.388 0 00.001.775zm13.951 0a.388.388 0 10-.001-.775.388.388 0 00.001.775zM69.75 457.99a.388.388 0 100-.776.388.388 0 000 .776zm13.95 0a.388.388 0 100-.776.388.388 0 000 .776zm13.951.387a.775.775 0 100-1.55.775.775 0 000 1.55zm13.951 0a.775.775 0 100-1.55.775.775 0 000 1.55zm13.95.387a1.162 1.162 0 100-2.323 1.162 1.162 0 000 2.323zm13.95 0a1.163 1.163 0 100-2.325 1.163 1.163 0 000 2.325zm13.95 0a1.163 1.163 0 100-2.325 1.163 1.163 0 000 2.325zm13.95.388a1.55 1.55 0 100-3.1 1.55 1.55 0 000 3.1zm13.951 0a1.55 1.55 0 100-3.1 1.55 1.55 0 000 3.1zm13.95 0a1.55 1.55 0 100-3.1 1.55 1.55 0 000 3.1zm13.95.387a1.938 1.938 0 100-3.875 1.938 1.938 0 000 3.875zm13.95 0a1.937 1.937 0 100-3.873 1.937 1.937 0 000 3.873zm13.95 0a1.938 1.938 0 100-3.875 1.938 1.938 0 000 3.875zm13.951 0a1.937 1.937 0 100-3.873 1.937 1.937 0 000 3.873zm13.95 0a1.937 1.937 0 100-3.873 1.937 1.937 0 000 3.873zm13.95 0a1.938 1.938 0 100-3.875 1.938 1.938 0 000 3.875zm13.951 0a1.937 1.937 0 100-3.873 1.937 1.937 0 000 3.873zm13.949-.387a1.55 1.55 0 100-3.1 1.55 1.55 0 000 3.1zm13.951 0a1.55 1.55 0 100-3.1 1.55 1.55 0 000 3.1zm13.951 0a1.55 1.55 0 100-3.1 1.55 1.55 0 000 3.1zm13.951 0a1.55 1.55 0 100-3.1 1.55 1.55 0 000 3.1zm13.949-.388a1.163 1.163 0 100-2.325 1.163 1.163 0 000 2.325zm13.949 0a1.163 1.163 0 100-2.325 1.163 1.163 0 000 2.325zm13.951-.387a.775.775 0 100-1.55.775.775 0 000 1.55zm13.951 0a.774.774 0 100-1.548.774.774 0 000 1.548zm13.949-.387a.388.388 0 10-.001-.775.388.388 0 00.001.775zm13.951 0a.388.388 0 10-.001-.775.388.388 0 00.001.775zM55.8 471.939a.387.387 0 10.001-.774.387.387 0 000 .774zm13.95 0a.387.387 0 10.001-.774.387.387 0 000 .774zm13.95.388a.775.775 0 100-1.55.775.775 0 000 1.55zm13.951 0a.775.775 0 100-1.55.775.775 0 000 1.55zm13.952.388a1.163 1.163 0 10-.001-2.325 1.163 1.163 0 00.001 2.325zm13.949 0a1.163 1.163 0 10-.001-2.325 1.163 1.163 0 00.001 2.325zm13.95.387a1.55 1.55 0 100-3.1 1.55 1.55 0 000 3.1zm13.95 0a1.55 1.55 0 100-3.1 1.55 1.55 0 000 3.1zm13.95 0a1.55 1.55 0 100-3.1 1.55 1.55 0 000 3.1zm13.951.387a1.938 1.938 0 100-3.875 1.938 1.938 0 000 3.875zm13.95 0a1.937 1.937 0 100-3.873 1.937 1.937 0 000 3.873zm13.95 0a1.938 1.938 0 100-3.875 1.938 1.938 0 000 3.875zm13.95 0a1.937 1.937 0 100-3.873 1.937 1.937 0 000 3.873zm13.95 0a1.938 1.938 0 100-3.875 1.938 1.938 0 000 3.875zm13.95.389a2.325 2.325 0 100-4.65 2.325 2.325 0 000 4.65zm13.951 0a2.325 2.325 0 100-4.65 2.325 2.325 0 000 4.65zm13.95-.389a1.938 1.938 0 100-3.875 1.938 1.938 0 000 3.875zm13.951 0a1.937 1.937 0 100-3.873 1.937 1.937 0 000 3.873zm13.95 0a1.938 1.938 0 100-3.875 1.938 1.938 0 000 3.875zm13.951 0a1.937 1.937 0 100-3.873 1.937 1.937 0 000 3.873zm13.95-.387a1.55 1.55 0 100-3.1 1.55 1.55 0 000 3.1zm13.951 0a1.55 1.55 0 100-3.1 1.55 1.55 0 000 3.1zm13.949 0a1.55 1.55 0 100-3.1 1.55 1.55 0 000 3.1zm13.949-.387a1.163 1.163 0 100-2.327 1.163 1.163 0 000 2.327zm13.951 0a1.163 1.163 0 10-.001-2.325 1.163 1.163 0 00.001 2.325zm13.951-.388a.774.774 0 100-1.548.774.774 0 000 1.548zm13.95 0a.775.775 0 100-1.55.775.775 0 000 1.55zm13.95-.388a.387.387 0 100-.773.387.387 0 000 .773zm13.95 0a.388.388 0 10.001-.775.388.388 0 00-.001.775zM55.8 485.89a.387.387 0 10.001-.774.387.387 0 000 .774zm13.95.388a.775.775 0 100-1.55.775.775 0 000 1.55zm13.95 0a.775.775 0 100-1.55.775.775 0 000 1.55zm13.952.387a1.163 1.163 0 10-.001-2.326 1.163 1.163 0 000 2.326zm13.951 0a1.163 1.163 0 10-.001-2.325 1.163 1.163 0 00.001 2.325zm13.948.388a1.55 1.55 0 10.001-3.1 1.55 1.55 0 00-.001 3.1zm13.951 0a1.55 1.55 0 100-3.1 1.55 1.55 0 000 3.1zm13.95 0a1.55 1.55 0 100-3.1 1.55 1.55 0 000 3.1zm13.951.387a1.938 1.938 0 10-.001-3.875 1.938 1.938 0 00.001 3.875zm13.95 0a1.938 1.938 0 100-3.877 1.938 1.938 0 000 3.877zm13.95.387a2.325 2.325 0 100-4.65 2.325 2.325 0 000 4.65zm13.95 0a2.325 2.325 0 100-4.65 2.325 2.325 0 000 4.65zm13.95 0a2.324 2.324 0 10.001-4.649 2.324 2.324 0 00-.001 4.649zm13.951 0a2.325 2.325 0 100-4.65 2.325 2.325 0 000 4.65zm13.949 0a2.325 2.325 0 100-4.65 2.325 2.325 0 000 4.65zm13.951 0a2.325 2.325 0 100-4.65 2.325 2.325 0 000 4.65zm13.951 0a2.325 2.325 0 100-4.65 2.325 2.325 0 000 4.65zm13.95 0a2.325 2.325 0 100-4.65 2.325 2.325 0 000 4.65zm13.951 0a2.325 2.325 0 100-4.65 2.325 2.325 0 000 4.65zm13.95-.387a1.938 1.938 0 10-.001-3.875 1.938 1.938 0 00.001 3.875zm13.949 0a1.938 1.938 0 100-3.876 1.938 1.938 0 000 3.876zm13.951 0a1.938 1.938 0 10-.001-3.875 1.938 1.938 0 00.001 3.875zm13.95-.387a1.55 1.55 0 100-3.1 1.55 1.55 0 000 3.1zm13.95 0a1.55 1.55 0 100-3.1 1.55 1.55 0 000 3.1zm13.95-.388a1.163 1.163 0 10-.001-2.325 1.163 1.163 0 00.001 2.325zm13.951 0a1.163 1.163 0 100-2.327 1.163 1.163 0 000 2.327zm13.95-.387a.775.775 0 100-1.55.775.775 0 000 1.55zm13.949 0a.775.775 0 100-1.55.775.775 0 000 1.55zm13.951-.388a.388.388 0 10.001-.775.388.388 0 00-.001.775zm13.95 0a.387.387 0 100-.773.387.387 0 000 .773zM41.85 499.84a.387.387 0 10.002-.774.387.387 0 00-.001.774zm13.95 0a.387.387 0 10.001-.774.387.387 0 000 .774zm13.95.388a.775.775 0 100-1.55.775.775 0 000 1.55zm13.95 0a.775.775 0 100-1.55.775.775 0 000 1.55zm13.952.388a1.162 1.162 0 100-2.324 1.162 1.162 0 000 2.324zm13.951 0a1.162 1.162 0 100-2.323 1.162 1.162 0 000 2.323zm13.948.386a1.55 1.55 0 10.001-3.1 1.55 1.55 0 00-.001 3.1zm13.951 0a1.55 1.55 0 100-3.1 1.55 1.55 0 000 3.1zm13.951.389a1.938 1.938 0 10-.001-3.875 1.938 1.938 0 00.001 3.875zm13.95 0a1.938 1.938 0 10-.001-3.875 1.938 1.938 0 00.001 3.875zm13.95.386a2.325 2.325 0 100-4.65 2.325 2.325 0 000 4.65zm13.95 0a2.325 2.325 0 100-4.65 2.325 2.325 0 000 4.65zm13.95 0a2.325 2.325 0 100-4.65 2.325 2.325 0 000 4.65zm13.95.388a2.712 2.712 0 100-5.423 2.712 2.712 0 000 5.423zm13.95 0a2.713 2.713 0 100-5.425 2.713 2.713 0 000 5.425zm13.951 0a2.712 2.712 0 100-5.423 2.712 2.712 0 000 5.423zm13.95 0a2.713 2.713 0 100-5.425 2.713 2.713 0 000 5.425zm13.951 0a2.712 2.712 0 100-5.423 2.712 2.712 0 000 5.423zm13.95-.388a2.325 2.325 0 100-4.65 2.325 2.325 0 000 4.65zm13.951 0a2.325 2.325 0 100-4.65 2.325 2.325 0 000 4.65zm13.949 0a2.325 2.325 0 100-4.65 2.325 2.325 0 000 4.65zm13.95-.386a1.938 1.938 0 100-3.876 1.938 1.938 0 000 3.876zm13.951 0a1.938 1.938 0 10-.001-3.875 1.938 1.938 0 00.001 3.875zm13.95 0a1.938 1.938 0 100-3.877 1.938 1.938 0 000 3.877zm13.95-.389a1.55 1.55 0 100-3.1 1.55 1.55 0 000 3.1zm13.95 0a1.55 1.55 0 100-3.1 1.55 1.55 0 000 3.1zm13.951-.386a1.163 1.163 0 100-2.325 1.163 1.163 0 000 2.325zm13.95-.388a.775.775 0 100-1.55.775.775 0 000 1.55zm13.949 0a.775.775 0 100-1.55.775.775 0 000 1.55zm13.951-.388a.388.388 0 10.001-.775.388.388 0 00-.001.775zm13.95 0a.387.387 0 100-.773.387.387 0 000 .773zM41.85 513.79a.388.388 0 100-.776.388.388 0 000 .776zm13.95.388a.775.775 0 100-1.55.775.775 0 000 1.55zm13.95 0a.775.775 0 100-1.55.775.775 0 000 1.55zm13.951.387a1.162 1.162 0 10.001-2.324 1.162 1.162 0 000 2.324zm13.951 0a1.162 1.162 0 100-2.324 1.162 1.162 0 000 2.324zm13.949.389a1.55 1.55 0 100-3.1 1.55 1.55 0 000 3.1zm13.95 0a1.55 1.55 0 10.001-3.1 1.55 1.55 0 00-.001 3.1zm13.95.386a1.938 1.938 0 100-3.877 1.938 1.938 0 000 3.877zm13.952 0a1.938 1.938 0 10-.001-3.875 1.938 1.938 0 00.001 3.875zm13.95.388a2.325 2.325 0 100-4.65 2.325 2.325 0 000 4.65zm13.95 0a2.325 2.325 0 100-4.65 2.325 2.325 0 000 4.65zm13.949.388a2.713 2.713 0 100-5.427 2.713 2.713 0 000 5.427zm13.951 0a2.713 2.713 0 100-5.427 2.713 2.713 0 000 5.427zm13.95 0a2.713 2.713 0 10-.001-5.425 2.713 2.713 0 00.001 5.425zm13.95 0a2.713 2.713 0 100-5.427 2.713 2.713 0 000 5.427zm13.951 0a2.713 2.713 0 10-.001-5.425 2.713 2.713 0 00.001 5.425zm13.95 0a2.713 2.713 0 100-5.427 2.713 2.713 0 000 5.427zm13.951 0a2.713 2.713 0 10-.001-5.425 2.713 2.713 0 00.001 5.425zm13.949 0a2.713 2.713 0 10-.001-5.425 2.713 2.713 0 00.001 5.425zm13.95 0a2.713 2.713 0 100-5.426 2.713 2.713 0 000 5.426zm13.951-.388a2.325 2.325 0 100-4.65 2.325 2.325 0 000 4.65zm13.95 0a2.325 2.325 0 100-4.65 2.325 2.325 0 000 4.65zm13.951-.388a1.938 1.938 0 10-.001-3.875 1.938 1.938 0 00.001 3.875zm13.95 0a1.938 1.938 0 100-3.877 1.938 1.938 0 000 3.877zm13.95-.386a1.55 1.55 0 100-3.1 1.55 1.55 0 000 3.1zm13.95 0a1.55 1.55 0 100-3.1 1.55 1.55 0 000 3.1zm13.951-.389a1.163 1.163 0 100-2.325 1.163 1.163 0 000 2.325zm13.949 0a1.162 1.162 0 100-2.323 1.162 1.162 0 000 2.323zm13.95-.387a.775.775 0 100-1.55.775.775 0 000 1.55zm13.951 0a.775.775 0 100-1.55.775.775 0 000 1.55zm13.95-.388a.388.388 0 10-.001-.775.388.388 0 00.001.775zM27.902 527.74a.388.388 0 10-.001-.776.388.388 0 000 .776zm13.948 0a.388.388 0 100-.776.388.388 0 000 .776zm13.95.388a.775.775 0 100-1.55.775.775 0 000 1.55zm13.95 0a.775.775 0 100-1.55.775.775 0 000 1.55zm13.951.387a1.162 1.162 0 10.001-2.324 1.162 1.162 0 000 2.324zm13.951.388a1.55 1.55 0 100-3.1 1.55 1.55 0 000 3.1zm13.949 0a1.55 1.55 0 100-3.1 1.55 1.55 0 000 3.1zm13.95.388a1.937 1.937 0 100-3.873 1.937 1.937 0 000 3.873zm13.95 0a1.938 1.938 0 100-3.875 1.938 1.938 0 000 3.875zm13.951.386a2.324 2.324 0 10.001-4.649 2.324 2.324 0 00-.001 4.649zm13.951 0a2.325 2.325 0 100-4.65 2.325 2.325 0 000 4.65zm13.951.389a2.713 2.713 0 10-.001-5.425 2.713 2.713 0 00.001 5.425zm13.948 0a2.713 2.713 0 100-5.427 2.713 2.713 0 000 5.427zm13.951.387a3.1 3.1 0 100-6.2 3.1 3.1 0 000 6.2zm13.951 0a3.1 3.1 0 100-6.2 3.1 3.1 0 000 6.2zm13.95 0a3.1 3.1 0 100-6.2 3.1 3.1 0 000 6.2zm13.95 0a3.1 3.1 0 100-6.2 3.1 3.1 0 000 6.2zm13.951 0a3.1 3.1 0 100-6.2 3.1 3.1 0 000 6.2zm13.948 0a3.1 3.1 0 10.001-6.199 3.1 3.1 0 00-.001 6.199zm13.951 0a3.1 3.1 0 100-6.2 3.1 3.1 0 000 6.2zm13.95-.387a2.713 2.713 0 100-5.426 2.713 2.713 0 000 5.426zm13.951 0a2.713 2.713 0 10-.001-5.425 2.713 2.713 0 00.001 5.425zm13.95-.389a2.325 2.325 0 100-4.65 2.325 2.325 0 000 4.65zm13.949 0a2.325 2.325 0 100-4.65 2.325 2.325 0 000 4.65zm13.952-.386a1.938 1.938 0 100-3.875 1.938 1.938 0 000 3.875zm13.948 0a1.938 1.938 0 100-3.875 1.938 1.938 0 000 3.875zm13.952-.388a1.55 1.55 0 100-3.1 1.55 1.55 0 000 3.1zm13.95 0a1.55 1.55 0 100-3.1 1.55 1.55 0 000 3.1zm13.95-.388a1.162 1.162 0 100-2.323 1.162 1.162 0 000 2.323zm13.95-.387a.775.775 0 100-1.55.775.775 0 000 1.55zm13.951 0a.775.775 0 100-1.55.775.775 0 000 1.55zm13.95-.388a.388.388 0 10-.001-.775.388.388 0 00.001.775zm13.95 0a.388.388 0 100-.777.388.388 0 000 .777zM27.902 541.691a.387.387 0 100-.774.387.387 0 000 .774zm13.948 0a.387.387 0 10.002-.774.387.387 0 00-.001.774zm13.95.386a.775.775 0 100-1.55.775.775 0 000 1.55zm13.951.389a1.163 1.163 0 100-2.326 1.163 1.163 0 000 2.326zm13.95 0a1.163 1.163 0 100-2.326 1.163 1.163 0 000 2.326zm13.951.388a1.55 1.55 0 100-3.1 1.55 1.55 0 000 3.1zm13.949 0a1.55 1.55 0 100-3.1 1.55 1.55 0 000 3.1zm13.95.386a1.937 1.937 0 100-3.873 1.937 1.937 0 000 3.873zm13.951.389a2.325 2.325 0 100-4.65 2.325 2.325 0 000 4.65zm13.95 0a2.324 2.324 0 10.001-4.649 2.324 2.324 0 00-.001 4.649zm13.951.386a2.713 2.713 0 100-5.427 2.713 2.713 0 000 5.427zm13.951 0a2.713 2.713 0 10-.001-5.425 2.713 2.713 0 00.001 5.425zm13.95.388a3.1 3.1 0 100-6.2 3.1 3.1 0 000 6.2zm13.949 0a3.1 3.1 0 100-6.2 3.1 3.1 0 000 6.2zm13.951 0a3.1 3.1 0 100-6.2 3.1 3.1 0 000 6.2zm13.949.388a3.488 3.488 0 100-6.976 3.488 3.488 0 000 6.976zm13.95 0a3.488 3.488 0 100-6.977 3.488 3.488 0 000 6.977zm13.95 0a3.488 3.488 0 100-6.976 3.488 3.488 0 000 6.976zm13.95-.388a3.1 3.1 0 10.001-6.199 3.1 3.1 0 00-.001 6.199zm13.951 0a3.1 3.1 0 100-6.2 3.1 3.1 0 000 6.2zm13.95 0a3.1 3.1 0 100-6.2 3.1 3.1 0 000 6.2zm13.951-.388a2.713 2.713 0 10-.001-5.425 2.713 2.713 0 00.001 5.425zm13.95 0a2.713 2.713 0 100-5.427 2.713 2.713 0 000 5.427zm13.949-.386a2.325 2.325 0 100-4.65 2.325 2.325 0 000 4.65zm13.951 0a2.325 2.325 0 100-4.65 2.325 2.325 0 000 4.65zm13.949-.389a1.938 1.938 0 100-3.875 1.938 1.938 0 000 3.875zm13.952-.386a1.55 1.55 0 100-3.1 1.55 1.55 0 000 3.1zm13.95 0a1.55 1.55 0 100-3.1 1.55 1.55 0 000 3.1zm13.95-.388a1.163 1.163 0 10-.001-2.325 1.163 1.163 0 00.001 2.325zm13.95 0a1.163 1.163 0 100-2.327 1.163 1.163 0 000 2.327zm13.951-.389a.775.775 0 100-1.55.775.775 0 000 1.55zm13.95-.386a.387.387 0 100-.773.387.387 0 000 .773zm13.95 0a.388.388 0 10.001-.775.388.388 0 00-.001.775zM27.902 555.64a.387.387 0 100-.774.387.387 0 000 .774zm13.948.389a.775.775 0 100-1.55.775.775 0 000 1.55zm13.95 0a.775.775 0 100-1.55.775.775 0 000 1.55zm13.951.387a1.163 1.163 0 100-2.326 1.163 1.163 0 000 2.326zm13.95 0a1.163 1.163 0 100-2.326 1.163 1.163 0 000 2.326zm13.951.387a1.55 1.55 0 100-3.1 1.55 1.55 0 000 3.1zm13.95.388a1.937 1.937 0 100-3.873 1.937 1.937 0 000 3.873zm13.949 0a1.937 1.937 0 100-3.873 1.937 1.937 0 000 3.873zm13.951.387a2.325 2.325 0 100-4.65 2.325 2.325 0 000 4.65zm13.95 0a2.324 2.324 0 10.001-4.649 2.324 2.324 0 00-.001 4.649zm13.951.388a2.713 2.713 0 100-5.425 2.713 2.713 0 000 5.425zm13.95.387a3.1 3.1 0 100-6.2 3.1 3.1 0 000 6.2zm13.951 0a3.1 3.1 0 100-6.2 3.1 3.1 0 000 6.2zm13.948.388a3.488 3.488 0 100-6.977 3.488 3.488 0 000 6.977zm13.951 0a3.488 3.488 0 100-6.977 3.488 3.488 0 000 6.977zm13.95 0a3.488 3.488 0 100-6.976 3.488 3.488 0 000 6.976zm13.95 0a3.488 3.488 0 100-6.977 3.488 3.488 0 000 6.977zm13.95 0a3.488 3.488 0 100-6.976 3.488 3.488 0 000 6.976zm13.951 0a3.488 3.488 0 100-6.977 3.488 3.488 0 000 6.977zm13.95 0a3.488 3.488 0 100-6.976 3.488 3.488 0 000 6.976zm13.95-.388a3.1 3.1 0 100-6.2 3.1 3.1 0 000 6.2zm13.951 0a3.1 3.1 0 100-6.2 3.1 3.1 0 000 6.2zm13.95-.387a2.713 2.713 0 100-5.425 2.713 2.713 0 000 5.425zm13.949-.388a2.325 2.325 0 100-4.65 2.325 2.325 0 000 4.65zm13.951 0a2.325 2.325 0 100-4.65 2.325 2.325 0 000 4.65zm13.949-.387a1.938 1.938 0 100-3.875 1.938 1.938 0 000 3.875zm13.951 0a1.938 1.938 0 100-3.875 1.938 1.938 0 000 3.875zm13.951-.388a1.55 1.55 0 100-3.1 1.55 1.55 0 000 3.1zm13.95-.387a1.163 1.163 0 10-.001-2.325 1.163 1.163 0 00.001 2.325zm13.95 0a1.163 1.163 0 100-2.327 1.163 1.163 0 000 2.327zm13.951-.387a.775.775 0 100-1.55.775.775 0 000 1.55zm13.95 0a.775.775 0 100-1.55.775.775 0 000 1.55zm13.95-.389a.388.388 0 10.001-.775.388.388 0 00-.001.775zM27.902 569.591a.387.387 0 100-.774.387.387 0 000 .774zm13.948.387a.775.775 0 100-1.55.775.775 0 000 1.55zm13.95 0a.775.775 0 100-1.55.775.775 0 000 1.55zm13.951.388a1.162 1.162 0 100-2.324 1.162 1.162 0 000 2.324zm13.951.387a1.55 1.55 0 100-3.1 1.55 1.55 0 000 3.1zm13.95 0a1.55 1.55 0 100-3.1 1.55 1.55 0 000 3.1zm13.95.388a1.938 1.938 0 10-.001-3.875 1.938 1.938 0 00.001 3.875zm13.949 0a1.938 1.938 0 10-.001-3.875 1.938 1.938 0 00.001 3.875zm13.951.388a2.325 2.325 0 100-4.65 2.325 2.325 0 000 4.65zm13.951.387a2.712 2.712 0 100-5.423 2.712 2.712 0 000 5.423zm13.95 0a2.713 2.713 0 100-5.425 2.713 2.713 0 000 5.425zm13.95.388a3.1 3.1 0 100-6.2 3.1 3.1 0 000 6.2zm13.951 0a3.1 3.1 0 100-6.2 3.1 3.1 0 000 6.2zm13.948.388a3.488 3.488 0 100-6.977 3.488 3.488 0 000 6.977zm13.951 0a3.488 3.488 0 100-6.977 3.488 3.488 0 000 6.977zm13.951.386a3.875 3.875 0 100-7.75 3.875 3.875 0 000 7.75zm13.95 0a3.875 3.875 0 100-7.75 3.875 3.875 0 000 7.75zm13.95 0a3.875 3.875 0 100-7.75 3.875 3.875 0 000 7.75zm13.95-.386a3.488 3.488 0 100-6.977 3.488 3.488 0 000 6.977zm13.95 0a3.488 3.488 0 100-6.976 3.488 3.488 0 000 6.976zm13.95-.388a3.1 3.1 0 100-6.2 3.1 3.1 0 000 6.2zm13.951 0a3.1 3.1 0 100-6.2 3.1 3.1 0 000 6.2zm13.95-.388a2.713 2.713 0 100-5.425 2.713 2.713 0 000 5.425zm13.95 0a2.712 2.712 0 10.002-5.424 2.712 2.712 0 00-.002 5.424zm13.95-.387a2.325 2.325 0 100-4.65 2.325 2.325 0 000 4.65zm13.949-.388a1.938 1.938 0 100-3.877 1.938 1.938 0 000 3.877zm13.951 0a1.938 1.938 0 100-3.877 1.938 1.938 0 000 3.877zm13.951-.388a1.55 1.55 0 100-3.1 1.55 1.55 0 000 3.1zm13.95 0a1.55 1.55 0 100-3.1 1.55 1.55 0 000 3.1zm13.95-.387a1.163 1.163 0 100-2.325 1.163 1.163 0 000 2.325zm13.951-.388a.775.775 0 100-1.55.775.775 0 000 1.55zm13.95 0a.775.775 0 100-1.55.775.775 0 000 1.55zm13.95-.387a.388.388 0 10.001-.775.388.388 0 00-.001.775zM27.902 583.542a.388.388 0 10-.001-.776.388.388 0 000 .776zm13.948.386a.775.775 0 100-1.55.775.775 0 000 1.55zm13.95 0a.775.775 0 100-1.55.775.775 0 000 1.55zm13.951.387a1.162 1.162 0 100-2.324 1.162 1.162 0 000 2.324zm13.951.389a1.55 1.55 0 100-3.1 1.55 1.55 0 000 3.1zm13.95 0a1.55 1.55 0 100-3.1 1.55 1.55 0 000 3.1zm13.95.388a1.938 1.938 0 10-.001-3.875 1.938 1.938 0 00.001 3.875zm13.949 0a1.938 1.938 0 10-.001-3.875 1.938 1.938 0 00.001 3.875zm13.951.387a2.325 2.325 0 100-4.65 2.325 2.325 0 000 4.65zm13.951.388a2.713 2.713 0 10-.001-5.425 2.713 2.713 0 00.001 5.425zm13.95 0a2.713 2.713 0 100-5.427 2.713 2.713 0 000 5.427zm13.95.387a3.1 3.1 0 100-6.2 3.1 3.1 0 000 6.2zm13.95.387a3.487 3.487 0 100-6.975 3.487 3.487 0 100 6.975zm13.949 0a3.488 3.488 0 100-6.975 3.488 3.488 0 000 6.975zm13.952.388a3.875 3.875 0 100-7.75 3.875 3.875 0 000 7.75zm13.95 0a3.875 3.875 0 100-7.75 3.875 3.875 0 000 7.75zm13.95 0a3.875 3.875 0 100-7.75 3.875 3.875 0 000 7.75zm13.95 0a3.875 3.875 0 100-7.75 3.875 3.875 0 000 7.75zm13.951 0a3.875 3.875 0 100-7.75 3.875 3.875 0 000 7.75zm13.949-.388a3.487 3.487 0 10.002-6.974 3.487 3.487 0 00-.002 6.974zm13.951 0a3.488 3.488 0 100-6.975 3.488 3.488 0 000 6.975zm13.95-.387a3.1 3.1 0 100-6.2 3.1 3.1 0 000 6.2zm13.95-.387a2.713 2.713 0 100-5.427 2.713 2.713 0 000 5.427zm13.95 0a2.713 2.713 0 100-5.426 2.713 2.713 0 000 5.426zm13.95-.388a2.325 2.325 0 100-4.65 2.325 2.325 0 000 4.65zm13.951 0a2.325 2.325 0 100-4.65 2.325 2.325 0 000 4.65zm13.949-.387a1.938 1.938 0 100-3.877 1.938 1.938 0 000 3.877zm13.951-.388a1.55 1.55 0 100-3.1 1.55 1.55 0 000 3.1zm13.95 0a1.55 1.55 0 100-3.1 1.55 1.55 0 000 3.1zm13.95-.389a1.163 1.163 0 100-2.325 1.163 1.163 0 000 2.325zm13.951-.387a.775.775 0 100-1.55.775.775 0 000 1.55zm13.95 0a.775.775 0 100-1.55.775.775 0 000 1.55zm13.95-.386a.388.388 0 100-.777.388.388 0 000 .777zm13.951 0a.388.388 0 10-.001-.775.388.388 0 00.001.775zM27.902 597.491a.388.388 0 10-.001-.776.388.388 0 000 .776zm13.948.388a.775.775 0 100-1.55.775.775 0 000 1.55zm13.95 0a.775.775 0 100-1.55.775.775 0 000 1.55zm13.951.387a1.162 1.162 0 100-2.324 1.162 1.162 0 000 2.324zm13.951.387a1.55 1.55 0 100-3.1 1.55 1.55 0 000 3.1zm13.95 0a1.55 1.55 0 100-3.1 1.55 1.55 0 000 3.1zm13.95.388a1.937 1.937 0 100-3.873 1.937 1.937 0 000 3.873zm13.95.387a2.325 2.325 0 100-4.65 2.325 2.325 0 000 4.65zm13.95 0a2.325 2.325 0 100-4.65 2.325 2.325 0 000 4.65zm13.951.389a2.713 2.713 0 10-.001-5.425 2.713 2.713 0 00.001 5.425zm13.95 0a2.713 2.713 0 100-5.427 2.713 2.713 0 000 5.427zm13.95.387a3.1 3.1 0 100-6.2 3.1 3.1 0 000 6.2zm13.95.387a3.487 3.487 0 100-6.974 3.487 3.487 0 000 6.974zm13.949 0a3.488 3.488 0 100-6.975 3.488 3.488 0 000 6.975zm13.952.388a3.875 3.875 0 100-7.75 3.875 3.875 0 000 7.75zm13.95 0a3.875 3.875 0 100-7.75 3.875 3.875 0 000 7.75zm13.95 0a3.875 3.875 0 100-7.75 3.875 3.875 0 000 7.75zm13.95 0a3.875 3.875 0 100-7.75 3.875 3.875 0 000 7.75zm13.951 0a3.875 3.875 0 100-7.75 3.875 3.875 0 000 7.75zm13.949-.388a3.487 3.487 0 10.002-6.974 3.487 3.487 0 00-.002 6.974zm13.951 0a3.488 3.488 0 100-6.975 3.488 3.488 0 000 6.975zm13.95-.387a3.1 3.1 0 100-6.2 3.1 3.1 0 000 6.2zm13.95-.387a2.713 2.713 0 100-5.427 2.713 2.713 0 000 5.427zm13.95 0a2.713 2.713 0 100-5.426 2.713 2.713 0 000 5.426zm13.95-.389a2.325 2.325 0 100-4.65 2.325 2.325 0 000 4.65zm13.951 0a2.325 2.325 0 100-4.65 2.325 2.325 0 000 4.65zm13.949-.387a1.938 1.938 0 100-3.875 1.938 1.938 0 000 3.875zm13.951-.388a1.55 1.55 0 100-3.1 1.55 1.55 0 000 3.1zm13.95 0a1.55 1.55 0 100-3.1 1.55 1.55 0 000 3.1zm13.95-.387a1.163 1.163 0 100-2.325 1.163 1.163 0 000 2.325zm13.951-.387a.775.775 0 100-1.55.775.775 0 000 1.55zm13.95 0a.775.775 0 100-1.55.775.775 0 000 1.55zm13.95-.388a.388.388 0 100-.777.388.388 0 000 .777zm13.951 0a.388.388 0 10-.001-.775.388.388 0 00.001.775zm-460.356 13.95a.387.387 0 100-.774.387.387 0 000 .774zm13.948.388a.775.775 0 100-1.55.775.775 0 000 1.55zm13.95 0a.775.775 0 100-1.55.775.775 0 000 1.55zm13.951.388a1.163 1.163 0 100-2.326 1.163 1.163 0 000 2.326zm13.951.387a1.55 1.55 0 100-3.1 1.55 1.55 0 000 3.1zm13.95 0a1.55 1.55 0 100-3.1 1.55 1.55 0 000 3.1zm13.95.386a1.937 1.937 0 100-3.873 1.937 1.937 0 000 3.873zm13.95.389a2.325 2.325 0 100-4.65 2.325 2.325 0 000 4.65zm13.95 0a2.325 2.325 0 100-4.65 2.325 2.325 0 000 4.65zm13.951.388a2.713 2.713 0 10-.001-5.425 2.713 2.713 0 00.001 5.425zm13.95 0a2.713 2.713 0 100-5.427 2.713 2.713 0 000 5.427zm13.95.388a3.1 3.1 0 100-6.2 3.1 3.1 0 000 6.2zm13.95.386a3.487 3.487 0 100-6.974 3.487 3.487 0 000 6.974zm13.949 0a3.488 3.488 0 100-6.975 3.488 3.488 0 000 6.975zm13.952.389a3.875 3.875 0 100-7.75 3.875 3.875 0 000 7.75zm13.95 0a3.875 3.875 0 100-7.75 3.875 3.875 0 000 7.75zm13.95 0a3.875 3.875 0 100-7.75 3.875 3.875 0 000 7.75zm13.95 0a3.875 3.875 0 100-7.75 3.875 3.875 0 000 7.75zm13.951 0a3.875 3.875 0 100-7.75 3.875 3.875 0 000 7.75zm13.949-.389a3.487 3.487 0 10.002-6.974 3.487 3.487 0 00-.002 6.974zm13.951 0a3.488 3.488 0 100-6.975 3.488 3.488 0 000 6.975zm13.95-.386a3.1 3.1 0 100-6.2 3.1 3.1 0 000 6.2zm13.95-.388a2.713 2.713 0 100-5.427 2.713 2.713 0 000 5.427zm13.95 0a2.713 2.713 0 100-5.426 2.713 2.713 0 000 5.426zm13.95-.388a2.325 2.325 0 100-4.65 2.325 2.325 0 000 4.65zm13.951 0a2.325 2.325 0 100-4.65 2.325 2.325 0 000 4.65zm13.949-.389a1.938 1.938 0 100-3.875 1.938 1.938 0 000 3.875zm13.951-.386a1.55 1.55 0 100-3.1 1.55 1.55 0 000 3.1zm13.95 0a1.55 1.55 0 100-3.1 1.55 1.55 0 000 3.1zm13.95-.387a1.163 1.163 0 100-2.327 1.163 1.163 0 000 2.327zm13.951-.388a.775.775 0 100-1.55.775.775 0 000 1.55zm13.95 0a.775.775 0 100-1.55.775.775 0 000 1.55zm13.95-.388a.388.388 0 10.001-.775.388.388 0 00-.001.775zm13.951 0a.387.387 0 100-.773.387.387 0 000 .773zM27.902 625.392a.387.387 0 100-.774.387.387 0 000 .774zm13.948.387a.775.775 0 100-1.55.775.775 0 000 1.55zm13.95 0a.775.775 0 100-1.55.775.775 0 000 1.55zm13.951.388a1.163 1.163 0 100-2.326 1.163 1.163 0 000 2.326zm13.951.388a1.55 1.55 0 100-3.1 1.55 1.55 0 000 3.1zm13.95 0a1.55 1.55 0 100-3.1 1.55 1.55 0 000 3.1zm13.95.387a1.938 1.938 0 10-.001-3.875 1.938 1.938 0 00.001 3.875zm13.949 0a1.938 1.938 0 10-.001-3.875 1.938 1.938 0 00.001 3.875zm13.951.387a2.325 2.325 0 100-4.65 2.325 2.325 0 000 4.65zm13.951.389a2.712 2.712 0 100-5.424 2.712 2.712 0 000 5.424zm13.95 0a2.713 2.713 0 100-5.426 2.713 2.713 0 000 5.426zm13.95.386a3.1 3.1 0 100-6.2 3.1 3.1 0 000 6.2zm13.951 0a3.1 3.1 0 100-6.2 3.1 3.1 0 000 6.2zm13.948.388a3.488 3.488 0 100-6.977 3.488 3.488 0 000 6.977zm13.951 0a3.488 3.488 0 100-6.977 3.488 3.488 0 000 6.977zm13.951.387a3.875 3.875 0 100-7.75 3.875 3.875 0 000 7.75zm13.95 0a3.875 3.875 0 100-7.75 3.875 3.875 0 000 7.75zm13.95 0a3.875 3.875 0 100-7.75 3.875 3.875 0 000 7.75zm13.95-.387a3.488 3.488 0 100-6.977 3.488 3.488 0 000 6.977zm13.95 0a3.488 3.488 0 100-6.976 3.488 3.488 0 000 6.976zm13.95-.388a3.1 3.1 0 100-6.2 3.1 3.1 0 000 6.2zm13.951 0a3.1 3.1 0 100-6.2 3.1 3.1 0 000 6.2zm13.95-.386a2.713 2.713 0 100-5.426 2.713 2.713 0 000 5.426zm13.95 0a2.712 2.712 0 10.002-5.424 2.712 2.712 0 00-.002 5.424zm13.95-.389a2.325 2.325 0 100-4.65 2.325 2.325 0 000 4.65zm13.949-.387a1.938 1.938 0 100-3.877 1.938 1.938 0 000 3.877zm13.951 0a1.938 1.938 0 100-3.877 1.938 1.938 0 000 3.877zm13.951-.387a1.55 1.55 0 100-3.1 1.55 1.55 0 000 3.1zm13.95 0a1.55 1.55 0 100-3.1 1.55 1.55 0 000 3.1zm13.95-.388a1.163 1.163 0 100-2.327 1.163 1.163 0 000 2.327zm13.951-.388a.775.775 0 100-1.55.775.775 0 000 1.55zm13.95 0a.775.775 0 100-1.55.775.775 0 000 1.55zm13.95-.387a.388.388 0 10.001-.775.388.388 0 00-.001.775zM27.902 639.341a.387.387 0 100-.774.387.387 0 000 .774zm13.948.389a.775.775 0 100-1.55.775.775 0 000 1.55zm13.95 0a.775.775 0 100-1.55.775.775 0 000 1.55zm13.951.387a1.162 1.162 0 100-2.325 1.162 1.162 0 000 2.325zm13.95 0a1.162 1.162 0 100-2.325 1.162 1.162 0 000 2.325zm13.951.387a1.55 1.55 0 100-3.1 1.55 1.55 0 000 3.1zm13.95.389a1.938 1.938 0 10-.001-3.875 1.938 1.938 0 00.001 3.875zm13.949 0a1.938 1.938 0 10-.001-3.875 1.938 1.938 0 00.001 3.875zm13.951.386a2.325 2.325 0 100-4.65 2.325 2.325 0 000 4.65zm13.95 0a2.324 2.324 0 10.001-4.649 2.324 2.324 0 00-.001 4.649zm13.951.388a2.713 2.713 0 100-5.425 2.713 2.713 0 000 5.425zm13.95.387a3.1 3.1 0 100-6.2 3.1 3.1 0 000 6.2zm13.951 0a3.1 3.1 0 100-6.2 3.1 3.1 0 000 6.2zm13.948.388a3.488 3.488 0 100-6.976 3.488 3.488 0 000 6.976zm13.951 0a3.488 3.488 0 100-6.976 3.488 3.488 0 000 6.976zm13.95 0a3.487 3.487 0 10.002-6.974 3.487 3.487 0 00-.002 6.974zm13.95 0a3.488 3.488 0 100-6.976 3.488 3.488 0 000 6.976zm13.95 0a3.487 3.487 0 10.002-6.974 3.487 3.487 0 00-.002 6.974zm13.951 0a3.488 3.488 0 100-6.976 3.488 3.488 0 000 6.976zm13.95 0a3.487 3.487 0 10.002-6.974 3.487 3.487 0 00-.002 6.974zm13.95-.388a3.1 3.1 0 100-6.2 3.1 3.1 0 000 6.2zm13.951 0a3.1 3.1 0 100-6.2 3.1 3.1 0 000 6.2zm13.95-.387a2.713 2.713 0 100-5.425 2.713 2.713 0 000 5.425zm13.949-.388a2.325 2.325 0 100-4.65 2.325 2.325 0 000 4.65zm13.951 0a2.325 2.325 0 100-4.65 2.325 2.325 0 000 4.65zm13.949-.386a1.938 1.938 0 100-3.877 1.938 1.938 0 000 3.877zm13.951 0a1.938 1.938 0 100-3.877 1.938 1.938 0 000 3.877zm13.951-.389a1.55 1.55 0 100-3.1 1.55 1.55 0 000 3.1zm13.95-.387a1.162 1.162 0 100-2.324 1.162 1.162 0 000 2.324zm13.95 0a1.163 1.163 0 100-2.326 1.163 1.163 0 000 2.326zm13.951-.387a.775.775 0 100-1.55.775.775 0 000 1.55zm13.95 0a.775.775 0 100-1.55.775.775 0 000 1.55zm13.95-.389a.388.388 0 10.001-.775.388.388 0 00-.001.775zM27.902 653.293a.388.388 0 10-.001-.776.388.388 0 000 .776zm13.948 0a.388.388 0 100-.776.388.388 0 000 .776zm13.95.386a.775.775 0 100-1.55.775.775 0 000 1.55zm13.951.388a1.162 1.162 0 100-2.324 1.162 1.162 0 000 2.324zm13.95 0a1.162 1.162 0 10.001-2.324 1.162 1.162 0 000 2.324zm13.951.388a1.55 1.55 0 100-3.1 1.55 1.55 0 000 3.1zm13.949 0a1.55 1.55 0 100-3.1 1.55 1.55 0 000 3.1zm13.95.387a1.938 1.938 0 10-.001-3.875 1.938 1.938 0 00.001 3.875zm13.951.388a2.325 2.325 0 100-4.65 2.325 2.325 0 000 4.65zm13.95 0a2.324 2.324 0 10.001-4.649 2.324 2.324 0 00-.001 4.649zm13.951.387a2.713 2.713 0 100-5.425 2.713 2.713 0 000 5.425zm13.951 0a2.712 2.712 0 100-5.423 2.712 2.712 0 000 5.423zm13.95.388a3.1 3.1 0 100-6.2 3.1 3.1 0 000 6.2zm13.949 0a3.1 3.1 0 100-6.2 3.1 3.1 0 000 6.2zm13.951 0a3.1 3.1 0 100-6.2 3.1 3.1 0 000 6.2zm13.949.388a3.487 3.487 0 10.002-6.974 3.487 3.487 0 00-.002 6.974zm13.95 0a3.488 3.488 0 100-6.976 3.488 3.488 0 000 6.976zm13.95 0a3.487 3.487 0 10.002-6.974 3.487 3.487 0 00-.002 6.974zm13.95-.388a3.1 3.1 0 10.001-6.199 3.1 3.1 0 00-.001 6.199zm13.951 0a3.1 3.1 0 100-6.2 3.1 3.1 0 000 6.2zm13.95 0a3.1 3.1 0 100-6.2 3.1 3.1 0 000 6.2zm13.951-.388a2.712 2.712 0 100-5.423 2.712 2.712 0 000 5.423zm13.95 0a2.713 2.713 0 100-5.425 2.713 2.713 0 000 5.425zm13.949-.387a2.325 2.325 0 100-4.65 2.325 2.325 0 000 4.65zm13.951 0a2.325 2.325 0 100-4.65 2.325 2.325 0 000 4.65zm13.949-.388a1.938 1.938 0 100-3.877 1.938 1.938 0 000 3.877zm13.952-.387a1.55 1.55 0 100-3.1 1.55 1.55 0 000 3.1zm13.95 0a1.55 1.55 0 100-3.1 1.55 1.55 0 000 3.1zm13.95-.388a1.162 1.162 0 100-2.323 1.162 1.162 0 000 2.323zm13.95 0a1.163 1.163 0 100-2.325 1.163 1.163 0 000 2.325zm13.951-.388a.775.775 0 100-1.55.775.775 0 000 1.55zm13.95-.386a.388.388 0 10-.001-.775.388.388 0 00.001.775zm13.95 0a.388.388 0 100-.777.388.388 0 000 .777zm-446.405 13.95a.388.388 0 10-.001-.776.388.388 0 000 .776zm13.948 0a.388.388 0 100-.776.388.388 0 000 .776zm13.95.387a.775.775 0 100-1.55.775.775 0 000 1.55zm13.95 0a.775.775 0 100-1.55.775.775 0 000 1.55zm13.951.387a1.162 1.162 0 10.001-2.324 1.162 1.162 0 000 2.324zm13.951.388a1.55 1.55 0 100-3.1 1.55 1.55 0 000 3.1zm13.949 0a1.55 1.55 0 100-3.1 1.55 1.55 0 000 3.1zm13.95.388a1.937 1.937 0 100-3.873 1.937 1.937 0 000 3.873zm13.95 0a1.938 1.938 0 100-3.875 1.938 1.938 0 000 3.875zm13.951.386a2.324 2.324 0 10.001-4.649 2.324 2.324 0 00-.001 4.649zm13.951 0a2.325 2.325 0 100-4.65 2.325 2.325 0 000 4.65zm13.951.389a2.713 2.713 0 10-.001-5.425 2.713 2.713 0 00.001 5.425zm13.948 0a2.713 2.713 0 100-5.427 2.713 2.713 0 000 5.427zm13.951.387a3.1 3.1 0 100-6.2 3.1 3.1 0 000 6.2zm13.951 0a3.1 3.1 0 100-6.2 3.1 3.1 0 000 6.2zm13.95 0a3.1 3.1 0 100-6.2 3.1 3.1 0 000 6.2zm13.95 0a3.1 3.1 0 100-6.2 3.1 3.1 0 000 6.2zm13.951 0a3.1 3.1 0 100-6.2 3.1 3.1 0 000 6.2zm13.948 0a3.1 3.1 0 10.001-6.199 3.1 3.1 0 00-.001 6.199zm13.951 0a3.1 3.1 0 100-6.2 3.1 3.1 0 000 6.2zm13.95-.387a2.713 2.713 0 100-5.426 2.713 2.713 0 000 5.426zm13.951 0a2.713 2.713 0 10-.001-5.425 2.713 2.713 0 00.001 5.425zm13.95-.389a2.325 2.325 0 100-4.65 2.325 2.325 0 000 4.65zm13.949 0a2.325 2.325 0 100-4.65 2.325 2.325 0 000 4.65zm13.952-.386a1.938 1.938 0 100-3.875 1.938 1.938 0 000 3.875zm13.948 0a1.938 1.938 0 100-3.875 1.938 1.938 0 000 3.875zm13.952-.388a1.55 1.55 0 100-3.1 1.55 1.55 0 000 3.1zm13.95 0a1.55 1.55 0 100-3.1 1.55 1.55 0 000 3.1zm13.95-.388a1.162 1.162 0 100-2.323 1.162 1.162 0 000 2.323zm13.95-.387a.775.775 0 100-1.55.775.775 0 000 1.55zm13.951 0a.775.775 0 100-1.55.775.775 0 000 1.55zm13.95-.387a.388.388 0 10-.001-.775.388.388 0 00.001.775zm13.95 0a.388.388 0 100-.777.388.388 0 000 .777zM41.85 681.193a.387.387 0 10.001-.775.387.387 0 000 .775zm13.95.387a.775.775 0 100-1.55.775.775 0 000 1.55zm13.95 0a.775.775 0 100-1.55.775.775 0 000 1.55zm13.951.388a1.163 1.163 0 100-2.326 1.163 1.163 0 000 2.326zm13.951 0a1.163 1.163 0 10-.001-2.326 1.163 1.163 0 000 2.326zm13.949.388a1.55 1.55 0 100-3.1 1.55 1.55 0 000 3.1zm13.95 0a1.55 1.55 0 10.001-3.1 1.55 1.55 0 00-.001 3.1zm13.95.386a1.938 1.938 0 100-3.875 1.938 1.938 0 000 3.875zm13.952 0a1.937 1.937 0 100-3.873 1.937 1.937 0 000 3.873zm13.95.389a2.325 2.325 0 100-4.65 2.325 2.325 0 000 4.65zm13.95 0a2.325 2.325 0 100-4.65 2.325 2.325 0 000 4.65zm13.949.386a2.713 2.713 0 100-5.427 2.713 2.713 0 000 5.427zm13.951 0a2.713 2.713 0 100-5.427 2.713 2.713 0 000 5.427zm13.95 0a2.713 2.713 0 10-.001-5.425 2.713 2.713 0 00.001 5.425zm13.95 0a2.713 2.713 0 100-5.427 2.713 2.713 0 000 5.427zm13.951 0a2.713 2.713 0 10-.001-5.425 2.713 2.713 0 00.001 5.425zm13.95 0a2.713 2.713 0 100-5.427 2.713 2.713 0 000 5.427zm13.951 0a2.713 2.713 0 10-.001-5.425 2.713 2.713 0 00.001 5.425zm13.949 0a2.713 2.713 0 10-.001-5.425 2.713 2.713 0 00.001 5.425zm13.95 0a2.713 2.713 0 100-5.426 2.713 2.713 0 000 5.426zm13.951-.386a2.325 2.325 0 100-4.65 2.325 2.325 0 000 4.65zm13.95 0a2.325 2.325 0 100-4.65 2.325 2.325 0 000 4.65zm13.951-.389a1.937 1.937 0 100-3.873 1.937 1.937 0 000 3.873zm13.95 0a1.938 1.938 0 100-3.875 1.938 1.938 0 000 3.875zm13.95-.386a1.55 1.55 0 100-3.1 1.55 1.55 0 000 3.1zm13.95 0a1.55 1.55 0 100-3.1 1.55 1.55 0 000 3.1zm13.951-.388a1.163 1.163 0 100-2.327 1.163 1.163 0 000 2.327zm13.949 0a1.163 1.163 0 10-.001-2.325 1.163 1.163 0 00.001 2.325zm13.95-.388a.775.775 0 100-1.55.775.775 0 000 1.55zm13.951 0a.775.775 0 100-1.55.775.775 0 000 1.55zm13.95-.387a.387.387 0 100-.774.387.387 0 000 .774zm13.95 0a.388.388 0 100-.775.388.388 0 000 .775zM41.85 695.142a.387.387 0 10.002-.774.387.387 0 00-.001.774zm13.95 0a.387.387 0 10.001-.774.387.387 0 000 .774zm13.95.388a.775.775 0 100-1.55.775.775 0 000 1.55zm13.95 0a.775.775 0 100-1.55.775.775 0 000 1.55zm13.952.387a1.163 1.163 0 10-.001-2.326 1.163 1.163 0 000 2.326zm13.949.389a1.55 1.55 0 100-3.1 1.55 1.55 0 000 3.1zm13.95 0a1.55 1.55 0 10.001-3.1 1.55 1.55 0 00-.001 3.1zm13.95.387a1.938 1.938 0 100-3.875 1.938 1.938 0 000 3.875zm13.952 0a1.937 1.937 0 100-3.873 1.937 1.937 0 000 3.873zm13.95 0a1.937 1.937 0 100-3.873 1.937 1.937 0 000 3.873zm13.95.387a2.325 2.325 0 100-4.65 2.325 2.325 0 000 4.65zm13.95 0a2.325 2.325 0 100-4.65 2.325 2.325 0 000 4.65zm13.95 0a2.325 2.325 0 100-4.65 2.325 2.325 0 000 4.65zm13.95.388a2.712 2.712 0 100-5.424 2.712 2.712 0 000 5.424zm13.95 0a2.713 2.713 0 100-5.426 2.713 2.713 0 000 5.426zm13.951 0a2.712 2.712 0 100-5.424 2.712 2.712 0 000 5.424zm13.95 0a2.713 2.713 0 100-5.426 2.713 2.713 0 000 5.426zm13.951 0a2.712 2.712 0 100-5.424 2.712 2.712 0 000 5.424zm13.95-.388a2.325 2.325 0 100-4.65 2.325 2.325 0 000 4.65zm13.951 0a2.325 2.325 0 100-4.65 2.325 2.325 0 000 4.65zm13.949 0a2.325 2.325 0 100-4.65 2.325 2.325 0 000 4.65zm13.95-.387a1.937 1.937 0 10.002-3.874 1.937 1.937 0 00-.002 3.874zm13.951 0a1.937 1.937 0 100-3.873 1.937 1.937 0 000 3.873zm13.95 0a1.938 1.938 0 100-3.875 1.938 1.938 0 000 3.875zm13.95-.387a1.55 1.55 0 100-3.1 1.55 1.55 0 000 3.1zm13.95 0a1.55 1.55 0 100-3.1 1.55 1.55 0 000 3.1zm13.951-.389a1.163 1.163 0 100-2.327 1.163 1.163 0 000 2.327zm13.949 0a1.163 1.163 0 10-.001-2.325 1.163 1.163 0 00.001 2.325zm13.95-.387a.775.775 0 100-1.55.775.775 0 000 1.55zm13.951-.388a.388.388 0 10.001-.775.388.388 0 00-.001.775zm13.95 0a.387.387 0 100-.773.387.387 0 000 .773zM41.85 709.093a.387.387 0 10.002-.774.387.387 0 00-.001.774zm13.95 0a.387.387 0 10.001-.774.387.387 0 000 .774zm13.95.388a.775.775 0 100-1.55.775.775 0 000 1.55zm13.95 0a.775.775 0 100-1.55.775.775 0 000 1.55zm13.952.387a1.163 1.163 0 10-.001-2.326 1.163 1.163 0 000 2.326zm13.951 0a1.163 1.163 0 10-.001-2.325 1.163 1.163 0 00.001 2.325zm13.948.387a1.55 1.55 0 10.001-3.1 1.55 1.55 0 00-.001 3.1zm13.951 0a1.55 1.55 0 100-3.1 1.55 1.55 0 000 3.1zm13.951.389a1.938 1.938 0 10-.001-3.875 1.938 1.938 0 00.001 3.875zm13.95 0a1.938 1.938 0 10-.001-3.875 1.938 1.938 0 00.001 3.875zm13.95 0a1.938 1.938 0 100-3.877 1.938 1.938 0 000 3.877zm13.95.387a2.325 2.325 0 100-4.65 2.325 2.325 0 000 4.65zm13.95 0a2.325 2.325 0 100-4.65 2.325 2.325 0 000 4.65zm13.95 0a2.324 2.324 0 10.001-4.649 2.324 2.324 0 00-.001 4.649zm13.951 0a2.325 2.325 0 100-4.65 2.325 2.325 0 000 4.65zm13.949 0a2.325 2.325 0 100-4.65 2.325 2.325 0 000 4.65zm13.951 0a2.325 2.325 0 100-4.65 2.325 2.325 0 000 4.65zm13.951 0a2.325 2.325 0 100-4.65 2.325 2.325 0 000 4.65zm13.95 0a2.325 2.325 0 100-4.65 2.325 2.325 0 000 4.65zm13.951 0a2.325 2.325 0 100-4.65 2.325 2.325 0 000 4.65zm13.95-.387a1.938 1.938 0 10-.001-3.875 1.938 1.938 0 00.001 3.875zm13.949 0a1.938 1.938 0 100-3.876 1.938 1.938 0 000 3.876zm13.951 0a1.938 1.938 0 10-.001-3.875 1.938 1.938 0 00.001 3.875zm13.95-.389a1.55 1.55 0 100-3.1 1.55 1.55 0 000 3.1zm13.95 0a1.55 1.55 0 100-3.1 1.55 1.55 0 000 3.1zm13.95-.387a1.163 1.163 0 10-.001-2.325 1.163 1.163 0 00.001 2.325zm13.951 0a1.163 1.163 0 100-2.327 1.163 1.163 0 000 2.327zm13.95-.387a.775.775 0 100-1.55.775.775 0 000 1.55zm13.949 0a.775.775 0 100-1.55.775.775 0 000 1.55zm13.951-.388a.388.388 0 10.001-.775.388.388 0 00-.001.775zm13.95 0a.387.387 0 100-.773.387.387 0 000 .773zM55.8 723.044a.388.388 0 100-.776.388.388 0 000 .776zm13.95 0a.388.388 0 100-.776.388.388 0 000 .776zm13.95.387a.775.775 0 100-1.55.775.775 0 000 1.55zm13.951 0a.775.775 0 100-1.55.775.775 0 000 1.55zm13.952.387a1.162 1.162 0 100-2.323 1.162 1.162 0 000 2.323zm13.949 0a1.162 1.162 0 100-2.323 1.162 1.162 0 000 2.323zm13.95.388a1.55 1.55 0 100-3.1 1.55 1.55 0 000 3.1zm13.95 0a1.55 1.55 0 100-3.1 1.55 1.55 0 000 3.1zm13.95 0a1.55 1.55 0 100-3.1 1.55 1.55 0 000 3.1zm13.951.388a1.938 1.938 0 100-3.877 1.938 1.938 0 000 3.877zm13.95 0a1.938 1.938 0 10-.001-3.875 1.938 1.938 0 00.001 3.875zm13.95 0a1.938 1.938 0 100-3.877 1.938 1.938 0 000 3.877zm13.95 0a1.938 1.938 0 10-.001-3.875 1.938 1.938 0 00.001 3.875zm13.951.387a2.325 2.325 0 100-4.65 2.325 2.325 0 000 4.65zm13.949 0a2.325 2.325 0 100-4.65 2.325 2.325 0 000 4.65zm13.951 0a2.325 2.325 0 100-4.65 2.325 2.325 0 000 4.65zm13.95-.387a1.938 1.938 0 100-3.877 1.938 1.938 0 000 3.877zm13.951 0a1.938 1.938 0 10-.001-3.875 1.938 1.938 0 00.001 3.875zm13.95 0a1.938 1.938 0 100-3.877 1.938 1.938 0 000 3.877zm13.951 0a1.938 1.938 0 10-.001-3.875 1.938 1.938 0 00.001 3.875zm13.95-.388a1.55 1.55 0 100-3.1 1.55 1.55 0 000 3.1zm13.951 0a1.55 1.55 0 100-3.1 1.55 1.55 0 000 3.1zm13.949 0a1.55 1.55 0 100-3.1 1.55 1.55 0 000 3.1zm13.949-.388a1.163 1.163 0 100-2.325 1.163 1.163 0 000 2.325zm13.951 0a1.162 1.162 0 100-2.323 1.162 1.162 0 000 2.323zm13.951-.387a.774.774 0 100-1.548.774.774 0 000 1.548zm13.95 0a.775.775 0 100-1.55.775.775 0 000 1.55zm13.95-.387a.388.388 0 10-.001-.775.388.388 0 00.001.775zm13.95 0a.388.388 0 100-.777.388.388 0 000 .777zM69.75 736.994a.388.388 0 100-.776.388.388 0 000 .776zm13.95 0a.388.388 0 100-.776.388.388 0 000 .776zm13.951.388a.775.775 0 100-1.55.775.775 0 000 1.55zm13.951 0a.775.775 0 100-1.55.775.775 0 000 1.55zm13.95.386a1.162 1.162 0 100-2.323 1.162 1.162 0 000 2.323zm13.95 0a1.163 1.163 0 100-2.325 1.163 1.163 0 000 2.325zm13.95.388a1.55 1.55 0 100-3.1 1.55 1.55 0 000 3.1zm13.95 0a1.55 1.55 0 100-3.1 1.55 1.55 0 000 3.1zm13.951 0a1.55 1.55 0 100-3.1 1.55 1.55 0 000 3.1zm13.95 0a1.55 1.55 0 100-3.1 1.55 1.55 0 000 3.1zm13.95.388a1.938 1.938 0 100-3.876 1.938 1.938 0 000 3.876zm13.95 0a1.937 1.937 0 100-3.874 1.937 1.937 0 000 3.874zm13.95 0a1.938 1.938 0 100-3.876 1.938 1.938 0 000 3.876zm13.951 0a1.937 1.937 0 100-3.874 1.937 1.937 0 000 3.874zm13.95 0a1.937 1.937 0 100-3.874 1.937 1.937 0 000 3.874zm13.95 0a1.938 1.938 0 100-3.876 1.938 1.938 0 000 3.876zm13.951 0a1.937 1.937 0 100-3.874 1.937 1.937 0 000 3.874zm13.949-.388a1.55 1.55 0 100-3.1 1.55 1.55 0 000 3.1zm13.951 0a1.55 1.55 0 100-3.1 1.55 1.55 0 000 3.1zm13.951 0a1.55 1.55 0 100-3.1 1.55 1.55 0 000 3.1zm13.951 0a1.55 1.55 0 100-3.1 1.55 1.55 0 000 3.1zm13.949-.388a1.163 1.163 0 100-2.325 1.163 1.163 0 000 2.325zm13.949 0a1.163 1.163 0 100-2.325 1.163 1.163 0 000 2.325zm13.951-.386a.775.775 0 100-1.55.775.775 0 000 1.55zm13.951 0a.774.774 0 100-1.548.774.774 0 000 1.548zm13.949-.388a.388.388 0 10-.001-.775.388.388 0 00.001.775zm13.951 0a.388.388 0 10-.001-.775.388.388 0 00.001.775zM83.7 750.944a.388.388 0 100-.776.388.388 0 000 .776zm13.951 0a.388.388 0 100-.776.388.388 0 000 .776zm13.951.387a.775.775 0 100-1.55.775.775 0 000 1.55zm13.951 0a.775.775 0 100-1.55.775.775 0 000 1.55zm13.949.389a1.163 1.163 0 100-2.327 1.163 1.163 0 000 2.327zm13.95 0a1.163 1.163 0 100-2.327 1.163 1.163 0 000 2.327zm13.95 0a1.163 1.163 0 10-.001-2.325 1.163 1.163 0 00.001 2.325zm13.951.386a1.55 1.55 0 100-3.1 1.55 1.55 0 000 3.1zm13.95 0a1.55 1.55 0 100-3.1 1.55 1.55 0 000 3.1zm13.951 0a1.55 1.55 0 100-3.1 1.55 1.55 0 000 3.1zm13.95 0a1.55 1.55 0 100-3.1 1.55 1.55 0 000 3.1zm13.95 0a1.55 1.55 0 100-3.1 1.55 1.55 0 000 3.1zm13.951 0a1.55 1.55 0 100-3.1 1.55 1.55 0 000 3.1zm13.949 0a1.55 1.55 0 100-3.1 1.55 1.55 0 000 3.1zm13.949 0a1.55 1.55 0 100-3.1 1.55 1.55 0 000 3.1zm13.951 0a1.55 1.55 0 100-3.1 1.55 1.55 0 000 3.1zm13.95 0a1.55 1.55 0 100-3.1 1.55 1.55 0 000 3.1zm13.951 0a1.55 1.55 0 100-3.1 1.55 1.55 0 000 3.1zm13.95-.386a1.163 1.163 0 100-2.327 1.163 1.163 0 000 2.327zm13.951 0a1.163 1.163 0 10-.001-2.325 1.163 1.163 0 00.001 2.325zm13.95 0a1.163 1.163 0 100-2.327 1.163 1.163 0 000 2.327zm13.95-.389a.775.775 0 100-1.55.775.775 0 000 1.55zm13.95 0a.775.775 0 100-1.55.775.775 0 000 1.55zm13.951-.387a.388.388 0 10-.001-.775.388.388 0 00.001.775zm13.949 0a.388.388 0 10-.001-.775.388.388 0 00.001.775zm13.951 0a.388.388 0 10-.001-.775.388.388 0 00.001.775zM83.7 764.894a.387.387 0 10.002-.774.387.387 0 00-.001.774zm13.951 0a.387.387 0 10.001-.774.387.387 0 000 .774zm13.951 0a.387.387 0 100-.773.387.387 0 000 .773zm13.951.387a.775.775 0 100-1.55.775.775 0 000 1.55zm13.949 0a.775.775 0 100-1.55.775.775 0 000 1.55zm13.95 0a.775.775 0 10.002-1.55.775.775 0 00-.002 1.55zm13.95.388a1.163 1.163 0 10-.001-2.325 1.163 1.163 0 00.001 2.325zm13.95 0a1.163 1.163 0 100-2.327 1.163 1.163 0 000 2.327zm13.951 0a1.163 1.163 0 10-.001-2.325 1.163 1.163 0 00.001 2.325zm13.95 0a1.163 1.163 0 100-2.327 1.163 1.163 0 000 2.327zm13.951.388a1.55 1.55 0 100-3.1 1.55 1.55 0 000 3.1zm13.95 0a1.55 1.55 0 100-3.1 1.55 1.55 0 000 3.1zm13.951 0a1.55 1.55 0 100-3.1 1.55 1.55 0 000 3.1zm13.949 0a1.55 1.55 0 100-3.1 1.55 1.55 0 000 3.1zm13.949 0a1.55 1.55 0 100-3.1 1.55 1.55 0 000 3.1zm13.951-.388a1.163 1.163 0 100-2.326 1.163 1.163 0 000 2.326zm13.95 0a1.163 1.163 0 100-2.327 1.163 1.163 0 000 2.327zm13.951 0a1.163 1.163 0 10-.001-2.325 1.163 1.163 0 00.001 2.325zm13.95 0a1.163 1.163 0 100-2.327 1.163 1.163 0 000 2.327zm13.951 0a1.163 1.163 0 10-.001-2.325 1.163 1.163 0 00.001 2.325zm13.95-.388a.775.775 0 100-1.55.775.775 0 000 1.55zm13.95 0a.775.775 0 100-1.55.775.775 0 000 1.55zm13.951-.387a.387.387 0 100-.773.387.387 0 000 .773zm13.95 0a.387.387 0 100-.773.387.387 0 000 .773zm13.949 0a.387.387 0 100-.773.387.387 0 000 .773zm-320.855 13.95a.387.387 0 10.001-.774.387.387 0 000 .774zm13.951 0a.387.387 0 100-.773.387.387 0 000 .773zm13.95 0a.388.388 0 10.001-.775.388.388 0 00-.001.775zm13.95.388a.775.775 0 100-1.55.775.775 0 000 1.55zm13.95 0a.775.775 0 10.002-1.55.775.775 0 00-.002 1.55zm13.95 0a.775.775 0 100-1.55.775.775 0 000 1.55zm13.951 0a.775.775 0 100-1.55.775.775 0 000 1.55zm13.95.387a1.163 1.163 0 10-.001-2.325 1.163 1.163 0 00.001 2.325zm13.95 0a1.163 1.163 0 100-2.327 1.163 1.163 0 000 2.327zm13.951 0a1.163 1.163 0 100-2.327 1.163 1.163 0 000 2.327zm13.949 0a1.163 1.163 0 100-2.326 1.163 1.163 0 000 2.326zm13.951 0a1.163 1.163 0 10-.001-2.325 1.163 1.163 0 00.001 2.325zm13.95 0a1.163 1.163 0 100-2.327 1.163 1.163 0 000 2.327zm13.951 0a1.163 1.163 0 10-.001-2.325 1.163 1.163 0 00.001 2.325zm13.949 0a1.163 1.163 0 100-2.326 1.163 1.163 0 000 2.326zm13.95 0a1.163 1.163 0 100-2.327 1.163 1.163 0 000 2.327zm13.951-.387a.775.775 0 100-1.55.775.775 0 000 1.55zm13.95 0a.775.775 0 100-1.55.775.775 0 000 1.55zm13.95 0a.775.775 0 100-1.55.775.775 0 000 1.55zm13.951 0a.775.775 0 100-1.55.775.775 0 000 1.55zm13.951-.388a.387.387 0 100-.773.387.387 0 000 .773zm13.95 0a.387.387 0 100-.773.387.387 0 000 .773zm13.95 0a.387.387 0 100-.773.387.387 0 000 .773zm-279.005 13.951a.388.388 0 100-.777.388.388 0 000 .777zm13.949 0a.388.388 0 100-.777.388.388 0 000 .777zm13.951 0a.388.388 0 10-.001-.775.388.388 0 00.001.775zm13.95.388a.775.775 0 100-1.55.775.775 0 000 1.55zm13.951 0a.775.775 0 100-1.55.775.775 0 000 1.55zm13.95 0a.775.775 0 100-1.55.775.775 0 000 1.55zm13.95 0a.775.775 0 100-1.55.775.775 0 000 1.55zm13.95 0a.774.774 0 10.001-1.549.774.774 0 00-.001 1.549zm13.951 0a.775.775 0 100-1.55.775.775 0 000 1.55zm13.95 0a.775.775 0 10.002-1.55.775.775 0 00-.002 1.55zm13.95 0a.775.775 0 100-1.55.775.775 0 000 1.55zm13.95 0a.775.775 0 100-1.55.775.775 0 000 1.55zm13.95 0a.775.775 0 100-1.55.775.775 0 000 1.55zm13.95 0a.775.775 0 100-1.55.775.775 0 000 1.55zm13.951 0a.775.775 0 100-1.55.775.775 0 000 1.55zm13.95 0a.775.775 0 100-1.55.775.775 0 000 1.55zm13.95-.388a.388.388 0 10-.001-.775.388.388 0 00.001.775zm13.951 0a.388.388 0 100-.777.388.388 0 000 .777zm13.951 0a.388.388 0 10-.001-.775.388.388 0 00.001.775zm-237.156 13.949a.388.388 0 100-.777.388.388 0 000 .777zm13.951 0a.388.388 0 10-.001-.775.388.388 0 00.001.775zm13.95 0a.388.388 0 100-.777.388.388 0 000 .777zm13.952 0a.388.388 0 10-.001-.775.388.388 0 00.001.775zm13.95 0a.388.388 0 100-.777.388.388 0 000 .777zm13.949.388a.775.775 0 100-1.55.775.775 0 000 1.55zm13.95 0a.774.774 0 10.001-1.549.774.774 0 00-.001 1.549zm13.951 0a.775.775 0 100-1.55.775.775 0 000 1.55zm13.95 0a.775.775 0 10.002-1.55.775.775 0 00-.002 1.55zm13.95 0a.775.775 0 100-1.55.775.775 0 000 1.55zm13.95 0a.775.775 0 100-1.55.775.775 0 000 1.55zm13.95 0a.775.775 0 100-1.55.775.775 0 000 1.55zm13.951-.388a.388.388 0 100-.777.388.388 0 000 .777zm13.949 0a.388.388 0 10-.001-.775.388.388 0 00.001.775zm13.951 0a.388.388 0 10-.001-.775.388.388 0 00.001.775zm13.95 0a.388.388 0 10-.001-.775.388.388 0 00.001.775zm13.951 0a.388.388 0 100-.777.388.388 0 000 .777zm-181.352 13.951a.388.388 0 10-.001-.775.388.388 0 00.001.775zm13.95 0a.388.388 0 100-.777.388.388 0 000 .777zm13.948 0a.388.388 0 100-.777.388.388 0 000 .777zm13.951 0a.388.388 0 10-.001-.775.388.388 0 00.001.775zm13.95 0a.388.388 0 100-.777.388.388 0 000 .777zm13.951 0a.388.388 0 10-.001-.775.388.388 0 00.001.775zm13.95 0a.388.388 0 100-.777.388.388 0 000 .777zm13.95 0a.388.388 0 10-.001-.775.388.388 0 00.001.775zm13.951 0a.388.388 0 10-.001-.775.388.388 0 00.001.775zm13.95 0a.388.388 0 100-.777.388.388 0 000 .777zm13.949 0a.388.388 0 10-.001-.775.388.388 0 00.001.775zm13.951 0a.388.388 0 10-.001-.775.388.388 0 00.001.775zm-97.652 13.95a.388.388 0 10.001-.775.388.388 0 00-.001.775zm13.951 0a.387.387 0 100-.773.387.387 0 000 .773zm13.95 0a.388.388 0 10.001-.775.388.388 0 00-.001.775z" fill="#01E482"/></svg>