<svg width="18" height="18" fill="none" xmlns="http://www.w3.org/2000/svg"><path d="M10.582 9a1.582 1.582 0 11-3.164 0 1.582 1.582 0 013.164 0z" fill="#00B767"/><path d="M11.672 4.219H6.328c-1.163 0-2.11.946-2.11 2.11v5.343c0 1.163.947 2.11 2.11 2.11h5.344c1.163 0 2.11-.947 2.11-2.11V6.328c0-1.163-.947-2.11-2.11-2.11zM9 11.637A2.64 2.64 0 016.363 9 2.64 2.64 0 019 6.363 2.64 2.64 0 0111.637 9 2.64 2.64 0 019 11.637zm3.023-5.133a.527.527 0 110-1.055.527.527 0 010 1.055z" fill="#00B767"/><path d="M13.254 0H4.746A4.752 4.752 0 000 4.746v8.508A4.752 4.752 0 004.746 18h8.508A4.752 4.752 0 0018 13.254V4.746A4.752 4.752 0 0013.254 0zm1.582 11.672a3.168 3.168 0 01-3.164 3.164H6.328a3.168 3.168 0 01-3.164-3.164V6.328a3.168 3.168 0 013.164-3.164h5.344a3.168 3.168 0 013.164 3.164v5.344z" fill="#00B767"/></svg>