<svg width="18" height="18" fill="none" xmlns="http://www.w3.org/2000/svg"><path d="M.823 15.736h6.893a5.755 5.755 0 004.522 2.195A5.769 5.769 0 0018 12.17a5.769 5.769 0 00-5.762-5.762 5.757 5.757 0 00-4.626 2.33A6.318 6.318 0 000 14.913c0 .456.369.824.823.824zm11.415-7.683a4.12 4.12 0 014.116 4.116 4.12 4.12 0 01-4.116 4.116 4.12 4.12 0 01-4.116-4.116 4.12 4.12 0 014.116-4.116zM6.31.069a3.448 3.448 0 00-3.443 3.443 3.447 3.447 0 003.444 3.444 3.447 3.447 0 003.443-3.444A3.448 3.448 0 006.311.07z" fill="#000"/><path d="M10.592 12.992h.823v.824a.823.823 0 101.646 0v-.824h.823a.823.823 0 000-1.646h-.823v-.823a.823.823 0 10-1.646 0v.823h-.823a.823.823 0 000 1.646z" fill="#000"/></svg>