<svg width="450" height="613" fill="none" xmlns="http://www.w3.org/2000/svg"><circle cx="174" cy="64" r="60.5" stroke="url(#paint0_linear)" stroke-width="7"/><path d="M166.771 189.014a.356.356 0 10.001-.713.356.356 0 00-.001.713zm12.829 0a.356.356 0 10.001-.713.356.356 0 00-.001.713zm12.827 0a.356.356 0 10.001-.711.356.356 0 00-.001.711zm12.829 0a.356.356 0 10.001-.711.356.356 0 00-.001.711zm12.829 0a.356.356 0 100-.712.356.356 0 000 .712zm12.829 0a.356.356 0 100-.712.356.356 0 000 .712zm12.828 0a.356.356 0 10.001-.713.356.356 0 00-.001.713zm12.828 0a.356.356 0 10.001-.711.356.356 0 00-.001.711zm12.829 0a.356.356 0 10.001-.713.356.356 0 00-.001.713zm12.829 0a.356.356 0 10.001-.711.356.356 0 00-.001.711zm12.827 0a.356.356 0 10.001-.711.356.356 0 00-.001.711zm-153.942 12.828a.357.357 0 100-.714.357.357 0 000 .714zm12.829 0a.356.356 0 100-.713.356.356 0 000 .713zm12.829 0a.357.357 0 100-.714.357.357 0 000 .714zm12.829 0a.357.357 0 100-.714.357.357 0 000 .714zm12.828.357a.713.713 0 10-.001-1.425.713.713 0 00.001 1.425zm12.829 0a.713.713 0 10-.001-1.425.713.713 0 00.001 1.425zm12.828 0a.713.713 0 100-1.425.713.713 0 000 1.425zm12.829 0a.713.713 0 100-1.425.713.713 0 000 1.425zm12.827 0a.713.713 0 100-1.425.713.713 0 000 1.425zm12.829 0a.713.713 0 100-1.425.713.713 0 000 1.425zm12.828 0a.713.713 0 100-1.425.713.713 0 000 1.425zm12.83-.357a.356.356 0 100-.713.356.356 0 000 .713zm12.827 0a.356.356 0 100-.713.356.356 0 000 .713zm12.829 0a.357.357 0 100-.714.357.357 0 000 .714zm12.829 0a.357.357 0 10-.002-.714.357.357 0 00.002.714zm12.829 0a.356.356 0 100-.713.356.356 0 000 .713zm-218.085 12.829a.356.356 0 100-.713.356.356 0 000 .713zm12.827 0a.357.357 0 000-.713.357.357 0 000 .713zm12.829 0a.357.357 0 000-.713.357.357 0 000 .713zm12.829.355a.713.713 0 10-.001-1.425.713.713 0 00.001 1.425zm12.829 0a.713.713 0 10-.001-1.425.713.713 0 00.001 1.425zm12.828 0a.713.713 0 100-1.425.713.713 0 000 1.425zm12.829 0a.713.713 0 10-.001-1.425.713.713 0 00.001 1.425zm12.829 0a.713.713 0 10-.001-1.425.713.713 0 00.001 1.425zm12.828 0a.713.713 0 100-1.425.713.713 0 000 1.425zm12.829 0a.713.713 0 100-1.425.713.713 0 000 1.425zm12.827 0a.713.713 0 100-1.425.713.713 0 000 1.425zm12.829 0a.713.713 0 100-1.425.713.713 0 000 1.425zm12.828 0a.713.713 0 100-1.425.713.713 0 000 1.425zm12.829 0a.713.713 0 100-1.427.713.713 0 000 1.427zm12.829 0a.713.713 0 10-.001-1.425.713.713 0 00.001 1.425zm12.829 0a.713.713 0 100-1.427.713.713 0 000 1.427zm12.828-.355a.357.357 0 10-.002-.714.357.357 0 00.002.714zm12.829 0a.356.356 0 100-.713.356.356 0 000 .713zm12.829 0a.357.357 0 000-.713.357.357 0 000 .713zm-243.743 12.828a.357.357 0 000-.713.357.357 0 000 .713zm12.829 0a.356.356 0 100-.713.356.356 0 000 .713zm12.828.357a.713.713 0 100-1.425.713.713 0 000 1.425zm12.829 0a.713.713 0 100-1.425.713.713 0 000 1.425zm12.828 0a.713.713 0 10-.001-1.425.713.713 0 00.001 1.425zm12.829 0a.713.713 0 10-.001-1.425.713.713 0 00.001 1.425zm12.828.355a1.068 1.068 0 10.002-2.136 1.068 1.068 0 00-.002 2.136zm12.829 0a1.069 1.069 0 100-2.138 1.069 1.069 0 000 2.138zm12.829 0a1.068 1.068 0 10.002-2.136 1.068 1.068 0 00-.002 2.136zm12.828 0a1.069 1.069 0 100-2.138 1.069 1.069 0 000 2.138zm12.829 0a1.069 1.069 0 100-2.138 1.069 1.069 0 000 2.138zm12.828 0a1.068 1.068 0 10.002-2.136 1.068 1.068 0 00-.002 2.136zm12.829 0a1.069 1.069 0 100-2.138 1.069 1.069 0 000 2.138zm12.828 0a1.069 1.069 0 100-2.138 1.069 1.069 0 000 2.138zm12.828 0a1.07 1.07 0 10.002-2.138 1.07 1.07 0 00-.002 2.138zm12.829-.355a.713.713 0 10-.001-1.425.713.713 0 00.001 1.425zm12.829 0a.713.713 0 100-1.427.713.713 0 000 1.427zm12.828 0a.713.713 0 100-1.425.713.713 0 000 1.425zm12.829 0a.713.713 0 100-1.427.713.713 0 000 1.427zm12.829-.357a.357.357 0 000-.713.357.357 0 000 .713zm12.828 0a.356.356 0 100-.713.356.356 0 000 .713zM89.8 240.327a.357.357 0 10-.001-.713.357.357 0 000 .713zm12.828 0a.357.357 0 100-.714.357.357 0 000 .714zm12.83.356a.712.712 0 100-1.425.712.712 0 000 1.425zm12.827 0a.713.713 0 10.001-1.425.713.713 0 00-.001 1.425zm12.829 0a.713.713 0 10.001-1.425.713.713 0 00-.001 1.425zm12.828.357a1.069 1.069 0 100-2.138 1.069 1.069 0 000 2.138zm12.828 0a1.068 1.068 0 10.002-2.136 1.068 1.068 0 00-.002 2.136zm12.829 0a1.068 1.068 0 10.002-2.136 1.068 1.068 0 00-.002 2.136zm12.829 0a1.069 1.069 0 100-2.138 1.069 1.069 0 000 2.138zm12.829.356a1.425 1.425 0 100-2.85 1.425 1.425 0 000 2.85zm12.828 0a1.425 1.425 0 10.001-2.85 1.425 1.425 0 00-.001 2.85zm12.829 0a1.425 1.425 0 10.001-2.85 1.425 1.425 0 00-.001 2.85zm12.828 0a1.425 1.425 0 100-2.85 1.425 1.425 0 000 2.85zm12.827 0a1.425 1.425 0 10.001-2.85 1.425 1.425 0 00-.001 2.85zm12.83-.356a1.069 1.069 0 100-2.138 1.069 1.069 0 000 2.138zm12.828 0a1.07 1.07 0 10.002-2.138 1.07 1.07 0 00-.002 2.138zm12.829 0a1.068 1.068 0 10.002-2.136 1.068 1.068 0 00-.002 2.136zm12.828 0a1.07 1.07 0 10.002-2.138 1.07 1.07 0 00-.002 2.138zm12.829-.357a.713.713 0 10.001-1.425.713.713 0 00-.001 1.425zm12.829 0a.713.713 0 100-1.426.713.713 0 000 1.426zm12.828 0a.713.713 0 10.001-1.425.713.713 0 00-.001 1.425zm12.829-.356a.356.356 0 100-.712.356.356 0 000 .712zm12.829 0a.356.356 0 100-.712.356.356 0 000 .712zm12.827 0a.356.356 0 100-.712.356.356 0 000 .712zM76.97 253.157a.357.357 0 100-.713.357.357 0 000 .713zm12.83 0a.357.357 0 10-.001-.713.357.357 0 000 .713zm12.828.356a.713.713 0 10.001-1.425.713.713 0 00-.001 1.425zm12.83 0a.712.712 0 100-1.425.712.712 0 000 1.425zm12.827.356a1.07 1.07 0 10-.001-2.139 1.07 1.07 0 00.001 2.139zm12.829 0a1.07 1.07 0 10-.001-2.139 1.07 1.07 0 00.001 2.139zm12.828 0a1.07 1.07 0 10-.001-2.139 1.07 1.07 0 00.001 2.139zm12.829.356a1.425 1.425 0 100-2.85 1.425 1.425 0 000 2.85zm12.828 0a1.425 1.425 0 10.001-2.85 1.425 1.425 0 00-.001 2.85zm12.829 0a1.425 1.425 0 10.001-2.85 1.425 1.425 0 00-.001 2.85zm12.829 0a1.425 1.425 0 100-2.85 1.425 1.425 0 000 2.85zm12.828 0a1.425 1.425 0 10.001-2.85 1.425 1.425 0 00-.001 2.85zm12.829 0a1.425 1.425 0 10.001-2.85 1.425 1.425 0 00-.001 2.85zm12.828 0a1.425 1.425 0 100-2.85 1.425 1.425 0 000 2.85zm12.827 0a1.425 1.425 0 10.001-2.85 1.425 1.425 0 00-.001 2.85zm12.83 0a1.425 1.425 0 100-2.85 1.425 1.425 0 000 2.85zm12.828 0a1.425 1.425 0 10.001-2.85 1.425 1.425 0 00-.001 2.85zm12.829 0a1.425 1.425 0 100-2.85 1.425 1.425 0 000 2.85zm12.828-.356a1.07 1.07 0 100-2.14 1.07 1.07 0 000 2.14zm12.83 0a1.07 1.07 0 10-.001-2.139 1.07 1.07 0 00.001 2.139zm12.828 0a1.069 1.069 0 100-2.138 1.069 1.069 0 000 2.138zm12.828-.356a.713.713 0 10.001-1.425.713.713 0 00-.001 1.425zm12.828 0a.713.713 0 10.001-1.425.713.713 0 00-.001 1.425zm12.83-.356a.356.356 0 100-.712.356.356 0 000 .712zm12.827 0a.356.356 0 100-.712.356.356 0 000 .712zm12.829 0a.357.357 0 100-.714.357.357 0 000 .714zM64.142 265.985a.356.356 0 100-.712.356.356 0 000 .712zm12.828 0a.356.356 0 10.002-.712.356.356 0 00-.001.712zm12.83.356a.712.712 0 100-1.425.712.712 0 000 1.425zm12.828 0a.713.713 0 10.001-1.425.713.713 0 00-.001 1.425zm12.829.357a1.07 1.07 0 10-.001-2.139 1.07 1.07 0 00.001 2.139zm12.828 0a1.07 1.07 0 10-.001-2.139 1.07 1.07 0 00.001 2.139zm12.829 0a1.07 1.07 0 10-.001-2.139 1.07 1.07 0 00.001 2.139zm12.828.356a1.425 1.425 0 10.002-2.85 1.425 1.425 0 00-.002 2.85zm12.829 0a1.425 1.425 0 100-2.85 1.425 1.425 0 000 2.85zm12.828 0a1.425 1.425 0 10.002-2.85 1.425 1.425 0 00-.002 2.85zm12.829.356a1.781 1.781 0 100-3.563 1.781 1.781 0 000 3.563zm12.828 0a1.781 1.781 0 100-3.563 1.781 1.781 0 000 3.563zm12.829 0a1.781 1.781 0 100-3.563 1.781 1.781 0 000 3.563zm12.828 0a1.782 1.782 0 100-3.564 1.782 1.782 0 000 3.564zm12.829 0a1.781 1.781 0 100-3.563 1.781 1.781 0 000 3.563zm12.828 0a1.782 1.782 0 100-3.564 1.782 1.782 0 000 3.564zm12.829 0a1.782 1.782 0 100-3.564 1.782 1.782 0 000 3.564zm12.828-.356a1.425 1.425 0 10.002-2.85 1.425 1.425 0 00-.002 2.85zm12.829 0a1.425 1.425 0 100-2.85 1.425 1.425 0 000 2.85zm12.829 0a1.425 1.425 0 10.002-2.85 1.425 1.425 0 00-.002 2.85zm12.829 0a1.426 1.426 0 100-2.852 1.426 1.426 0 000 2.852zm12.828-.356a1.069 1.069 0 100-2.138 1.069 1.069 0 000 2.138zm12.828 0a1.07 1.07 0 10-.001-2.139 1.07 1.07 0 00.001 2.139zm12.828-.357a.713.713 0 10.001-1.425.713.713 0 00-.001 1.425zm12.829 0a.713.713 0 10.001-1.425.713.713 0 00-.001 1.425zm12.828-.356a.356.356 0 100-.713.356.356 0 000 .713zm12.829 0a.356.356 0 10.001-.713.356.356 0 00-.001.713zm-346.37 12.827a.356.356 0 100-.712.356.356 0 000 .712zm12.828 0a.356.356 0 100-.712.356.356 0 000 .712zm12.828.358a.713.713 0 100-1.427.713.713 0 000 1.427zm12.83 0a.713.713 0 10-.002-1.427.713.713 0 00.001 1.427zm12.829.356a1.069 1.069 0 100-2.138 1.069 1.069 0 000 2.138zm12.828 0a1.07 1.07 0 10-.001-2.139 1.07 1.07 0 00.001 2.139zm12.828.356a1.425 1.425 0 100-2.85 1.425 1.425 0 000 2.85zm12.828 0a1.425 1.425 0 10.002-2.85 1.425 1.425 0 00-.002 2.85zm12.829 0a1.425 1.425 0 10.002-2.85 1.425 1.425 0 00-.002 2.85zm12.829.356a1.78 1.78 0 10.003-3.561 1.78 1.78 0 00-.003 3.561zm12.828 0a1.781 1.781 0 10.001-3.563 1.781 1.781 0 00-.001 3.563zm12.829 0a1.78 1.78 0 100-3.563 1.782 1.782 0 000 3.563zm12.828 0a1.78 1.78 0 100-3.563 1.782 1.782 0 000 3.563zm12.829 0a1.78 1.78 0 100-3.563 1.782 1.782 0 000 3.563zm12.828.358a2.139 2.139 0 10-.001-4.277 2.139 2.139 0 00.001 4.277zm12.829 0a2.14 2.14 0 100-4.279 2.14 2.14 0 000 4.279zm12.828-.358a1.781 1.781 0 10.001-3.563 1.781 1.781 0 00-.001 3.563zm12.829 0a1.781 1.781 0 10.001-3.563 1.781 1.781 0 00-.001 3.563zm12.829 0a1.781 1.781 0 10.001-3.563 1.781 1.781 0 00-.001 3.563zm12.829 0a1.78 1.78 0 100-3.563 1.782 1.782 0 000 3.563zm12.828-.356a1.425 1.425 0 10.002-2.85 1.425 1.425 0 00-.002 2.85zm12.829 0a1.426 1.426 0 100-2.852 1.426 1.426 0 000 2.852zm12.828 0a1.425 1.425 0 100-2.85 1.425 1.425 0 000 2.85zm12.828-.356a1.07 1.07 0 10-.001-2.139 1.07 1.07 0 00.001 2.139zm12.829 0a1.07 1.07 0 10-.001-2.139 1.07 1.07 0 00.001 2.139zm12.828-.356a.713.713 0 100-1.427.713.713 0 000 1.427zm12.829 0a.713.713 0 100-1.427.713.713 0 000 1.427zm12.828-.358a.356.356 0 10.001-.713.356.356 0 00-.001.713zm12.829 0a.356.356 0 10.001-.711.356.356 0 00-.001.711zm-359.199 12.83a.356.356 0 100-.712.356.356 0 000 .712zm12.828.357a.713.713 0 100-1.425.713.713 0 000 1.425zm12.828 0a.713.713 0 100-1.425.713.713 0 000 1.425zm12.83.356a1.07 1.07 0 100-2.138 1.07 1.07 0 000 2.138zm12.829 0a1.069 1.069 0 100-2.138 1.069 1.069 0 000 2.138zm12.827.356a1.425 1.425 0 10.002-2.85 1.425 1.425 0 00-.002 2.85zm12.829 0a1.425 1.425 0 100-2.85 1.425 1.425 0 000 2.85zm12.828 0a1.425 1.425 0 10.002-2.85 1.425 1.425 0 00-.002 2.85zm12.83.355a1.78 1.78 0 100-3.563 1.782 1.782 0 000 3.563zm12.828 0a1.78 1.78 0 10.003-3.561 1.78 1.78 0 00-.003 3.561zm12.828.357a2.138 2.138 0 100-4.277 2.138 2.138 0 000 4.277zm12.828 0a2.14 2.14 0 100-4.278 2.14 2.14 0 000 4.278zm12.829 0a2.14 2.14 0 100-4.278 2.14 2.14 0 000 4.278zm12.829 0a2.138 2.138 0 100-4.277 2.138 2.138 0 000 4.277zm12.828 0a2.138 2.138 0 100-4.277 2.138 2.138 0 000 4.277zm12.829 0a2.14 2.14 0 100-4.278 2.14 2.14 0 000 4.278zm12.829 0a2.138 2.138 0 100-4.277 2.138 2.138 0 000 4.277zm12.828 0a2.138 2.138 0 100-4.277 2.138 2.138 0 000 4.277zm12.829 0a2.138 2.138 0 100-4.277 2.138 2.138 0 000 4.277zm12.829-.357a1.78 1.78 0 100-3.563 1.782 1.782 0 000 3.563zm12.828 0a1.781 1.781 0 10.001-3.563 1.781 1.781 0 00-.001 3.563zm12.829 0a1.78 1.78 0 100-3.563 1.782 1.782 0 000 3.563zm12.828-.355a1.425 1.425 0 100-2.85 1.425 1.425 0 000 2.85zm12.828 0a1.425 1.425 0 10.002-2.85 1.425 1.425 0 00-.002 2.85zm12.829-.356a1.07 1.07 0 10-.001-2.139 1.07 1.07 0 00.001 2.139zm12.829 0a1.069 1.069 0 100-2.138 1.069 1.069 0 000 2.138zm12.828-.356a.713.713 0 100-1.425.713.713 0 000 1.425zm12.827 0a.713.713 0 100-1.425.713.713 0 000 1.425zm12.83-.357a.356.356 0 10.001-.711.356.356 0 00-.001.711zm12.828 0a.356.356 0 10.001-.713.356.356 0 00-.001.713zM38.486 304.471a.357.357 0 10-.001-.714.357.357 0 000 .714zm12.828 0a.357.357 0 10-.001-.713.357.357 0 000 .713zm12.828.356a.713.713 0 100-1.425.713.713 0 000 1.425zm12.828 0a.713.713 0 100-1.425.713.713 0 000 1.425zm12.83.357a1.07 1.07 0 100-2.138 1.07 1.07 0 000 2.138zm12.829 0a1.069 1.069 0 100-2.138 1.069 1.069 0 000 2.138zm12.827.355a1.425 1.425 0 10.002-2.85 1.425 1.425 0 00-.002 2.85zm12.829 0a1.425 1.425 0 100-2.85 1.425 1.425 0 000 2.85zm12.829.357a1.781 1.781 0 10.001-3.563 1.781 1.781 0 00-.001 3.563zm12.829 0a1.78 1.78 0 100-3.563 1.782 1.782 0 000 3.563zm12.828.356a2.138 2.138 0 100-4.277 2.138 2.138 0 000 4.277zm12.828 0a2.138 2.138 0 100-4.277 2.138 2.138 0 000 4.277zm12.828 0a2.14 2.14 0 100-4.278 2.14 2.14 0 000 4.278zm12.829.357a2.495 2.495 0 10-.001-4.989 2.495 2.495 0 00.001 4.989zm12.829 0a2.495 2.495 0 10-.001-4.989 2.495 2.495 0 00.001 4.989zm12.828 0a2.495 2.495 0 100-4.99 2.495 2.495 0 000 4.99zm12.829 0a2.495 2.495 0 100-4.99 2.495 2.495 0 000 4.99zm12.829 0a2.495 2.495 0 10-.001-4.989 2.495 2.495 0 00.001 4.989zm12.828-.357a2.138 2.138 0 100-4.277 2.138 2.138 0 000 4.277zm12.829 0a2.138 2.138 0 100-4.277 2.138 2.138 0 000 4.277zm12.828 0a2.138 2.138 0 100-4.277 2.138 2.138 0 000 4.277zm12.829-.356a1.781 1.781 0 10.001-3.563 1.781 1.781 0 00-.001 3.563zm12.829 0a1.78 1.78 0 100-3.563 1.782 1.782 0 000 3.563zm12.828 0a1.781 1.781 0 10.001-3.563 1.781 1.781 0 00-.001 3.563zm12.828-.357a1.425 1.425 0 10.002-2.85 1.425 1.425 0 00-.002 2.85zm12.828 0a1.425 1.425 0 10.002-2.85 1.425 1.425 0 00-.002 2.85zm12.83-.355a1.069 1.069 0 100-2.138 1.069 1.069 0 000 2.138zm12.828-.357a.713.713 0 100-1.425.713.713 0 000 1.425zm12.827 0a.713.713 0 100-1.425.713.713 0 000 1.425zm12.83-.356a.356.356 0 100-.713.356.356 0 000 .713zm12.828 0a.357.357 0 100-.714.357.357 0 000 .714zM38.486 317.299a.357.357 0 10-.001-.714.357.357 0 000 .714zm12.827.356a.713.713 0 100-1.425.713.713 0 000 1.425zm12.829 0a.713.713 0 100-1.425.713.713 0 000 1.425zm12.829.356a1.069 1.069 0 10.001-2.137 1.069 1.069 0 000 2.137zm12.829 0a1.069 1.069 0 100-2.137 1.069 1.069 0 000 2.137zm12.827.357a1.425 1.425 0 10.002-2.85 1.425 1.425 0 00-.002 2.85zm12.829 0a1.425 1.425 0 10.002-2.85 1.425 1.425 0 00-.002 2.85zm12.829.356a1.781 1.781 0 100-3.563 1.781 1.781 0 000 3.563zm12.829 0a1.782 1.782 0 100-3.564 1.782 1.782 0 000 3.564zm12.829.357a2.138 2.138 0 100-4.275 2.138 2.138 0 000 4.275zm12.828 0a2.138 2.138 0 100-4.275 2.138 2.138 0 000 4.275zm12.828.356a2.495 2.495 0 10-.001-4.989 2.495 2.495 0 00.001 4.989zm12.829 0a2.495 2.495 0 100-4.99 2.495 2.495 0 000 4.99zm12.828 0a2.495 2.495 0 10-.001-4.989 2.495 2.495 0 00.001 4.989zm12.829 0a2.495 2.495 0 10-.001-4.989 2.495 2.495 0 00.001 4.989zm12.828 0a2.495 2.495 0 100-4.99 2.495 2.495 0 000 4.99zm12.829 0a2.495 2.495 0 100-4.99 2.495 2.495 0 000 4.99zm12.829 0a2.495 2.495 0 10-.001-4.989 2.495 2.495 0 00.001 4.989zm12.827 0a2.495 2.495 0 100-4.99 2.495 2.495 0 000 4.99zm12.829 0a2.495 2.495 0 100-4.99 2.495 2.495 0 000 4.99zm12.829-.356a2.138 2.138 0 100-4.275 2.138 2.138 0 000 4.275zm12.828 0a2.138 2.138 0 100-4.275 2.138 2.138 0 000 4.275zm12.83-.357a1.781 1.781 0 100-3.563 1.781 1.781 0 000 3.563zm12.828 0a1.782 1.782 0 100-3.564 1.782 1.782 0 000 3.564zm12.828-.356a1.425 1.425 0 10.002-2.85 1.425 1.425 0 00-.002 2.85zm12.828 0a1.425 1.425 0 10.002-2.85 1.425 1.425 0 00-.002 2.85zm12.83-.357a1.068 1.068 0 10.002-2.136 1.068 1.068 0 00-.002 2.136zm12.827 0a1.068 1.068 0 10.002-2.136 1.068 1.068 0 00-.002 2.136zm12.828-.356a.713.713 0 100-1.425.713.713 0 000 1.425zm12.83 0a.713.713 0 100-1.425.713.713 0 000 1.425zm12.828-.356a.357.357 0 100-.714.357.357 0 000 .714zM25.659 330.127a.357.357 0 10-.001-.713.357.357 0 000 .713zm12.827 0a.357.357 0 10-.001-.714.357.357 0 000 .714zm12.827.357a.713.713 0 100-1.425.713.713 0 000 1.425zm12.829 0a.713.713 0 100-1.425.713.713 0 000 1.425zm12.829.356a1.069 1.069 0 10.001-2.137 1.069 1.069 0 000 2.137zm12.829.356a1.425 1.425 0 100-2.85 1.425 1.425 0 000 2.85zm12.827 0a1.425 1.425 0 10.002-2.85 1.425 1.425 0 00-.002 2.85zm12.829.358a1.781 1.781 0 100-3.563 1.781 1.781 0 000 3.563zm12.829 0a1.781 1.781 0 100-3.563 1.781 1.781 0 000 3.563zm12.829.355a2.138 2.138 0 100-4.275 2.138 2.138 0 000 4.275zm12.829 0a2.138 2.138 0 100-4.275 2.138 2.138 0 000 4.275zm12.829.356a2.495 2.495 0 10-.001-4.989 2.495 2.495 0 00.001 4.989zm12.827 0a2.495 2.495 0 10-.001-4.989 2.495 2.495 0 00.001 4.989zm12.829.356a2.85 2.85 0 10.002-5.7 2.85 2.85 0 00-.002 5.7zm12.829 0a2.85 2.85 0 100-5.7 2.85 2.85 0 000 5.7zm12.828 0a2.85 2.85 0 100-5.702 2.85 2.85 0 000 5.702zm12.829 0a2.85 2.85 0 100-5.7 2.85 2.85 0 000 5.7zm12.829 0a2.85 2.85 0 100-5.7 2.85 2.85 0 000 5.7zm12.827 0a2.85 2.85 0 100-5.702 2.85 2.85 0 000 5.702zm12.828 0a2.85 2.85 0 10.002-5.7 2.85 2.85 0 00-.002 5.7zm12.829-.356a2.495 2.495 0 100-4.99 2.495 2.495 0 000 4.99zm12.829 0a2.494 2.494 0 100-4.988 2.494 2.494 0 000 4.988zm12.828-.356a2.138 2.138 0 100-4.275 2.138 2.138 0 000 4.275zm12.828 0a2.138 2.138 0 100-4.275 2.138 2.138 0 000 4.275zm12.83-.355a1.782 1.782 0 100-3.564 1.782 1.782 0 000 3.564zm12.827 0a1.782 1.782 0 100-3.564 1.782 1.782 0 000 3.564zm12.829-.358a1.425 1.425 0 10.002-2.85 1.425 1.425 0 00-.002 2.85zm12.829 0a1.425 1.425 0 100-2.85 1.425 1.425 0 000 2.85zm12.828-.356a1.068 1.068 0 10.002-2.136 1.068 1.068 0 00-.002 2.136zm12.828-.356a.713.713 0 100-1.425.713.713 0 000 1.425zm12.83 0a.713.713 0 100-1.425.713.713 0 000 1.425zm12.828-.357a.357.357 0 100-.714.357.357 0 000 .714zm12.829 0a.356.356 0 100-.713.356.356 0 000 .713zM25.659 342.956a.357.357 0 100-.713.357.357 0 000 .713zm12.827 0a.357.357 0 100-.713.357.357 0 000 .713zm12.827.355a.713.713 0 100-1.425.713.713 0 000 1.425zm12.829.357a1.069 1.069 0 10.001-2.137 1.069 1.069 0 000 2.137zm12.829 0a1.069 1.069 0 10.001-2.137 1.069 1.069 0 000 2.137zm12.829.358a1.426 1.426 0 10-.001-2.852 1.426 1.426 0 00.001 2.852zm12.827 0a1.426 1.426 0 100-2.852 1.426 1.426 0 000 2.852zm12.829.355a1.781 1.781 0 100-3.563 1.781 1.781 0 000 3.563zm12.829.357a2.138 2.138 0 100-4.275 2.138 2.138 0 000 4.275zm12.829 0a2.138 2.138 0 100-4.275 2.138 2.138 0 000 4.275zm12.829.355a2.494 2.494 0 100-4.988 2.494 2.494 0 000 4.988zm12.829 0a2.494 2.494 0 100-4.988 2.494 2.494 0 000 4.988zm12.828.358a2.851 2.851 0 100-5.702 2.851 2.851 0 000 5.702zm12.828 0a2.851 2.851 0 100-5.702 2.851 2.851 0 000 5.702zm12.829 0a2.85 2.85 0 10-.002-5.702 2.85 2.85 0 00.002 5.702zm12.828.356a3.207 3.207 0 100-6.414 3.207 3.207 0 000 6.414zm12.828 0a3.207 3.207 0 100-6.414 3.207 3.207 0 000 6.414zm12.828 0a3.207 3.207 0 10.001-6.415 3.207 3.207 0 00-.001 6.415zm12.829-.356a2.852 2.852 0 10-.001-5.703 2.852 2.852 0 00.001 5.703zm12.828 0a2.851 2.851 0 100-5.702 2.851 2.851 0 000 5.702zm12.829 0a2.851 2.851 0 100-5.702 2.851 2.851 0 000 5.702zm12.829-.358a2.494 2.494 0 100-4.99 2.494 2.494 0 000 4.99zm12.829 0a2.494 2.494 0 100-4.988 2.494 2.494 0 000 4.988zm12.827-.355a2.138 2.138 0 100-4.275 2.138 2.138 0 000 4.275zm12.829 0a2.138 2.138 0 100-4.275 2.138 2.138 0 000 4.275zm12.828-.357a1.782 1.782 0 100-3.564 1.782 1.782 0 000 3.564zm12.829-.355a1.426 1.426 0 100-2.852 1.426 1.426 0 000 2.852zm12.829 0a1.426 1.426 0 10-.002-2.852 1.426 1.426 0 00.002 2.852zm12.828-.358a1.068 1.068 0 10.002-2.136 1.068 1.068 0 00-.002 2.136zm12.829 0a1.068 1.068 0 10.002-2.136 1.068 1.068 0 00-.002 2.136zm12.829-.357a.713.713 0 100-1.425.713.713 0 000 1.425zm12.828-.355a.357.357 0 100-.714.357.357 0 000 .714zm12.829 0a.356.356 0 100-.712.356.356 0 000 .712zM25.659 355.784a.357.357 0 100-.713.357.357 0 000 .713zm12.827.357a.712.712 0 100-1.425.712.712 0 000 1.425zm12.827 0a.713.713 0 100-1.425.713.713 0 000 1.425zm12.829.356a1.069 1.069 0 10.001-2.137 1.069 1.069 0 000 2.137zm12.829 0a1.069 1.069 0 10.001-2.137 1.069 1.069 0 000 2.137zm12.829.357a1.425 1.425 0 100-2.85 1.425 1.425 0 000 2.85zm12.828.356a1.782 1.782 0 100-3.564 1.782 1.782 0 000 3.564zm12.828 0a1.781 1.781 0 100-3.563 1.781 1.781 0 000 3.563zm12.829.355a2.138 2.138 0 100-4.275 2.138 2.138 0 000 4.275zm12.829 0a2.138 2.138 0 100-4.275 2.138 2.138 0 000 4.275zm12.829.357a2.494 2.494 0 100-4.988 2.494 2.494 0 000 4.988zm12.828.357a2.85 2.85 0 10-.002-5.702 2.85 2.85 0 00.002 5.702zm12.829 0a2.851 2.851 0 100-5.702 2.851 2.851 0 000 5.702zm12.827.356a3.207 3.207 0 100-6.414 3.207 3.207 0 000 6.414zm12.829 0a3.207 3.207 0 100-6.414 3.207 3.207 0 000 6.414zm12.829 0a3.207 3.207 0 100-6.414 3.207 3.207 0 000 6.414zm12.828 0a3.207 3.207 0 100-6.414 3.207 3.207 0 000 6.414zm12.828 0a3.207 3.207 0 10.001-6.415 3.207 3.207 0 00-.001 6.415zm12.829 0a3.207 3.207 0 10.001-6.415 3.207 3.207 0 00-.001 6.415zm12.829 0a3.207 3.207 0 100-6.414 3.207 3.207 0 000 6.414zm12.828-.356a2.851 2.851 0 100-5.702 2.851 2.851 0 000 5.702zm12.829 0a2.851 2.851 0 100-5.702 2.851 2.851 0 000 5.702zm12.829-.357a2.494 2.494 0 100-4.988 2.494 2.494 0 000 4.988zm12.827-.357a2.138 2.138 0 100-4.275 2.138 2.138 0 000 4.275zm12.829 0a2.138 2.138 0 100-4.275 2.138 2.138 0 000 4.275zm12.828-.355a1.782 1.782 0 100-3.564 1.782 1.782 0 000 3.564zm12.829 0a1.782 1.782 0 100-3.564 1.782 1.782 0 000 3.564zm12.829-.356a1.425 1.425 0 100-2.85 1.425 1.425 0 000 2.85zm12.828-.357a1.068 1.068 0 10.002-2.136 1.068 1.068 0 00-.002 2.136zm12.829 0a1.068 1.068 0 10.002-2.136 1.068 1.068 0 00-.002 2.136zm12.829-.356a.713.713 0 10.001-1.425.713.713 0 00-.001 1.425zm12.828 0a.713.713 0 10.001-1.425.713.713 0 00-.001 1.425zm12.829-.357a.356.356 0 100-.712.356.356 0 000 .712zM25.659 368.613a.356.356 0 100-.712.356.356 0 000 .712zm12.827.355a.712.712 0 100-1.425.712.712 0 000 1.425zm12.827 0a.713.713 0 100-1.425.713.713 0 000 1.425zm12.829.358a1.07 1.07 0 100-2.139 1.07 1.07 0 000 2.139zm12.83.356a1.425 1.425 0 100-2.85 1.425 1.425 0 000 2.85zm12.828 0a1.425 1.425 0 100-2.85 1.425 1.425 0 000 2.85zm12.828.356a1.782 1.782 0 100-3.564 1.782 1.782 0 000 3.564zm12.828 0a1.781 1.781 0 100-3.563 1.781 1.781 0 000 3.563zm12.829.357a2.138 2.138 0 100-4.275 2.138 2.138 0 000 4.275zm12.829.357a2.495 2.495 0 100-4.99 2.495 2.495 0 000 4.99zm12.829 0a2.495 2.495 0 10-.001-4.99 2.495 2.495 0 00.001 4.99zm12.828.356a2.85 2.85 0 10-.002-5.702 2.85 2.85 0 00.002 5.702zm12.829 0a2.851 2.851 0 100-5.702 2.851 2.851 0 000 5.702zm12.827.356a3.207 3.207 0 100-6.414 3.207 3.207 0 000 6.414zm12.829 0a3.207 3.207 0 100-6.414 3.207 3.207 0 000 6.414zm12.83.355a3.563 3.563 0 100-7.125 3.563 3.563 0 000 7.125zm12.827 0a3.564 3.564 0 100-7.127 3.564 3.564 0 000 7.127zm12.829 0a3.564 3.564 0 100-7.127 3.564 3.564 0 000 7.127zm12.828-.355a3.207 3.207 0 10.001-6.415 3.207 3.207 0 00-.001 6.415zm12.829 0a3.207 3.207 0 100-6.414 3.207 3.207 0 000 6.414zm12.828-.356a2.851 2.851 0 100-5.702 2.851 2.851 0 000 5.702zm12.829 0a2.851 2.851 0 100-5.702 2.851 2.851 0 000 5.702zm12.829-.356a2.495 2.495 0 10-.001-4.99 2.495 2.495 0 00.001 4.99zm12.828 0a2.495 2.495 0 100-4.99 2.495 2.495 0 000 4.99zm12.828-.357a2.138 2.138 0 100-4.275 2.138 2.138 0 000 4.275zm12.828-.357a1.782 1.782 0 100-3.564 1.782 1.782 0 000 3.564zm12.829 0a1.782 1.782 0 100-3.564 1.782 1.782 0 000 3.564zm12.829-.356a1.425 1.425 0 100-2.85 1.425 1.425 0 000 2.85zm12.829 0a1.425 1.425 0 100-2.85 1.425 1.425 0 000 2.85zm12.828-.356a1.069 1.069 0 100-2.138 1.069 1.069 0 000 2.138zm12.829-.358a.713.713 0 10.001-1.425.713.713 0 00-.001 1.425zm12.828 0a.713.713 0 10.001-1.425.713.713 0 00-.001 1.425zm12.829-.355a.356.356 0 100-.713.356.356 0 000 .713zM25.659 381.442a.356.356 0 100-.712.356.356 0 000 .712zm12.827.355a.712.712 0 100-1.425.712.712 0 000 1.425zm12.827 0a.713.713 0 100-1.425.713.713 0 000 1.425zm12.829.356a1.07 1.07 0 100-2.139 1.07 1.07 0 000 2.139zm12.83.357a1.425 1.425 0 100-2.85 1.425 1.425 0 000 2.85zm12.828 0a1.425 1.425 0 100-2.85 1.425 1.425 0 000 2.85zm12.828.357a1.782 1.782 0 100-3.564 1.782 1.782 0 000 3.564zm12.828 0a1.781 1.781 0 100-3.563 1.781 1.781 0 000 3.563zm12.829.356a2.138 2.138 0 100-4.275 2.138 2.138 0 000 4.275zm12.829.357a2.495 2.495 0 100-4.99 2.495 2.495 0 000 4.99zm12.829 0a2.495 2.495 0 10-.001-4.99 2.495 2.495 0 00.001 4.99zm12.828.356a2.85 2.85 0 100-5.7 2.85 2.85 0 000 5.7zm12.828.356a3.207 3.207 0 100-6.414 3.207 3.207 0 000 6.414zm12.828 0a3.207 3.207 0 100-6.414 3.207 3.207 0 000 6.414zm12.83.357a3.563 3.563 0 100-7.125 3.563 3.563 0 000 7.125zm12.829 0a3.563 3.563 0 100-7.125 3.563 3.563 0 000 7.125zm12.827 0a3.564 3.564 0 100-7.127 3.564 3.564 0 000 7.127zm12.829 0a3.564 3.564 0 100-7.127 3.564 3.564 0 000 7.127zm12.829 0a3.564 3.564 0 100-7.127 3.564 3.564 0 000 7.127zm12.828-.357a3.207 3.207 0 100-6.414 3.207 3.207 0 000 6.414zm12.829 0a3.207 3.207 0 100-6.413 3.207 3.207 0 000 6.413zm12.828-.356a2.85 2.85 0 10.001-5.7 2.85 2.85 0 00-.001 5.7zm12.829-.356a2.495 2.495 0 10-.001-4.99 2.495 2.495 0 00.001 4.99zm12.828 0a2.495 2.495 0 100-4.99 2.495 2.495 0 000 4.99zm12.828-.357a2.138 2.138 0 100-4.275 2.138 2.138 0 000 4.275zm12.829 0a2.138 2.138 0 100-4.275 2.138 2.138 0 000 4.275zm12.828-.356a1.782 1.782 0 100-3.564 1.782 1.782 0 000 3.564zm12.829-.357a1.425 1.425 0 100-2.85 1.425 1.425 0 000 2.85zm12.829 0a1.425 1.425 0 100-2.85 1.425 1.425 0 000 2.85zm12.828-.357a1.069 1.069 0 100-2.138 1.069 1.069 0 000 2.138zm12.829-.356a.713.713 0 10.001-1.425.713.713 0 00-.001 1.425zm12.828 0a.713.713 0 10.001-1.425.713.713 0 00-.001 1.425zm12.829-.355a.356.356 0 100-.713.356.356 0 000 .713zm12.828 0a.356.356 0 10.001-.713.356.356 0 00-.001.713zM25.659 394.269a.356.356 0 100-.712.356.356 0 000 .712zm12.827.358a.713.713 0 10-.002-1.427.713.713 0 00.002 1.427zm12.827 0a.713.713 0 10-.001-1.427.713.713 0 00.001 1.427zm12.829.356a1.07 1.07 0 100-2.139 1.07 1.07 0 000 2.139zm12.83.355a1.425 1.425 0 100-2.85 1.425 1.425 0 000 2.85zm12.828 0a1.425 1.425 0 100-2.85 1.425 1.425 0 000 2.85zm12.828.357a1.781 1.781 0 10.001-3.563 1.781 1.781 0 00-.001 3.563zm12.828.357a2.14 2.14 0 100-4.278 2.14 2.14 0 000 4.278zm12.829 0a2.138 2.138 0 100-4.277 2.138 2.138 0 000 4.277zm12.829.356a2.495 2.495 0 100-4.99 2.495 2.495 0 000 4.99zm12.829 0a2.495 2.495 0 10-.001-4.99 2.495 2.495 0 00.001 4.99zm12.828.356a2.85 2.85 0 100-5.7 2.85 2.85 0 000 5.7zm12.828.356a3.207 3.207 0 100-6.414 3.207 3.207 0 000 6.414zm12.828 0a3.207 3.207 0 100-6.414 3.207 3.207 0 000 6.414zm12.83.357a3.564 3.564 0 10-.001-7.127 3.564 3.564 0 00.001 7.127zm12.829 0a3.564 3.564 0 10-.001-7.127 3.564 3.564 0 00.001 7.127zm12.827 0a3.564 3.564 0 100-7.129 3.564 3.564 0 000 7.129zm12.829 0a3.564 3.564 0 100-7.129 3.564 3.564 0 000 7.129zm12.829 0a3.564 3.564 0 100-7.129 3.564 3.564 0 000 7.129zm12.828-.357a3.207 3.207 0 100-6.414 3.207 3.207 0 000 6.414zm12.829 0a3.207 3.207 0 100-6.413 3.207 3.207 0 000 6.413zm12.828-.356a2.85 2.85 0 10.001-5.7 2.85 2.85 0 00-.001 5.7zm12.829-.356a2.495 2.495 0 10-.001-4.99 2.495 2.495 0 00.001 4.99zm12.828 0a2.495 2.495 0 100-4.99 2.495 2.495 0 000 4.99zm12.828-.356a2.138 2.138 0 100-4.277 2.138 2.138 0 000 4.277zm12.829 0a2.138 2.138 0 100-4.277 2.138 2.138 0 000 4.277zm12.828-.357a1.781 1.781 0 10.001-3.563 1.781 1.781 0 00-.001 3.563zm12.829-.357a1.425 1.425 0 100-2.85 1.425 1.425 0 000 2.85zm12.829 0a1.425 1.425 0 100-2.85 1.425 1.425 0 000 2.85zm12.828-.355a1.069 1.069 0 100-2.138 1.069 1.069 0 000 2.138zm12.829-.356a.713.713 0 100-1.427.713.713 0 000 1.427zm12.828 0a.713.713 0 100-1.427.713.713 0 000 1.427zm12.829-.358a.356.356 0 10.001-.711.356.356 0 00-.001.711zm12.828 0a.356.356 0 10.001-.713.356.356 0 00-.001.713zM25.659 407.097a.356.356 0 100-.712.356.356 0 000 .712zm12.827.358a.713.713 0 100-1.425.713.713 0 000 1.425zm12.827 0a.713.713 0 100-1.425.713.713 0 000 1.425zm12.829.356a1.07 1.07 0 100-2.139 1.07 1.07 0 000 2.139zm12.83.356a1.425 1.425 0 100-2.85 1.425 1.425 0 000 2.85zm12.828 0a1.425 1.425 0 100-2.85 1.425 1.425 0 000 2.85zm12.828.355a1.781 1.781 0 10.001-3.563 1.781 1.781 0 00-.001 3.563zm12.828.358a2.14 2.14 0 100-4.278 2.14 2.14 0 000 4.278zm12.829 0a2.138 2.138 0 100-4.277 2.138 2.138 0 000 4.277zm12.829.357a2.495 2.495 0 100-4.99 2.495 2.495 0 000 4.99zm12.829 0a2.495 2.495 0 10-.001-4.99 2.495 2.495 0 00.001 4.99zm12.828.357a2.85 2.85 0 100-5.7 2.85 2.85 0 000 5.7zm12.828.355a3.207 3.207 0 100-6.413 3.207 3.207 0 000 6.413zm12.828 0a3.207 3.207 0 100-6.413 3.207 3.207 0 000 6.413zm12.83.357a3.564 3.564 0 10-.001-7.127 3.564 3.564 0 00.001 7.127zm12.829 0a3.564 3.564 0 10-.001-7.127 3.564 3.564 0 00.001 7.127zm12.827 0a3.564 3.564 0 100-7.129 3.564 3.564 0 000 7.129zm12.829 0a3.564 3.564 0 100-7.129 3.564 3.564 0 000 7.129zm12.829 0a3.564 3.564 0 100-7.129 3.564 3.564 0 000 7.129zm12.828-.357a3.207 3.207 0 100-6.413 3.207 3.207 0 000 6.413zm12.829 0a3.207 3.207 0 100-6.415 3.207 3.207 0 000 6.415zm12.828-.355a2.85 2.85 0 10.001-5.7 2.85 2.85 0 00-.001 5.7zm12.829-.357a2.495 2.495 0 10-.001-4.99 2.495 2.495 0 00.001 4.99zm12.828 0a2.495 2.495 0 100-4.99 2.495 2.495 0 000 4.99zm12.828-.357a2.138 2.138 0 100-4.277 2.138 2.138 0 000 4.277zm12.829 0a2.138 2.138 0 100-4.277 2.138 2.138 0 000 4.277zm12.828-.358a1.781 1.781 0 10.001-3.563 1.781 1.781 0 00-.001 3.563zm12.829-.355a1.425 1.425 0 100-2.85 1.425 1.425 0 000 2.85zm12.829 0a1.425 1.425 0 100-2.85 1.425 1.425 0 000 2.85zm12.828-.356a1.069 1.069 0 100-2.138 1.069 1.069 0 000 2.138zm12.829-.356a.713.713 0 100-1.425.713.713 0 000 1.425zm12.828 0a.713.713 0 100-1.425.713.713 0 000 1.425zm12.829-.358a.356.356 0 10.001-.711.356.356 0 00-.001.711zm12.828 0a.356.356 0 10.001-.713.356.356 0 00-.001.713zM25.659 419.928a.357.357 0 10-.001-.713.357.357 0 000 .713zm12.827.356a.713.713 0 100-1.425.713.713 0 000 1.425zm12.827 0a.713.713 0 100-1.425.713.713 0 000 1.425zm12.829.356a1.07 1.07 0 100-2.139 1.07 1.07 0 000 2.139zm12.83.356a1.425 1.425 0 100-2.85 1.425 1.425 0 000 2.85zm12.828 0a1.425 1.425 0 100-2.85 1.425 1.425 0 000 2.85zm12.828.356a1.782 1.782 0 100-3.564 1.782 1.782 0 000 3.564zm12.828 0a1.781 1.781 0 100-3.563 1.781 1.781 0 000 3.563zm12.829.356a2.138 2.138 0 100-4.275 2.138 2.138 0 000 4.275zm12.829.358a2.495 2.495 0 100-4.99 2.495 2.495 0 000 4.99zm12.829 0a2.495 2.495 0 10-.001-4.989 2.495 2.495 0 00.001 4.989zm12.828.355a2.85 2.85 0 100-5.7 2.85 2.85 0 000 5.7zm12.829 0a2.85 2.85 0 10.002-5.7 2.85 2.85 0 00-.002 5.7zm12.827.357a3.207 3.207 0 100-6.415 3.207 3.207 0 000 6.415zm12.829 0a3.207 3.207 0 100-6.415 3.207 3.207 0 000 6.415zm12.83.356a3.564 3.564 0 10-.001-7.127 3.564 3.564 0 00.001 7.127zm12.827 0a3.564 3.564 0 100-7.129 3.564 3.564 0 000 7.129zm12.829 0a3.564 3.564 0 100-7.129 3.564 3.564 0 000 7.129zm12.828-.356a3.208 3.208 0 100-6.415 3.208 3.208 0 000 6.415zm12.829 0a3.207 3.207 0 100-6.415 3.207 3.207 0 000 6.415zm12.828-.357a2.85 2.85 0 10.002-5.7 2.85 2.85 0 00-.002 5.7zm12.829 0a2.85 2.85 0 10.002-5.7 2.85 2.85 0 00-.002 5.7zm12.829-.355a2.495 2.495 0 10-.001-4.989 2.495 2.495 0 00.001 4.989zm12.828 0a2.495 2.495 0 100-4.99 2.495 2.495 0 000 4.99zm12.828-.358a2.138 2.138 0 100-4.275 2.138 2.138 0 000 4.275zm12.828-.356a1.782 1.782 0 100-3.564 1.782 1.782 0 000 3.564zm12.829 0a1.782 1.782 0 100-3.564 1.782 1.782 0 000 3.564zm12.829-.356a1.425 1.425 0 100-2.85 1.425 1.425 0 000 2.85zm12.829 0a1.425 1.425 0 100-2.85 1.425 1.425 0 000 2.85zm12.828-.356a1.069 1.069 0 100-2.138 1.069 1.069 0 000 2.138zm12.829-.356a.713.713 0 100-1.425.713.713 0 000 1.425zm12.828 0a.713.713 0 100-1.425.713.713 0 000 1.425zm12.829-.356a.356.356 0 100-.713.356.356 0 000 .713zM25.659 432.755a.357.357 0 10-.001-.713.357.357 0 000 .713zm12.827.357a.713.713 0 100-1.425.713.713 0 000 1.425zm12.827 0a.713.713 0 100-1.425.713.713 0 000 1.425zm12.829.356a1.07 1.07 0 100-2.139 1.07 1.07 0 000 2.139zm12.829 0a1.07 1.07 0 100-2.138 1.07 1.07 0 000 2.138zm12.829.356a1.425 1.425 0 100-2.85 1.425 1.425 0 000 2.85zm12.828.358a1.782 1.782 0 100-3.564 1.782 1.782 0 000 3.564zm12.828 0a1.781 1.781 0 100-3.563 1.781 1.781 0 000 3.563zm12.829.355a2.138 2.138 0 100-4.275 2.138 2.138 0 000 4.275zm12.829 0a2.138 2.138 0 100-4.275 2.138 2.138 0 000 4.275zm12.829.357a2.495 2.495 0 10-.001-4.989 2.495 2.495 0 00.001 4.989zm12.828.355a2.85 2.85 0 100-5.7 2.85 2.85 0 000 5.7zm12.829 0a2.85 2.85 0 10.002-5.7 2.85 2.85 0 00-.002 5.7zm12.827.357a3.207 3.207 0 100-6.414 3.207 3.207 0 000 6.414zm12.829 0a3.207 3.207 0 100-6.414 3.207 3.207 0 000 6.414zm12.829 0a3.207 3.207 0 100-6.414 3.207 3.207 0 000 6.414zm12.828 0a3.207 3.207 0 100-6.414 3.207 3.207 0 000 6.414zm12.828 0a3.207 3.207 0 10.001-6.415 3.207 3.207 0 00-.001 6.415zm12.829 0a3.207 3.207 0 10.001-6.415 3.207 3.207 0 00-.001 6.415zm12.829 0a3.207 3.207 0 100-6.414 3.207 3.207 0 000 6.414zm12.828-.357a2.85 2.85 0 10.002-5.7 2.85 2.85 0 00-.002 5.7zm12.829 0a2.85 2.85 0 10.002-5.7 2.85 2.85 0 00-.002 5.7zm12.829-.355a2.495 2.495 0 10-.001-4.989 2.495 2.495 0 00.001 4.989zm12.827-.357a2.138 2.138 0 100-4.275 2.138 2.138 0 000 4.275zm12.829 0a2.138 2.138 0 100-4.275 2.138 2.138 0 000 4.275zm12.828-.355a1.782 1.782 0 100-3.564 1.782 1.782 0 000 3.564zm12.829 0a1.782 1.782 0 100-3.564 1.782 1.782 0 000 3.564zm12.829-.358a1.425 1.425 0 100-2.85 1.425 1.425 0 000 2.85zm12.828-.356a1.069 1.069 0 100-2.138 1.069 1.069 0 000 2.138zm12.829 0a1.069 1.069 0 100-2.138 1.069 1.069 0 000 2.138zm12.829-.356a.713.713 0 100-1.425.713.713 0 000 1.425zm12.828 0a.713.713 0 100-1.425.713.713 0 000 1.425zm12.829-.357a.356.356 0 100-.713.356.356 0 000 .713zM25.659 445.584a.357.357 0 10-.001-.713.357.357 0 000 .713zm12.827 0a.357.357 0 10-.001-.714.357.357 0 000 .714zm12.827.355a.713.713 0 100-1.425.713.713 0 000 1.425zm12.829.357a1.069 1.069 0 10.001-2.137 1.069 1.069 0 000 2.137zm12.829 0a1.069 1.069 0 10.001-2.137 1.069 1.069 0 000 2.137zm12.829.357a1.426 1.426 0 10-.001-2.852 1.426 1.426 0 00.001 2.852zm12.827 0a1.426 1.426 0 100-2.852 1.426 1.426 0 000 2.852zm12.829.356a1.781 1.781 0 100-3.563 1.781 1.781 0 000 3.563zm12.829.357a2.138 2.138 0 100-4.275 2.138 2.138 0 000 4.275zm12.829 0a2.138 2.138 0 100-4.275 2.138 2.138 0 000 4.275zm12.829.356a2.495 2.495 0 10-.001-4.989 2.495 2.495 0 00.001 4.989zm12.829 0a2.495 2.495 0 10-.001-4.989 2.495 2.495 0 00.001 4.989zm12.828.357a2.851 2.851 0 100-5.702 2.851 2.851 0 000 5.702zm12.828 0a2.851 2.851 0 100-5.702 2.851 2.851 0 000 5.702zm12.829 0a2.85 2.85 0 10-.002-5.702 2.85 2.85 0 00.002 5.702zm12.828.357a3.207 3.207 0 100-6.414 3.207 3.207 0 000 6.414zm12.828 0a3.207 3.207 0 100-6.414 3.207 3.207 0 000 6.414zm12.828 0a3.207 3.207 0 10.001-6.415 3.207 3.207 0 00-.001 6.415zm12.829-.357a2.852 2.852 0 10-.001-5.703 2.852 2.852 0 00.001 5.703zm12.828 0a2.851 2.851 0 100-5.702 2.851 2.851 0 000 5.702zm12.829 0a2.851 2.851 0 100-5.702 2.851 2.851 0 000 5.702zm12.829-.357a2.494 2.494 0 100-4.988 2.494 2.494 0 000 4.988zm12.829 0a2.495 2.495 0 10-.001-4.989 2.495 2.495 0 00.001 4.989zm12.827-.356a2.138 2.138 0 100-4.275 2.138 2.138 0 000 4.275zm12.829 0a2.138 2.138 0 100-4.275 2.138 2.138 0 000 4.275zm12.828-.357a1.782 1.782 0 100-3.564 1.782 1.782 0 000 3.564zm12.829-.356a1.426 1.426 0 100-2.852 1.426 1.426 0 000 2.852zm12.829 0a1.426 1.426 0 10-.002-2.852 1.426 1.426 0 00.002 2.852zm12.828-.357a1.068 1.068 0 10.002-2.136 1.068 1.068 0 00-.002 2.136zm12.829 0a1.068 1.068 0 10.002-2.136 1.068 1.068 0 00-.002 2.136zm12.829-.357a.713.713 0 100-1.425.713.713 0 000 1.425zm12.828-.355a.357.357 0 100-.714.357.357 0 000 .714zm12.829 0a.356.356 0 100-.713.356.356 0 000 .713zM25.659 458.413a.357.357 0 100-.713.357.357 0 000 .713zm12.827 0a.357.357 0 100-.713.357.357 0 000 .713zm12.827.356a.713.713 0 100-1.425.713.713 0 000 1.425zm12.829 0a.713.713 0 100-1.425.713.713 0 000 1.425zm12.829.356a1.069 1.069 0 10.001-2.137 1.069 1.069 0 000 2.137zm12.829.357a1.425 1.425 0 100-2.85 1.425 1.425 0 000 2.85zm12.827 0a1.425 1.425 0 10.001-2.85 1.425 1.425 0 00-.001 2.85zm12.829.357a1.781 1.781 0 100-3.563 1.781 1.781 0 000 3.563zm12.829 0a1.781 1.781 0 100-3.563 1.781 1.781 0 000 3.563zm12.829.355a2.138 2.138 0 100-4.275 2.138 2.138 0 000 4.275zm12.829 0a2.138 2.138 0 100-4.275 2.138 2.138 0 000 4.275zm12.829.356a2.494 2.494 0 100-4.988 2.494 2.494 0 000 4.988zm12.827 0a2.494 2.494 0 100-4.988 2.494 2.494 0 000 4.988zm12.829.357a2.851 2.851 0 100-5.702 2.851 2.851 0 000 5.702zm12.829 0a2.85 2.85 0 10-.002-5.702 2.85 2.85 0 00.002 5.702zm12.828 0a2.852 2.852 0 10-.001-5.703 2.852 2.852 0 00.001 5.703zm12.829 0a2.85 2.85 0 10-.002-5.702 2.85 2.85 0 00.002 5.702zm12.829 0a2.85 2.85 0 10-.002-5.702 2.85 2.85 0 00.002 5.702zm12.827 0a2.852 2.852 0 10-.001-5.703 2.852 2.852 0 00.001 5.703zm12.828 0a2.851 2.851 0 100-5.702 2.851 2.851 0 000 5.702zm12.829-.357a2.494 2.494 0 10.002-4.988 2.494 2.494 0 00-.002 4.988zm12.829 0a2.493 2.493 0 100-4.988 2.493 2.493 0 100 4.988zm12.828-.356a2.138 2.138 0 100-4.275 2.138 2.138 0 000 4.275zm12.828 0a2.138 2.138 0 100-4.275 2.138 2.138 0 000 4.275zm12.83-.355a1.782 1.782 0 100-3.564 1.782 1.782 0 000 3.564zm12.827 0a1.782 1.782 0 100-3.564 1.782 1.782 0 000 3.564zm12.829-.357a1.425 1.425 0 10.001-2.85 1.425 1.425 0 00-.001 2.85zm12.829 0a1.425 1.425 0 100-2.85 1.425 1.425 0 000 2.85zm12.828-.357a1.068 1.068 0 10.002-2.136 1.068 1.068 0 00-.002 2.136zm12.828-.356a.713.713 0 100-1.425.713.713 0 000 1.425zm12.83 0a.713.713 0 100-1.425.713.713 0 000 1.425zm12.828-.356a.357.357 0 100-.714.357.357 0 000 .714zm12.829 0a.356.356 0 100-.712.356.356 0 000 .712zM38.486 471.241a.357.357 0 100-.713.357.357 0 000 .713zm12.827.356a.713.713 0 100-1.425.713.713 0 000 1.425zm12.829 0a.713.713 0 100-1.425.713.713 0 000 1.425zm12.829.357a1.07 1.07 0 100-2.139 1.07 1.07 0 000 2.139zm12.829 0a1.07 1.07 0 100-2.139 1.07 1.07 0 000 2.139zm12.827.357a1.425 1.425 0 10.001-2.85 1.425 1.425 0 00-.001 2.85zm12.829 0a1.425 1.425 0 10.001-2.85 1.425 1.425 0 00-.001 2.85zm12.829.355a1.781 1.781 0 100-3.563 1.781 1.781 0 000 3.563zm12.829 0a1.782 1.782 0 100-3.564 1.782 1.782 0 000 3.564zm12.829.357a2.138 2.138 0 100-4.275 2.138 2.138 0 000 4.275zm12.828 0a2.138 2.138 0 100-4.275 2.138 2.138 0 000 4.275zm12.828.356a2.495 2.495 0 10-.001-4.99 2.495 2.495 0 00.001 4.99zm12.829 0a2.495 2.495 0 100-4.99 2.495 2.495 0 000 4.99zm12.828 0a2.495 2.495 0 10-.001-4.99 2.495 2.495 0 00.001 4.99zm12.829 0a2.495 2.495 0 10-.001-4.99 2.495 2.495 0 00.001 4.99zm12.828 0a2.495 2.495 0 100-4.99 2.495 2.495 0 000 4.99zm12.829 0a2.495 2.495 0 100-4.99 2.495 2.495 0 000 4.99zm12.829 0a2.495 2.495 0 10-.001-4.99 2.495 2.495 0 00.001 4.99zm12.827 0a2.495 2.495 0 100-4.99 2.495 2.495 0 000 4.99zm12.829 0a2.495 2.495 0 100-4.99 2.495 2.495 0 000 4.99zm12.829-.356a2.138 2.138 0 100-4.275 2.138 2.138 0 000 4.275zm12.828 0a2.138 2.138 0 100-4.275 2.138 2.138 0 000 4.275zm12.83-.357a1.781 1.781 0 100-3.563 1.781 1.781 0 000 3.563zm12.828 0a1.782 1.782 0 100-3.564 1.782 1.782 0 000 3.564zm12.828-.355a1.425 1.425 0 10.001-2.85 1.425 1.425 0 00-.001 2.85zm12.828 0a1.425 1.425 0 10.001-2.85 1.425 1.425 0 00-.001 2.85zm12.83-.357a1.07 1.07 0 100-2.138 1.07 1.07 0 000 2.138zm12.827 0a1.07 1.07 0 100-2.138 1.07 1.07 0 000 2.138zm12.828-.357a.713.713 0 10.001-1.425.713.713 0 00-.001 1.425zm12.83 0a.713.713 0 10.001-1.425.713.713 0 00-.001 1.425zm12.828-.356a.357.357 0 100-.714.357.357 0 000 .714zm12.829 0a.356.356 0 100-.712.356.356 0 000 .712zM38.486 484.069a.356.356 0 100-.712.356.356 0 000 .712zm12.828 0a.356.356 0 100-.712.356.356 0 000 .712zm12.828.357a.713.713 0 100-1.425.713.713 0 000 1.425zm12.828 0a.712.712 0 10.001-1.425.712.712 0 000 1.425zm12.83.356a1.07 1.07 0 100-2.138 1.07 1.07 0 000 2.138zm12.827.357a1.425 1.425 0 10.001-2.85 1.425 1.425 0 00-.001 2.85zm12.829 0a1.425 1.425 0 10.001-2.85 1.425 1.425 0 00-.001 2.85zm12.829.356a1.781 1.781 0 100-3.563 1.781 1.781 0 000 3.563zm12.829 0a1.782 1.782 0 100-3.564 1.782 1.782 0 000 3.564zm12.829 0a1.781 1.781 0 100-3.563 1.781 1.781 0 000 3.563zm12.828.355a2.138 2.138 0 100-4.275 2.138 2.138 0 000 4.275zm12.828 0a2.138 2.138 0 100-4.275 2.138 2.138 0 000 4.275zm12.828 0a2.139 2.139 0 100-4.277 2.139 2.139 0 000 4.277zm12.829.358a2.495 2.495 0 10-.001-4.99 2.495 2.495 0 00.001 4.99zm12.829 0a2.495 2.495 0 10-.001-4.99 2.495 2.495 0 00.001 4.99zm12.828 0a2.495 2.495 0 100-4.99 2.495 2.495 0 000 4.99zm12.829 0a2.495 2.495 0 100-4.99 2.495 2.495 0 000 4.99zm12.829 0a2.495 2.495 0 10-.001-4.99 2.495 2.495 0 00.001 4.99zm12.828-.358a2.138 2.138 0 100-4.275 2.138 2.138 0 000 4.275zm12.829 0a2.138 2.138 0 100-4.275 2.138 2.138 0 000 4.275zm12.828 0a2.138 2.138 0 100-4.275 2.138 2.138 0 000 4.275zm12.829-.355a1.782 1.782 0 100-3.564 1.782 1.782 0 000 3.564zm12.829 0a1.781 1.781 0 100-3.563 1.781 1.781 0 000 3.563zm12.828 0a1.782 1.782 0 100-3.564 1.782 1.782 0 000 3.564zm12.828-.356a1.425 1.425 0 10.001-2.85 1.425 1.425 0 00-.001 2.85zm12.828 0a1.425 1.425 0 10.001-2.85 1.425 1.425 0 00-.001 2.85zm12.83-.357a1.069 1.069 0 100-2.138 1.069 1.069 0 000 2.138zm12.827 0a1.069 1.069 0 100-2.138 1.069 1.069 0 000 2.138zm12.828-.356a.713.713 0 10.001-1.425.713.713 0 00-.001 1.425zm12.83-.357a.356.356 0 100-.713.356.356 0 000 .713zm12.828 0a.356.356 0 10.001-.713.356.356 0 00-.001.713zM38.486 496.898a.356.356 0 100-.712.356.356 0 000 .712zm12.828 0a.356.356 0 100-.712.356.356 0 000 .712zm12.828.357a.713.713 0 10-.002-1.427.713.713 0 00.002 1.427zm12.828 0a.713.713 0 100-1.427.713.713 0 000 1.427zm12.83.356a1.07 1.07 0 100-2.138 1.07 1.07 0 000 2.138zm12.829 0a1.069 1.069 0 100-2.138 1.069 1.069 0 000 2.138zm12.827.356a1.425 1.425 0 10.002-2.85 1.425 1.425 0 00-.002 2.85zm12.829 0a1.425 1.425 0 100-2.85 1.425 1.425 0 000 2.85zm12.829.357a1.782 1.782 0 100-3.563 1.782 1.782 0 000 3.563zm12.829 0a1.78 1.78 0 100-3.561 1.78 1.78 0 000 3.561zm12.828 0a1.78 1.78 0 10.002-3.562 1.78 1.78 0 00-.002 3.562zm12.828.356a2.138 2.138 0 100-4.275 2.138 2.138 0 000 4.275zm12.828 0a2.139 2.139 0 100-4.277 2.139 2.139 0 000 4.277zm12.829 0a2.139 2.139 0 100-4.277 2.139 2.139 0 000 4.277zm12.829 0a2.138 2.138 0 100-4.275 2.138 2.138 0 000 4.275zm12.828 0a2.138 2.138 0 100-4.275 2.138 2.138 0 000 4.275zm12.829 0a2.139 2.139 0 100-4.277 2.139 2.139 0 000 4.277zm12.829 0a2.138 2.138 0 100-4.275 2.138 2.138 0 000 4.275zm12.828 0a2.138 2.138 0 100-4.275 2.138 2.138 0 000 4.275zm12.829 0a2.138 2.138 0 100-4.275 2.138 2.138 0 000 4.275zm12.829-.356a1.78 1.78 0 100-3.561 1.78 1.78 0 000 3.561zm12.828 0a1.782 1.782 0 100-3.563 1.782 1.782 0 000 3.563zm12.829 0a1.78 1.78 0 100-3.561 1.78 1.78 0 000 3.561zm12.828-.357a1.425 1.425 0 100-2.85 1.425 1.425 0 000 2.85zm12.828 0a1.425 1.425 0 10.002-2.85 1.425 1.425 0 00-.002 2.85zm12.829-.356a1.07 1.07 0 10-.001-2.139 1.07 1.07 0 00.001 2.139zm12.829 0a1.069 1.069 0 100-2.138 1.069 1.069 0 000 2.138zm12.828-.356a.713.713 0 100-1.427.713.713 0 000 1.427zm12.827 0a.713.713 0 100-1.427.713.713 0 000 1.427zm12.83-.357a.356.356 0 10.001-.711.356.356 0 00-.001.711zm12.828 0a.356.356 0 10.001-.713.356.356 0 00-.001.713zM51.314 509.726a.356.356 0 100-.712.356.356 0 000 .712zm12.828 0a.356.356 0 100-.712.356.356 0 000 .712zm12.828.357a.713.713 0 100-1.425.713.713 0 000 1.425zm12.83 0a.713.713 0 100-1.425.713.713 0 000 1.425zm12.829.356a1.069 1.069 0 100-2.138 1.069 1.069 0 000 2.138zm12.828 0a1.07 1.07 0 10-.001-2.139 1.07 1.07 0 00.001 2.139zm12.828.356a1.425 1.425 0 100-2.85 1.425 1.425 0 000 2.85zm12.828 0a1.425 1.425 0 10.002-2.85 1.425 1.425 0 00-.002 2.85zm12.829 0a1.425 1.425 0 10.002-2.85 1.425 1.425 0 00-.002 2.85zm12.829.357a1.78 1.78 0 10.003-3.561 1.78 1.78 0 00-.003 3.561zm12.828 0a1.781 1.781 0 10.001-3.563 1.781 1.781 0 00-.001 3.563zm12.829 0a1.78 1.78 0 100-3.563 1.782 1.782 0 000 3.563zm12.828 0a1.78 1.78 0 100-3.563 1.782 1.782 0 000 3.563zm12.829.357a2.139 2.139 0 10-.001-4.277 2.139 2.139 0 00.001 4.277zm12.828 0a2.139 2.139 0 10-.001-4.277 2.139 2.139 0 00.001 4.277zm12.829 0a2.14 2.14 0 100-4.279 2.14 2.14 0 000 4.279zm12.828-.357a1.781 1.781 0 10.001-3.563 1.781 1.781 0 00-.001 3.563zm12.829 0a1.781 1.781 0 10.001-3.563 1.781 1.781 0 00-.001 3.563zm12.829 0a1.781 1.781 0 10.001-3.563 1.781 1.781 0 00-.001 3.563zm12.829 0a1.78 1.78 0 100-3.563 1.782 1.782 0 000 3.563zm12.828-.357a1.425 1.425 0 10.002-2.85 1.425 1.425 0 00-.002 2.85zm12.829 0a1.426 1.426 0 100-2.852 1.426 1.426 0 000 2.852zm12.828 0a1.425 1.425 0 100-2.85 1.425 1.425 0 000 2.85zm12.828-.356a1.07 1.07 0 10-.001-2.139 1.07 1.07 0 00.001 2.139zm12.829 0a1.07 1.07 0 10-.001-2.139 1.07 1.07 0 00.001 2.139zm12.828-.356a.713.713 0 100-1.425.713.713 0 000 1.425zm12.829 0a.713.713 0 100-1.425.713.713 0 000 1.425zm12.828-.357a.356.356 0 10.001-.713.356.356 0 00-.001.713zm12.829 0a.356.356 0 10.001-.711.356.356 0 00-.001.711zM64.142 522.555a.356.356 0 100-.712.356.356 0 000 .712zm12.828 0a.356.356 0 10.002-.712.356.356 0 00-.001.712zm12.83.358a.713.713 0 100-1.425.713.713 0 000 1.425zm12.828 0a.713.713 0 100-1.425.713.713 0 000 1.425zm12.829.355a1.07 1.07 0 10-.001-2.139 1.07 1.07 0 00.001 2.139zm12.828 0a1.07 1.07 0 10-.001-2.139 1.07 1.07 0 00.001 2.139zm12.828.356a1.425 1.425 0 10.002-2.85 1.425 1.425 0 00-.002 2.85zm12.829 0a1.425 1.425 0 10.002-2.85 1.425 1.425 0 00-.002 2.85zm12.829 0a1.425 1.425 0 100-2.85 1.425 1.425 0 000 2.85zm12.828 0a1.425 1.425 0 10.002-2.85 1.425 1.425 0 00-.002 2.85zm12.829.356a1.78 1.78 0 100-3.563 1.782 1.782 0 000 3.563zm12.828 0a1.78 1.78 0 100-3.563 1.782 1.782 0 000 3.563zm12.829 0a1.78 1.78 0 100-3.563 1.782 1.782 0 000 3.563zm12.828 0a1.781 1.781 0 10.001-3.563 1.781 1.781 0 00-.001 3.563zm12.829 0a1.78 1.78 0 100-3.563 1.782 1.782 0 000 3.563zm12.828 0a1.781 1.781 0 10.001-3.563 1.781 1.781 0 00-.001 3.563zm12.829 0a1.781 1.781 0 10.001-3.563 1.781 1.781 0 00-.001 3.563zm12.828-.356a1.425 1.425 0 10.002-2.85 1.425 1.425 0 00-.002 2.85zm12.829 0a1.425 1.425 0 100-2.85 1.425 1.425 0 000 2.85zm12.829 0a1.425 1.425 0 10.002-2.85 1.425 1.425 0 00-.002 2.85zm12.829 0a1.426 1.426 0 100-2.852 1.426 1.426 0 000 2.852zm12.828-.356a1.069 1.069 0 100-2.138 1.069 1.069 0 000 2.138zm12.828 0a1.07 1.07 0 10-.001-2.139 1.07 1.07 0 00.001 2.139zm12.828-.355a.713.713 0 100-1.425.713.713 0 000 1.425zm12.829 0a.713.713 0 100-1.425.713.713 0 000 1.425zm12.828-.358a.356.356 0 10.001-.711.356.356 0 00-.001.711zm12.829 0a.356.356 0 10.001-.713.356.356 0 00-.001.713zM76.97 535.384a.357.357 0 100-.713.357.357 0 000 .713zm12.83 0a.357.357 0 10-.001-.713.357.357 0 000 .713zm12.828.356a.713.713 0 100-1.425.713.713 0 000 1.425zm12.83 0a.713.713 0 10-.001-1.425.713.713 0 00.001 1.425zm12.827.357a1.069 1.069 0 100-2.138 1.069 1.069 0 000 2.138zm12.829 0a1.069 1.069 0 100-2.138 1.069 1.069 0 000 2.138zm12.828 0a1.069 1.069 0 100-2.138 1.069 1.069 0 000 2.138zm12.829.355a1.425 1.425 0 100-2.85 1.425 1.425 0 000 2.85zm12.828 0a1.425 1.425 0 10.002-2.85 1.425 1.425 0 00-.002 2.85zm12.829 0a1.425 1.425 0 10.002-2.85 1.425 1.425 0 00-.002 2.85zm12.829 0a1.425 1.425 0 100-2.85 1.425 1.425 0 000 2.85zm12.828 0a1.425 1.425 0 10.002-2.85 1.425 1.425 0 00-.002 2.85zm12.829 0a1.425 1.425 0 10.002-2.85 1.425 1.425 0 00-.002 2.85zm12.828 0a1.425 1.425 0 100-2.85 1.425 1.425 0 000 2.85zm12.827 0a1.425 1.425 0 10.002-2.85 1.425 1.425 0 00-.002 2.85zm12.83 0a1.425 1.425 0 100-2.85 1.425 1.425 0 000 2.85zm12.828 0a1.425 1.425 0 10.002-2.85 1.425 1.425 0 00-.002 2.85zm12.829 0a1.425 1.425 0 100-2.85 1.425 1.425 0 000 2.85zm12.828-.355a1.07 1.07 0 10.002-2.138 1.07 1.07 0 00-.002 2.138zm12.83 0a1.069 1.069 0 100-2.138 1.069 1.069 0 000 2.138zm12.828 0a1.068 1.068 0 10.002-2.136 1.068 1.068 0 00-.002 2.136zm12.828-.357a.713.713 0 100-1.425.713.713 0 000 1.425zm12.828 0a.713.713 0 100-1.425.713.713 0 000 1.425zm12.83-.356a.356.356 0 100-.713.356.356 0 000 .713zm12.827 0a.356.356 0 100-.713.356.356 0 000 .713zm12.829 0a.357.357 0 100-.714.357.357 0 000 .714zM76.97 548.213a.357.357 0 100-.713.357.357 0 000 .713zm12.83 0a.357.357 0 10-.001-.713.357.357 0 000 .713zm12.828 0a.357.357 0 000-.713.357.357 0 000 .713zm12.83.356a.713.713 0 10-.001-1.425.713.713 0 00.001 1.425zm12.827 0a.713.713 0 100-1.425.713.713 0 000 1.425zm12.829 0a.713.713 0 100-1.425.713.713 0 000 1.425zm12.828.356a1.069 1.069 0 100-2.138 1.069 1.069 0 000 2.138zm12.828 0a1.068 1.068 0 10.002-2.136 1.068 1.068 0 00-.002 2.136zm12.829 0a1.068 1.068 0 10.002-2.136 1.068 1.068 0 00-.002 2.136zm12.829 0a1.069 1.069 0 100-2.138 1.069 1.069 0 000 2.138zm12.829.356a1.425 1.425 0 100-2.85 1.425 1.425 0 000 2.85zm12.828 0a1.425 1.425 0 10.002-2.85 1.425 1.425 0 00-.002 2.85zm12.829 0a1.425 1.425 0 10.002-2.85 1.425 1.425 0 00-.002 2.85zm12.828 0a1.425 1.425 0 100-2.85 1.425 1.425 0 000 2.85zm12.827 0a1.425 1.425 0 10.002-2.85 1.425 1.425 0 00-.002 2.85zm12.83-.356a1.069 1.069 0 100-2.138 1.069 1.069 0 000 2.138zm12.828 0a1.07 1.07 0 10.002-2.138 1.07 1.07 0 00-.002 2.138zm12.829 0a1.068 1.068 0 10.002-2.136 1.068 1.068 0 00-.002 2.136zm12.828 0a1.07 1.07 0 10.002-2.138 1.07 1.07 0 00-.002 2.138zm12.83 0a1.069 1.069 0 100-2.138 1.069 1.069 0 000 2.138zm12.828-.356a.713.713 0 100-1.427.713.713 0 000 1.427zm12.828 0a.713.713 0 100-1.425.713.713 0 000 1.425zm12.829-.356a.356.356 0 100-.713.356.356 0 000 .713zm12.829 0a.356.356 0 100-.713.356.356 0 000 .713zm12.827 0a.356.356 0 100-.713.356.356 0 000 .713zM89.8 561.041a.357.357 0 10-.001-.713.357.357 0 000 .713zm12.828 0a.357.357 0 000-.713.357.357 0 000 .713zm12.829 0a.356.356 0 100-.713.356.356 0 000 .713zm12.828.356a.713.713 0 100-1.425.713.713 0 000 1.425zm12.829 0a.713.713 0 100-1.425.713.713 0 000 1.425zm12.828 0a.713.713 0 10-.001-1.425.713.713 0 00.001 1.425zm12.829 0a.713.713 0 10-.001-1.425.713.713 0 00.001 1.425zm12.828.356a1.068 1.068 0 10.002-2.136 1.068 1.068 0 00-.002 2.136zm12.829 0a1.069 1.069 0 100-2.138 1.069 1.069 0 000 2.138zm12.829 0a1.068 1.068 0 10.002-2.136 1.068 1.068 0 00-.002 2.136zm12.828 0a1.069 1.069 0 100-2.138 1.069 1.069 0 000 2.138zm12.829 0a1.069 1.069 0 100-2.138 1.069 1.069 0 000 2.138zm12.828 0a1.068 1.068 0 10.002-2.136 1.068 1.068 0 00-.002 2.136zm12.829 0a1.069 1.069 0 100-2.138 1.069 1.069 0 000 2.138zm12.828 0a1.069 1.069 0 100-2.138 1.069 1.069 0 000 2.138zm12.828 0a1.07 1.07 0 10.002-2.138 1.07 1.07 0 00-.002 2.138zm12.829-.356a.713.713 0 10-.001-1.425.713.713 0 00.001 1.425zm12.829 0a.713.713 0 100-1.427.713.713 0 000 1.427zm12.828 0a.713.713 0 100-1.425.713.713 0 000 1.425zm12.829 0a.713.713 0 100-1.427.713.713 0 000 1.427zm12.829-.356a.357.357 0 000-.713.357.357 0 000 .713zm12.828 0a.356.356 0 100-.713.356.356 0 000 .713zm12.829 0a.356.356 0 100-.713.356.356 0 000 .713zm-256.571 12.828a.356.356 0 100-.712.356.356 0 000 .712zm12.827 0a.357.357 0 100-.714.357.357 0 000 .714zm12.829 0a.357.357 0 100-.714.357.357 0 000 .714zm12.829.357a.713.713 0 10-.001-1.425.713.713 0 00.001 1.425zm12.829 0a.713.713 0 10-.001-1.425.713.713 0 00.001 1.425zm12.828 0a.713.713 0 100-1.425.713.713 0 000 1.425zm12.829 0a.713.713 0 10-.001-1.425.713.713 0 00.001 1.425zm12.829 0a.713.713 0 10-.001-1.425.713.713 0 00.001 1.425zm12.828 0a.713.713 0 100-1.425.713.713 0 000 1.425zm12.829 0a.713.713 0 100-1.425.713.713 0 000 1.425zm12.827 0a.713.713 0 100-1.425.713.713 0 000 1.425zm12.829 0a.713.713 0 100-1.425.713.713 0 000 1.425zm12.828 0a.713.713 0 100-1.425.713.713 0 000 1.425zm12.829 0a.713.713 0 100-1.427.713.713 0 000 1.427zm12.829 0a.713.713 0 10-.001-1.425.713.713 0 00.001 1.425zm12.829 0a.713.713 0 100-1.427.713.713 0 000 1.427zm12.828-.357a.357.357 0 10-.002-.714.357.357 0 00.002.714zm12.829 0a.356.356 0 100-.712.356.356 0 000 .712zm12.829 0a.357.357 0 100-.714.357.357 0 000 .714zm-218.087 12.828a.356.356 0 10.001-.713.356.356 0 00-.001.713zm12.829 0a.356.356 0 10.001-.713.356.356 0 00-.001.713zm12.829 0a.356.356 0 100-.713.356.356 0 000 .713zm12.829 0a.356.356 0 10.001-.713.356.356 0 00-.001.713zm12.829 0a.356.356 0 10.001-.713.356.356 0 00-.001.713zm12.828.357a.712.712 0 100-1.425.712.712 0 000 1.425zm12.829 0a.712.712 0 100-1.425.712.712 0 000 1.425zm12.828 0a.713.713 0 10.001-1.425.713.713 0 00-.001 1.425zm12.829 0a.713.713 0 10.001-1.425.713.713 0 00-.001 1.425zm12.827 0a.713.713 0 10.001-1.425.713.713 0 00-.001 1.425zm12.829 0a.713.713 0 10.001-1.425.713.713 0 00-.001 1.425zm12.828 0a.713.713 0 10.001-1.425.713.713 0 00-.001 1.425zm12.83-.357a.356.356 0 100-.713.356.356 0 000 .713zm12.827 0a.356.356 0 100-.713.356.356 0 000 .713zm12.829 0a.356.356 0 10.001-.713.356.356 0 00-.001.713zm12.829 0a.356.356 0 100-.712.356.356 0 000 .712zm12.829 0a.356.356 0 100-.713.356.356 0 000 .713zm-166.771 12.829a.356.356 0 10.001-.713.356.356 0 00-.001.713zm12.829 0a.356.356 0 10.001-.713.356.356 0 00-.001.713zm12.827 0a.356.356 0 100-.713.356.356 0 000 .713zm12.829 0a.356.356 0 100-.713.356.356 0 000 .713zm12.829 0a.356.356 0 100-.712.356.356 0 000 .712zm12.829 0a.356.356 0 100-.712.356.356 0 000 .712zm12.828 0a.356.356 0 10.001-.713.356.356 0 00-.001.713zm12.828 0a.356.356 0 100-.713.356.356 0 000 .713zm12.829 0a.356.356 0 10.001-.713.356.356 0 00-.001.713zm12.829 0a.356.356 0 100-.713.356.356 0 000 .713zm12.827 0a.356.356 0 100-.713.356.356 0 000 .713zm12.829 0a.356.356 0 10.001-.713.356.356 0 00-.001.713zm-89.799 12.829a.356.356 0 100-.712.356.356 0 000 .712zm12.829 0a.356.356 0 100-.712.356.356 0 000 .712zm12.828 0a.356.356 0 10.001-.713.356.356 0 00-.001.713z" fill="#01E482"/><defs><linearGradient id="paint0_linear" x1="238" y1="-12.138" x2="124.345" y2="128" gradientUnits="userSpaceOnUse"><stop offset=".158" stop-color="#00B767"/><stop offset="1" stop-color="#00E884"/></linearGradient></defs></svg>