<svg width="239" height="451" fill="none" xmlns="http://www.w3.org/2000/svg"><path d="M88.57 13.816a.19.19 0 100-.379.19.19 0 000 .379zm6.813 0a.19.19 0 100-.378.19.19 0 000 .378zm6.812 0a.19.19 0 100-.379.19.19 0 000 .379zm6.813 0a.189.189 0 00.189-.19.189.189 0 10-.378 0c0 .105.085.19.189.19zm6.813 0a.19.19 0 100-.38.19.19 0 000 .38zm6.813 0a.189.189 0 00.189-.19.189.189 0 10-.378 0c0 .105.085.19.189.19zm6.814 0a.19.19 0 100-.379.19.19 0 000 .379zm6.812 0a.19.19 0 100-.38.19.19 0 000 .38zm6.814 0a.19.19 0 100-.379.19.19 0 000 .379zm6.813 0a.19.19 0 100-.379.19.19 0 000 .379zm6.812 0a.19.19 0 100-.38.19.19 0 000 .38zm-81.756 6.812a.19.19 0 100-.378.19.19 0 000 .378zm6.813 0a.19.19 0 100-.378.19.19 0 000 .378zm6.814 0a.19.19 0 100-.378.19.19 0 000 .378zm6.813 0a.19.19 0 100-.378.19.19 0 000 .378zm6.812.189a.379.379 0 100-.757.379.379 0 000 .758zm6.813 0a.379.379 0 100-.757.379.379 0 000 .758zm6.813 0a.379.379 0 100-.757.379.379 0 000 .758zm6.814 0a.378.378 0 100-.756.378.378 0 000 .756zm6.812 0a.378.378 0 100-.756.378.378 0 000 .756zm6.813 0a.379.379 0 100-.757.379.379 0 000 .758zm6.813 0a.379.379 0 100-.757.379.379 0 000 .758zm6.814-.189a.19.19 0 100-.378.19.19 0 000 .378zm6.812 0a.19.19 0 100-.379.19.19 0 000 .38zm6.813 0a.189.189 0 00.189-.189.189.189 0 10-.378 0c0 .105.084.19.189.19zm6.813 0a.19.19 0 100-.379.19.19 0 000 .38zm6.814 0a.19.19 0 100-.378.19.19 0 000 .378zM61.317 27.442a.19.19 0 100-.379.19.19 0 000 .379zm6.813 0a.19.19 0 100-.379.19.19 0 000 .379zm6.813 0a.19.19 0 100-.379.19.19 0 000 .379zm6.813.188a.378.378 0 100-.757.378.378 0 000 .757zm6.813 0a.378.378 0 100-.757.378.378 0 000 .757zm6.813 0a.378.378 0 100-.757.378.378 0 000 .757zm6.813 0a.379.379 0 100-.758.379.379 0 000 .758zm6.813 0a.379.379 0 100-.758.379.379 0 000 .758zm6.813 0a.379.379 0 100-.758.379.379 0 000 .758zm6.814 0a.378.378 0 100-.756.378.378 0 000 .756zm6.812 0a.378.378 0 100-.756.378.378 0 000 .756zm6.813 0a.379.379 0 100-.758.379.379 0 000 .758zm6.813 0a.379.379 0 100-.758.379.379 0 000 .758zm6.813 0a.378.378 0 100-.756.378.378 0 000 .756zm6.813 0a.379.379 0 100-.758.379.379 0 000 .758zm6.814 0a.378.378 0 100-.756.378.378 0 000 .756zm6.812-.188a.19.19 0 100-.38.19.19 0 000 .38zm6.814 0a.19.19 0 100-.379.19.19 0 000 .379zm6.813 0a.19.19 0 100-.379.19.19 0 000 .379zM54.504 34.255a.19.19 0 100-.38.19.19 0 000 .38zm6.813 0a.19.19 0 100-.38.19.19 0 000 .38zm6.813.189a.378.378 0 100-.757.378.378 0 000 .757zm6.813 0a.378.378 0 100-.757.378.378 0 000 .757zm6.813 0a.378.378 0 100-.757.378.378 0 000 .757zm6.813 0a.378.378 0 100-.757.378.378 0 000 .757zm6.813.189a.568.568 0 100-1.136.568.568 0 000 1.136zm6.813 0a.568.568 0 100-1.136.568.568 0 000 1.136zm6.814 0a.568.568 0 100-1.137.568.568 0 000 1.137zm6.812 0a.568.568 0 100-1.136.568.568 0 000 1.136zm6.814 0a.567.567 0 10-.001-1.135.567.567 0 00.001 1.135zm6.812 0a.568.568 0 100-1.136.568.568 0 000 1.136zm6.814 0a.567.567 0 10-.001-1.135.567.567 0 00.001 1.135zm6.813 0a.567.567 0 10-.001-1.135.567.567 0 00.001 1.135zm6.812 0a.568.568 0 100-1.136.568.568 0 000 1.136zm6.813-.189a.379.379 0 100-.758.379.379 0 000 .758zm6.814 0a.378.378 0 100-.757.378.378 0 000 .757zm6.812 0a.379.379 0 100-.758.379.379 0 000 .758zm6.814 0a.378.378 0 100-.757.378.378 0 000 .757zm6.813-.189a.19.19 0 100-.38.19.19 0 000 .38zm6.813 0a.19.19 0 100-.38.19.19 0 000 .38zM47.691 41.067a.19.19 0 100-.379.19.19 0 000 .379zm6.813 0a.19.19 0 100-.379.19.19 0 000 .379zm6.814.189a.378.378 0 100-.757.378.378 0 000 .757zm6.812 0a.378.378 0 100-.757.378.378 0 000 .757zm6.813 0a.378.378 0 100-.757.378.378 0 000 .757zm6.813.19a.568.568 0 100-1.135.568.568 0 000 1.135zm6.813 0a.568.568 0 100-1.135.568.568 0 000 1.135zm6.813 0a.568.568 0 100-1.135.568.568 0 000 1.135zm6.813 0a.568.568 0 100-1.135.568.568 0 000 1.135zm6.813.189a.756.756 0 10.001-1.513.756.756 0 00-.001 1.513zm6.814 0a.757.757 0 100-1.514.757.757 0 000 1.514zm6.813 0a.757.757 0 100-1.514.757.757 0 000 1.514zm6.812 0a.756.756 0 10.001-1.513.756.756 0 00-.001 1.513zm6.813 0a.757.757 0 100-1.514.757.757 0 000 1.514zm6.814-.189a.567.567 0 100-1.135.567.567 0 000 1.135zm6.812 0a.568.568 0 100-1.135.568.568 0 000 1.135zm6.814 0a.567.567 0 100-1.135.567.567 0 000 1.135zm6.813 0a.567.567 0 100-1.135.567.567 0 000 1.135zm6.812-.19a.379.379 0 100-.758.379.379 0 000 .758zm6.814 0a.378.378 0 100-.756.378.378 0 000 .756zm6.812 0a.378.378 0 10.001-.757.378.378 0 00-.001.757zm6.814-.189a.19.19 0 100-.379.19.19 0 000 .379zm6.813 0a.189.189 0 100-.378.189.189 0 000 .378zm6.812 0a.19.19 0 100-.38.19.19 0 000 .38zM40.878 47.88a.19.19 0 100-.378.19.19 0 000 .378zm6.813 0a.19.19 0 100-.378.19.19 0 000 .378zm6.813.19a.379.379 0 100-.758.379.379 0 000 .758zm6.814 0a.378.378 0 100-.757.378.378 0 000 .756zm6.812.189a.568.568 0 100-1.136.568.568 0 000 1.136zm6.813 0a.568.568 0 100-1.136.568.568 0 000 1.136zm6.813 0a.568.568 0 100-1.136.568.568 0 000 1.136zm6.814.19a.757.757 0 100-1.514.757.757 0 000 1.514zm6.812 0a.757.757 0 100-1.514.757.757 0 000 1.514zm6.813 0a.756.756 0 10.001-1.513.756.756 0 00-.001 1.513zm6.813 0a.756.756 0 10.001-1.513.756.756 0 00-.001 1.513zm6.814 0a.757.757 0 100-1.514.757.757 0 000 1.514zm6.813 0a.757.757 0 100-1.514.757.757 0 000 1.514zm6.812 0a.756.756 0 10.001-1.513.756.756 0 00-.001 1.513zm6.813 0a.757.757 0 100-1.514.757.757 0 000 1.514zm6.813 0a.757.757 0 100-1.514.757.757 0 000 1.514zm6.813 0a.757.757 0 100-1.514.757.757 0 000 1.514zm6.814 0a.757.757 0 100-1.514.757.757 0 000 1.514zm6.813-.19a.567.567 0 10-.001-1.135.567.567 0 00.001 1.135zm6.813 0a.568.568 0 100-1.137.568.568 0 000 1.137zm6.813 0a.568.568 0 100-1.136.568.568 0 000 1.136zm6.812-.189a.378.378 0 10.001-.757.378.378 0 00-.001.756zm6.813 0a.379.379 0 100-.758.379.379 0 000 .758zm6.814-.19a.189.189 0 100-.377.189.189 0 000 .377zm6.812 0a.19.19 0 100-.379.19.19 0 000 .38zm6.814 0a.19.19 0 100-.378.19.19 0 000 .378zM34.065 54.694a.19.19 0 100-.378.19.19 0 000 .378zm6.813 0a.19.19 0 100-.379.19.19 0 000 .379zm6.813.189a.379.379 0 100-.757.379.379 0 000 .757zm6.813 0a.379.379 0 100-.757.379.379 0 000 .757zm6.813.189a.568.568 0 100-1.135.568.568 0 000 1.135zm6.813 0a.568.568 0 100-1.136.568.568 0 000 1.136zm6.813 0a.568.568 0 100-1.136.568.568 0 000 1.136zm6.813.189a.757.757 0 100-1.514.757.757 0 000 1.514zm6.814 0a.757.757 0 100-1.514.757.757 0 000 1.514zm6.812 0a.757.757 0 100-1.514.757.757 0 000 1.514zm6.813.189a.946.946 0 100-1.891.946.946 0 000 1.891zm6.813 0a.946.946 0 100-1.893.946.946 0 000 1.893zm6.813 0a.946.946 0 100-1.891.946.946 0 000 1.891zm6.813 0a.947.947 0 100-1.893.947.947 0 000 1.893zm6.813 0a.946.946 0 100-1.891.946.946 0 000 1.891zm6.813 0a.946.946 0 100-1.891.946.946 0 000 1.891zm6.813 0a.947.947 0 100-1.893.947.947 0 000 1.893zm6.813-.189a.757.757 0 100-1.514.757.757 0 000 1.514zm6.814 0a.757.757 0 100-1.514.757.757 0 000 1.514zm6.813 0a.757.757 0 100-1.514.757.757 0 000 1.514zm6.813 0a.757.757 0 100-1.514.757.757 0 000 1.514zm6.813-.189a.568.568 0 100-1.135.568.568 0 000 1.135zm6.813 0a.567.567 0 100-1.135.567.567 0 000 1.135zm6.812-.189a.379.379 0 100-.758.379.379 0 000 .758zm6.814 0a.378.378 0 100-.756.378.378 0 000 .756zm6.812-.189a.19.19 0 100-.38.19.19 0 000 .38zm6.814 0a.19.19 0 100-.379.19.19 0 000 .379zM27.252 61.506a.19.19 0 100-.378.19.19 0 000 .378zm6.813 0a.19.19 0 100-.378.19.19 0 000 .378zm6.813.191a.379.379 0 100-.758.379.379 0 000 .758zm6.813 0a.379.379 0 100-.758.379.379 0 000 .758zm6.814.188a.568.568 0 100-1.136.568.568 0 000 1.136zm6.812 0a.568.568 0 100-1.136.568.568 0 000 1.136zm6.813.19a.757.757 0 100-1.515.757.757 0 000 1.514zm6.813 0a.757.757 0 100-1.514.757.757 0 000 1.514zm6.813 0a.757.757 0 100-1.514.757.757 0 000 1.514zm6.814.189a.946.946 0 100-1.893.946.946 0 000 1.893zm6.812 0a.946.946 0 100-1.893.946.946 0 000 1.893zm6.813 0a.946.946 0 100-1.892.946.946 0 000 1.892zm6.813 0a.946.946 0 100-1.893.946.946 0 000 1.893zm6.813 0a.946.946 0 100-1.892.946.946 0 000 1.892zm6.814.189a1.135 1.135 0 100-2.27 1.135 1.135 0 000 2.27zm6.813 0a1.135 1.135 0 100-2.27 1.135 1.135 0 000 2.27zm6.812-.189a.946.946 0 100-1.892.946.946 0 000 1.892zm6.813 0a.947.947 0 100-1.894.947.947 0 000 1.894zm6.814 0a.946.946 0 100-1.893.946.946 0 000 1.893zm6.813 0a.946.946 0 100-1.892.946.946 0 000 1.892zm6.813-.189a.757.757 0 100-1.515.757.757 0 000 1.514zm6.813 0a.757.757 0 100-1.515.757.757 0 000 1.514zm6.813 0a.757.757 0 100-1.515.757.757 0 000 1.514zm6.813-.19a.567.567 0 100-1.135.567.567 0 000 1.135zm6.813 0a.568.568 0 100-1.137.568.568 0 000 1.137zm6.813-.188a.378.378 0 100-.757.378.378 0 000 .757zm6.813 0a.378.378 0 100-.757.378.378 0 000 .757zm6.813-.191a.19.19 0 100-.378.19.19 0 000 .378zm6.813 0a.19.19 0 100-.378.19.19 0 000 .378zM27.252 68.32a.19.19 0 100-.379.19.19 0 000 .379zm6.813.189a.378.378 0 100-.757.378.378 0 000 .757zm6.813 0a.379.379 0 100-.757.379.379 0 000 .757zm6.813.189a.568.568 0 100-1.136.568.568 0 000 1.136zm6.814 0a.568.568 0 100-1.135.568.568 0 000 1.135zm6.812.19a.757.757 0 100-1.514.757.757 0 000 1.514zm6.813 0a.757.757 0 100-1.514.757.757 0 000 1.514zm6.813 0a.757.757 0 100-1.514.757.757 0 000 1.514zm6.814.188a.946.946 0 100-1.892.946.946 0 000 1.892zm6.813 0a.946.946 0 100-1.892.946.946 0 000 1.892zm6.812.189a1.135 1.135 0 100-2.27 1.135 1.135 0 000 2.27zm6.813 0a1.136 1.136 0 100-2.272 1.136 1.136 0 000 2.272zm6.813 0a1.136 1.136 0 100-2.272 1.136 1.136 0 000 2.272zm6.814 0a1.135 1.135 0 100-2.27 1.135 1.135 0 000 2.27zm6.813 0a1.135 1.135 0 100-2.27 1.135 1.135 0 000 2.27zm6.813 0a1.135 1.135 0 100-2.27 1.135 1.135 0 000 2.27zm6.813 0a1.135 1.135 0 100-2.27 1.135 1.135 0 000 2.27zm6.813 0a1.135 1.135 0 100-2.27 1.135 1.135 0 000 2.27zm6.813 0a1.135 1.135 0 100-2.27 1.135 1.135 0 000 2.27zm6.813-.189a.946.946 0 100-1.892.946.946 0 000 1.892zm6.813 0a.946.946 0 100-1.892.946.946 0 000 1.892zm6.813 0a.946.946 0 100-1.893.946.946 0 000 1.893zm6.813-.188a.757.757 0 100-1.514.757.757 0 000 1.514zm6.813 0a.757.757 0 100-1.514.757.757 0 000 1.514zm6.813-.19a.568.568 0 100-1.137.568.568 0 000 1.137zm6.813 0a.568.568 0 100-1.135.568.568 0 000 1.135zm6.813-.189a.378.378 0 100-.756.378.378 0 000 .756zm6.812 0a.379.379 0 100-.758.379.379 0 000 .758zm6.814-.189a.19.19 0 100-.379.19.19 0 000 .379zm6.812 0a.19.19 0 100-.38.19.19 0 000 .38zM20.44 75.132a.19.19 0 100-.378.19.19 0 000 .378zm6.812 0a.19.19 0 100-.378.19.19 0 000 .378zm6.813.19a.379.379 0 100-.758.379.379 0 000 .758zm6.813 0a.379.379 0 100-.758.379.379 0 000 .758zm6.813.189a.568.568 0 100-1.135.568.568 0 000 1.135zm6.814 0a.568.568 0 100-1.135.568.568 0 000 1.135zm6.812.189a.757.757 0 100-1.514.757.757 0 000 1.514zm6.813 0a.757.757 0 100-1.514.757.757 0 000 1.514zm6.813.19a.946.946 0 100-1.893.946.946 0 000 1.893zm6.814 0a.946.946 0 100-1.893.946.946 0 000 1.893zm6.813.189a1.135 1.135 0 100-2.271 1.135 1.135 0 000 2.27zm6.812 0a1.136 1.136 0 100-2.271 1.136 1.136 0 000 2.27zm6.813 0a1.136 1.136 0 100-2.272 1.136 1.136 0 000 2.272zm6.813.189a1.325 1.325 0 100-2.65 1.325 1.325 0 000 2.65zm6.814 0a1.325 1.325 0 10-.001-2.65 1.325 1.325 0 00.001 2.65zm6.812 0a1.325 1.325 0 100-2.65 1.325 1.325 0 000 2.65zm6.814 0a1.325 1.325 0 100-2.651 1.325 1.325 0 000 2.65zm6.813 0a1.325 1.325 0 10-.001-2.65 1.325 1.325 0 00.001 2.65zm6.813-.189a1.135 1.135 0 100-2.27 1.135 1.135 0 000 2.27zm6.813 0a1.135 1.135 0 100-2.27 1.135 1.135 0 000 2.27zm6.812 0a1.135 1.135 0 10.001-2.271 1.135 1.135 0 00-.001 2.27zm6.814-.189a.946.946 0 100-1.892.946.946 0 000 1.892zm6.813 0a.946.946 0 100-1.893.946.946 0 000 1.893zm6.813 0a.946.946 0 100-1.892.946.946 0 000 1.892zm6.813-.19a.757.757 0 100-1.514.757.757 0 000 1.514zm6.813 0a.757.757 0 100-1.514.757.757 0 000 1.514zm6.813-.189a.568.568 0 100-1.135.568.568 0 000 1.135zm6.813-.189a.378.378 0 100-.757.378.378 0 000 .757zm6.812 0a.379.379 0 100-.758.379.379 0 000 .758zm6.814-.19a.19.19 0 100-.378.19.19 0 000 .378zm6.812 0a.19.19 0 100-.379.19.19 0 000 .38zM20.44 81.945a.19.19 0 100-.379.19.19 0 000 .379zm6.812.19a.378.378 0 100-.757.378.378 0 000 .757zm6.813 0a.378.378 0 100-.757.378.378 0 000 .757zm6.813.189a.568.568 0 100-1.135.568.568 0 000 1.135zm6.813 0a.568.568 0 100-1.136.568.568 0 000 1.136zm6.813.19a.757.757 0 100-1.514.757.757 0 000 1.514zm6.813 0a.757.757 0 100-1.514.757.757 0 000 1.514zm6.813.188a.946.946 0 100-1.893.946.946 0 000 1.893zm6.813 0a.946.946 0 100-1.893.946.946 0 000 1.893zm6.814.19a1.136 1.136 0 100-2.27 1.136 1.136 0 000 2.27zm6.813 0a1.135 1.135 0 100-2.27 1.135 1.135 0 000 2.27zm6.812.189a1.325 1.325 0 100-2.65 1.325 1.325 0 000 2.65zm6.813 0a1.325 1.325 0 100-2.65 1.325 1.325 0 000 2.65zm6.813 0a1.325 1.325 0 100-2.65 1.325 1.325 0 000 2.65zm6.814 0a1.325 1.325 0 10-.001-2.649 1.325 1.325 0 00.001 2.65zm6.812 0a1.325 1.325 0 100-2.65 1.325 1.325 0 000 2.65zm6.814 0a1.325 1.325 0 100-2.65 1.325 1.325 0 000 2.65zm6.813 0a1.325 1.325 0 10-.001-2.649 1.325 1.325 0 00.001 2.65zm6.812 0a1.325 1.325 0 100-2.65 1.325 1.325 0 000 2.65zm6.813 0a1.325 1.325 0 100-2.65 1.325 1.325 0 000 2.65zm6.813-.189a1.135 1.135 0 10.001-2.27 1.135 1.135 0 00-.001 2.27zm6.813 0a1.135 1.135 0 10.001-2.27 1.135 1.135 0 00-.001 2.27zm6.814-.19a.946.946 0 100-1.893.946.946 0 000 1.893zm6.813 0a.946.946 0 100-1.892.946.946 0 000 1.892zm6.813-.188a.757.757 0 100-1.514.757.757 0 000 1.514zm6.813 0a.757.757 0 100-1.514.757.757 0 000 1.514zm6.813-.19a.568.568 0 100-1.135.568.568 0 000 1.135zm6.813 0a.567.567 0 10-.001-1.135.567.567 0 00.001 1.135zm6.812-.189a.379.379 0 100-.758.379.379 0 000 .758zm6.814 0a.378.378 0 100-.756.378.378 0 000 .756zm6.812-.19a.19.19 0 100-.38.19.19 0 000 .38zM13.627 88.758a.19.19 0 100-.378.19.19 0 000 .378zm6.813 0a.19.19 0 100-.378.19.19 0 000 .378zm6.812.19a.378.378 0 100-.756.378.378 0 000 .756zm6.813 0a.378.378 0 100-.756.378.378 0 000 .756zm6.813.19a.568.568 0 100-1.136.568.568 0 000 1.136zm6.814.188a.757.757 0 100-1.513.757.757 0 000 1.513zm6.812 0a.757.757 0 100-1.513.757.757 0 000 1.513zm6.813.19a.946.946 0 100-1.893.946.946 0 000 1.893zm6.813 0a.946.946 0 100-1.893.946.946 0 000 1.893zm6.813.189a1.136 1.136 0 100-2.271 1.136 1.136 0 000 2.27zm6.814 0a1.136 1.136 0 100-2.271 1.136 1.136 0 000 2.27zm6.813.19a1.325 1.325 0 100-2.65 1.325 1.325 0 000 2.65zm6.812 0a1.325 1.325 0 100-2.65 1.325 1.325 0 000 2.65zm6.813.189a1.513 1.513 0 10.001-3.027 1.513 1.513 0 00-.001 3.027zm6.814 0a1.514 1.514 0 100-3.029 1.514 1.514 0 000 3.029zm6.813 0a1.514 1.514 0 100-3.029 1.514 1.514 0 000 3.029zm6.812 0a1.513 1.513 0 10.001-3.027 1.513 1.513 0 00-.001 3.027zm6.814 0a1.514 1.514 0 100-3.029 1.514 1.514 0 000 3.029zm6.812 0a1.514 1.514 0 100-3.029 1.514 1.514 0 000 3.029zm6.813 0a1.514 1.514 0 100-3.029 1.514 1.514 0 000 3.029zm6.813-.189a1.325 1.325 0 100-2.65 1.325 1.325 0 000 2.65zm6.814 0a1.325 1.325 0 10-.001-2.65 1.325 1.325 0 00.001 2.65zm6.812-.19a1.135 1.135 0 10.001-2.271 1.135 1.135 0 00-.001 2.27zm6.813 0a1.135 1.135 0 100-2.27 1.135 1.135 0 000 2.27zm6.814-.189a.946.946 0 100-1.892.946.946 0 000 1.892zm6.812 0a.946.946 0 100-1.893.946.946 0 000 1.893zm6.814-.19a.757.757 0 100-1.514.757.757 0 000 1.514zm6.813 0a.757.757 0 100-1.514.757.757 0 000 1.514zm6.813-.188a.567.567 0 10-.001-1.135.567.567 0 00.001 1.135zm6.812-.19a.379.379 0 100-.757.379.379 0 000 .757zm6.814 0a.378.378 0 100-.756.378.378 0 000 .756zm6.812-.19a.19.19 0 100-.379.19.19 0 000 .38zm6.814 0a.19.19 0 100-.378.19.19 0 000 .378zM13.627 95.572a.19.19 0 100-.379.19.19 0 000 .379zm6.813 0a.19.19 0 100-.379.19.19 0 000 .379zm6.812.188a.378.378 0 100-.756.378.378 0 000 .757zm6.813.19a.568.568 0 100-1.136.568.568 0 000 1.136zm6.813 0a.568.568 0 100-1.135.568.568 0 000 1.135zm6.814.19a.757.757 0 100-1.514.757.757 0 000 1.514zm6.812 0a.757.757 0 100-1.514.757.757 0 000 1.514zm6.813.188a.946.946 0 100-1.893.946.946 0 000 1.893zm6.813.19a1.136 1.136 0 100-2.27 1.136 1.136 0 000 2.27zm6.813 0a1.136 1.136 0 100-2.27 1.136 1.136 0 000 2.27zm6.813.189a1.325 1.325 0 100-2.65 1.325 1.325 0 000 2.65zm6.814 0a1.325 1.325 0 100-2.65 1.325 1.325 0 000 2.65zm6.813.189a1.514 1.514 0 100-3.028 1.514 1.514 0 000 3.028zm6.812 0a1.513 1.513 0 10.001-3.027 1.513 1.513 0 00-.001 3.027zm6.814 0a1.514 1.514 0 100-3.028 1.514 1.514 0 000 3.028zm6.812.189a1.704 1.704 0 100-3.407 1.704 1.704 0 000 3.407zm6.813 0a1.704 1.704 0 100-3.407 1.704 1.704 0 000 3.407zm6.813 0a1.703 1.703 0 100-3.405 1.703 1.703 0 000 3.405zm6.813-.189a1.514 1.514 0 100-3.028 1.514 1.514 0 000 3.028zm6.813 0a1.514 1.514 0 100-3.028 1.514 1.514 0 000 3.028zm6.813 0a1.514 1.514 0 100-3.028 1.514 1.514 0 000 3.028zm6.814-.189a1.325 1.325 0 10-.001-2.649 1.325 1.325 0 00.001 2.65zm6.813 0a1.325 1.325 0 100-2.65 1.325 1.325 0 000 2.65zm6.812-.189a1.135 1.135 0 100-2.27 1.135 1.135 0 000 2.27zm6.813 0a1.135 1.135 0 10.001-2.27 1.135 1.135 0 00-.001 2.27zm6.813-.19a.946.946 0 100-1.893.946.946 0 000 1.893zm6.814-.188a.757.757 0 100-1.514.757.757 0 000 1.514zm6.813 0a.757.757 0 100-1.514.757.757 0 000 1.514zm6.813-.19a.567.567 0 10-.001-1.135.567.567 0 00.001 1.135zm6.813 0a.567.567 0 10-.001-1.135.567.567 0 00.001 1.135zm6.813-.19a.378.378 0 100-.755.378.378 0 000 .756zm6.812-.188a.19.19 0 100-.38.19.19 0 000 .38zm6.814 0a.19.19 0 100-.379.19.19 0 000 .379zm-218.016 6.812a.189.189 0 100-.378.19.19 0 000 .378zm6.812.19a.378.378 0 100-.756.378.378 0 000 .756zm6.813 0a.378.378 0 100-.756.378.378 0 000 .756zm6.813.189a.567.567 0 100-1.135.567.567 0 000 1.135zm6.813 0a.567.567 0 100-1.135.567.567 0 000 1.135zm6.814.189a.756.756 0 100-1.513.756.756 0 000 1.513zm6.812.19a.946.946 0 10.001-1.891.946.946 0 000 1.891zm6.813 0a.946.946 0 100-1.892.946.946 0 000 1.892zm6.813.189a1.136 1.136 0 10-.001-2.272 1.136 1.136 0 000 2.272zm6.813 0a1.136 1.136 0 100-2.272 1.136 1.136 0 000 2.272zm6.813.19a1.325 1.325 0 100-2.65 1.325 1.325 0 000 2.65zm6.814.189a1.514 1.514 0 10-.001-3.028 1.514 1.514 0 000 3.028zm6.813 0a1.514 1.514 0 100-3.028 1.514 1.514 0 000 3.028zm6.812.189a1.703 1.703 0 100-3.407 1.703 1.703 0 000 3.407zm6.813 0a1.703 1.703 0 100-3.407 1.703 1.703 0 000 3.407zm6.813 0a1.704 1.704 0 100-3.408 1.704 1.704 0 000 3.408zm6.813 0a1.704 1.704 0 100-3.408 1.704 1.704 0 000 3.408zm6.813 0a1.703 1.703 0 100-3.407 1.703 1.703 0 000 3.407zm6.813 0a1.704 1.704 0 100-3.408 1.704 1.704 0 000 3.408zm6.813 0a1.704 1.704 0 100-3.408 1.704 1.704 0 000 3.408zm6.813-.189a1.514 1.514 0 100-3.028 1.514 1.514 0 000 3.028zm6.814 0a1.514 1.514 0 100-3.028 1.514 1.514 0 000 3.028zm6.813-.189a1.325 1.325 0 100-2.65 1.325 1.325 0 000 2.65zm6.812-.19a1.136 1.136 0 10-.001-2.271 1.136 1.136 0 00.001 2.271zm6.813 0a1.136 1.136 0 100-2.272 1.136 1.136 0 000 2.272zm6.813-.189a.946.946 0 100-1.892.946.946 0 000 1.892zm6.814 0a.946.946 0 100-1.892.946.946 0 000 1.892zm6.813-.19a.756.756 0 10.001-1.513.756.756 0 00-.001 1.513zm6.813-.189a.567.567 0 100-1.134.567.567 0 000 1.134zm6.813 0a.567.567 0 100-1.134.567.567 0 000 1.134zm6.813-.189a.378.378 0 100-.755.378.378 0 000 .755zm6.812 0a.379.379 0 100-.757.379.379 0 000 .757zm6.814-.19a.189.189 0 100-.378.189.189 0 000 .378zm-218.016 6.814a.19.19 0 100-.379.19.19 0 000 .379zm6.812.189a.379.379 0 10-.001-.758.379.379 0 000 .758zm6.813 0a.379.379 0 10-.001-.758.379.379 0 000 .758zm6.813.189a.568.568 0 100-1.135.568.568 0 000 1.135zm6.813.189a.757.757 0 100-1.514.757.757 0 000 1.514zm6.814 0a.757.757 0 100-1.514.757.757 0 000 1.514zm6.812.19a.946.946 0 100-1.893.946.946 0 000 1.893zm6.813 0a.946.946 0 100-1.893.946.946 0 000 1.893zm6.813.189a1.135 1.135 0 100-2.27 1.135 1.135 0 000 2.27zm6.814.189a1.325 1.325 0 100-2.65 1.325 1.325 0 000 2.65zm6.812 0a1.325 1.325 0 100-2.65 1.325 1.325 0 000 2.65zm6.814.189a1.514 1.514 0 10-.001-3.028 1.514 1.514 0 000 3.028zm6.813 0a1.514 1.514 0 100-3.028 1.514 1.514 0 000 3.028zm6.812.19a1.702 1.702 0 10.001-3.405 1.702 1.702 0 00-.001 3.405zm6.813 0a1.702 1.702 0 10.001-3.405 1.702 1.702 0 00-.001 3.405zm6.814.189a1.892 1.892 0 100-3.784 1.892 1.892 0 000 3.784zm6.812 0a1.893 1.893 0 100-3.786 1.893 1.893 0 000 3.786zm6.814 0a1.892 1.892 0 100-3.784 1.892 1.892 0 000 3.784zm6.812-.189a1.703 1.703 0 10.001-3.407 1.703 1.703 0 00-.001 3.407zm6.813 0a1.703 1.703 0 10.001-3.407 1.703 1.703 0 00-.001 3.407zm6.813-.19a1.514 1.514 0 100-3.028 1.514 1.514 0 000 3.028zm6.814 0a1.514 1.514 0 100-3.028 1.514 1.514 0 000 3.028zm6.813-.189a1.325 1.325 0 100-2.65 1.325 1.325 0 000 2.65zm6.813 0a1.325 1.325 0 10-.001-2.649 1.325 1.325 0 00.001 2.649zm6.812-.189a1.135 1.135 0 10.002-2.27 1.135 1.135 0 00-.002 2.27zm6.813-.189a.947.947 0 10-.001-1.893.947.947 0 00.001 1.893zm6.814 0a.947.947 0 10-.001-1.893.947.947 0 00.001 1.893zm6.813-.19a.757.757 0 100-1.514.757.757 0 000 1.514zm6.812 0a.757.757 0 100-1.514.757.757 0 000 1.514zm6.814-.189a.567.567 0 100-1.135.567.567 0 000 1.135zm6.813-.189a.379.379 0 10-.001-.757.379.379 0 00.001.757zm6.812 0a.38.38 0 100-.759.38.38 0 000 .759zm6.814-.189a.19.19 0 000-.379.19.19 0 000 .379zm-218.016 6.813a.189.189 0 100-.378.19.19 0 000 .378zm6.812.188a.378.378 0 100-.756.378.378 0 000 .756zm6.813 0a.378.378 0 100-.756.378.378 0 000 .756zm6.813.189a.567.567 0 100-1.135.567.567 0 000 1.135zm6.813.19a.756.756 0 10.001-1.513.756.756 0 000 1.513zm6.814 0a.756.756 0 100-1.513.756.756 0 000 1.513zm6.812.189a.946.946 0 10.001-1.891.946.946 0 000 1.891zm6.813 0a.946.946 0 100-1.892.946.946 0 000 1.892zm6.813.191a1.136 1.136 0 10-.001-2.272 1.136 1.136 0 000 2.272zm6.814.189a1.325 1.325 0 10-.002-2.65 1.325 1.325 0 00.002 2.65zm6.812 0a1.325 1.325 0 100-2.65 1.325 1.325 0 000 2.65zm6.814.189a1.514 1.514 0 10-.001-3.028 1.514 1.514 0 000 3.028zm6.812.189a1.704 1.704 0 100-3.407 1.704 1.704 0 000 3.407zm6.813 0a1.703 1.703 0 100-3.407 1.703 1.703 0 000 3.407zm6.814.189a1.893 1.893 0 10-.002-3.786 1.893 1.893 0 00.002 3.786zm6.813 0a1.893 1.893 0 10-.002-3.786 1.893 1.893 0 00.002 3.786zm6.812 0a1.894 1.894 0 10-.001-3.787 1.894 1.894 0 00.001 3.787zm6.814 0a1.893 1.893 0 10-.002-3.786 1.893 1.893 0 00.002 3.786zm6.813 0a1.893 1.893 0 10-.002-3.786 1.893 1.893 0 00.002 3.786zm6.812-.189a1.704 1.704 0 100-3.408 1.704 1.704 0 000 3.408zm6.814 0a1.703 1.703 0 100-3.407 1.703 1.703 0 000 3.407zm6.813-.189a1.514 1.514 0 100-3.028 1.514 1.514 0 000 3.028zm6.813-.189a1.326 1.326 0 10-.002-2.652 1.326 1.326 0 00.002 2.652zm6.813 0a1.325 1.325 0 10-.002-2.65 1.325 1.325 0 00.002 2.65zm6.812-.189a1.136 1.136 0 100-2.272 1.136 1.136 0 000 2.272zm6.814 0a1.136 1.136 0 10-.001-2.271 1.136 1.136 0 00.001 2.271zm6.813-.191a.946.946 0 100-1.892.946.946 0 000 1.892zm6.813-.189a.756.756 0 10.001-1.513.756.756 0 00-.001 1.513zm6.812 0a.756.756 0 10.001-1.513.756.756 0 00-.001 1.513zm6.814-.19a.567.567 0 100-1.134.567.567 0 000 1.134zm6.813-.189a.378.378 0 100-.755.378.378 0 000 .755zm6.812 0a.379.379 0 100-.757.379.379 0 000 .757zm6.814-.188a.189.189 0 100-.378.189.189 0 000 .378zm6.813 0a.189.189 0 100-.378.189.189 0 000 .378zm-224.829 6.813a.19.19 0 100-.379.19.19 0 000 .379zm6.812.189a.379.379 0 10-.001-.758.379.379 0 000 .758zm6.813 0a.379.379 0 10-.001-.758.379.379 0 000 .758zm6.813.189a.568.568 0 100-1.135.568.568 0 000 1.135zm6.813.189a.757.757 0 100-1.514.757.757 0 000 1.514zm6.814 0a.757.757 0 100-1.514.757.757 0 000 1.514zm6.812.189a.946.946 0 100-1.893.946.946 0 000 1.893zm6.813.19a1.135 1.135 0 100-2.27 1.135 1.135 0 000 2.27zm6.813 0a1.135 1.135 0 100-2.27 1.135 1.135 0 000 2.27zm6.814.189a1.325 1.325 0 100-2.65 1.325 1.325 0 000 2.65zm6.812 0a1.325 1.325 0 100-2.65 1.325 1.325 0 000 2.65zm6.814.189a1.514 1.514 0 10-.001-3.028 1.514 1.514 0 000 3.028zm6.812.189a1.703 1.703 0 100-3.406 1.703 1.703 0 000 3.406zm6.813 0a1.702 1.702 0 10.001-3.405 1.702 1.702 0 00-.001 3.405zm6.814.19a1.892 1.892 0 100-3.784 1.892 1.892 0 000 3.784zm6.813 0a1.892 1.892 0 100-3.784 1.892 1.892 0 000 3.784zm6.812 0a1.893 1.893 0 100-3.786 1.893 1.893 0 000 3.786zm6.814 0a1.892 1.892 0 100-3.784 1.892 1.892 0 000 3.784zm6.813 0a1.892 1.892 0 100-3.784 1.892 1.892 0 000 3.784zm6.812-.19a1.703 1.703 0 10.001-3.407 1.703 1.703 0 00-.001 3.407zm6.814 0a1.702 1.702 0 10.001-3.405 1.702 1.702 0 00-.001 3.405zm6.813-.189a1.514 1.514 0 100-3.028 1.514 1.514 0 000 3.028zm6.813-.189a1.325 1.325 0 100-2.65 1.325 1.325 0 000 2.65zm6.813 0a1.325 1.325 0 10-.001-2.649 1.325 1.325 0 00.001 2.649zm6.812-.189a1.135 1.135 0 10.002-2.27 1.135 1.135 0 00-.002 2.27zm6.814 0a1.135 1.135 0 100-2.27 1.135 1.135 0 000 2.27zm6.813-.19a.947.947 0 10-.001-1.893.947.947 0 00.001 1.893zm6.813-.189a.757.757 0 100-1.514.757.757 0 000 1.514zm6.812 0a.757.757 0 100-1.514.757.757 0 000 1.514zm6.814-.189a.567.567 0 100-1.135.567.567 0 000 1.135zm6.813-.189a.379.379 0 10-.001-.757.379.379 0 00.001.757zm6.812 0a.38.38 0 100-.759.38.38 0 000 .759zm6.814-.189a.19.19 0 000-.379.19.19 0 000 .379zm6.813 0a.19.19 0 100-.38.19.19 0 000 .38zm-224.829 6.812a.189.189 0 100-.378.19.19 0 000 .378zm6.812.19a.378.378 0 100-.756.378.378 0 000 .756zm6.813 0a.378.378 0 100-.756.378.378 0 000 .756zm6.813.189a.567.567 0 100-1.135.567.567 0 000 1.135zm6.813.189a.756.756 0 10.001-1.513.756.756 0 000 1.513zm6.814 0a.756.756 0 100-1.513.756.756 0 000 1.513zm6.812.189a.946.946 0 10.001-1.891.946.946 0 000 1.891zm6.813.19a1.136 1.136 0 100-2.272 1.136 1.136 0 000 2.272zm6.813 0a1.136 1.136 0 10-.001-2.272 1.136 1.136 0 000 2.272zm6.814.19a1.325 1.325 0 10-.002-2.65 1.325 1.325 0 00.002 2.65zm6.812 0a1.325 1.325 0 100-2.65 1.325 1.325 0 000 2.65zm6.814.189a1.514 1.514 0 10-.001-3.028 1.514 1.514 0 000 3.028zm6.812.189a1.704 1.704 0 100-3.407 1.704 1.704 0 000 3.407zm6.813 0a1.703 1.703 0 100-3.407 1.703 1.703 0 000 3.407zm6.814.19a1.893 1.893 0 10-.002-3.786 1.893 1.893 0 00.002 3.786zm6.813 0a1.893 1.893 0 10-.002-3.786 1.893 1.893 0 00.002 3.786zm6.812 0a1.894 1.894 0 10-.001-3.787 1.894 1.894 0 00.001 3.787zm6.814 0a1.893 1.893 0 10-.002-3.786 1.893 1.893 0 00.002 3.786zm6.813 0a1.893 1.893 0 10-.002-3.786 1.893 1.893 0 00.002 3.786zm6.812-.19a1.704 1.704 0 100-3.408 1.704 1.704 0 000 3.408zm6.814 0a1.703 1.703 0 100-3.407 1.703 1.703 0 000 3.407zm6.813-.189a1.514 1.514 0 100-3.028 1.514 1.514 0 000 3.028zm6.813-.189a1.326 1.326 0 10-.002-2.652 1.326 1.326 0 00.002 2.652zm6.813 0a1.325 1.325 0 10-.002-2.65 1.325 1.325 0 00.002 2.65zm6.812-.19a1.136 1.136 0 100-2.272 1.136 1.136 0 000 2.272zm6.814 0a1.136 1.136 0 10-.001-2.271 1.136 1.136 0 00.001 2.271zm6.813-.19a.946.946 0 100-1.892.946.946 0 000 1.892zm6.813-.189a.756.756 0 10.001-1.513.756.756 0 00-.001 1.513zm6.812 0a.756.756 0 10.001-1.513.756.756 0 00-.001 1.513zm6.814-.189a.567.567 0 100-1.134.567.567 0 000 1.134zm6.813-.189a.378.378 0 100-.755.378.378 0 000 .755zm6.812 0a.379.379 0 100-.757.379.379 0 000 .757zm6.814-.19a.189.189 0 100-.378.189.189 0 000 .378zm6.813 0a.189.189 0 100-.378.189.189 0 000 .378zM13.627 136.45a.19.19 0 100-.379.19.19 0 000 .379zm6.812.189a.379.379 0 10-.001-.758.379.379 0 000 .758zm6.813 0a.379.379 0 10-.001-.758.379.379 0 000 .758zm6.813.189a.568.568 0 100-1.135.568.568 0 000 1.135zm6.813.19a.757.757 0 100-1.514.757.757 0 000 1.514zm6.814 0a.757.757 0 100-1.514.757.757 0 000 1.514zm6.812.189a.946.946 0 100-1.893.946.946 0 000 1.893zm6.813 0a.946.946 0 100-1.893.946.946 0 000 1.893zm6.813.189a1.135 1.135 0 100-2.27 1.135 1.135 0 000 2.27zm6.814.19a1.325 1.325 0 100-2.65 1.325 1.325 0 000 2.65zm6.812 0a1.325 1.325 0 100-2.65 1.325 1.325 0 000 2.65zm6.814.188a1.514 1.514 0 10-.001-3.028 1.514 1.514 0 000 3.028zm6.813 0a1.514 1.514 0 100-3.028 1.514 1.514 0 000 3.028zm6.812.19a1.702 1.702 0 10.001-3.405 1.702 1.702 0 00-.001 3.405zm6.813 0a1.702 1.702 0 10.001-3.405 1.702 1.702 0 00-.001 3.405zm6.814.189a1.892 1.892 0 100-3.784 1.892 1.892 0 000 3.784zm6.812 0a1.893 1.893 0 100-3.786 1.893 1.893 0 000 3.786zm6.814 0a1.892 1.892 0 100-3.784 1.892 1.892 0 000 3.784zm6.812-.189a1.703 1.703 0 10.001-3.407 1.703 1.703 0 00-.001 3.407zm6.813 0a1.703 1.703 0 10.001-3.407 1.703 1.703 0 00-.001 3.407zm6.813-.19a1.514 1.514 0 100-3.028 1.514 1.514 0 000 3.028zm6.814 0a1.514 1.514 0 100-3.028 1.514 1.514 0 000 3.028zm6.813-.188a1.325 1.325 0 100-2.65 1.325 1.325 0 000 2.65zm6.813 0a1.325 1.325 0 10-.001-2.649 1.325 1.325 0 00.001 2.649zm6.812-.19a1.135 1.135 0 10.002-2.27 1.135 1.135 0 00-.002 2.27zm6.813-.189a.947.947 0 10-.001-1.893.947.947 0 00.001 1.893zm6.814 0a.947.947 0 10-.001-1.893.947.947 0 00.001 1.893zm6.813-.189a.757.757 0 100-1.514.757.757 0 000 1.514zm6.812 0a.757.757 0 100-1.514.757.757 0 000 1.514zm6.814-.19a.567.567 0 100-1.135.567.567 0 000 1.135zm6.813-.189a.379.379 0 10-.001-.757.379.379 0 00.001.757zm6.812 0a.38.38 0 100-.759.38.38 0 000 .759zm6.814-.189a.19.19 0 000-.379.19.19 0 000 .379zm-218.016 6.812a.189.189 0 100-.378.19.19 0 000 .378zm6.812.19a.378.378 0 100-.756.378.378 0 000 .756zm6.813 0a.378.378 0 100-.756.378.378 0 000 .756zm6.813.189a.567.567 0 100-1.135.567.567 0 000 1.135zm6.813 0a.567.567 0 100-1.135.567.567 0 000 1.135zm6.814.189a.757.757 0 100-1.514.757.757 0 000 1.514zm6.812.189a.946.946 0 10.001-1.891.946.946 0 000 1.891zm6.813 0a.946.946 0 100-1.892.946.946 0 000 1.892zm6.813.19a1.136 1.136 0 10-.001-2.272 1.136 1.136 0 000 2.272zm6.813 0a1.136 1.136 0 100-2.272 1.136 1.136 0 000 2.272zm6.813.19a1.325 1.325 0 100-2.65 1.325 1.325 0 000 2.65zm6.814.188a1.514 1.514 0 10-.001-3.028 1.514 1.514 0 000 3.028zm6.813 0a1.514 1.514 0 100-3.028 1.514 1.514 0 000 3.028zm6.812.19a1.703 1.703 0 100-3.407 1.703 1.703 0 000 3.407zm6.813 0a1.703 1.703 0 100-3.407 1.703 1.703 0 000 3.407zm6.813 0a1.704 1.704 0 100-3.408 1.704 1.704 0 000 3.408zm6.813 0a1.704 1.704 0 100-3.408 1.704 1.704 0 000 3.408zm6.813 0a1.703 1.703 0 100-3.407 1.703 1.703 0 000 3.407zm6.813 0a1.704 1.704 0 100-3.408 1.704 1.704 0 000 3.408zm6.813 0a1.704 1.704 0 100-3.408 1.704 1.704 0 000 3.408zm6.813-.19a1.514 1.514 0 100-3.028 1.514 1.514 0 000 3.028zm6.814 0a1.514 1.514 0 100-3.028 1.514 1.514 0 000 3.028zm6.813-.188a1.326 1.326 0 10-.002-2.652 1.326 1.326 0 00.002 2.652zm6.812-.19a1.136 1.136 0 10-.001-2.271 1.136 1.136 0 00.001 2.271zm6.813 0a1.136 1.136 0 100-2.272 1.136 1.136 0 000 2.272zm6.813-.19a.946.946 0 100-1.892.946.946 0 000 1.892zm6.814 0a.946.946 0 100-1.892.946.946 0 000 1.892zm6.813-.189a.757.757 0 100-1.514.757.757 0 000 1.514zm6.813-.189a.567.567 0 100-1.134.567.567 0 000 1.134zm6.813 0a.567.567 0 100-1.134.567.567 0 000 1.134zm6.813-.189a.378.378 0 100-.755.378.378 0 000 .755zm6.812 0a.379.379 0 100-.757.379.379 0 000 .757zm6.814-.19a.189.189 0 100-.378.189.189 0 000 .378zm-218.016 6.814a.19.19 0 100-.379.19.19 0 000 .379zm6.813 0a.19.19 0 100-.379.19.19 0 000 .379zm6.812.189a.379.379 0 10-.001-.758.379.379 0 000 .758zm6.813.189a.568.568 0 100-1.135.568.568 0 000 1.135zm6.813 0a.568.568 0 100-1.135.568.568 0 000 1.135zm6.814.19a.757.757 0 100-1.514.757.757 0 000 1.514zm6.812 0a.757.757 0 100-1.514.757.757 0 000 1.514zm6.813.189a.946.946 0 100-1.893.946.946 0 000 1.893zm6.813.189a1.135 1.135 0 100-2.27 1.135 1.135 0 000 2.27zm6.813 0a1.135 1.135 0 100-2.27 1.135 1.135 0 000 2.27zm6.813.189a1.325 1.325 0 100-2.65 1.325 1.325 0 000 2.65zm6.814 0a1.325 1.325 0 100-2.65 1.325 1.325 0 000 2.65zm6.813.19a1.514 1.514 0 100-3.028 1.514 1.514 0 000 3.028zm6.812 0a1.514 1.514 0 100-3.027 1.514 1.514 0 000 3.027zm6.814 0a1.514 1.514 0 100-3.028 1.514 1.514 0 000 3.028zm6.812.189a1.703 1.703 0 10.001-3.407 1.703 1.703 0 00-.001 3.407zm6.813 0a1.703 1.703 0 10.001-3.407 1.703 1.703 0 00-.001 3.407zm6.813 0a1.702 1.702 0 10.001-3.405 1.702 1.702 0 00-.001 3.405zm6.813-.189a1.514 1.514 0 100-3.028 1.514 1.514 0 000 3.028zm6.813 0a1.514 1.514 0 100-3.028 1.514 1.514 0 000 3.028zm6.813 0a1.514 1.514 0 100-3.028 1.514 1.514 0 000 3.028zm6.814-.19a1.325 1.325 0 10-.001-2.649 1.325 1.325 0 00.001 2.649zm6.813 0a1.325 1.325 0 100-2.65 1.325 1.325 0 000 2.65zm6.812-.189a1.135 1.135 0 100-2.27 1.135 1.135 0 000 2.27zm6.813 0a1.135 1.135 0 10.002-2.27 1.135 1.135 0 00-.002 2.27zm6.813-.189a.947.947 0 10-.001-1.893.947.947 0 00.001 1.893zm6.814-.189a.757.757 0 100-1.514.757.757 0 000 1.514zm6.813 0a.757.757 0 100-1.514.757.757 0 000 1.514zm6.813-.19a.567.567 0 100-1.135.567.567 0 000 1.135zm6.813 0a.567.567 0 100-1.135.567.567 0 000 1.135zm6.813-.189a.379.379 0 10-.001-.757.379.379 0 00.001.757zm6.812-.189a.19.19 0 100-.38.19.19 0 000 .38zm6.814 0a.19.19 0 000-.379.19.19 0 000 .379zm-218.016 6.813a.189.189 0 100-.378.189.189 0 100 .378zm6.813 0a.189.189 0 100-.378.189.189 0 100 .378zm6.812.189a.378.378 0 100-.756.378.378 0 000 .756zm6.813 0a.378.378 0 100-.756.378.378 0 000 .756zm6.813.189a.567.567 0 100-1.135.567.567 0 000 1.135zm6.814.189a.757.757 0 100-1.514.757.757 0 000 1.514zm6.812 0a.757.757 0 100-1.514.757.757 0 000 1.514zm6.813.19a.946.946 0 100-1.892.946.946 0 000 1.892zm6.813 0a.946.946 0 100-1.892.946.946 0 000 1.892zm6.813.188a1.135 1.135 0 100-2.27 1.135 1.135 0 000 2.27zm6.814 0a1.135 1.135 0 100-2.27 1.135 1.135 0 000 2.27zm6.813.191a1.325 1.325 0 10-.001-2.65 1.325 1.325 0 000 2.65zm6.812 0a1.325 1.325 0 10-.001-2.65 1.325 1.325 0 00.001 2.65zm6.813.189a1.514 1.514 0 100-3.027 1.514 1.514 0 000 3.027zm6.814 0a1.514 1.514 0 100-3.028 1.514 1.514 0 000 3.028zm6.813 0a1.514 1.514 0 100-3.028 1.514 1.514 0 000 3.028zm6.812 0a1.514 1.514 0 100-3.027 1.514 1.514 0 000 3.027zm6.814 0a1.514 1.514 0 100-3.028 1.514 1.514 0 000 3.028zm6.812 0a1.514 1.514 0 100-3.028 1.514 1.514 0 000 3.028zm6.813 0a1.514 1.514 0 100-3.028 1.514 1.514 0 000 3.028zm6.813-.189a1.325 1.325 0 100-2.65 1.325 1.325 0 000 2.65zm6.814 0a1.325 1.325 0 10-.002-2.65 1.325 1.325 0 00.002 2.65zm6.812-.191a1.135 1.135 0 10.002-2.27 1.135 1.135 0 00-.002 2.27zm6.813 0a1.135 1.135 0 100-2.27 1.135 1.135 0 000 2.27zm6.814-.188a.945.945 0 10.001-1.89.945.945 0 00-.001 1.89zm6.812 0a.946.946 0 100-1.892.946.946 0 000 1.892zm6.814-.19a.757.757 0 100-1.514.757.757 0 000 1.514zm6.813 0a.757.757 0 100-1.514.757.757 0 000 1.514zm6.813-.189a.567.567 0 100-1.134.567.567 0 000 1.134zm6.812-.189a.379.379 0 100-.757.379.379 0 000 .757zm6.814 0a.378.378 0 100-.755.378.378 0 000 .755zm6.812-.189a.19.19 0 10.002-.378.19.19 0 00-.002.378zm6.814 0a.189.189 0 100-.378.189.189 0 000 .378zM20.44 163.702a.19.19 0 10-.001-.38.19.19 0 000 .38zm6.812.189a.379.379 0 10-.001-.758.379.379 0 000 .758zm6.813 0a.379.379 0 10-.001-.758.379.379 0 000 .758zm6.813.189a.568.568 0 100-1.135.568.568 0 000 1.135zm6.813 0a.568.568 0 100-1.135.568.568 0 000 1.135zm6.813.19a.757.757 0 100-1.514.757.757 0 000 1.514zm6.813 0a.757.757 0 100-1.514.757.757 0 000 1.514zm6.813.189a.946.946 0 100-1.893.946.946 0 000 1.893zm6.813 0a.946.946 0 100-1.893.946.946 0 000 1.893zm6.814.189a1.135 1.135 0 100-2.27 1.135 1.135 0 000 2.27zm6.813 0a1.135 1.135 0 100-2.27 1.135 1.135 0 000 2.27zm6.812.189a1.325 1.325 0 100-2.65 1.325 1.325 0 000 2.65zm6.813 0a1.325 1.325 0 100-2.65 1.325 1.325 0 000 2.65zm6.813 0a1.325 1.325 0 100-2.65 1.325 1.325 0 000 2.65zm6.814 0a1.325 1.325 0 10-.001-2.649 1.325 1.325 0 00.001 2.649zm6.812 0a1.325 1.325 0 100-2.65 1.325 1.325 0 000 2.65zm6.814 0a1.325 1.325 0 100-2.65 1.325 1.325 0 000 2.65zm6.813 0a1.325 1.325 0 10-.001-2.649 1.325 1.325 0 00.001 2.649zm6.812 0a1.325 1.325 0 100-2.65 1.325 1.325 0 000 2.65zm6.813 0a1.325 1.325 0 100-2.65 1.325 1.325 0 000 2.65zm6.813-.189a1.135 1.135 0 10.002-2.27 1.135 1.135 0 00-.002 2.27zm6.813 0a1.135 1.135 0 10.002-2.27 1.135 1.135 0 00-.002 2.27zm6.814-.189a.947.947 0 10-.001-1.893.947.947 0 00.001 1.893zm6.813 0a.946.946 0 100-1.892.946.946 0 000 1.892zm6.813-.189a.757.757 0 100-1.514.757.757 0 000 1.514zm6.813 0a.757.757 0 100-1.514.757.757 0 000 1.514zm6.813-.19a.568.568 0 100-1.135.568.568 0 000 1.135zm6.813 0a.567.567 0 100-1.135.567.567 0 000 1.135zm6.812-.189a.38.38 0 100-.759.38.38 0 000 .759zm6.814 0a.379.379 0 10-.001-.757.379.379 0 00.001.757zm6.812-.189a.19.19 0 100-.379.19.19 0 000 .379zm6.814 0a.19.19 0 000-.379.19.19 0 000 .379zM20.44 170.514a.189.189 0 100-.378.189.189 0 100 .378zm6.812 0a.189.189 0 100-.378.189.189 0 100 .378zm6.813.19a.378.378 0 100-.756.378.378 0 000 .756zm6.813 0a.378.378 0 100-.756.378.378 0 000 .756zm6.813.188a.567.567 0 100-1.135.567.567 0 000 1.135zm6.813.191a.757.757 0 100-1.514.757.757 0 000 1.514zm6.813 0a.757.757 0 100-1.514.757.757 0 000 1.514zm6.813.189a.946.946 0 100-1.892.946.946 0 000 1.892zm6.813 0a.946.946 0 10.001-1.892.946.946 0 000 1.892zm6.814 0a.946.946 0 100-1.891.946.946 0 000 1.891zm6.813.188a1.135 1.135 0 100-2.27 1.135 1.135 0 000 2.27zm6.812 0a1.135 1.135 0 100-2.27 1.135 1.135 0 000 2.27zm6.813 0a1.136 1.136 0 100-2.271 1.136 1.136 0 000 2.271zm6.813.19a1.325 1.325 0 10.001-2.649 1.325 1.325 0 00-.001 2.649zm6.814 0a1.324 1.324 0 100-2.649 1.324 1.324 0 000 2.649zm6.812 0a1.325 1.325 0 10.001-2.649 1.325 1.325 0 00-.001 2.649zm6.814 0a1.325 1.325 0 100-2.65 1.325 1.325 0 000 2.65zm6.813 0a1.324 1.324 0 100-2.649 1.324 1.324 0 000 2.649zm6.813-.19a1.135 1.135 0 100-2.27 1.135 1.135 0 000 2.27zm6.813 0a1.135 1.135 0 100-2.27 1.135 1.135 0 000 2.27zm6.812 0a1.135 1.135 0 10.002-2.27 1.135 1.135 0 00-.002 2.27zm6.814-.188a.945.945 0 10.001-1.89.945.945 0 00-.001 1.89zm6.813 0a.946.946 0 100-1.892.946.946 0 000 1.892zm6.813 0a.945.945 0 10.001-1.89.945.945 0 00-.001 1.89zm6.813-.189a.757.757 0 100-1.514.757.757 0 000 1.514zm6.813 0a.757.757 0 100-1.514.757.757 0 000 1.514zm6.813-.191a.567.567 0 10.001-1.135.567.567 0 00-.001 1.135zm6.813 0a.567.567 0 100-1.134.567.567 0 000 1.134zm6.812-.188a.379.379 0 100-.757.379.379 0 000 .757zm6.814-.19a.189.189 0 100-.378.19.19 0 100 .378zm6.812 0a.19.19 0 10.002-.378.19.19 0 00-.002.378zM20.44 177.328a.19.19 0 10-.001-.38.19.19 0 000 .38zm6.812 0a.19.19 0 100-.38.19.19 0 000 .38zm6.813.189a.379.379 0 10-.001-.758.379.379 0 000 .758zm6.813 0a.379.379 0 10-.001-.758.379.379 0 000 .758zm6.813.19a.568.568 0 100-1.135.568.568 0 000 1.135zm6.814 0a.568.568 0 100-1.135.568.568 0 000 1.135zm6.812.189a.757.757 0 100-1.514.757.757 0 000 1.514zm6.813 0a.757.757 0 100-1.514.757.757 0 000 1.514zm6.813.189a.946.946 0 100-1.893.946.946 0 000 1.893zm6.814 0a.946.946 0 100-1.893.946.946 0 000 1.893zm6.813 0a.946.946 0 100-1.893.946.946 0 000 1.893zm6.812.189a1.135 1.135 0 100-2.27 1.135 1.135 0 000 2.27zm6.813 0a1.136 1.136 0 100-2.272 1.136 1.136 0 000 2.272zm6.813 0a1.136 1.136 0 100-2.272 1.136 1.136 0 000 2.272zm6.814 0a1.135 1.135 0 100-2.27 1.135 1.135 0 000 2.27zm6.813 0a1.135 1.135 0 100-2.27 1.135 1.135 0 000 2.27zm6.813 0a1.135 1.135 0 100-2.27 1.135 1.135 0 000 2.27zm6.813 0a1.135 1.135 0 100-2.27 1.135 1.135 0 000 2.27zm6.813 0a1.135 1.135 0 100-2.27 1.135 1.135 0 000 2.27zm6.813 0a1.135 1.135 0 100-2.27 1.135 1.135 0 000 2.27zm6.813-.189a.946.946 0 100-1.892.946.946 0 000 1.892zm6.813 0a.946.946 0 100-1.892.946.946 0 000 1.892zm6.813 0a.947.947 0 10-.001-1.893.947.947 0 00.001 1.893zm6.813-.189a.757.757 0 100-1.514.757.757 0 000 1.514zm6.813 0a.757.757 0 100-1.514.757.757 0 000 1.514zm6.813-.189a.568.568 0 100-1.137.568.568 0 000 1.137zm6.813 0a.568.568 0 100-1.135.568.568 0 000 1.135zm6.813-.19a.379.379 0 10-.001-.757.379.379 0 00.001.757zm6.812 0a.38.38 0 100-.759.38.38 0 000 .759zm6.814-.189a.19.19 0 10-.001-.38.19.19 0 00.001.38zm6.812 0a.19.19 0 100-.379.19.19 0 000 .379zm-197.577 6.813a.19.19 0 100-.379.19.19 0 000 .379zm6.813 0a.19.19 0 100-.379.19.19 0 000 .379zm6.813.189a.378.378 0 100-.756.378.378 0 000 .756zm6.813 0a.378.378 0 100-.756.378.378 0 000 .756zm6.814.189a.567.567 0 100-1.135.567.567 0 000 1.135zm6.812 0a.567.567 0 100-1.135.567.567 0 000 1.135zm6.813.189a.757.757 0 100-1.514.757.757 0 000 1.514zm6.813 0a.757.757 0 100-1.514.757.757 0 000 1.514zm6.813 0a.757.757 0 100-1.514.757.757 0 000 1.514zm6.814.19a.946.946 0 100-1.891.946.946 0 000 1.891zm6.812 0a.946.946 0 10.001-1.892.946.946 0 000 1.892zm6.813 0a.945.945 0 10.001-1.89.945.945 0 00-.001 1.89zm6.813 0a.946.946 0 100-1.892.946.946 0 000 1.892zm6.814.189a1.135 1.135 0 100-2.27 1.135 1.135 0 000 2.27zm6.813 0a1.135 1.135 0 100-2.27 1.135 1.135 0 000 2.27zm6.813 0a1.135 1.135 0 100-2.27 1.135 1.135 0 000 2.27zm6.812-.189a.945.945 0 10.001-1.89.945.945 0 00-.001 1.89zm6.813 0a.946.946 0 10.002-1.892.946.946 0 00-.002 1.892zm6.814 0a.946.946 0 100-1.892.946.946 0 000 1.892zm6.813 0a.945.945 0 10.001-1.89.945.945 0 00-.001 1.89zm6.813-.19a.757.757 0 100-1.514.757.757 0 000 1.514zm6.813 0a.757.757 0 100-1.514.757.757 0 000 1.514zm6.813 0a.757.757 0 100-1.514.757.757 0 000 1.514zm6.813-.189a.567.567 0 100-1.134.567.567 0 000 1.134zm6.813 0a.568.568 0 100-1.136.568.568 0 000 1.136zm6.813-.189a.378.378 0 100-.755.378.378 0 000 .755zm6.813 0a.378.378 0 100-.755.378.378 0 000 .755zm6.813-.189a.189.189 0 100-.378.189.189 0 000 .378zm6.813 0a.189.189 0 100-.378.19.19 0 100 .378zm-183.952 6.813a.19.19 0 10-.001-.38.19.19 0 000 .38zm6.813 0a.19.19 0 10-.001-.38.19.19 0 000 .38zm6.813.19a.379.379 0 10-.001-.758.379.379 0 00.001.758zm6.813 0a.379.379 0 10-.001-.758.379.379 0 00.001.758zm6.813.188a.568.568 0 100-1.135.568.568 0 000 1.135zm6.813 0a.568.568 0 100-1.135.568.568 0 000 1.135zm6.813.19a.757.757 0 100-1.514.757.757 0 000 1.514zm6.813 0a.757.757 0 100-1.514.757.757 0 000 1.514zm6.814 0a.757.757 0 100-1.514.757.757 0 000 1.514zm6.812 0a.757.757 0 100-1.514.757.757 0 000 1.514zm6.813.189a.946.946 0 100-1.892.946.946 0 000 1.892zm6.813 0a.947.947 0 10-.001-1.893.947.947 0 00.001 1.893zm6.813 0a.946.946 0 100-1.892.946.946 0 000 1.892zm6.813 0a.947.947 0 100-1.894.947.947 0 000 1.894zm6.813 0a.946.946 0 100-1.892.946.946 0 000 1.892zm6.813 0a.946.946 0 100-1.892.946.946 0 000 1.892zm6.813 0a.947.947 0 100-1.894.947.947 0 000 1.894zm6.813-.189a.757.757 0 100-1.514.757.757 0 000 1.514zm6.814 0a.757.757 0 100-1.514.757.757 0 000 1.514zm6.813 0a.757.757 0 100-1.514.757.757 0 000 1.514zm6.813 0a.757.757 0 100-1.514.757.757 0 000 1.514zm6.813-.19a.568.568 0 100-1.135.568.568 0 000 1.135zm6.813 0a.567.567 0 100-1.135.567.567 0 000 1.135zm6.812-.188a.38.38 0 100-.759.38.38 0 000 .759zm6.814 0a.379.379 0 10-.001-.757.379.379 0 00.001.757zm6.812-.19a.19.19 0 100-.379.19.19 0 000 .379zm6.814 0a.19.19 0 000-.379.19.19 0 000 .379zm-170.326 6.813a.19.19 0 100-.379.19.19 0 000 .379zm6.813 0a.19.19 0 100-.379.19.19 0 000 .379zm6.813.189a.378.378 0 100-.756.378.378 0 000 .756zm6.814 0a.378.378 0 100-.756.378.378 0 000 .756zm6.812.19a.567.567 0 100-1.135.567.567 0 000 1.135zm6.813 0a.567.567 0 100-1.135.567.567 0 000 1.135zm6.813 0a.567.567 0 100-1.135.567.567 0 000 1.135zm6.814.188a.757.757 0 100-1.514.757.757 0 000 1.514zm6.812 0a.757.757 0 100-1.514.757.757 0 000 1.514zm6.813 0a.756.756 0 10.001-1.513.756.756 0 00-.001 1.513zm6.813 0a.756.756 0 10.001-1.513.756.756 0 00-.001 1.513zm6.814 0a.757.757 0 100-1.514.757.757 0 000 1.514zm6.813 0a.757.757 0 100-1.514.757.757 0 000 1.514zm6.812 0a.756.756 0 10.001-1.513.756.756 0 00-.001 1.513zm6.813 0a.757.757 0 100-1.514.757.757 0 000 1.514zm6.813 0a.757.757 0 100-1.514.757.757 0 000 1.514zm6.813 0a.757.757 0 100-1.514.757.757 0 000 1.514zm6.814 0a.757.757 0 100-1.514.757.757 0 000 1.514zm6.813-.188a.567.567 0 100-1.134.567.567 0 000 1.134zm6.813 0a.568.568 0 100-1.136.568.568 0 000 1.136zm6.813 0a.567.567 0 10.001-1.135.567.567 0 00-.001 1.135zm6.812-.19a.378.378 0 10.002-.756.378.378 0 00-.002.756zm6.813 0a.379.379 0 100-.757.379.379 0 000 .757zm6.814-.189a.189.189 0 100-.378.189.189 0 000 .378zm6.812 0a.19.19 0 10.002-.378.19.19 0 00-.002.378zm6.814 0a.189.189 0 100-.378.189.189 0 000 .378zM40.878 204.58a.19.19 0 10-.001-.38.19.19 0 000 .38zm6.813 0a.19.19 0 100-.38.19.19 0 000 .38zm6.813 0a.19.19 0 100-.38.19.19 0 000 .38zm6.814.189a.379.379 0 10-.001-.758.379.379 0 000 .758zm6.812 0a.379.379 0 10-.001-.758.379.379 0 00.001.758zm6.813 0a.379.379 0 100-.758.379.379 0 000 .758zm6.813.19a.568.568 0 100-1.135.568.568 0 000 1.135zm6.813 0a.568.568 0 100-1.135.568.568 0 000 1.135zm6.813 0a.568.568 0 100-1.135.568.568 0 000 1.135zm6.813 0a.568.568 0 100-1.135.568.568 0 000 1.135zm6.813.189a.756.756 0 10.001-1.513.756.756 0 00-.001 1.513zm6.814 0a.757.757 0 100-1.514.757.757 0 000 1.514zm6.813 0a.757.757 0 100-1.514.757.757 0 000 1.514zm6.812 0a.756.756 0 10.001-1.513.756.756 0 00-.001 1.513zm6.813 0a.757.757 0 100-1.514.757.757 0 000 1.514zm6.814-.189a.567.567 0 100-1.135.567.567 0 000 1.135zm6.812 0a.568.568 0 100-1.135.568.568 0 000 1.135zm6.814 0a.567.567 0 100-1.135.567.567 0 000 1.135zm6.813 0a.567.567 0 100-1.135.567.567 0 000 1.135zm6.813 0a.568.568 0 100-1.137.568.568 0 000 1.137zm6.813-.19a.379.379 0 10-.001-.757.379.379 0 00.001.757zm6.812 0a.379.379 0 100-.758.379.379 0 000 .758zm6.814-.189a.19.19 0 000-.379.19.19 0 000 .379zm6.813 0a.19.19 0 100-.378.19.19 0 000 .378zm6.812 0a.19.19 0 100-.379.19.19 0 000 .379zm-156.699 6.813a.19.19 0 100-.379.19.19 0 000 .379zm6.813 0a.19.19 0 100-.379.19.19 0 000 .379zm6.813 0a.19.19 0 100-.379.19.19 0 000 .379zm6.813.189a.378.378 0 100-.756.378.378 0 000 .756zm6.813 0a.378.378 0 10.001-.756.378.378 0 000 .756zm6.813 0a.378.378 0 10.001-.756.378.378 0 000 .756zm6.813 0a.378.378 0 100-.756.378.378 0 000 .756zm6.813.189a.568.568 0 100-1.135.568.568 0 000 1.135zm6.813 0a.568.568 0 100-1.135.568.568 0 000 1.135zm6.814 0a.568.568 0 100-1.137.568.568 0 000 1.137zm6.812 0a.568.568 0 100-1.135.568.568 0 000 1.135zm6.814 0a.567.567 0 100-1.135.567.567 0 000 1.135zm6.812 0a.568.568 0 100-1.135.568.568 0 000 1.135zm6.814 0a.567.567 0 100-1.135.567.567 0 000 1.135zm6.813 0a.567.567 0 100-1.135.567.567 0 000 1.135zm6.812 0a.568.568 0 100-1.135.568.568 0 000 1.135zm6.813-.189a.379.379 0 100-.757.379.379 0 000 .757zm6.814 0a.378.378 0 100-.755.378.378 0 000 .755zm6.812 0a.379.379 0 100-.757.379.379 0 000 .757zm6.814 0a.378.378 0 100-.755.378.378 0 000 .755zm6.813-.189a.189.189 0 100-.378.189.189 0 000 .378zm6.813 0a.189.189 0 100-.378.189.189 0 000 .378zm6.813 0a.189.189 0 100-.378.189.189 0 000 .378zm-136.261 6.813a.19.19 0 100-.38.19.19 0 000 .38zm6.813 0a.19.19 0 10-.001-.38.19.19 0 000 .38zm6.813 0a.19.19 0 100-.38.19.19 0 000 .38zm6.813.19a.379.379 0 100-.758.379.379 0 000 .758zm6.813 0a.379.379 0 100-.758.379.379 0 000 .758zm6.813 0a.379.379 0 100-.758.379.379 0 000 .758zm6.813 0a.38.38 0 100-.759.38.38 0 000 .759zm6.813 0a.38.38 0 100-.759.38.38 0 000 .759zm6.813 0a.38.38 0 100-.759.38.38 0 000 .759zm6.814 0a.379.379 0 10-.001-.757.379.379 0 00.001.757zm6.812 0a.379.379 0 10-.001-.757.379.379 0 00.001.757zm6.813 0a.38.38 0 100-.759.38.38 0 000 .759zm6.813 0a.38.38 0 100-.759.38.38 0 000 .759zm6.813 0a.379.379 0 10-.001-.757.379.379 0 00.001.757zm6.813 0a.38.38 0 100-.759.38.38 0 000 .759zm6.814 0a.379.379 0 10-.001-.757.379.379 0 00.001.757zm6.812-.19a.19.19 0 100-.379.19.19 0 000 .379zm6.814 0a.19.19 0 10-.001-.38.19.19 0 00.001.38zm6.813 0a.19.19 0 000-.379.19.19 0 000 .379zM68.13 225.019a.19.19 0 100-.379.19.19 0 000 .379zm6.813 0a.19.19 0 100-.379.19.19 0 000 .379zm6.813 0a.19.19 0 100-.379.19.19 0 000 .379zm6.814 0a.19.19 0 100-.379.19.19 0 000 .379zm6.813 0a.19.19 0 100-.379.19.19 0 000 .379zm6.812.189a.379.379 0 100-.757.379.379 0 000 .757zm6.813 0a.379.379 0 100-.757.379.379 0 000 .757zm6.813 0a.379.379 0 100-.757.379.379 0 000 .757zm6.814 0a.378.378 0 100-.755.378.378 0 000 .755zm6.812 0a.378.378 0 100-.755.378.378 0 000 .755zm6.813 0a.379.379 0 100-.757.379.379 0 000 .757zm6.813 0a.379.379 0 100-.757.379.379 0 000 .757zm6.814-.189a.189.189 0 100-.378.19.19 0 100 .378zm6.812 0a.19.19 0 10.002-.378.19.19 0 00-.002.378zm6.813 0a.189.189 0 100-.378.189.189 0 000 .378zm6.813 0a.19.19 0 10.002-.378.19.19 0 00-.002.378zm6.814 0a.189.189 0 100-.378.19.19 0 100 .378zm-88.569 6.813a.19.19 0 10-.001-.38.19.19 0 000 .38zm6.813 0a.19.19 0 100-.38.19.19 0 000 .38zm6.812 0a.19.19 0 10-.001-.38.19.19 0 00.001.38zm6.813 0a.19.19 0 100-.378.19.19 0 000 .378zm6.813 0a.19.19 0 100-.379.19.19 0 000 .379zm6.813 0a.19.19 0 100-.378.19.19 0 000 .378zm6.814 0a.19.19 0 10-.001-.38.19.19 0 00.001.38zm6.812 0a.19.19 0 100-.379.19.19 0 000 .379zm6.814 0a.19.19 0 10-.001-.38.19.19 0 00.001.38zm6.813 0a.19.19 0 10-.001-.38.19.19 0 00.001.38zm6.812 0a.19.19 0 100-.379.19.19 0 000 .379zm6.813 0a.19.19 0 100-.378.19.19 0 000 .378zm-47.691 6.813a.19.19 0 10.002-.378.19.19 0 00-.002.378zm6.813 0a.189.189 0 100-.378.189.189 0 000 .378zm6.814 0a.189.189 0 100-.378.19.19 0 100 .378z" fill="#01E482"/><circle cx="117" cy="345" r="102.5" stroke="url(#paint0_linear)" stroke-width="7"/><defs><linearGradient id="paint0_linear" x1="223" y1="218.897" x2="34.759" y2="451" gradientUnits="userSpaceOnUse"><stop offset=".158" stop-color="#00B767"/><stop offset="1" stop-color="#00E884"/></linearGradient></defs></svg>