<svg width="201" height="67" fill="none" xmlns="http://www.w3.org/2000/svg"><g filter="url(#filter0_d)"><path d="M17.06 12.022A10 10 0 0126.861 4H178.78c6.318 0 11.052 5.786 9.803 11.978l-4.642 23A10 10 0 01174.138 47H22.22c-6.318 0-11.052-5.785-9.803-11.978l4.642-23z" fill="#fff"/></g><path d="M40.99 37h-4.05l.03-3.45h-4.68L30.91 37h-4.32l9.48-21.36h3.96L40.99 37zm-4.08-7.05l.03-8.37-3.21 8.37h3.18zM42.736 37l4.26-21.36h5.43c1.72 0 2.99.41 3.81 1.23.72.72 1.08 1.73 1.08 3.03 0 .9-.08 1.75-.24 2.55-.52 2.6-1.31 4.39-2.37 5.37-1.06.96-2.54 1.44-4.44 1.44h-1.98L46.756 37h-4.02zm6.27-11.34h1.47c.78 0 1.34-.24 1.68-.72.36-.5.66-1.33.9-2.49.14-.7.21-1.26.21-1.68 0-.52-.12-.9-.36-1.14-.24-.26-.65-.39-1.23-.39h-1.38l-1.29 6.42zM58.876 37l3.54-17.76h-3.42l.72-3.6h10.86l-.72 3.6h-3.42L62.897 37h-4.02zm9.582 0l4.26-21.36h9.36l-.72 3.6h-5.34l-1.05 5.19h4.59l-.72 3.6h-4.59l-1.05 5.37h5.34l-.72 3.6h-9.36zm4.65-22.77l.72-3.6h3.45l-.72 3.6h-3.45zm5.61 0l.72-3.6h3.45l-.72 3.6h-3.45zM80.265 37l4.26-21.36h3.54l1.62 10.32 5.79-10.32h3.54L94.755 37h-4.02l2.25-11.25-3.69 7.29h-2.07l-.69-7.29L84.285 37h-4.02zm22.441 0l4.26-21.36h3.54l1.62 10.32 5.79-10.32h3.54L117.196 37h-4.02l2.25-11.25-3.69 7.29h-2.07l-.69-7.29-2.25 11.25h-4.02zm19.138-10.68c.62-3.04 1.14-5.16 1.56-6.36.44-1.22 1.01-2.18 1.71-2.88 1.12-1.12 2.61-1.68 4.47-1.68 2.06 0 3.48.69 4.26 2.07.46.82.69 1.85.69 3.09 0 1.26-.27 3.18-.81 5.76-.62 3.04-1.15 5.17-1.59 6.39-.42 1.2-.98 2.15-1.68 2.85-1.12 1.12-2.61 1.68-4.47 1.68-2.06 0-3.48-.69-4.26-2.07-.46-.82-.69-1.85-.69-3.09 0-1.26.27-3.18.81-5.76zm4.02 0c-.54 2.7-.81 4.6-.81 5.7 0 1.08.44 1.62 1.32 1.62.48 0 .91-.19 1.29-.57.34-.34.65-.98.93-1.92s.65-2.55 1.11-4.83c.54-2.7.81-4.6.81-5.7 0-1.08-.44-1.62-1.32-1.62-.48 0-.91.19-1.29.57-.34.34-.65.98-.93 1.92s-.65 2.55-1.11 4.83zM134.113 37l4.26-21.36h5.43c1.72 0 2.99.41 3.81 1.23.72.72 1.08 1.73 1.08 3.03 0 .9-.08 1.75-.24 2.55-.52 2.6-1.31 4.39-2.37 5.37-1.06.96-2.54 1.44-4.44 1.44h-1.98l-1.53 7.74h-4.02zm6.27-11.34h1.47c.78 0 1.34-.24 1.68-.72.36-.5.66-1.33.9-2.49.14-.7.21-1.26.21-1.68 0-.52-.12-.9-.36-1.14-.24-.26-.65-.39-1.23-.39h-1.38l-1.29 6.42zm9.117.66c.62-3.04 1.14-5.16 1.56-6.36.44-1.22 1.01-2.18 1.71-2.88 1.12-1.12 2.61-1.68 4.47-1.68 2.06 0 3.48.69 4.26 2.07.46.82.69 1.85.69 3.09 0 1.26-.27 3.18-.81 5.76-.62 3.04-1.15 5.17-1.59 6.39-.42 1.2-.98 2.15-1.68 2.85-1.12 1.12-2.61 1.68-4.47 1.68-2.06 0-3.48-.69-4.26-2.07-.46-.82-.69-1.85-.69-3.09 0-1.26.27-3.18.81-5.76zm4.02 0c-.54 2.7-.81 4.6-.81 5.7 0 1.08.44 1.62 1.32 1.62.48 0 .91-.19 1.29-.57.34-.34.65-.98.93-1.92s.65-2.55 1.11-4.83c.54-2.7.81-4.6.81-5.7 0-1.08-.44-1.62-1.32-1.62-.48 0-.91.19-1.29.57-.34.34-.65.98-.93 1.92s-.65 2.55-1.11 4.83zm9.283 9.69c-.86-.86-1.29-2.05-1.29-3.57 0-.54.04-1.01.12-1.41h4.08c-.08.4-.12.76-.12 1.08 0 .54.13.94.39 1.2.22.22.56.33 1.02.33.54 0 .96-.17 1.26-.51.34-.36.65-1.21.93-2.55.1-.56.15-.99.15-1.29 0-.46-.09-.81-.27-1.05-.24-.3-.63-.45-1.17-.45h-1.62l.72-3.48h1.53c.58 0 1.03-.16 1.35-.48.3-.3.55-.97.75-2.01.12-.6.18-1.09.18-1.47 0-.44-.11-.77-.33-.99-.24-.24-.56-.36-.96-.36-.58 0-1.03.19-1.35.57-.34.38-.61 1.07-.81 2.07h-3.99c.46-2.28 1.21-3.89 2.25-4.83 1.02-.94 2.45-1.41 4.29-1.41 1.72 0 2.98.4 3.78 1.2.78.78 1.17 1.74 1.17 2.88 0 .7-.08 1.45-.24 2.25-.16.82-.33 1.44-.51 1.86-.18.42-.45.84-.81 1.26-.3.4-.8.81-1.5 1.23 1.04.68 1.56 1.69 1.56 3.03 0 .42-.08 1.03-.24 1.83-.28 1.42-.56 2.44-.84 3.06-.26.62-.67 1.21-1.23 1.77-.98.98-2.4 1.47-4.26 1.47-1.84 0-3.17-.41-3.99-1.23z" fill="#181820"/><defs><filter id="filter0_d" x=".216" y="0" width="200.567" height="67" filterUnits="userSpaceOnUse" color-interpolation-filters="sRGB"><feFlood flood-opacity="0" result="BackgroundImageFix"/><feColorMatrix in="SourceAlpha" values="0 0 0 0 0 0 0 0 0 0 0 0 0 0 0 0 0 0 127 0" result="hardAlpha"/><feOffset dy="8"/><feGaussianBlur stdDeviation="6"/><feComposite in2="hardAlpha" operator="out"/><feColorMatrix values="0 0 0 0 0 0 0 0 0 0 0 0 0 0 0 0 0 0 0.15 0"/><feBlend in2="BackgroundImageFix" result="effect1_dropShadow"/><feBlend in="SourceGraphic" in2="effect1_dropShadow" result="shape"/></filter></defs></svg>