<svg width="1920" height="843" fill="none" xmlns="http://www.w3.org/2000/svg"><path d="M0 300C0 134.315 134.315 0 300 0h1620v842H0V300z" fill="#16161E"/><path d="M1604.71 586.709a.21.21 0 00.21-.215.21.21 0 00-.21-.215c-.12 0-.22.096-.22.215s.1.215.22.215zm7.75 0c.11 0 .21-.096.21-.215s-.1-.215-.21-.215c-.12 0-.22.096-.22.215s.1.215.22.215zm7.74 0c.12 0 .22-.096.22-.215s-.1-.215-.22-.215a.21.21 0 00-.21.215c0 .119.09.215.21.215zm7.75 0a.21.21 0 00.21-.215.21.21 0 00-.21-.215c-.12 0-.22.096-.22.215s.1.215.22.215zm7.75 0a.21.21 0 00.21-.215.21.21 0 00-.21-.215c-.12 0-.22.096-.22.215s.1.215.22.215zm7.74 0c.12 0 .22-.096.22-.215s-.1-.215-.22-.215a.21.21 0 00-.21.215c0 .119.09.215.21.215zm7.75 0c.12 0 .22-.096.22-.215s-.1-.215-.22-.215a.21.21 0 00-.21.215c0 .119.09.215.21.215zm7.75 0a.21.21 0 00.21-.215.21.21 0 00-.21-.215c-.12 0-.22.096-.22.215s.1.215.22.215zm7.74 0c.12 0 .22-.096.22-.215s-.1-.215-.22-.215c-.11 0-.21.096-.21.215s.1.215.21.215zm7.75 0c.12 0 .22-.096.22-.215s-.1-.215-.22-.215a.21.21 0 00-.21.215c0 .119.09.215.21.215zm7.75 0a.21.21 0 00.21-.215.21.21 0 00-.21-.215c-.12 0-.22.096-.22.215s.1.215.22.215zm-92.96 7.747c.11 0 .21-.097.21-.215 0-.119-.1-.216-.21-.216a.22.22 0 00-.22.216c0 .118.1.215.22.215zm7.74 0c.12 0 .22-.097.22-.215a.22.22 0 00-.22-.216.21.21 0 00-.21.216c0 .118.09.215.21.215zm7.75 0a.21.21 0 00.21-.215.21.21 0 00-.21-.216.22.22 0 00-.22.216c0 .118.1.215.22.215zm7.75 0c.11 0 .21-.097.21-.215 0-.119-.1-.216-.21-.216a.22.22 0 00-.22.216c0 .118.1.215.22.215zm7.74.215c.24 0 .43-.193.43-.431 0-.237-.19-.43-.43-.43s-.43.193-.43.43c0 .238.19.431.43.431zm7.75 0c.24 0 .43-.193.43-.431 0-.237-.19-.43-.43-.43s-.43.193-.43.43c0 .238.19.431.43.431zm7.75 0c.23 0 .43-.193.43-.431 0-.237-.2-.43-.43-.43-.24 0-.43.193-.43.43 0 .238.19.431.43.431zm7.74 0c.24 0 .43-.193.43-.431 0-.237-.19-.43-.43-.43-.23 0-.43.193-.43.43 0 .238.2.431.43.431zm7.75 0c.24 0 .43-.193.43-.431 0-.237-.19-.43-.43-.43s-.43.193-.43.43c0 .238.19.431.43.431zm7.75 0c.23 0 .43-.193.43-.431 0-.237-.2-.43-.43-.43-.24 0-.43.193-.43.43 0 .238.19.431.43.431zm7.74 0c.24 0 .43-.193.43-.431 0-.237-.19-.43-.43-.43-.23 0-.43.193-.43.43 0 .238.2.431.43.431zm7.75-.215c.12 0 .22-.097.22-.215a.22.22 0 00-.22-.216.21.21 0 00-.21.216c0 .118.09.215.21.215zm7.75 0a.21.21 0 00.21-.215.21.21 0 00-.21-.216.22.22 0 00-.22.216c0 .118.1.215.22.215zm7.74 0c.12 0 .22-.097.22-.215a.22.22 0 00-.22-.216c-.11 0-.21.097-.21.216 0 .118.1.215.21.215zm7.75 0c.12 0 .22-.097.22-.215a.22.22 0 00-.22-.216.21.21 0 00-.21.216c0 .118.09.215.21.215zm7.75 0a.21.21 0 00.21-.215.21.21 0 00-.21-.216.22.22 0 00-.22.216c0 .118.1.215.22.215zm-131.7 7.747c.12 0 .22-.097.22-.215a.22.22 0 00-.22-.216.21.21 0 00-.21.216c0 .118.09.215.21.215zm7.75 0a.21.21 0 00.21-.215.21.21 0 00-.21-.216.22.22 0 00-.22.216c0 .118.1.215.22.215zm7.75 0c.11 0 .21-.097.21-.215 0-.119-.1-.216-.21-.216a.22.22 0 00-.22.216c0 .118.1.215.22.215zm7.74.214c.24 0 .43-.192.43-.43s-.19-.43-.43-.43-.43.192-.43.43.19.43.43.43zm7.75 0c.24 0 .43-.192.43-.43s-.19-.43-.43-.43-.43.192-.43.43.19.43.43.43zm7.75 0c.23 0 .43-.192.43-.43s-.2-.43-.43-.43c-.24 0-.43.192-.43.43s.19.43.43.43zm7.74 0c.24 0 .43-.192.43-.43s-.19-.43-.43-.43-.43.192-.43.43.19.43.43.43zm7.75 0c.24 0 .43-.192.43-.43s-.19-.43-.43-.43-.43.192-.43.43.19.43.43.43zm7.75 0c.23 0 .43-.192.43-.43s-.2-.43-.43-.43c-.24 0-.43.192-.43.43s.19.43.43.43zm7.74 0c.24 0 .43-.192.43-.43s-.19-.43-.43-.43c-.23 0-.43.192-.43.43s.2.43.43.43zm7.75 0c.24 0 .43-.192.43-.43s-.19-.43-.43-.43-.43.192-.43.43.19.43.43.43zm7.75 0c.23 0 .43-.192.43-.43s-.2-.43-.43-.43c-.24 0-.43.192-.43.43s.19.43.43.43zm7.74 0c.24 0 .43-.192.43-.43s-.19-.43-.43-.43c-.23 0-.43.192-.43.43s.2.43.43.43zm7.75 0c.24 0 .43-.192.43-.43s-.19-.43-.43-.43-.43.192-.43.43.19.43.43.43zm7.75 0c.24 0 .43-.192.43-.43s-.19-.43-.43-.43-.43.192-.43.43.19.43.43.43zm7.74 0c.24 0 .43-.192.43-.43s-.19-.43-.43-.43c-.23 0-.43.192-.43.43s.2.43.43.43zm7.75-.214c.12 0 .22-.097.22-.215a.22.22 0 00-.22-.216.21.21 0 00-.21.216c0 .118.09.215.21.215zm7.75 0a.21.21 0 00.21-.215.21.21 0 00-.21-.216.22.22 0 00-.22.216c0 .118.1.215.22.215zm7.74 0c.12 0 .22-.097.22-.215a.22.22 0 00-.22-.216c-.11 0-.21.097-.21.216 0 .118.1.215.21.215zm-147.19 7.746c.12 0 .22-.096.22-.215s-.1-.215-.22-.215c-.11 0-.21.096-.21.215s.1.215.21.215zm7.75 0c.12 0 .22-.096.22-.215s-.1-.215-.22-.215a.21.21 0 00-.21.215c0 .119.09.215.21.215zm7.75.215c.24 0 .43-.192.43-.43s-.19-.43-.43-.43-.43.192-.43.43.19.43.43.43zm7.75 0c.23 0 .43-.192.43-.43a.435.435 0 00-.87 0c0 .238.2.43.44.43zm7.74 0c.24 0 .43-.192.43-.43s-.19-.43-.43-.43-.43.192-.43.43.19.43.43.43zm7.75 0c.24 0 .43-.192.43-.43s-.19-.43-.43-.43-.43.192-.43.43.19.43.43.43zm7.75.216a.645.645 0 10-.01-1.29.645.645 0 00.01 1.29zm7.74 0c.36 0 .65-.289.65-.646a.645.645 0 10-.65.646zm7.75 0c.36 0 .65-.289.65-.646a.647.647 0 00-.65-.645c-.36 0-.65.289-.65.645 0 .357.29.646.65.646zm7.75 0a.645.645 0 10-.01-1.29.645.645 0 00.01 1.29zm7.74 0c.36 0 .65-.289.65-.646a.645.645 0 10-.65.646zm7.75 0c.36 0 .65-.289.65-.646a.647.647 0 00-.65-.645c-.36 0-.65.289-.65.645 0 .357.29.646.65.646zm7.75 0a.645.645 0 10-.01-1.29.645.645 0 00.01 1.29zm7.74 0c.36 0 .65-.289.65-.646a.645.645 0 10-.65.646zm7.75 0c.36 0 .65-.289.65-.646a.647.647 0 00-.65-.645c-.36 0-.65.289-.65.645 0 .357.29.646.65.646zm7.75-.216c.24 0 .43-.192.43-.43s-.19-.43-.43-.43-.43.192-.43.43.19.43.43.43zm7.74 0c.24 0 .43-.192.43-.43s-.19-.43-.43-.43c-.23 0-.43.192-.43.43s.2.43.43.43zm7.75 0c.24 0 .43-.192.43-.43s-.19-.43-.43-.43-.43.192-.43.43.19.43.43.43zm7.75 0c.24 0 .43-.192.43-.43s-.19-.43-.43-.43-.43.192-.43.43.19.43.43.43zm7.74-.215c.12 0 .22-.096.22-.215s-.1-.215-.22-.215c-.11 0-.21.096-.21.215s.1.215.21.215zm7.75 0c.12 0 .22-.096.22-.215s-.1-.215-.22-.215a.21.21 0 00-.21.215c0 .119.09.215.21.215zm-162.68 7.747a.21.21 0 00.21-.215.21.21 0 00-.21-.215c-.12 0-.22.096-.22.215s.1.215.22.215zm7.74 0c.12 0 .22-.096.22-.215s-.1-.215-.22-.215c-.11 0-.21.096-.21.215s.1.215.21.215zm7.75.216c.24 0 .43-.193.43-.431s-.19-.43-.43-.43-.43.192-.43.43.19.431.43.431zm7.75 0c.24 0 .43-.193.43-.431s-.19-.43-.43-.43-.43.192-.43.43.19.431.43.431zm7.75 0c.23 0 .43-.193.43-.431a.435.435 0 00-.87 0c0 .238.2.431.44.431zm7.74.215a.647.647 0 100-1.292.645.645 0 000 1.292zm7.75 0c.36 0 .64-.289.64-.646a.639.639 0 00-.64-.646.647.647 0 100 1.292zm7.75 0a.645.645 0 10-.01-1.29.645.645 0 00.01 1.29zm7.74 0a.647.647 0 100-1.292.645.645 0 000 1.292zm7.75.215c.48 0 .86-.385.86-.861 0-.475-.38-.86-.86-.86s-.86.385-.86.86c0 .476.38.861.86.861zm7.75 0c.47 0 .86-.385.86-.861 0-.475-.39-.86-.86-.86-.48 0-.86.385-.86.86 0 .476.38.861.86.861zm7.74 0c.48 0 .86-.385.86-.861 0-.475-.38-.86-.86-.86-.47 0-.86.385-.86.86 0 .476.39.861.86.861zm7.75 0c.48 0 .86-.385.86-.861 0-.475-.38-.86-.86-.86s-.86.385-.86.86c0 .476.38.861.86.861zm7.75 0c.47 0 .86-.385.86-.861 0-.475-.39-.86-.86-.86-.48 0-.86.385-.86.86 0 .476.38.861.86.861zm7.74-.215a.647.647 0 100-1.292.645.645 0 000 1.292zm7.75 0a.647.647 0 100-1.292.647.647 0 100 1.292zm7.75 0a.645.645 0 10-.01-1.29.645.645 0 00.01 1.29zm7.74 0a.647.647 0 100-1.292.645.645 0 000 1.292zm7.75-.215c.24 0 .43-.193.43-.431s-.19-.43-.43-.43-.43.192-.43.43.19.431.43.431zm7.75 0c.24 0 .43-.193.43-.431s-.19-.43-.43-.43-.43.192-.43.43.19.431.43.431zm7.75 0c.23 0 .43-.193.43-.431s-.2-.43-.43-.43c-.24 0-.43.192-.43.43s.19.431.43.431zm7.74-.216c.12 0 .22-.096.22-.215s-.1-.215-.22-.215a.21.21 0 00-.21.215c0 .119.09.215.21.215zm7.75 0a.21.21 0 00.21-.215.21.21 0 00-.21-.215c-.12 0-.22.096-.22.215s.1.215.22.215zm7.75 0c.11 0 .21-.096.21-.215s-.1-.215-.21-.215c-.12 0-.22.096-.22.215s.1.215.22.215zm-185.93 7.748a.22.22 0 00.22-.216c0-.118-.1-.215-.22-.215a.21.21 0 00-.21.215c0 .119.09.216.21.216zm7.75 0a.21.21 0 00.21-.216.21.21 0 00-.21-.215c-.12 0-.22.097-.22.215 0 .119.1.216.22.216zm7.75.215c.23 0 .43-.193.43-.431a.435.435 0 00-.87 0c0 .238.2.431.44.431zm7.74 0c.24 0 .43-.193.43-.431 0-.237-.19-.43-.43-.43s-.43.193-.43.43c0 .238.19.431.43.431zm7.75.214a.645.645 0 10-.01-1.29.645.645 0 00.01 1.29zm7.75 0a.645.645 0 10-.01-1.29.645.645 0 00.01 1.29zm7.74 0c.36 0 .65-.289.65-.645a.645.645 0 10-.65.645zm7.75.216c.47 0 .86-.385.86-.861 0-.475-.39-.86-.86-.86-.48 0-.86.385-.86.86 0 .476.38.861.86.861zm7.75 0c.47 0 .86-.385.86-.861a.865.865 0 00-1.73 0c0 .476.39.861.87.861zm7.74 0c.48 0 .86-.385.86-.861 0-.475-.38-.86-.86-.86-.47 0-.86.385-.86.86 0 .476.39.861.86.861zm7.75 0c.48 0 .86-.385.86-.861 0-.475-.38-.86-.86-.86s-.86.385-.86.86c0 .476.38.861.86.861zm7.75 0c.47 0 .86-.385.86-.861 0-.475-.39-.86-.86-.86-.48 0-.86.385-.86.86 0 .476.38.861.86.861zm7.74 0c.48 0 .86-.385.86-.861 0-.475-.38-.86-.86-.86-.47 0-.86.385-.86.86 0 .476.39.861.86.861zm7.75 0c.48 0 .86-.385.86-.861 0-.475-.38-.86-.86-.86s-.86.385-.86.86c0 .476.38.861.86.861zm7.75 0c.47 0 .86-.385.86-.861 0-.475-.39-.86-.86-.86-.48 0-.86.385-.86.86 0 .476.38.861.86.861zm7.74 0c.48 0 .86-.385.86-.861 0-.475-.38-.86-.86-.86-.47 0-.86.385-.86.86 0 .476.39.861.86.861zm7.75 0c.48 0 .86-.385.86-.861 0-.475-.38-.86-.86-.86-.47 0-.86.385-.86.86 0 .476.39.861.86.861zm7.75 0c.47 0 .86-.385.86-.861 0-.475-.39-.86-.86-.86-.48 0-.86.385-.86.86 0 .476.38.861.86.861zm7.74-.216c.36 0 .65-.289.65-.645a.645.645 0 10-.65.645zm7.75 0c.36 0 .65-.289.65-.645a.645.645 0 10-.65.645zm7.75 0c.36 0 .64-.289.64-.645a.639.639 0 00-.64-.646c-.36 0-.65.289-.65.646 0 .356.29.645.65.645zm7.75-.214c.23 0 .43-.193.43-.431 0-.237-.2-.43-.43-.43-.24 0-.43.193-.43.43 0 .238.19.431.43.431zm7.74 0c.24 0 .43-.193.43-.431 0-.237-.19-.43-.43-.43s-.43.193-.43.43c0 .238.19.431.43.431zm7.75-.215a.21.21 0 00.21-.216.21.21 0 00-.21-.215c-.12 0-.22.097-.22.215 0 .119.1.216.22.216zm7.75 0c.11 0 .21-.097.21-.216 0-.118-.1-.215-.21-.215-.12 0-.22.097-.22.215 0 .119.1.216.22.216zm7.74 0a.22.22 0 00.22-.216c0-.118-.1-.215-.22-.215a.21.21 0 00-.21.215c0 .119.09.216.21.216zm-201.42 7.746c.12 0 .22-.096.22-.215s-.1-.215-.22-.215a.21.21 0 00-.21.215c0 .119.09.215.21.215zm7.75 0c.12 0 .22-.096.22-.215s-.1-.215-.22-.215a.21.21 0 00-.21.215c0 .119.09.215.21.215zm7.75.216c.24 0 .43-.193.43-.431 0-.237-.19-.43-.43-.43s-.43.193-.43.43c0 .238.19.431.43.431zm7.75 0c.23 0 .43-.193.43-.431a.435.435 0 00-.87 0c0 .238.2.431.44.431zm7.74.214c.36 0 .65-.289.65-.645a.647.647 0 00-.65-.646c-.36 0-.64.289-.64.646 0 .356.28.645.64.645zm7.75 0a.645.645 0 10-.01-1.29.645.645 0 00.01 1.29zm7.75 0a.645.645 0 10-.01-1.29.645.645 0 00.01 1.29zm7.74.216c.48 0 .86-.386.86-.861a.858.858 0 00-.86-.861c-.47 0-.86.386-.86.861s.39.861.86.861zm7.75 0c.47 0 .86-.386.86-.861a.864.864 0 00-.86-.861c-.48 0-.86.386-.86.861s.38.861.86.861zm7.75 0c.47 0 .86-.386.86-.861a.864.864 0 00-1.73 0c0 .475.39.861.87.861zm7.74.215a1.076 1.076 0 10.008-2.152 1.076 1.076 0 00-.008 2.152zm7.75 0c.59 0 1.08-.482 1.08-1.076 0-.594-.49-1.076-1.08-1.076-.59 0-1.08.482-1.08 1.076 0 .594.49 1.076 1.08 1.076zm7.75 0c.59 0 1.07-.482 1.07-1.076a1.074 1.074 0 10-2.15 0c0 .594.48 1.076 1.08 1.076zm7.74 0a1.076 1.076 0 10.008-2.152 1.076 1.076 0 00-.008 2.152zm7.75 0c.59 0 1.08-.482 1.08-1.076 0-.594-.49-1.076-1.08-1.076-.59 0-1.08.482-1.08 1.076 0 .594.49 1.076 1.08 1.076zm7.75 0c.59 0 1.07-.482 1.07-1.076a1.074 1.074 0 10-2.15 0c0 .594.48 1.076 1.08 1.076zm7.74 0a1.076 1.076 0 10.008-2.152 1.076 1.076 0 00-.008 2.152zm7.75-.215c.48 0 .86-.386.86-.861a.858.858 0 00-.86-.861c-.47 0-.86.386-.86.861s.39.861.86.861zm7.75 0c.47 0 .86-.386.86-.861a.864.864 0 00-.86-.861c-.48 0-.86.386-.86.861s.38.861.86.861zm7.74 0c.48 0 .87-.386.87-.861a.866.866 0 00-1.73 0c0 .475.39.861.86.861zm7.75 0c.48 0 .86-.386.86-.861a.858.858 0 00-.86-.861c-.47 0-.86.386-.86.861s.39.861.86.861zm7.75-.216c.36 0 .64-.289.64-.645a.639.639 0 00-.64-.646c-.36 0-.65.289-.65.646 0 .356.29.645.65.645zm7.75 0a.645.645 0 10-.01-1.29.645.645 0 00.01 1.29zm7.74-.214c.24 0 .43-.193.43-.431 0-.237-.19-.43-.43-.43s-.43.193-.43.43c0 .238.19.431.43.431zm7.75 0c.24 0 .43-.193.43-.431 0-.237-.19-.43-.43-.43s-.43.193-.43.43c0 .238.19.431.43.431zm7.75-.216c.11 0 .21-.096.21-.215s-.1-.215-.21-.215c-.12 0-.22.096-.22.215s.1.215.22.215zm7.74 0c.12 0 .22-.096.22-.215s-.1-.215-.22-.215a.21.21 0 00-.21.215c0 .119.09.215.21.215zm-209.16 7.747a.21.21 0 00.21-.215.21.21 0 00-.21-.215c-.12 0-.22.096-.22.215s.1.215.22.215zm7.74 0c.12 0 .22-.096.22-.215s-.1-.215-.22-.215a.21.21 0 00-.21.215c0 .119.09.215.21.215zm7.75.215c.24 0 .43-.192.43-.43s-.19-.43-.43-.43-.43.192-.43.43.19.43.43.43zm7.75 0c.24 0 .43-.192.43-.43s-.19-.43-.43-.43-.43.192-.43.43.19.43.43.43zm7.74.215c.36 0 .65-.289.65-.645a.645.645 0 10-.65.645zm7.75 0c.36 0 .65-.289.65-.645a.647.647 0 00-.65-.646c-.36 0-.64.289-.64.646 0 .356.28.645.64.645zm7.75.215c.47 0 .86-.385.86-.86a.863.863 0 00-.86-.861c-.48 0-.86.385-.86.861 0 .475.38.86.86.86zm7.75 0c.47 0 .86-.385.86-.86a.866.866 0 00-1.73 0c0 .475.39.86.87.86zm7.74 0c.48 0 .86-.385.86-.86a.857.857 0 00-.86-.861c-.47 0-.86.385-.86.861 0 .475.39.86.86.86zm7.75.215c.59 0 1.08-.481 1.08-1.076 0-.594-.49-1.075-1.08-1.075-.59 0-1.08.481-1.08 1.075 0 .595.49 1.076 1.08 1.076zm7.75 0c.59 0 1.07-.481 1.07-1.076a1.075 1.075 0 10-1.07 1.076zm7.74 0a1.075 1.075 0 10.01-2.15 1.075 1.075 0 00-.01 2.15zm7.75 0c.59 0 1.08-.481 1.08-1.076 0-.594-.49-1.075-1.08-1.075-.59 0-1.08.481-1.08 1.075 0 .595.49 1.076 1.08 1.076zm7.75 0c.59 0 1.07-.481 1.07-1.076a1.075 1.075 0 10-1.07 1.076zm7.74.216c.72 0 1.29-.578 1.29-1.291s-.57-1.291-1.29-1.291a1.292 1.292 0 000 2.582zm7.75 0a1.292 1.292 0 000-2.582 1.292 1.292 0 000 2.582zm7.75-.216c.59 0 1.07-.481 1.07-1.076a1.075 1.075 0 10-1.07 1.076zm7.74 0a1.075 1.075 0 10.01-2.15 1.075 1.075 0 00-.01 2.15zm7.75 0a1.075 1.075 0 10.01-2.15 1.075 1.075 0 00-.01 2.15zm7.75 0c.59 0 1.07-.481 1.07-1.076a1.075 1.075 0 10-1.07 1.076zm7.74-.215c.48 0 .87-.385.87-.86a.866.866 0 00-1.73 0c0 .475.39.86.86.86zm7.75 0c.48 0 .86-.385.86-.86a.857.857 0 00-.86-.861c-.47 0-.86.385-.86.861 0 .475.39.86.86.86zm7.75 0c.47 0 .86-.385.86-.86a.863.863 0 00-.86-.861c-.48 0-.86.385-.86.861 0 .475.38.86.86.86zm7.75-.215a.645.645 0 10-.01-1.29.645.645 0 00.01 1.29zm7.74 0c.36 0 .65-.289.65-.645a.645.645 0 10-.65.645zm7.75-.215c.24 0 .43-.192.43-.43s-.19-.43-.43-.43-.43.192-.43.43.19.43.43.43zm7.75 0c.23 0 .43-.192.43-.43a.435.435 0 00-.87 0c0 .238.2.43.44.43zm7.74-.215c.12 0 .22-.096.22-.215s-.1-.215-.22-.215a.21.21 0 00-.21.215c0 .119.09.215.21.215zm7.75 0a.21.21 0 00.21-.215.21.21 0 00-.21-.215c-.12 0-.22.096-.22.215s.1.215.22.215zm-216.91 7.747a.21.21 0 00.21-.215.21.21 0 00-.21-.216.22.22 0 00-.22.216c0 .118.1.215.22.215zm7.74.215c.24 0 .43-.192.43-.43s-.19-.43-.43-.43c-.23 0-.43.192-.43.43s.2.43.43.43zm7.75 0c.24 0 .43-.192.43-.43s-.19-.43-.43-.43-.43.192-.43.43.19.43.43.43zm7.75.215a.645.645 0 10-.01-1.29.645.645 0 00.01 1.29zm7.74 0c.36 0 .65-.289.65-.646a.645.645 0 10-.65.646zm7.75.215c.48 0 .86-.385.86-.86a.857.857 0 00-.86-.861c-.47 0-.86.385-.86.861 0 .475.39.86.86.86zm7.75 0c.47 0 .86-.385.86-.86a.863.863 0 00-.86-.861c-.48 0-.86.385-.86.861 0 .475.38.86.86.86zm7.75 0c.47 0 .86-.385.86-.86a.866.866 0 00-1.73 0c0 .475.39.86.87.86zm7.74.215a1.075 1.075 0 10.01-2.15 1.075 1.075 0 00-.01 2.15zm7.75 0c.59 0 1.08-.481 1.08-1.075 0-.595-.49-1.076-1.08-1.076-.59 0-1.08.481-1.08 1.076 0 .594.49 1.075 1.08 1.075zm7.75.216a1.292 1.292 0 000-2.583c-.72 0-1.3.578-1.3 1.291s.58 1.292 1.3 1.292zm7.74 0c.72 0 1.29-.579 1.29-1.292 0-.713-.57-1.291-1.29-1.291a1.292 1.292 0 000 2.583zm7.75 0a1.292 1.292 0 000-2.583 1.292 1.292 0 000 2.583zm7.75 0a1.292 1.292 0 000-2.583c-.72 0-1.29.578-1.29 1.291s.57 1.292 1.29 1.292zm7.74 0c.72 0 1.29-.579 1.29-1.292 0-.713-.57-1.291-1.29-1.291a1.292 1.292 0 000 2.583zm7.75 0a1.292 1.292 0 000-2.583 1.292 1.292 0 000 2.583zm7.75 0a1.292 1.292 0 000-2.583c-.72 0-1.29.578-1.29 1.291s.57 1.292 1.29 1.292zm7.74 0c.72 0 1.3-.579 1.3-1.292 0-.713-.58-1.291-1.3-1.291a1.292 1.292 0 000 2.583zm7.75 0a1.292 1.292 0 000-2.583 1.292 1.292 0 000 2.583zm7.75-.216c.59 0 1.07-.481 1.07-1.075a1.075 1.075 0 10-1.07 1.075zm7.74 0a1.075 1.075 0 10.01-2.15 1.075 1.075 0 00-.01 2.15zm7.75 0a1.075 1.075 0 10.01-2.15 1.075 1.075 0 00-.01 2.15zm7.75-.215c.47 0 .86-.385.86-.86a.863.863 0 00-.86-.861c-.48 0-.86.385-.86.861 0 .475.38.86.86.86zm7.74 0c.48 0 .87-.385.87-.86a.866.866 0 00-1.73 0c0 .475.39.86.86.86zm7.75-.215c.36 0 .65-.289.65-.646a.645.645 0 10-.65.646zm7.75 0c.36 0 .64-.289.64-.646a.639.639 0 00-.64-.645c-.36 0-.65.289-.65.645 0 .357.29.646.65.646zm7.75-.215c.23 0 .43-.192.43-.43a.435.435 0 00-.87 0c0 .238.2.43.44.43zm7.74 0c.24 0 .43-.192.43-.43s-.19-.43-.43-.43-.43.192-.43.43.19.43.43.43zm7.75-.215a.21.21 0 00.21-.215.21.21 0 00-.21-.216.22.22 0 00-.22.216c0 .118.1.215.22.215zm7.75 0c.11 0 .21-.097.21-.215 0-.119-.1-.216-.21-.216a.22.22 0 00-.22.216c0 .118.1.215.22.215zm-232.41 7.746c.12 0 .22-.096.22-.215s-.1-.215-.22-.215a.21.21 0 00-.21.215c0 .119.09.215.21.215zm7.75 0a.21.21 0 00.21-.215.21.21 0 00-.21-.215c-.12 0-.22.096-.22.215s.1.215.22.215zm7.74.216c.24 0 .43-.193.43-.43a.429.429 0 00-.43-.431c-.23 0-.43.193-.43.431 0 .237.2.43.43.43zm7.75 0c.24 0 .43-.193.43-.43a.429.429 0 00-.43-.431c-.24 0-.43.193-.43.431 0 .237.19.43.43.43zm7.75.215a.645.645 0 10-.01-1.29.645.645 0 00.01 1.29zm7.74 0c.36 0 .65-.289.65-.646a.645.645 0 10-.65.646zm7.75.215c.48 0 .86-.385.86-.861a.858.858 0 00-.86-.861c-.47 0-.86.386-.86.861 0 .476.39.861.86.861zm7.75 0c.47 0 .86-.385.86-.861a.864.864 0 00-.86-.861c-.48 0-.86.386-.86.861 0 .476.38.861.86.861zm7.75.216c.59 0 1.07-.482 1.07-1.076a1.075 1.075 0 10-1.07 1.076zm7.74 0a1.076 1.076 0 10.008-2.152 1.076 1.076 0 00-.008 2.152zm7.75.215a1.292 1.292 0 000-2.583 1.292 1.292 0 000 2.583zm7.75 0a1.292 1.292 0 000-2.583c-.72 0-1.3.578-1.3 1.291 0 .714.58 1.292 1.3 1.292zm7.74 0c.72 0 1.29-.578 1.29-1.292 0-.713-.57-1.291-1.29-1.291a1.292 1.292 0 000 2.583zm7.75.215c.83 0 1.51-.675 1.51-1.507a1.51 1.51 0 00-3.02 0c0 .832.68 1.507 1.51 1.507zm7.75 0c.83 0 1.5-.675 1.5-1.507a1.504 1.504 0 10-3.01 0c0 .832.67 1.507 1.51 1.507zm7.74 0c.84 0 1.51-.675 1.51-1.507a1.504 1.504 0 10-3.01 0c0 .832.67 1.507 1.5 1.507zm7.75 0c.83 0 1.51-.675 1.51-1.507a1.51 1.51 0 00-3.02 0c0 .832.68 1.507 1.51 1.507zm7.75 0c.83 0 1.5-.675 1.5-1.507 0-.832-.67-1.506-1.5-1.506s-1.51.674-1.51 1.506.68 1.507 1.51 1.507zm7.74-.215c.72 0 1.3-.578 1.3-1.292 0-.713-.58-1.291-1.3-1.291a1.292 1.292 0 000 2.583zm7.75 0a1.292 1.292 0 000-2.583 1.292 1.292 0 000 2.583zm7.75 0a1.292 1.292 0 000-2.583c-.72 0-1.29.578-1.29 1.291 0 .714.57 1.292 1.29 1.292zm7.74-.215a1.076 1.076 0 10.008-2.152 1.076 1.076 0 00-.008 2.152zm7.75 0a1.076 1.076 0 10.008-2.152 1.076 1.076 0 00-.008 2.152zm7.75 0c.59 0 1.07-.482 1.07-1.076a1.075 1.075 0 10-1.07 1.076zm7.74-.216c.48 0 .87-.385.87-.861a.866.866 0 00-1.73 0c0 .476.39.861.86.861zm7.75 0c.48 0 .86-.385.86-.861a.858.858 0 00-.86-.861c-.47 0-.86.386-.86.861 0 .476.39.861.86.861zm7.75-.215c.36 0 .64-.289.64-.646a.639.639 0 00-.64-.645c-.36 0-.65.289-.65.645 0 .357.29.646.65.646zm7.75-.215c.23 0 .43-.193.43-.43a.435.435 0 00-.87 0c0 .237.2.43.44.43zm7.74 0c.24 0 .43-.193.43-.43a.429.429 0 00-.43-.431c-.24 0-.43.193-.43.431 0 .237.19.43.43.43zm7.75-.216a.21.21 0 00.21-.215.21.21 0 00-.21-.215c-.12 0-.22.096-.22.215s.1.215.22.215zm7.75 0c.11 0 .21-.096.21-.215s-.1-.215-.21-.215c-.12 0-.22.096-.22.215s.1.215.22.215zm-232.41 7.747c.12 0 .22-.096.22-.215s-.1-.215-.22-.215a.21.21 0 00-.21.215c0 .119.09.215.21.215zm7.75.216c.23 0 .43-.193.43-.43 0-.238-.2-.431-.43-.431-.24 0-.43.193-.43.431 0 .237.19.43.43.43zm7.74 0c.24 0 .43-.193.43-.43a.429.429 0 00-.43-.431c-.23 0-.43.193-.43.431 0 .237.2.43.43.43zm7.75.215a.647.647 0 100-1.292c-.36 0-.64.289-.64.646 0 .357.28.646.64.646zm7.75 0a.645.645 0 10-.01-1.29.645.645 0 00.01 1.29zm7.74.215c.48 0 .87-.385.87-.861a.865.865 0 00-1.73 0c0 .476.39.861.86.861zm7.75 0c.48 0 .86-.385.86-.861 0-.475-.38-.86-.86-.86-.47 0-.86.385-.86.86 0 .476.39.861.86.861zm7.75.216c.59 0 1.07-.482 1.07-1.076a1.075 1.075 0 10-1.07 1.076zm7.75 0c.59 0 1.07-.482 1.07-1.076a1.075 1.075 0 10-1.07 1.076zm7.74.215c.72 0 1.29-.578 1.29-1.291 0-.714-.57-1.292-1.29-1.292a1.292 1.292 0 000 2.583zm7.75 0a1.292 1.292 0 000-2.583 1.292 1.292 0 000 2.583zm7.75.214c.83 0 1.5-.674 1.5-1.506s-.67-1.506-1.5-1.506c-.84 0-1.51.674-1.51 1.506s.67 1.506 1.51 1.506zm7.74 0c.83 0 1.51-.674 1.51-1.506a1.51 1.51 0 00-1.51-1.506c-.83 0-1.5.674-1.5 1.506s.67 1.506 1.5 1.506zm7.75 0c.83 0 1.51-.674 1.51-1.506a1.51 1.51 0 00-3.02 0c0 .832.68 1.506 1.51 1.506zm7.75 0c.83 0 1.5-.674 1.5-1.506s-.67-1.506-1.5-1.506c-.84 0-1.51.674-1.51 1.506s.67 1.506 1.51 1.506zm7.74 0c.84 0 1.51-.674 1.51-1.506a1.504 1.504 0 10-3.01 0c0 .832.67 1.506 1.5 1.506zm7.75 0c.83 0 1.51-.674 1.51-1.506a1.51 1.51 0 00-3.02 0c0 .832.68 1.506 1.51 1.506zm7.75 0c.83 0 1.5-.674 1.5-1.506s-.67-1.506-1.5-1.506-1.51.674-1.51 1.506.68 1.506 1.51 1.506zm7.74 0c.84 0 1.51-.674 1.51-1.506a1.504 1.504 0 10-3.01 0c0 .832.67 1.506 1.5 1.506zm7.75 0c.83 0 1.51-.674 1.51-1.506a1.51 1.51 0 00-3.02 0c0 .832.68 1.506 1.51 1.506zm7.75-.214a1.292 1.292 0 000-2.583c-.72 0-1.29.578-1.29 1.292 0 .713.57 1.291 1.29 1.291zm7.74 0c.72 0 1.3-.578 1.3-1.291a1.294 1.294 0 00-2.59 0c0 .713.58 1.291 1.29 1.291zm7.75-.215a1.076 1.076 0 10.008-2.152 1.076 1.076 0 00-.008 2.152zm7.75 0c.59 0 1.07-.482 1.07-1.076a1.075 1.075 0 10-1.07 1.076zm7.74-.216c.48 0 .87-.385.87-.861a.865.865 0 00-1.73 0c0 .476.39.861.86.861zm7.75 0c.48 0 .86-.385.86-.861 0-.475-.38-.86-.86-.86-.47 0-.86.385-.86.86 0 .476.39.861.86.861zm7.75-.215c.36 0 .64-.289.64-.646a.639.639 0 00-.64-.646.647.647 0 100 1.292zm7.74 0a.647.647 0 100-1.292.645.645 0 000 1.292zm7.75-.215c.24 0 .43-.193.43-.43a.429.429 0 00-.43-.431c-.24 0-.43.193-.43.431 0 .237.19.43.43.43zm7.75 0c.24 0 .43-.193.43-.43a.429.429 0 00-.43-.431c-.24 0-.43.193-.43.431 0 .237.19.43.43.43zm7.75-.216c.11 0 .21-.096.21-.215s-.1-.215-.21-.215c-.12 0-.22.096-.22.215s.1.215.22.215zm-240.16 7.747a.22.22 0 00.22-.216c0-.118-.1-.215-.22-.215-.11 0-.21.097-.21.215 0 .119.1.216.21.216zm7.75 0a.22.22 0 00.22-.216c0-.118-.1-.215-.22-.215a.21.21 0 00-.21.215c0 .119.09.216.21.216zm7.75.216c.23 0 .43-.193.43-.431s-.2-.43-.43-.43c-.24 0-.43.192-.43.43s.19.431.43.431zm7.74 0c.24 0 .43-.193.43-.431s-.19-.43-.43-.43c-.23 0-.43.192-.43.43s.2.431.43.431zm7.75.215c.36 0 .65-.289.65-.646a.648.648 0 00-.65-.646.64.64 0 00-.64.646c0 .357.28.646.64.646zm7.75.215c.47 0 .86-.386.86-.861a.864.864 0 00-.86-.861c-.48 0-.86.386-.86.861s.38.861.86.861zm7.74 0c.48 0 .87-.386.87-.861a.866.866 0 00-1.73 0c0 .475.39.861.86.861zm7.75.215a1.076 1.076 0 10.008-2.152 1.076 1.076 0 00-.008 2.152zm7.75 0c.59 0 1.07-.482 1.07-1.076a1.074 1.074 0 10-2.15 0c0 .594.48 1.076 1.08 1.076zm7.74.215c.72 0 1.3-.578 1.3-1.291s-.58-1.291-1.3-1.291a1.292 1.292 0 000 2.582zm7.75 0c.72 0 1.29-.578 1.29-1.291s-.57-1.291-1.29-1.291a1.292 1.292 0 000 2.582zm7.75.215c.83 0 1.51-.674 1.51-1.506a1.51 1.51 0 00-3.02 0c0 .832.68 1.506 1.51 1.506zm7.75 0c.83 0 1.5-.674 1.5-1.506s-.67-1.506-1.5-1.506c-.84 0-1.51.674-1.51 1.506s.67 1.506 1.51 1.506zm7.74.215a1.721 1.721 0 10-.002-3.444 1.721 1.721 0 00.002 3.444zm7.75 0a1.721 1.721 0 10-.002-3.444 1.721 1.721 0 00.002 3.444zm7.75 0a1.721 1.721 0 000-3.443c-.95 0-1.73.771-1.73 1.722s.78 1.721 1.73 1.721zm7.74 0c.95 0 1.73-.77 1.73-1.721a1.73 1.73 0 00-1.73-1.722 1.721 1.721 0 000 3.443zm7.75 0a1.721 1.721 0 10-.002-3.444 1.721 1.721 0 00.002 3.444zm7.75 0a1.721 1.721 0 10-.002-3.444 1.721 1.721 0 00.002 3.444zm7.74 0a1.721 1.721 0 10-.002-3.444 1.721 1.721 0 00.002 3.444zm7.75-.215c.83 0 1.51-.674 1.51-1.506a1.51 1.51 0 00-3.02 0c0 .832.68 1.506 1.51 1.506zm7.75 0c.83 0 1.5-.674 1.5-1.506s-.67-1.506-1.5-1.506-1.51.674-1.51 1.506.68 1.506 1.51 1.506zm7.74-.215c.72 0 1.3-.578 1.3-1.291s-.58-1.291-1.3-1.291a1.292 1.292 0 000 2.582zm7.75 0a1.292 1.292 0 000-2.582 1.292 1.292 0 000 2.582zm7.75-.215c.59 0 1.07-.482 1.07-1.076a1.074 1.074 0 10-2.15 0c0 .594.48 1.076 1.08 1.076zm7.74 0a1.076 1.076 0 10.008-2.152 1.076 1.076 0 00-.008 2.152zm7.75-.215c.48 0 .86-.386.86-.861a.858.858 0 00-.86-.861c-.47 0-.86.386-.86.861s.39.861.86.861zm7.75 0c.47 0 .86-.386.86-.861a.864.864 0 00-.86-.861c-.48 0-.86.386-.86.861s.38.861.86.861zm7.74-.215c.36 0 .65-.289.65-.646a.646.646 0 10-.65.646zm7.75-.215c.24 0 .43-.193.43-.431s-.19-.43-.43-.43-.43.192-.43.43.19.431.43.431zm7.75 0c.24 0 .43-.193.43-.431s-.19-.43-.43-.43-.43.192-.43.43.19.431.43.431zm7.75-.216c.11 0 .21-.097.21-.216 0-.118-.1-.215-.21-.215-.12 0-.22.097-.22.215 0 .119.1.216.22.216zm7.74 0a.22.22 0 00.22-.216c0-.118-.1-.215-.22-.215a.21.21 0 00-.21.215c0 .119.09.216.21.216zm-247.9 7.747c.12 0 .22-.096.22-.215s-.1-.215-.22-.215c-.11 0-.21.096-.21.215s.1.215.21.215zm7.75 0c.12 0 .22-.096.22-.215s-.1-.215-.22-.215a.21.21 0 00-.21.215c0 .119.09.215.21.215zm7.75.215c.23 0 .43-.193.43-.43 0-.238-.2-.431-.43-.431-.24 0-.43.193-.43.431 0 .237.19.43.43.43zm7.74.216c.36 0 .65-.289.65-.646a.645.645 0 10-.65.646zm7.75 0c.36 0 .65-.289.65-.646a.647.647 0 00-.65-.645c-.36 0-.64.289-.64.645 0 .357.28.646.64.646zm7.75.215c.47 0 .86-.385.86-.861 0-.475-.39-.86-.86-.86-.48 0-.86.385-.86.86 0 .476.38.861.86.861zm7.74 0c.48 0 .87-.385.87-.861a.865.865 0 00-1.73 0c0 .476.39.861.86.861zm7.75.215a1.076 1.076 0 10.008-2.152 1.076 1.076 0 00-.008 2.152zm7.75.216a1.292 1.292 0 000-2.582 1.292 1.292 0 000 2.582zm7.74 0c.72 0 1.3-.578 1.3-1.291s-.58-1.291-1.3-1.291a1.292 1.292 0 000 2.582zm7.75.214c.83 0 1.51-.674 1.51-1.506a1.51 1.51 0 00-1.51-1.506c-.83 0-1.5.674-1.5 1.506s.67 1.506 1.5 1.506zm7.75 0c.83 0 1.51-.674 1.51-1.506a1.51 1.51 0 00-3.02 0c0 .832.68 1.506 1.51 1.506zm7.75.216a1.721 1.721 0 000-3.443c-.96 0-1.73.771-1.73 1.721 0 .951.77 1.722 1.73 1.722zm7.74 0a1.721 1.721 0 10-.002-3.442 1.721 1.721 0 00.002 3.442zm7.75 0a1.721 1.721 0 10-.002-3.442 1.721 1.721 0 00.002 3.442zm7.75.215a1.93 1.93 0 001.93-1.937 1.93 1.93 0 00-1.93-1.936 1.94 1.94 0 00-1.94 1.936c0 1.07.87 1.937 1.94 1.937zm7.74 0a1.94 1.94 0 001.94-1.937 1.94 1.94 0 00-1.94-1.936 1.93 1.93 0 00-1.93 1.936c0 1.07.86 1.937 1.93 1.937zm7.75 0a1.94 1.94 0 001.94-1.937 1.94 1.94 0 00-1.94-1.936 1.94 1.94 0 00-1.94 1.936c0 1.07.87 1.937 1.94 1.937zm7.75-.215a1.721 1.721 0 10-.002-3.442 1.721 1.721 0 00.002 3.442zm7.74 0a1.721 1.721 0 10-.002-3.442 1.721 1.721 0 00.002 3.442zm7.75 0a1.721 1.721 0 10-.002-3.442 1.721 1.721 0 00.002 3.442zm7.75-.216c.83 0 1.5-.674 1.5-1.506s-.67-1.506-1.5-1.506-1.51.674-1.51 1.506.68 1.506 1.51 1.506zm7.74 0c.84 0 1.51-.674 1.51-1.506a1.504 1.504 0 10-3.01 0c0 .832.67 1.506 1.5 1.506zm7.75-.214a1.292 1.292 0 000-2.582 1.292 1.292 0 000 2.582zm7.75 0a1.292 1.292 0 000-2.582c-.72 0-1.29.578-1.29 1.291s.57 1.291 1.29 1.291zm7.74-.216a1.076 1.076 0 10.008-2.152 1.076 1.076 0 00-.008 2.152zm7.75-.215c.48 0 .86-.385.86-.861 0-.475-.38-.86-.86-.86-.47 0-.86.385-.86.86 0 .476.39.861.86.861zm7.75 0c.47 0 .86-.385.86-.861 0-.475-.39-.86-.86-.86-.48 0-.86.385-.86.86 0 .476.38.861.86.861zm7.74-.215c.36 0 .65-.289.65-.646a.645.645 0 10-.65.646zm7.75 0c.36 0 .65-.289.65-.646a.645.645 0 10-.65.646zm7.75-.216c.24 0 .43-.193.43-.43a.429.429 0 00-.43-.431c-.24 0-.43.193-.43.431 0 .237.19.43.43.43zm7.75-.215c.11 0 .21-.096.21-.215s-.1-.215-.21-.215c-.12 0-.22.096-.22.215s.1.215.22.215zm7.74 0c.12 0 .22-.096.22-.215s-.1-.215-.22-.215a.21.21 0 00-.21.215c0 .119.09.215.21.215zm-247.9 7.747a.22.22 0 00.22-.216c0-.118-.1-.215-.22-.215-.11 0-.21.097-.21.215 0 .119.1.216.21.216zm7.75.215c.24 0 .43-.193.43-.431 0-.237-.19-.43-.43-.43s-.43.193-.43.43c0 .238.19.431.43.431zm7.75 0c.23 0 .43-.193.43-.431 0-.237-.2-.43-.43-.43-.24 0-.43.193-.43.43 0 .238.19.431.43.431zm7.74.215c.36 0 .65-.289.65-.645a.645.645 0 10-.65.645zm7.75 0c.36 0 .65-.289.65-.645a.647.647 0 00-.65-.646c-.36 0-.64.289-.64.646 0 .356.28.645.64.645zm7.75.215c.47 0 .86-.386.86-.861a.864.864 0 00-.86-.861c-.48 0-.86.386-.86.861s.38.861.86.861zm7.74.215a1.075 1.075 0 10.01-2.15 1.075 1.075 0 00-.01 2.15zm7.75 0a1.075 1.075 0 10.01-2.15 1.075 1.075 0 00-.01 2.15zm7.75.216a1.292 1.292 0 000-2.582 1.292 1.292 0 000 2.582zm7.74 0c.72 0 1.3-.578 1.3-1.291s-.58-1.291-1.3-1.291a1.292 1.292 0 000 2.582zm7.75.215c.83 0 1.51-.674 1.51-1.506s-.68-1.507-1.51-1.507-1.5.675-1.5 1.507c0 .832.67 1.506 1.5 1.506zm7.75.215a1.721 1.721 0 10-.002-3.444 1.721 1.721 0 00.002 3.444zm7.75 0a1.721 1.721 0 000-3.443 1.722 1.722 0 100 3.443zm7.74.216a1.94 1.94 0 001.94-1.937 1.94 1.94 0 00-1.94-1.937 1.93 1.93 0 00-1.93 1.937c0 1.069.86 1.937 1.93 1.937zm7.75 0a1.94 1.94 0 001.94-1.937 1.94 1.94 0 00-3.88 0 1.94 1.94 0 001.94 1.937zm7.75 0c1.07 0 1.93-.868 1.93-1.937a1.93 1.93 0 00-1.93-1.937 1.94 1.94 0 00-1.94 1.937 1.94 1.94 0 001.94 1.937zm7.74 0a1.94 1.94 0 001.94-1.937 1.94 1.94 0 00-1.94-1.937 1.93 1.93 0 00-1.93 1.937c0 1.069.86 1.937 1.93 1.937zm7.75 0a1.94 1.94 0 001.94-1.937 1.94 1.94 0 00-3.88 0 1.94 1.94 0 001.94 1.937zm7.75 0c1.07 0 1.93-.868 1.93-1.937a1.93 1.93 0 00-1.93-1.937 1.94 1.94 0 00-1.94 1.937 1.94 1.94 0 001.94 1.937zm7.74 0a1.94 1.94 0 001.94-1.937 1.94 1.94 0 00-1.94-1.937 1.93 1.93 0 00-1.93 1.937c0 1.069.86 1.937 1.93 1.937zm7.75-.216a1.721 1.721 0 10-.002-3.444 1.721 1.721 0 00.002 3.444zm7.75 0a1.721 1.721 0 10-.002-3.444 1.721 1.721 0 00.002 3.444zm7.74-.215c.84 0 1.51-.674 1.51-1.506a1.505 1.505 0 10-3.01 0c0 .832.67 1.506 1.5 1.506zm7.75-.215a1.292 1.292 0 000-2.582 1.292 1.292 0 000 2.582zm7.75 0a1.292 1.292 0 000-2.582c-.72 0-1.29.578-1.29 1.291s.57 1.291 1.29 1.291zm7.74-.216a1.075 1.075 0 10.01-2.15 1.075 1.075 0 00-.01 2.15zm7.75 0a1.075 1.075 0 10.01-2.15 1.075 1.075 0 00-.01 2.15zm7.75-.215c.47 0 .86-.386.86-.861a.864.864 0 00-.86-.861c-.48 0-.86.386-.86.861s.38.861.86.861zm7.74-.215c.36 0 .65-.289.65-.645a.645.645 0 10-.65.645zm7.75 0c.36 0 .65-.289.65-.645a.645.645 0 10-.65.645zm7.75-.215c.24 0 .43-.193.43-.431 0-.237-.19-.43-.43-.43s-.43.193-.43.43c0 .238.19.431.43.431zm7.75 0c.23 0 .43-.193.43-.431 0-.237-.2-.43-.43-.43-.24 0-.43.193-.43.43 0 .238.19.431.43.431zm7.74-.215a.22.22 0 00.22-.216c0-.118-.1-.215-.22-.215a.21.21 0 00-.21.215c0 .119.09.216.21.216zm-247.9 7.746c.12 0 .22-.096.22-.215s-.1-.215-.22-.215c-.11 0-.21.096-.21.215s.1.215.21.215zm7.75.216c.24 0 .43-.193.43-.431 0-.237-.19-.43-.43-.43s-.43.193-.43.43c0 .238.19.431.43.431zm7.75 0c.23 0 .43-.193.43-.431 0-.237-.2-.43-.43-.43-.24 0-.43.193-.43.43 0 .238.19.431.43.431zm7.74.215c.36 0 .65-.289.65-.646a.645.645 0 10-.65.646zm7.75.215c.48 0 .86-.385.86-.86a.857.857 0 00-.86-.861c-.47 0-.86.385-.86.861 0 .475.39.86.86.86zm7.75 0c.47 0 .86-.385.86-.86a.863.863 0 00-.86-.861c-.48 0-.86.385-.86.861 0 .475.38.86.86.86zm7.74.215a1.076 1.076 0 10.008-2.152 1.076 1.076 0 00-.008 2.152zm7.75 0a1.076 1.076 0 10.008-2.152 1.076 1.076 0 00-.008 2.152zm7.75.216a1.292 1.292 0 000-2.582 1.292 1.292 0 000 2.582zm7.75.215c.83 0 1.5-.675 1.5-1.507a1.504 1.504 0 10-3.01 0c0 .832.67 1.507 1.51 1.507zm7.74 0c.83 0 1.51-.675 1.51-1.507a1.51 1.51 0 00-1.51-1.506c-.83 0-1.5.674-1.5 1.506s.67 1.507 1.5 1.507zm7.75.215a1.72 1.72 0 10-.002-3.442 1.72 1.72 0 00.002 3.442zm7.75 0a1.72 1.72 0 000-3.443c-.96 0-1.73.771-1.73 1.722 0 .95.77 1.721 1.73 1.721zm7.74.215a1.94 1.94 0 001.94-1.937 1.94 1.94 0 00-1.94-1.936 1.93 1.93 0 00-1.93 1.936c0 1.07.86 1.937 1.93 1.937zm7.75 0a1.94 1.94 0 001.94-1.937 1.94 1.94 0 00-1.94-1.936 1.94 1.94 0 00-1.94 1.936c0 1.07.87 1.937 1.94 1.937zm7.75.216c1.18 0 2.15-.964 2.15-2.152a2.155 2.155 0 00-4.31 0c0 1.188.97 2.152 2.16 2.152zm7.74 0a2.15 2.15 0 002.15-2.152 2.149 2.149 0 10-4.3 0 2.15 2.15 0 002.15 2.152zm7.75 0a2.15 2.15 0 002.15-2.152 2.149 2.149 0 10-4.3 0 2.15 2.15 0 002.15 2.152zm7.75-.216a1.93 1.93 0 001.93-1.937 1.93 1.93 0 00-1.93-1.936 1.94 1.94 0 00-1.94 1.936c0 1.07.87 1.937 1.94 1.937zm7.74 0a1.94 1.94 0 001.94-1.937 1.94 1.94 0 00-1.94-1.936 1.93 1.93 0 00-1.93 1.936c0 1.07.86 1.937 1.93 1.937zm7.75-.215a1.72 1.72 0 10-.002-3.442 1.72 1.72 0 00.002 3.442zm7.75 0a1.72 1.72 0 10-.002-3.442 1.72 1.72 0 00.002 3.442zm7.74-.215c.84 0 1.51-.675 1.51-1.507a1.504 1.504 0 10-3.01 0c0 .832.67 1.507 1.5 1.507zm7.75 0c.83 0 1.51-.675 1.51-1.507a1.51 1.51 0 00-1.51-1.506c-.83 0-1.5.674-1.5 1.506s.67 1.507 1.5 1.507zm7.75-.215a1.292 1.292 0 000-2.582c-.72 0-1.29.578-1.29 1.291s.57 1.291 1.29 1.291zm7.74-.216a1.076 1.076 0 10.008-2.152 1.076 1.076 0 00-.008 2.152zm7.75 0a1.076 1.076 0 10.008-2.152 1.076 1.076 0 00-.008 2.152zm7.75-.215c.47 0 .86-.385.86-.86a.863.863 0 00-.86-.861c-.48 0-.86.385-.86.861 0 .475.38.86.86.86zm7.75 0c.47 0 .86-.385.86-.86a.866.866 0 00-1.73 0c0 .475.39.86.87.86zm7.74-.215c.36 0 .65-.289.65-.646a.645.645 0 10-.65.646zm7.75-.215c.24 0 .43-.193.43-.431 0-.237-.19-.43-.43-.43s-.43.193-.43.43c0 .238.19.431.43.431zm7.75 0c.23 0 .43-.193.43-.431 0-.237-.2-.43-.43-.43-.24 0-.43.193-.43.43 0 .238.19.431.43.431zm7.74-.216c.12 0 .22-.096.22-.215s-.1-.215-.22-.215a.21.21 0 00-.21.215c0 .119.09.215.21.215zm-247.9 7.748c.12 0 .22-.097.22-.215a.22.22 0 00-.22-.216c-.11 0-.21.097-.21.216 0 .118.1.215.21.215zm7.75.214c.24 0 .43-.192.43-.43s-.19-.43-.43-.43-.43.192-.43.43.19.43.43.43zm7.75 0c.23 0 .43-.192.43-.43s-.2-.43-.43-.43c-.24 0-.43.192-.43.43s.19.43.43.43zm7.74.216c.36 0 .65-.289.65-.645a.645.645 0 10-.65.645zm7.75.215c.48 0 .86-.385.86-.861a.858.858 0 00-.86-.861c-.47 0-.86.386-.86.861 0 .476.39.861.86.861zm7.75 0c.47 0 .86-.385.86-.861a.864.864 0 00-.86-.861c-.48 0-.86.386-.86.861 0 .476.38.861.86.861zm7.74.215a1.075 1.075 0 10.01-2.15 1.075 1.075 0 00-.01 2.15zm7.75 0a1.075 1.075 0 10.01-2.15 1.075 1.075 0 00-.01 2.15zm7.75.216a1.292 1.292 0 000-2.582 1.292 1.292 0 000 2.582zm7.75.215c.83 0 1.5-.674 1.5-1.506s-.67-1.507-1.5-1.507c-.84 0-1.51.675-1.51 1.507 0 .832.67 1.506 1.51 1.506zm7.74 0c.83 0 1.51-.674 1.51-1.506s-.68-1.507-1.51-1.507-1.5.675-1.5 1.507c0 .832.67 1.506 1.5 1.506zm7.75.215a1.721 1.721 0 10-.002-3.442 1.721 1.721 0 00.002 3.442zm7.75.215a1.937 1.937 0 000-3.873 1.94 1.94 0 00-1.94 1.936c0 1.07.87 1.937 1.94 1.937zm7.74 0a1.94 1.94 0 001.94-1.937 1.94 1.94 0 00-1.94-1.936 1.93 1.93 0 00-1.93 1.936c0 1.07.86 1.937 1.93 1.937zm7.75.215c1.19 0 2.15-.963 2.15-2.152a2.15 2.15 0 10-4.3 0c0 1.189.96 2.152 2.15 2.152zm7.75 0c1.18 0 2.15-.963 2.15-2.152a2.156 2.156 0 00-4.31 0c0 1.189.97 2.152 2.16 2.152zm7.74 0c1.19 0 2.15-.963 2.15-2.152a2.15 2.15 0 10-4.3 0c0 1.189.96 2.152 2.15 2.152zm7.75 0c1.19 0 2.15-.963 2.15-2.152a2.15 2.15 0 10-4.3 0c0 1.189.96 2.152 2.15 2.152zm7.75 0c1.19 0 2.15-.963 2.15-2.152a2.15 2.15 0 00-2.15-2.152c-1.19 0-2.16.964-2.16 2.152 0 1.189.97 2.152 2.16 2.152zm7.74-.215a1.94 1.94 0 001.94-1.937 1.94 1.94 0 00-1.94-1.936 1.93 1.93 0 00-1.93 1.936c0 1.07.86 1.937 1.93 1.937zm7.75 0a1.94 1.94 0 001.94-1.937 1.94 1.94 0 00-1.94-1.936 1.94 1.94 0 00-1.94 1.936c0 1.07.87 1.937 1.94 1.937zm7.75-.215a1.721 1.721 0 10-.002-3.442 1.721 1.721 0 00.002 3.442zm7.74-.215c.84 0 1.51-.674 1.51-1.506a1.505 1.505 0 10-3.01 0c0 .832.67 1.506 1.5 1.506zm7.75 0c.83 0 1.51-.674 1.51-1.506s-.68-1.507-1.51-1.507-1.5.675-1.5 1.507c0 .832.67 1.506 1.5 1.506zm7.75-.215a1.292 1.292 0 000-2.582c-.72 0-1.29.578-1.29 1.291s.57 1.291 1.29 1.291zm7.74 0c.72 0 1.3-.578 1.3-1.291s-.58-1.291-1.3-1.291a1.292 1.292 0 000 2.582zm7.75-.216a1.075 1.075 0 10.01-2.15 1.075 1.075 0 00-.01 2.15zm7.75-.215c.47 0 .86-.385.86-.861a.864.864 0 00-.86-.861c-.48 0-.86.386-.86.861 0 .476.38.861.86.861zm7.75 0c.47 0 .86-.385.86-.861a.864.864 0 00-1.73 0c0 .476.39.861.87.861zm7.74-.215c.36 0 .65-.289.65-.645a.645.645 0 10-.65.645zm7.75-.216c.24 0 .43-.192.43-.43s-.19-.43-.43-.43-.43.192-.43.43.19.43.43.43zm7.75 0c.23 0 .43-.192.43-.43s-.2-.43-.43-.43c-.24 0-.43.192-.43.43s.19.43.43.43zm7.74-.214c.12 0 .22-.097.22-.215a.22.22 0 00-.22-.216.21.21 0 00-.21.216c0 .118.09.215.21.215zm7.75 0c.12 0 .22-.097.22-.215a.22.22 0 00-.22-.216.21.21 0 00-.21.216c0 .118.09.215.21.215zm-255.65 7.746c.12 0 .22-.096.22-.215s-.1-.215-.22-.215c-.11 0-.21.096-.21.215s.1.215.21.215zm7.75.216c.24 0 .43-.193.43-.43a.429.429 0 00-.43-.431c-.24 0-.43.193-.43.431 0 .237.19.43.43.43zm7.75 0c.23 0 .43-.193.43-.43 0-.238-.2-.431-.43-.431-.24 0-.43.193-.43.431 0 .237.19.43.43.43zm7.74.215c.36 0 .65-.289.65-.646a.645.645 0 10-.65.646zm7.75.215c.48 0 .86-.386.86-.861a.857.857 0 00-.86-.861c-.47 0-.86.385-.86.861 0 .475.39.861.86.861zm7.75 0c.47 0 .86-.386.86-.861a.863.863 0 00-.86-.861c-.48 0-.86.385-.86.861 0 .475.38.861.86.861zm7.74.215a1.076 1.076 0 10.008-2.152 1.076 1.076 0 00-.008 2.152zm7.75.215a1.292 1.292 0 000-2.582 1.292 1.292 0 000 2.582zm7.75 0a1.292 1.292 0 000-2.582 1.292 1.292 0 000 2.582zm7.75.216c.83 0 1.5-.675 1.5-1.507a1.504 1.504 0 10-3.01 0c0 .832.67 1.507 1.51 1.507zm7.74 0c.83 0 1.51-.675 1.51-1.507a1.51 1.51 0 00-1.51-1.506c-.83 0-1.5.674-1.5 1.506s.67 1.507 1.5 1.507zm7.75.215a1.72 1.72 0 10-.002-3.442 1.72 1.72 0 00.002 3.442zm7.75.215a1.937 1.937 0 000-3.874 1.94 1.94 0 00-1.94 1.937c0 1.07.87 1.937 1.94 1.937zm7.74 0a1.94 1.94 0 001.94-1.937 1.94 1.94 0 00-1.94-1.937 1.93 1.93 0 00-1.93 1.937c0 1.07.86 1.937 1.93 1.937zm7.75.216a2.15 2.15 0 002.15-2.152 2.149 2.149 0 10-4.3 0 2.15 2.15 0 002.15 2.152zm7.75 0c1.18 0 2.15-.964 2.15-2.152a2.155 2.155 0 00-4.31 0c0 1.188.97 2.152 2.16 2.152zm7.74 0a2.15 2.15 0 002.15-2.152 2.149 2.149 0 10-4.3 0 2.15 2.15 0 002.15 2.152zm7.75 0a2.15 2.15 0 002.15-2.152 2.149 2.149 0 10-4.3 0 2.15 2.15 0 002.15 2.152zm7.75 0a2.15 2.15 0 002.15-2.152c0-1.189-.96-2.152-2.15-2.152s-2.16.963-2.16 2.152c0 1.188.97 2.152 2.16 2.152zm7.74-.216a1.94 1.94 0 001.94-1.937 1.94 1.94 0 00-1.94-1.937 1.93 1.93 0 00-1.93 1.937c0 1.07.86 1.937 1.93 1.937zm7.75 0a1.94 1.94 0 001.94-1.937 1.94 1.94 0 00-3.88 0c0 1.07.87 1.937 1.94 1.937zm7.75-.215a1.72 1.72 0 10-.002-3.442 1.72 1.72 0 00.002 3.442zm7.74-.215c.84 0 1.51-.675 1.51-1.507a1.504 1.504 0 10-3.01 0c0 .832.67 1.507 1.5 1.507zm7.75 0c.83 0 1.51-.675 1.51-1.507a1.51 1.51 0 00-1.51-1.506c-.83 0-1.5.674-1.5 1.506s.67 1.507 1.5 1.507zm7.75-.216a1.292 1.292 0 000-2.582c-.72 0-1.29.578-1.29 1.291s.57 1.291 1.29 1.291zm7.74 0c.72 0 1.3-.578 1.3-1.291s-.58-1.291-1.3-1.291a1.292 1.292 0 000 2.582zm7.75-.215a1.076 1.076 0 10.008-2.152 1.076 1.076 0 00-.008 2.152zm7.75-.215c.47 0 .86-.386.86-.861a.863.863 0 00-.86-.861c-.48 0-.86.385-.86.861 0 .475.38.861.86.861zm7.75 0c.47 0 .86-.386.86-.861a.866.866 0 00-1.73 0c0 .475.39.861.87.861zm7.74-.215c.36 0 .65-.289.65-.646a.645.645 0 10-.65.646zm7.75-.215c.24 0 .43-.193.43-.43a.429.429 0 00-.43-.431c-.24 0-.43.193-.43.431 0 .237.19.43.43.43zm7.75 0c.23 0 .43-.193.43-.43 0-.238-.2-.431-.43-.431-.24 0-.43.193-.43.431 0 .237.19.43.43.43zm7.74-.216c.12 0 .22-.096.22-.215s-.1-.215-.22-.215a.21.21 0 00-.21.215c0 .119.09.215.21.215zm7.75 0c.12 0 .22-.096.22-.215s-.1-.215-.22-.215a.21.21 0 00-.21.215c0 .119.09.215.21.215zm-255.65 7.747c.12 0 .22-.096.22-.215s-.1-.215-.22-.215c-.11 0-.21.096-.21.215s.1.215.21.215zm7.75.216c.24 0 .43-.193.43-.431s-.19-.43-.43-.43-.43.192-.43.43.19.431.43.431zm7.75 0c.23 0 .43-.193.43-.431s-.2-.43-.43-.43c-.24 0-.43.192-.43.43s.19.431.43.431zm7.74.215a.647.647 0 100-1.292.645.645 0 000 1.292zm7.75.215c.48 0 .86-.385.86-.861 0-.475-.38-.86-.86-.86-.47 0-.86.385-.86.86 0 .476.39.861.86.861zm7.75 0c.47 0 .86-.385.86-.861 0-.475-.39-.86-.86-.86-.48 0-.86.385-.86.86 0 .476.38.861.86.861zm7.74.215a1.076 1.076 0 10.008-2.152 1.076 1.076 0 00-.008 2.152zm7.75.215a1.292 1.292 0 000-2.582 1.292 1.292 0 000 2.582zm7.75 0a1.292 1.292 0 000-2.582 1.292 1.292 0 000 2.582zm7.75.215c.83 0 1.5-.674 1.5-1.506s-.67-1.506-1.5-1.506c-.84 0-1.51.674-1.51 1.506s.67 1.506 1.51 1.506zm7.74 0c.83 0 1.51-.674 1.51-1.506a1.51 1.51 0 00-1.51-1.506c-.83 0-1.5.674-1.5 1.506s.67 1.506 1.5 1.506zm7.75.216a1.721 1.721 0 10-.002-3.442 1.721 1.721 0 00.002 3.442zm7.75.214a1.937 1.937 0 000-3.873 1.94 1.94 0 00-1.94 1.937 1.94 1.94 0 001.94 1.936zm7.74 0a1.94 1.94 0 001.94-1.936 1.94 1.94 0 00-1.94-1.937 1.93 1.93 0 00-1.93 1.937 1.93 1.93 0 001.93 1.936zm7.75.216c1.19 0 2.15-.963 2.15-2.152a2.149 2.149 0 10-4.3 0c0 1.189.96 2.152 2.15 2.152zm7.75 0c1.18 0 2.15-.963 2.15-2.152a2.155 2.155 0 00-4.31 0c0 1.189.97 2.152 2.16 2.152zm7.74 0c1.19 0 2.15-.963 2.15-2.152a2.149 2.149 0 10-4.3 0c0 1.189.96 2.152 2.15 2.152zm7.75 0c1.19 0 2.15-.963 2.15-2.152a2.149 2.149 0 10-4.3 0c0 1.189.96 2.152 2.15 2.152zm7.75 0c1.19 0 2.15-.963 2.15-2.152 0-1.188-.96-2.151-2.15-2.151s-2.16.963-2.16 2.151c0 1.189.97 2.152 2.16 2.152zm7.74-.216a1.94 1.94 0 001.94-1.936 1.94 1.94 0 00-1.94-1.937 1.93 1.93 0 00-1.93 1.937 1.93 1.93 0 001.93 1.936zm7.75 0a1.94 1.94 0 001.94-1.936 1.94 1.94 0 00-3.88 0 1.94 1.94 0 001.94 1.936zm7.75-.214a1.721 1.721 0 10-.002-3.442 1.721 1.721 0 00.002 3.442zm7.74-.216c.84 0 1.51-.674 1.51-1.506a1.504 1.504 0 10-3.01 0c0 .832.67 1.506 1.5 1.506zm7.75 0c.83 0 1.51-.674 1.51-1.506a1.51 1.51 0 00-1.51-1.506c-.83 0-1.5.674-1.5 1.506s.67 1.506 1.5 1.506zm7.75-.215a1.292 1.292 0 000-2.582c-.72 0-1.29.578-1.29 1.291s.57 1.291 1.29 1.291zm7.74 0c.72 0 1.3-.578 1.3-1.291s-.58-1.291-1.3-1.291a1.292 1.292 0 000 2.582zm7.75-.215a1.076 1.076 0 10.008-2.152 1.076 1.076 0 00-.008 2.152zm7.75-.215c.47 0 .86-.385.86-.861 0-.475-.39-.86-.86-.86-.48 0-.86.385-.86.86 0 .476.38.861.86.861zm7.75 0c.47 0 .86-.385.86-.861a.865.865 0 00-1.73 0c0 .476.39.861.87.861zm7.74-.215a.647.647 0 100-1.292.645.645 0 000 1.292zm7.75-.215c.24 0 .43-.193.43-.431s-.19-.43-.43-.43-.43.192-.43.43.19.431.43.431zm7.75 0c.23 0 .43-.193.43-.431s-.2-.43-.43-.43c-.24 0-.43.192-.43.43s.19.431.43.431zm7.74-.216c.12 0 .22-.096.22-.215s-.1-.215-.22-.215a.21.21 0 00-.21.215c0 .119.09.215.21.215zm7.75 0c.12 0 .22-.096.22-.215s-.1-.215-.22-.215a.21.21 0 00-.21.215c0 .119.09.215.21.215zm-255.65 7.747a.22.22 0 00.22-.216c0-.118-.1-.215-.22-.215-.11 0-.21.097-.21.215 0 .119.1.216.21.216zm7.75.215c.24 0 .43-.193.43-.43a.429.429 0 00-.43-.431c-.24 0-.43.193-.43.431 0 .237.19.43.43.43zm7.75 0c.23 0 .43-.193.43-.43 0-.238-.2-.431-.43-.431-.24 0-.43.193-.43.431 0 .237.19.43.43.43zm7.74.216c.36 0 .65-.289.65-.646a.645.645 0 10-.65.646zm7.75.215c.48 0 .86-.386.86-.861a.858.858 0 00-.86-.861c-.47 0-.86.386-.86.861s.39.861.86.861zm7.75 0c.47 0 .86-.386.86-.861a.864.864 0 00-.86-.861c-.48 0-.86.386-.86.861s.38.861.86.861zm7.74.215a1.075 1.075 0 10.01-2.15 1.075 1.075 0 00-.01 2.15zm7.75 0a1.075 1.075 0 10.01-2.15 1.075 1.075 0 00-.01 2.15zm7.75.215a1.292 1.292 0 000-2.582 1.292 1.292 0 000 2.582zm7.75.216c.83 0 1.5-.675 1.5-1.507a1.505 1.505 0 10-3.01 0c0 .832.67 1.507 1.51 1.507zm7.74 0c.83 0 1.51-.675 1.51-1.507 0-.831-.68-1.506-1.51-1.506s-1.5.675-1.5 1.506c0 .832.67 1.507 1.5 1.507zm7.75.214a1.721 1.721 0 10-.002-3.444 1.721 1.721 0 00.002 3.444zm7.75 0a1.721 1.721 0 000-3.443 1.722 1.722 0 100 3.443zm7.74.216a1.94 1.94 0 001.94-1.937 1.94 1.94 0 00-1.94-1.937c-1.07 0-1.93.868-1.93 1.937 0 1.07.86 1.937 1.93 1.937zm7.75 0a1.94 1.94 0 001.94-1.937 1.94 1.94 0 00-3.88 0c0 1.07.87 1.937 1.94 1.937zm7.75.215c1.18 0 2.15-.963 2.15-2.152a2.156 2.156 0 00-4.31 0c0 1.189.97 2.152 2.16 2.152zm7.74 0c1.19 0 2.15-.963 2.15-2.152a2.15 2.15 0 10-4.3 0c0 1.189.96 2.152 2.15 2.152zm7.75 0c1.19 0 2.15-.963 2.15-2.152a2.15 2.15 0 10-4.3 0c0 1.189.96 2.152 2.15 2.152zm7.75-.215a1.93 1.93 0 001.93-1.937c0-1.069-.86-1.937-1.93-1.937a1.94 1.94 0 00-1.94 1.937c0 1.07.87 1.937 1.94 1.937zm7.74 0a1.94 1.94 0 001.94-1.937 1.94 1.94 0 00-1.94-1.937c-1.07 0-1.93.868-1.93 1.937 0 1.07.86 1.937 1.93 1.937zm7.75-.216a1.721 1.721 0 10-.002-3.444 1.721 1.721 0 00.002 3.444zm7.75 0a1.721 1.721 0 10-.002-3.444 1.721 1.721 0 00.002 3.444zm7.74-.214c.84 0 1.51-.675 1.51-1.507a1.505 1.505 0 10-3.01 0c0 .832.67 1.507 1.5 1.507zm7.75 0c.83 0 1.51-.675 1.51-1.507 0-.831-.68-1.506-1.51-1.506s-1.5.675-1.5 1.506c0 .832.67 1.507 1.5 1.507zm7.75-.216a1.292 1.292 0 000-2.582c-.72 0-1.29.578-1.29 1.291s.57 1.291 1.29 1.291zm7.74-.215a1.075 1.075 0 10.01-2.15 1.075 1.075 0 00-.01 2.15zm7.75 0a1.075 1.075 0 10.01-2.15 1.075 1.075 0 00-.01 2.15zm7.75-.215c.47 0 .86-.386.86-.861a.864.864 0 00-.86-.861c-.48 0-.86.386-.86.861s.38.861.86.861zm7.75 0c.47 0 .86-.386.86-.861a.864.864 0 00-1.73 0c0 .475.39.861.87.861zm7.74-.215c.36 0 .65-.289.65-.646a.645.645 0 10-.65.646zm7.75-.216c.24 0 .43-.193.43-.43a.429.429 0 00-.43-.431c-.24 0-.43.193-.43.431 0 .237.19.43.43.43zm7.75 0c.23 0 .43-.193.43-.43 0-.238-.2-.431-.43-.431-.24 0-.43.193-.43.431 0 .237.19.43.43.43zm7.74-.215a.22.22 0 00.22-.216c0-.118-.1-.215-.22-.215a.21.21 0 00-.21.215c0 .119.09.216.21.216zm-247.9 7.747c.12 0 .22-.096.22-.215s-.1-.215-.22-.215c-.11 0-.21.096-.21.215s.1.215.21.215zm7.75.215c.24 0 .43-.193.43-.431 0-.237-.19-.43-.43-.43s-.43.193-.43.43c0 .238.19.431.43.431zm7.75 0c.23 0 .43-.193.43-.431 0-.237-.2-.43-.43-.43-.24 0-.43.193-.43.43 0 .238.19.431.43.431zm7.74.215c.36 0 .65-.289.65-.645a.645.645 0 10-.65.645zm7.75 0c.36 0 .65-.289.65-.645a.647.647 0 00-.65-.646c-.36 0-.64.289-.64.646 0 .356.28.645.64.645zm7.75.215c.47 0 .86-.385.86-.86a.863.863 0 00-.86-.861c-.48 0-.86.385-.86.861 0 .475.38.86.86.86zm7.74.216a1.076 1.076 0 10.008-2.152 1.076 1.076 0 00-.008 2.152zm7.75 0a1.076 1.076 0 10.008-2.152 1.076 1.076 0 00-.008 2.152zm7.75.214a1.292 1.292 0 000-2.582 1.292 1.292 0 000 2.582zm7.74 0c.72 0 1.3-.578 1.3-1.291s-.58-1.291-1.3-1.291a1.292 1.292 0 000 2.582zm7.75.216c.83 0 1.51-.674 1.51-1.506a1.51 1.51 0 00-1.51-1.506c-.83 0-1.5.674-1.5 1.506s.67 1.506 1.5 1.506zm7.75.215a1.721 1.721 0 10-.002-3.442 1.721 1.721 0 00.002 3.442zm7.75 0a1.721 1.721 0 000-3.443c-.96 0-1.73.771-1.73 1.721 0 .951.77 1.722 1.73 1.722zm7.74.216a1.94 1.94 0 001.94-1.937 1.94 1.94 0 00-1.94-1.937 1.93 1.93 0 00-1.93 1.937c0 1.069.86 1.937 1.93 1.937zm7.75 0a1.94 1.94 0 001.94-1.937 1.94 1.94 0 00-3.88 0 1.94 1.94 0 001.94 1.937zm7.75 0c1.07 0 1.93-.868 1.93-1.937a1.93 1.93 0 00-1.93-1.937 1.94 1.94 0 00-1.94 1.937 1.94 1.94 0 001.94 1.937zm7.74 0a1.94 1.94 0 001.94-1.937 1.94 1.94 0 00-1.94-1.937 1.93 1.93 0 00-1.93 1.937c0 1.069.86 1.937 1.93 1.937zm7.75 0a1.94 1.94 0 001.94-1.937 1.94 1.94 0 00-3.88 0 1.94 1.94 0 001.94 1.937zm7.75 0c1.07 0 1.93-.868 1.93-1.937a1.93 1.93 0 00-1.93-1.937 1.94 1.94 0 00-1.94 1.937 1.94 1.94 0 001.94 1.937zm7.74 0a1.94 1.94 0 001.94-1.937 1.94 1.94 0 00-1.94-1.937 1.93 1.93 0 00-1.93 1.937c0 1.069.86 1.937 1.93 1.937zm7.75-.216a1.721 1.721 0 10-.002-3.442 1.721 1.721 0 00.002 3.442zm7.75 0a1.721 1.721 0 10-.002-3.442 1.721 1.721 0 00.002 3.442zm7.74-.215c.84 0 1.51-.674 1.51-1.506a1.504 1.504 0 10-3.01 0c0 .832.67 1.506 1.5 1.506zm7.75-.216a1.292 1.292 0 000-2.582 1.292 1.292 0 000 2.582zm7.75 0a1.292 1.292 0 000-2.582c-.72 0-1.29.578-1.29 1.291s.57 1.291 1.29 1.291zm7.74-.214a1.076 1.076 0 10.008-2.152 1.076 1.076 0 00-.008 2.152zm7.75 0a1.076 1.076 0 10.008-2.152 1.076 1.076 0 00-.008 2.152zm7.75-.216c.47 0 .86-.385.86-.86a.863.863 0 00-.86-.861c-.48 0-.86.385-.86.861 0 .475.38.86.86.86zm7.74-.215c.36 0 .65-.289.65-.645a.645.645 0 10-.65.645zm7.75 0c.36 0 .65-.289.65-.645a.645.645 0 10-.65.645zm7.75-.215c.24 0 .43-.193.43-.431 0-.237-.19-.43-.43-.43s-.43.193-.43.43c0 .238.19.431.43.431zm7.75 0c.23 0 .43-.193.43-.431 0-.237-.2-.43-.43-.43-.24 0-.43.193-.43.43 0 .238.19.431.43.431zm7.74-.215c.12 0 .22-.096.22-.215s-.1-.215-.22-.215a.21.21 0 00-.21.215c0 .119.09.215.21.215zm-247.9 7.747c.12 0 .22-.096.22-.215s-.1-.215-.22-.215c-.11 0-.21.096-.21.215s.1.215.21.215zm7.75 0c.12 0 .22-.096.22-.215s-.1-.215-.22-.215a.21.21 0 00-.21.215c0 .119.09.215.21.215zm7.75.215c.23 0 .43-.192.43-.43s-.2-.431-.43-.431c-.24 0-.43.193-.43.431s.19.43.43.43zm7.74.215c.36 0 .65-.289.65-.646a.645.645 0 10-.65.646zm7.75 0c.36 0 .65-.289.65-.646a.647.647 0 00-.65-.645c-.36 0-.64.289-.64.645 0 .357.28.646.64.646zm7.75.216c.47 0 .86-.386.86-.861a.864.864 0 00-.86-.861c-.48 0-.86.386-.86.861s.38.861.86.861zm7.74 0c.48 0 .87-.386.87-.861a.866.866 0 00-1.73 0c0 .475.39.861.86.861zm7.75.214a1.075 1.075 0 10.01-2.15 1.075 1.075 0 00-.01 2.15zm7.75.216a1.292 1.292 0 000-2.582 1.292 1.292 0 000 2.582zm7.74 0c.72 0 1.3-.578 1.3-1.291s-.58-1.291-1.3-1.291a1.292 1.292 0 000 2.582zm7.75.215c.83 0 1.51-.674 1.51-1.506s-.68-1.507-1.51-1.507-1.5.675-1.5 1.507c0 .832.67 1.506 1.5 1.506zm7.75 0c.83 0 1.51-.674 1.51-1.506a1.511 1.511 0 00-3.02 0c0 .832.68 1.506 1.51 1.506zm7.75.216a1.721 1.721 0 000-3.444 1.723 1.723 0 100 3.444zm7.74 0a1.721 1.721 0 10-.002-3.442 1.721 1.721 0 00.002 3.442zm7.75 0a1.721 1.721 0 10-.002-3.442 1.721 1.721 0 00.002 3.442zm7.75.215a1.93 1.93 0 001.93-1.937 1.93 1.93 0 00-1.93-1.936 1.94 1.94 0 00-1.94 1.936c0 1.07.87 1.937 1.94 1.937zm7.74 0a1.94 1.94 0 001.94-1.937 1.94 1.94 0 00-1.94-1.936 1.93 1.93 0 00-1.93 1.936c0 1.07.86 1.937 1.93 1.937zm7.75 0a1.94 1.94 0 001.94-1.937 1.94 1.94 0 00-1.94-1.936 1.94 1.94 0 00-1.94 1.936c0 1.07.87 1.937 1.94 1.937zm7.75-.215a1.721 1.721 0 10-.002-3.442 1.721 1.721 0 00.002 3.442zm7.74 0a1.721 1.721 0 10-.002-3.442 1.721 1.721 0 00.002 3.442zm7.75 0a1.721 1.721 0 10-.002-3.442 1.721 1.721 0 00.002 3.442zm7.75-.216c.83 0 1.5-.674 1.5-1.506s-.67-1.507-1.5-1.507-1.51.675-1.51 1.507c0 .832.68 1.506 1.51 1.506zm7.74 0c.84 0 1.51-.674 1.51-1.506a1.505 1.505 0 10-3.01 0c0 .832.67 1.506 1.5 1.506zm7.75-.215a1.292 1.292 0 000-2.582 1.292 1.292 0 000 2.582zm7.75 0a1.292 1.292 0 000-2.582c-.72 0-1.29.578-1.29 1.291s.57 1.291 1.29 1.291zm7.74-.216a1.075 1.075 0 10.01-2.15 1.075 1.075 0 00-.01 2.15zm7.75-.214c.48 0 .86-.386.86-.861a.858.858 0 00-.86-.861c-.47 0-.86.386-.86.861s.39.861.86.861zm7.75 0c.47 0 .86-.386.86-.861a.864.864 0 00-.86-.861c-.48 0-.86.386-.86.861s.38.861.86.861zm7.74-.216c.36 0 .65-.289.65-.646a.645.645 0 10-.65.646zm7.75 0c.36 0 .65-.289.65-.646a.645.645 0 10-.65.646zm7.75-.215c.24 0 .43-.192.43-.43a.429.429 0 00-.43-.431c-.24 0-.43.193-.43.431s.19.43.43.43zm7.75-.215c.11 0 .21-.096.21-.215s-.1-.215-.21-.215c-.12 0-.22.096-.22.215s.1.215.22.215zm7.74 0c.12 0 .22-.096.22-.215s-.1-.215-.22-.215a.21.21 0 00-.21.215c0 .119.09.215.21.215zm-247.9 7.747c.12 0 .22-.097.22-.215a.22.22 0 00-.22-.216c-.11 0-.21.097-.21.216 0 .118.1.215.21.215zm7.75 0c.12 0 .22-.097.22-.215a.22.22 0 00-.22-.216.21.21 0 00-.21.216c0 .118.09.215.21.215zm7.75.215c.23 0 .43-.193.43-.431 0-.237-.2-.43-.43-.43-.24 0-.43.193-.43.43 0 .238.19.431.43.431zm7.74 0c.24 0 .43-.193.43-.431 0-.237-.19-.43-.43-.43-.23 0-.43.193-.43.43 0 .238.2.431.43.431zm7.75.215c.36 0 .65-.289.65-.645a.647.647 0 00-.65-.646c-.36 0-.64.289-.64.646 0 .356.28.645.64.645zm7.75.215c.47 0 .86-.385.86-.86a.863.863 0 00-.86-.861c-.48 0-.86.385-.86.861 0 .475.38.86.86.86zm7.74 0c.48 0 .87-.385.87-.86a.866.866 0 00-1.73 0c0 .475.39.86.86.86zm7.75.216a1.076 1.076 0 10.008-2.152 1.076 1.076 0 00-.008 2.152zm7.75 0c.59 0 1.07-.482 1.07-1.076a1.074 1.074 0 10-2.15 0c0 .594.48 1.076 1.08 1.076zm7.74.214c.72 0 1.3-.578 1.3-1.291s-.58-1.291-1.3-1.291a1.292 1.292 0 000 2.582zm7.75 0c.72 0 1.29-.578 1.29-1.291s-.57-1.291-1.29-1.291a1.292 1.292 0 000 2.582zm7.75.216c.83 0 1.51-.674 1.51-1.506a1.511 1.511 0 00-3.02 0c0 .832.68 1.506 1.51 1.506zm7.75 0c.83 0 1.5-.674 1.5-1.506s-.67-1.507-1.5-1.507c-.84 0-1.51.675-1.51 1.507 0 .832.67 1.506 1.51 1.506zm7.74.215a1.72 1.72 0 10-.002-3.442 1.72 1.72 0 00.002 3.442zm7.75 0a1.72 1.72 0 10-.002-3.442 1.72 1.72 0 00.002 3.442zm7.75 0a1.72 1.72 0 000-3.443c-.95 0-1.73.771-1.73 1.722 0 .95.78 1.721 1.73 1.721zm7.74 0c.95 0 1.73-.771 1.73-1.721a1.73 1.73 0 00-1.73-1.722 1.721 1.721 0 000 3.443zm7.75 0a1.72 1.72 0 10-.002-3.442 1.72 1.72 0 00.002 3.442zm7.75 0a1.72 1.72 0 10-.002-3.442 1.72 1.72 0 00.002 3.442zm7.74 0a1.72 1.72 0 10-.002-3.442 1.72 1.72 0 00.002 3.442zm7.75-.215c.83 0 1.51-.674 1.51-1.506a1.511 1.511 0 00-3.02 0c0 .832.68 1.506 1.51 1.506zm7.75 0c.83 0 1.5-.674 1.5-1.506s-.67-1.507-1.5-1.507-1.51.675-1.51 1.507c0 .832.68 1.506 1.51 1.506zm7.74-.216c.72 0 1.3-.578 1.3-1.291s-.58-1.291-1.3-1.291a1.292 1.292 0 000 2.582zm7.75 0a1.292 1.292 0 000-2.582 1.292 1.292 0 000 2.582zm7.75-.214c.59 0 1.07-.482 1.07-1.076a1.074 1.074 0 10-2.15 0c0 .594.48 1.076 1.08 1.076zm7.74 0a1.076 1.076 0 10.008-2.152 1.076 1.076 0 00-.008 2.152zm7.75-.216c.48 0 .86-.385.86-.86a.857.857 0 00-.86-.861c-.47 0-.86.385-.86.861 0 .475.39.86.86.86zm7.75 0c.47 0 .86-.385.86-.86a.863.863 0 00-.86-.861c-.48 0-.86.385-.86.861 0 .475.38.86.86.86zm7.74-.215c.36 0 .65-.289.65-.645a.645.645 0 10-.65.645zm7.75-.215c.24 0 .43-.193.43-.431 0-.237-.19-.43-.43-.43s-.43.193-.43.43c0 .238.19.431.43.431zm7.75 0c.24 0 .43-.193.43-.431 0-.237-.19-.43-.43-.43s-.43.193-.43.43c0 .238.19.431.43.431zm7.75-.215c.11 0 .21-.097.21-.215 0-.119-.1-.216-.21-.216a.22.22 0 00-.22.216c0 .118.1.215.22.215zm7.74 0c.12 0 .22-.097.22-.215a.22.22 0 00-.22-.216.21.21 0 00-.21.216c0 .118.09.215.21.215zm-240.15 7.746c.12 0 .22-.096.22-.215s-.1-.215-.22-.215a.21.21 0 00-.21.215c0 .119.09.215.21.215zm7.75.215c.23 0 .43-.192.43-.43s-.2-.43-.43-.43c-.24 0-.43.192-.43.43s.19.43.43.43zm7.74 0c.24 0 .43-.192.43-.43s-.19-.43-.43-.43c-.23 0-.43.192-.43.43s.2.43.43.43zm7.75.216c.36 0 .65-.289.65-.646a.647.647 0 00-.65-.645c-.36 0-.64.289-.64.645 0 .357.28.646.64.646zm7.75 0a.645.645 0 10-.01-1.29.645.645 0 00.01 1.29zm7.74.215c.48 0 .87-.385.87-.861a.866.866 0 00-1.73 0c0 .476.39.861.86.861zm7.75 0c.48 0 .86-.385.86-.861a.858.858 0 00-.86-.861c-.47 0-.86.386-.86.861 0 .476.39.861.86.861zm7.75.216c.59 0 1.07-.482 1.07-1.076a1.075 1.075 0 10-1.07 1.076zm7.75 0c.59 0 1.07-.482 1.07-1.076a1.075 1.075 0 10-1.07 1.076zm7.74.214c.72 0 1.29-.578 1.29-1.291s-.57-1.291-1.29-1.291a1.292 1.292 0 000 2.582zm7.75 0a1.292 1.292 0 000-2.582 1.292 1.292 0 000 2.582zm7.75.216c.83 0 1.5-.675 1.5-1.507a1.504 1.504 0 10-3.01 0c0 .832.67 1.507 1.51 1.507zm7.74 0c.83 0 1.51-.675 1.51-1.507a1.51 1.51 0 00-1.51-1.506c-.83 0-1.5.674-1.5 1.506s.67 1.507 1.5 1.507zm7.75 0c.83 0 1.51-.675 1.51-1.507a1.51 1.51 0 00-3.02 0c0 .832.68 1.507 1.51 1.507zm7.75 0c.83 0 1.5-.675 1.5-1.507a1.504 1.504 0 10-3.01 0c0 .832.67 1.507 1.51 1.507zm7.74 0c.84 0 1.51-.675 1.51-1.507a1.504 1.504 0 10-3.01 0c0 .832.67 1.507 1.5 1.507zm7.75 0c.83 0 1.51-.675 1.51-1.507a1.51 1.51 0 00-3.02 0c0 .832.68 1.507 1.51 1.507zm7.75 0c.83 0 1.5-.675 1.5-1.507 0-.832-.67-1.506-1.5-1.506s-1.51.674-1.51 1.506.68 1.507 1.51 1.507zm7.74 0c.84 0 1.51-.675 1.51-1.507a1.504 1.504 0 10-3.01 0c0 .832.67 1.507 1.5 1.507zm7.75 0c.83 0 1.51-.675 1.51-1.507a1.51 1.51 0 00-3.02 0c0 .832.68 1.507 1.51 1.507zm7.75-.216a1.292 1.292 0 000-2.582c-.72 0-1.29.578-1.29 1.291s.57 1.291 1.29 1.291zm7.74 0c.72 0 1.3-.578 1.3-1.291s-.58-1.291-1.3-1.291a1.292 1.292 0 000 2.582zm7.75-.214a1.076 1.076 0 10.008-2.152 1.076 1.076 0 00-.008 2.152zm7.75 0c.59 0 1.07-.482 1.07-1.076a1.075 1.075 0 10-1.07 1.076zm7.74-.216c.48 0 .87-.385.87-.861a.866.866 0 00-1.73 0c0 .476.39.861.86.861zm7.75 0c.48 0 .86-.385.86-.861a.858.858 0 00-.86-.861c-.47 0-.86.386-.86.861 0 .476.39.861.86.861zm7.75-.215c.36 0 .64-.289.64-.646a.639.639 0 00-.64-.645c-.36 0-.65.289-.65.645 0 .357.29.646.65.646zm7.74 0c.36 0 .65-.289.65-.646a.645.645 0 10-.65.646zm7.75-.216c.24 0 .43-.192.43-.43s-.19-.43-.43-.43-.43.192-.43.43.19.43.43.43zm7.75 0c.24 0 .43-.192.43-.43s-.19-.43-.43-.43-.43.192-.43.43.19.43.43.43zm7.75-.215c.11 0 .21-.096.21-.215s-.1-.215-.21-.215c-.12 0-.22.096-.22.215s.1.215.22.215zm7.74 0c.12 0 .22-.096.22-.215s-.1-.215-.22-.215a.21.21 0 00-.21.215c0 .119.09.215.21.215zm-240.15 7.747c.12 0 .22-.096.22-.215s-.1-.215-.22-.215a.21.21 0 00-.21.215c0 .119.09.215.21.215zm7.75 0a.21.21 0 00.21-.215.21.21 0 00-.21-.215c-.12 0-.22.096-.22.215s.1.215.22.215zm7.74.216c.24 0 .43-.193.43-.43a.429.429 0 00-.43-.431c-.23 0-.43.193-.43.431 0 .237.2.43.43.43zm7.75 0c.24 0 .43-.193.43-.43a.429.429 0 00-.43-.431c-.24 0-.43.193-.43.431 0 .237.19.43.43.43zm7.75.215a.645.645 0 10-.01-1.29.645.645 0 00.01 1.29zm7.74.215c.48 0 .87-.385.87-.861a.865.865 0 00-1.73 0c0 .476.39.861.86.861zm7.75 0c.48 0 .86-.385.86-.861 0-.475-.38-.86-.86-.86-.47 0-.86.385-.86.86 0 .476.39.861.86.861zm7.75.215c.59 0 1.07-.482 1.07-1.076a1.074 1.074 0 10-2.15 0c0 .594.48 1.076 1.08 1.076zm7.75 0c.59 0 1.07-.482 1.07-1.076a1.074 1.074 0 10-2.15 0c0 .594.48 1.076 1.08 1.076zm7.74 0a1.076 1.076 0 10.008-2.152 1.076 1.076 0 00-.008 2.152zm7.75.216a1.292 1.292 0 000-2.583 1.292 1.292 0 000 2.583zm7.75 0a1.292 1.292 0 000-2.583c-.72 0-1.3.578-1.3 1.292 0 .713.58 1.291 1.3 1.291zm7.74 0c.72 0 1.29-.578 1.29-1.291 0-.714-.57-1.292-1.29-1.292a1.292 1.292 0 000 2.583zm7.75.214c.83 0 1.51-.674 1.51-1.506a1.51 1.51 0 00-3.02 0c0 .832.68 1.506 1.51 1.506zm7.75 0c.83 0 1.5-.674 1.5-1.506s-.67-1.506-1.5-1.506c-.84 0-1.51.674-1.51 1.506s.67 1.506 1.51 1.506zm7.74 0c.84 0 1.51-.674 1.51-1.506a1.504 1.504 0 10-3.01 0c0 .832.67 1.506 1.5 1.506zm7.75 0c.83 0 1.51-.674 1.51-1.506a1.51 1.51 0 00-3.02 0c0 .832.68 1.506 1.51 1.506zm7.75 0c.83 0 1.5-.674 1.5-1.506s-.67-1.506-1.5-1.506-1.51.674-1.51 1.506.68 1.506 1.51 1.506zm7.74-.214c.72 0 1.3-.578 1.3-1.291a1.294 1.294 0 00-2.59 0c0 .713.58 1.291 1.29 1.291zm7.75 0a1.292 1.292 0 000-2.583 1.292 1.292 0 000 2.583zm7.75 0a1.292 1.292 0 000-2.583c-.72 0-1.29.578-1.29 1.292 0 .713.57 1.291 1.29 1.291zm7.74-.216a1.076 1.076 0 10.008-2.152 1.076 1.076 0 00-.008 2.152zm7.75 0a1.076 1.076 0 10.008-2.152 1.076 1.076 0 00-.008 2.152zm7.75 0c.59 0 1.07-.482 1.07-1.076a1.074 1.074 0 10-2.15 0c0 .594.48 1.076 1.08 1.076zm7.74-.215c.48 0 .87-.385.87-.861a.865.865 0 00-1.73 0c0 .476.39.861.86.861zm7.75 0c.48 0 .86-.385.86-.861 0-.475-.38-.86-.86-.86-.47 0-.86.385-.86.86 0 .476.39.861.86.861zm7.75-.215c.36 0 .64-.289.64-.646a.639.639 0 00-.64-.646.647.647 0 100 1.292zm7.74 0a.647.647 0 100-1.292.645.645 0 000 1.292zm7.75-.215c.24 0 .43-.193.43-.43a.429.429 0 00-.43-.431c-.24 0-.43.193-.43.431 0 .237.19.43.43.43zm7.75-.216a.21.21 0 00.21-.215.21.21 0 00-.21-.215c-.12 0-.22.096-.22.215s.1.215.22.215zm7.75 0c.11 0 .21-.096.21-.215s-.1-.215-.21-.215c-.12 0-.22.096-.22.215s.1.215.22.215zm-232.41 7.747c.12 0 .22-.096.22-.215s-.1-.215-.22-.215a.21.21 0 00-.21.215c0 .119.09.215.21.215zm7.75 0a.21.21 0 00.21-.215.21.21 0 00-.21-.215c-.12 0-.22.096-.22.215s.1.215.22.215zm7.74.216c.24 0 .43-.193.43-.431s-.19-.43-.43-.43c-.23 0-.43.192-.43.43s.2.431.43.431zm7.75 0c.24 0 .43-.193.43-.431s-.19-.43-.43-.43-.43.192-.43.43.19.431.43.431zm7.75.215a.645.645 0 10-.01-1.29.645.645 0 00.01 1.29zm7.74 0c.36 0 .65-.289.65-.645a.645.645 0 10-.65.645zm7.75.215c.48 0 .86-.386.86-.861a.858.858 0 00-.86-.861c-.47 0-.86.386-.86.861s.39.861.86.861zm7.75 0c.47 0 .86-.386.86-.861a.864.864 0 00-.86-.861c-.48 0-.86.386-.86.861s.38.861.86.861zm7.75.215c.59 0 1.07-.482 1.07-1.076a1.074 1.074 0 10-2.15 0c0 .594.48 1.076 1.08 1.076zm7.74 0a1.076 1.076 0 10.008-2.152 1.076 1.076 0 00-.008 2.152zm7.75 0c.59 0 1.08-.482 1.08-1.076 0-.594-.49-1.076-1.08-1.076-.59 0-1.08.482-1.08 1.076 0 .594.49 1.076 1.08 1.076zm7.75.215a1.292 1.292 0 000-2.582c-.72 0-1.3.578-1.3 1.291s.58 1.291 1.3 1.291zm7.74 0c.72 0 1.29-.578 1.29-1.291s-.57-1.291-1.29-1.291a1.292 1.292 0 000 2.582zm7.75 0a1.292 1.292 0 000-2.582 1.292 1.292 0 000 2.582zm7.75 0a1.292 1.292 0 000-2.582c-.72 0-1.29.578-1.29 1.291s.57 1.291 1.29 1.291zm7.74 0c.72 0 1.29-.578 1.29-1.291s-.57-1.291-1.29-1.291a1.292 1.292 0 000 2.582zm7.75 0a1.292 1.292 0 000-2.582 1.292 1.292 0 000 2.582zm7.75 0a1.292 1.292 0 000-2.582c-.72 0-1.29.578-1.29 1.291s.57 1.291 1.29 1.291zm7.74 0c.72 0 1.3-.578 1.3-1.291s-.58-1.291-1.3-1.291a1.292 1.292 0 000 2.582zm7.75 0a1.292 1.292 0 000-2.582 1.292 1.292 0 000 2.582zm7.75-.215c.59 0 1.07-.482 1.07-1.076a1.074 1.074 0 10-2.15 0c0 .594.48 1.076 1.08 1.076zm7.74 0a1.076 1.076 0 10.008-2.152 1.076 1.076 0 00-.008 2.152zm7.75 0a1.076 1.076 0 10.008-2.152 1.076 1.076 0 00-.008 2.152zm7.75-.215c.47 0 .86-.386.86-.861a.864.864 0 00-.86-.861c-.48 0-.86.386-.86.861s.38.861.86.861zm7.74 0c.48 0 .87-.386.87-.861a.866.866 0 00-1.73 0c0 .475.39.861.86.861zm7.75-.215c.36 0 .65-.289.65-.645a.645.645 0 10-.65.645zm7.75 0c.36 0 .64-.289.64-.645a.639.639 0 00-.64-.646c-.36 0-.65.289-.65.646 0 .356.29.645.65.645zm7.75-.215c.23 0 .43-.193.43-.431a.435.435 0 00-.87 0c0 .238.2.431.44.431zm7.74 0c.24 0 .43-.193.43-.431s-.19-.43-.43-.43-.43.192-.43.43.19.431.43.431zm7.75-.216a.21.21 0 00.21-.215.21.21 0 00-.21-.215c-.12 0-.22.096-.22.215s.1.215.22.215zm7.75 0c.11 0 .21-.096.21-.215s-.1-.215-.21-.215c-.12 0-.22.096-.22.215s.1.215.22.215zm-224.66 7.747a.21.21 0 00.21-.215.21.21 0 00-.21-.215c-.12 0-.22.096-.22.215s.1.215.22.215zm7.74 0c.12 0 .22-.096.22-.215s-.1-.215-.22-.215a.21.21 0 00-.21.215c0 .119.09.215.21.215zm7.75.215c.24 0 .43-.193.43-.43a.429.429 0 00-.43-.431c-.24 0-.43.193-.43.431 0 .237.19.43.43.43zm7.75 0c.24 0 .43-.193.43-.43a.429.429 0 00-.43-.431c-.24 0-.43.193-.43.431 0 .237.19.43.43.43zm7.74.216c.36 0 .65-.289.65-.646a.645.645 0 10-.65.646zm7.75 0c.36 0 .65-.289.65-.646a.647.647 0 00-.65-.645c-.36 0-.64.289-.64.645 0 .357.28.646.64.646zm7.75.215c.47 0 .86-.385.86-.861 0-.475-.39-.86-.86-.86-.48 0-.86.385-.86.86 0 .476.38.861.86.861zm7.75 0c.47 0 .86-.385.86-.861a.865.865 0 00-1.73 0c0 .476.39.861.87.861zm7.74 0c.48 0 .86-.385.86-.861 0-.475-.38-.86-.86-.86-.47 0-.86.385-.86.86 0 .476.39.861.86.861zm7.75.215c.59 0 1.08-.482 1.08-1.076 0-.594-.49-1.076-1.08-1.076-.59 0-1.08.482-1.08 1.076 0 .594.49 1.076 1.08 1.076zm7.75 0c.59 0 1.07-.482 1.07-1.076a1.074 1.074 0 10-2.15 0c0 .594.48 1.076 1.08 1.076zm7.74 0a1.076 1.076 0 10.008-2.152 1.076 1.076 0 00-.008 2.152zm7.75 0c.59 0 1.08-.482 1.08-1.076 0-.594-.49-1.076-1.08-1.076-.59 0-1.08.482-1.08 1.076 0 .594.49 1.076 1.08 1.076zm7.75.215a1.292 1.292 0 000-2.582c-.72 0-1.29.578-1.29 1.291s.57 1.291 1.29 1.291zm7.74 0c.72 0 1.29-.578 1.29-1.291s-.57-1.291-1.29-1.291a1.292 1.292 0 000 2.582zm7.75 0a1.292 1.292 0 000-2.582 1.292 1.292 0 000 2.582zm7.75-.215c.59 0 1.07-.482 1.07-1.076a1.074 1.074 0 10-2.15 0c0 .594.48 1.076 1.08 1.076zm7.74 0a1.076 1.076 0 10.008-2.152 1.076 1.076 0 00-.008 2.152zm7.75 0a1.076 1.076 0 10.008-2.152 1.076 1.076 0 00-.008 2.152zm7.75 0c.59 0 1.07-.482 1.07-1.076a1.074 1.074 0 10-2.15 0c0 .594.48 1.076 1.08 1.076zm7.74-.215c.48 0 .87-.385.87-.861a.865.865 0 00-1.73 0c0 .476.39.861.86.861zm7.75 0c.48 0 .86-.385.86-.861 0-.475-.38-.86-.86-.86-.47 0-.86.385-.86.86 0 .476.39.861.86.861zm7.75 0c.47 0 .86-.385.86-.861 0-.475-.39-.86-.86-.86-.48 0-.86.385-.86.86 0 .476.38.861.86.861zm7.75-.215a.645.645 0 10-.01-1.29.645.645 0 00.01 1.29zm7.74 0c.36 0 .65-.289.65-.646a.645.645 0 10-.65.646zm7.75-.216c.24 0 .43-.193.43-.43a.429.429 0 00-.43-.431c-.24 0-.43.193-.43.431 0 .237.19.43.43.43zm7.75 0c.23 0 .43-.193.43-.43a.435.435 0 00-.87 0c0 .237.2.43.44.43zm7.74-.215c.12 0 .22-.096.22-.215s-.1-.215-.22-.215a.21.21 0 00-.21.215c0 .119.09.215.21.215zm7.75 0a.21.21 0 00.21-.215.21.21 0 00-.21-.215c-.12 0-.22.096-.22.215s.1.215.22.215zm-209.17 7.747a.22.22 0 00.22-.216c0-.118-.1-.215-.22-.215a.21.21 0 00-.21.215c0 .119.09.216.21.216zm7.75 0a.22.22 0 00.22-.216c0-.118-.1-.215-.22-.215a.21.21 0 00-.21.215c0 .119.09.216.21.216zm7.75.215c.24 0 .43-.192.43-.43a.429.429 0 00-.43-.431c-.24 0-.43.193-.43.431s.19.43.43.43zm7.75 0c.23 0 .43-.192.43-.43a.435.435 0 00-.87 0c0 .238.2.43.44.43zm7.74.215c.36 0 .65-.289.65-.645a.647.647 0 00-.65-.646c-.36 0-.64.289-.64.646 0 .356.28.645.64.645zm7.75 0a.645.645 0 10-.01-1.29.645.645 0 00.01 1.29zm7.75.216c.47 0 .86-.386.86-.861a.864.864 0 00-1.73 0c0 .475.39.861.87.861zm7.74 0c.48 0 .86-.386.86-.861a.858.858 0 00-.86-.861c-.47 0-.86.386-.86.861s.39.861.86.861zm7.75 0c.47 0 .86-.386.86-.861a.864.864 0 00-.86-.861c-.48 0-.86.386-.86.861s.38.861.86.861zm7.75 0c.47 0 .86-.386.86-.861a.864.864 0 00-1.73 0c0 .475.39.861.87.861zm7.74.214a1.075 1.075 0 10.01-2.15 1.075 1.075 0 00-.01 2.15zm7.75 0c.59 0 1.08-.481 1.08-1.076 0-.594-.49-1.076-1.08-1.076-.59 0-1.08.482-1.08 1.076 0 .595.49 1.076 1.08 1.076zm7.75 0c.59 0 1.07-.481 1.07-1.076a1.074 1.074 0 10-2.15 0c0 .595.48 1.076 1.08 1.076zm7.74 0a1.075 1.075 0 10.01-2.15 1.075 1.075 0 00-.01 2.15zm7.75 0c.59 0 1.08-.481 1.08-1.076 0-.594-.49-1.076-1.08-1.076-.59 0-1.08.482-1.08 1.076 0 .595.49 1.076 1.08 1.076zm7.75 0c.59 0 1.07-.481 1.07-1.076a1.074 1.074 0 10-2.15 0c0 .595.48 1.076 1.08 1.076zm7.74 0a1.075 1.075 0 10.01-2.15 1.075 1.075 0 00-.01 2.15zm7.75-.214c.48 0 .86-.386.86-.861a.858.858 0 00-.86-.861c-.47 0-.86.386-.86.861s.39.861.86.861zm7.75 0c.47 0 .86-.386.86-.861a.864.864 0 00-.86-.861c-.48 0-.86.386-.86.861s.38.861.86.861zm7.74 0c.48 0 .87-.386.87-.861a.866.866 0 00-1.73 0c0 .475.39.861.86.861zm7.75 0c.48 0 .86-.386.86-.861a.858.858 0 00-.86-.861c-.47 0-.86.386-.86.861s.39.861.86.861zm7.75-.216c.36 0 .64-.289.64-.645a.639.639 0 00-.64-.646c-.36 0-.65.289-.65.646 0 .356.29.645.65.645zm7.75 0a.645.645 0 10-.01-1.29.645.645 0 00.01 1.29zm7.74-.215c.24 0 .43-.192.43-.43a.429.429 0 00-.43-.431c-.24 0-.43.193-.43.431s.19.43.43.43zm7.75 0c.24 0 .43-.192.43-.43a.429.429 0 00-.43-.431c-.24 0-.43.193-.43.431s.19.43.43.43zm7.75-.215c.11 0 .21-.097.21-.216 0-.118-.1-.215-.21-.215-.12 0-.22.097-.22.215 0 .119.1.216.22.216zm7.74 0a.22.22 0 00.22-.216c0-.118-.1-.215-.22-.215a.21.21 0 00-.21.215c0 .119.09.216.21.216zm-193.67 7.747c.12 0 .22-.096.22-.215s-.1-.215-.22-.215a.21.21 0 00-.21.215c0 .119.09.215.21.215zm7.75 0a.21.21 0 00.21-.215.21.21 0 00-.21-.215c-.12 0-.22.096-.22.215s.1.215.22.215zm7.75.215c.23 0 .43-.193.43-.431a.435.435 0 00-.87 0c0 .238.2.431.44.431zm7.74 0c.24 0 .43-.193.43-.431 0-.237-.19-.43-.43-.43s-.43.193-.43.43c0 .238.19.431.43.431zm7.75.216a.645.645 0 10-.01-1.29.645.645 0 00.01 1.29zm7.75 0a.645.645 0 10-.01-1.29.645.645 0 00.01 1.29zm7.74 0c.36 0 .65-.289.65-.646a.645.645 0 10-.65.646zm7.75.214c.47 0 .86-.385.86-.86a.863.863 0 00-.86-.861c-.48 0-.86.385-.86.861 0 .475.38.86.86.86zm7.75 0c.47 0 .86-.385.86-.86a.866.866 0 00-1.73 0c0 .475.39.86.87.86zm7.74 0c.48 0 .86-.385.86-.86a.857.857 0 00-.86-.861c-.47 0-.86.385-.86.861 0 .475.39.86.86.86zm7.75 0c.48 0 .86-.385.86-.86a.857.857 0 00-.86-.861c-.48 0-.86.385-.86.861 0 .475.38.86.86.86zm7.75 0c.47 0 .86-.385.86-.86a.863.863 0 00-.86-.861c-.48 0-.86.385-.86.861 0 .475.38.86.86.86zm7.74 0c.48 0 .86-.385.86-.86a.857.857 0 00-.86-.861c-.47 0-.86.385-.86.861 0 .475.39.86.86.86zm7.75 0c.48 0 .86-.385.86-.86a.857.857 0 00-.86-.861c-.48 0-.86.385-.86.861 0 .475.38.86.86.86zm7.75 0c.47 0 .86-.385.86-.86a.863.863 0 00-.86-.861c-.48 0-.86.385-.86.861 0 .475.38.86.86.86zm7.74 0c.48 0 .86-.385.86-.86a.857.857 0 00-.86-.861c-.47 0-.86.385-.86.861 0 .475.39.86.86.86zm7.75 0c.48 0 .86-.385.86-.86a.857.857 0 00-.86-.861c-.47 0-.86.385-.86.861 0 .475.39.86.86.86zm7.75 0c.47 0 .86-.385.86-.86a.863.863 0 00-.86-.861c-.48 0-.86.385-.86.861 0 .475.38.86.86.86zm7.74-.214c.36 0 .65-.289.65-.646a.645.645 0 10-.65.646zm7.75 0c.36 0 .65-.289.65-.646a.645.645 0 10-.65.646zm7.75 0c.36 0 .64-.289.64-.646a.639.639 0 00-.64-.645c-.36 0-.65.289-.65.645 0 .357.29.646.65.646zm7.75-.216c.23 0 .43-.193.43-.431 0-.237-.2-.43-.43-.43-.24 0-.43.193-.43.43 0 .238.19.431.43.431zm7.74 0c.24 0 .43-.193.43-.431 0-.237-.19-.43-.43-.43s-.43.193-.43.43c0 .238.19.431.43.431zm7.75-.215a.21.21 0 00.21-.215.21.21 0 00-.21-.215c-.12 0-.22.096-.22.215s.1.215.22.215zm7.75 0c.11 0 .21-.096.21-.215s-.1-.215-.21-.215c-.12 0-.22.096-.22.215s.1.215.22.215zm7.74 0c.12 0 .22-.096.22-.215s-.1-.215-.22-.215a.21.21 0 00-.21.215c0 .119.09.215.21.215zm-193.67 7.747c.12 0 .22-.097.22-.215a.22.22 0 00-.22-.216.21.21 0 00-.21.216c0 .118.09.215.21.215zm7.75 0a.21.21 0 00.21-.215.21.21 0 00-.21-.216.22.22 0 00-.22.216c0 .118.1.215.22.215zm7.74 0c.12 0 .22-.097.22-.215a.22.22 0 00-.22-.216c-.11 0-.21.097-.21.216 0 .118.1.215.21.215zm7.75.215c.24 0 .43-.192.43-.43s-.19-.43-.43-.43-.43.192-.43.43.19.43.43.43zm7.75 0c.24 0 .43-.192.43-.43s-.19-.43-.43-.43-.43.192-.43.43.19.43.43.43zm7.75 0c.23 0 .43-.192.43-.43a.435.435 0 00-.87 0c0 .238.2.43.44.43zm7.74.215c.36 0 .65-.289.65-.645a.645.645 0 10-.65.645zm7.75 0c.36 0 .64-.289.64-.645a.639.639 0 00-.64-.646c-.36 0-.65.289-.65.646 0 .356.29.645.65.645zm7.75 0a.645.645 0 10-.01-1.29.645.645 0 00.01 1.29zm7.74 0c.36 0 .65-.289.65-.645a.645.645 0 10-.65.645zm7.75.216c.48 0 .86-.385.86-.861a.858.858 0 00-.86-.861c-.48 0-.86.386-.86.861 0 .476.38.861.86.861zm7.75 0c.47 0 .86-.385.86-.861a.864.864 0 00-.86-.861c-.48 0-.86.386-.86.861 0 .476.38.861.86.861zm7.74 0c.48 0 .86-.385.86-.861a.858.858 0 00-.86-.861c-.47 0-.86.386-.86.861 0 .476.39.861.86.861zm7.75 0c.48 0 .86-.385.86-.861a.858.858 0 00-.86-.861c-.48 0-.86.386-.86.861 0 .476.38.861.86.861zm7.75 0c.47 0 .86-.385.86-.861a.864.864 0 00-.86-.861c-.48 0-.86.386-.86.861 0 .476.38.861.86.861zm7.74-.216c.36 0 .65-.289.65-.645a.645.645 0 10-.65.645zm7.75 0c.36 0 .65-.289.65-.645a.647.647 0 00-.65-.646c-.36 0-.65.289-.65.646 0 .356.29.645.65.645zm7.75 0a.645.645 0 10-.01-1.29.645.645 0 00.01 1.29zm7.74 0c.36 0 .65-.289.65-.645a.645.645 0 10-.65.645zm7.75 0c.36 0 .65-.289.65-.645a.645.645 0 10-.65.645zm7.75-.215c.24 0 .43-.192.43-.43s-.19-.43-.43-.43-.43.192-.43.43.19.43.43.43zm7.75 0c.23 0 .43-.192.43-.43s-.2-.43-.43-.43c-.24 0-.43.192-.43.43s.19.43.43.43zm7.74-.215c.12 0 .22-.097.22-.215a.22.22 0 00-.22-.216.21.21 0 00-.21.216c0 .118.09.215.21.215zm7.75 0a.21.21 0 00.21-.215.21.21 0 00-.21-.216.22.22 0 00-.22.216c0 .118.1.215.22.215zm7.75 0c.11 0 .21-.097.21-.215 0-.119-.1-.216-.21-.216a.22.22 0 00-.22.216c0 .118.1.215.22.215zm-178.18 7.746a.21.21 0 00.21-.215.21.21 0 00-.21-.215c-.12 0-.22.096-.22.215s.1.215.22.215zm7.74 0c.12 0 .22-.096.22-.215s-.1-.215-.22-.215c-.11 0-.21.096-.21.215s.1.215.21.215zm7.75 0c.12 0 .22-.096.22-.215s-.1-.215-.22-.215a.21.21 0 00-.21.215c0 .119.09.215.21.215zm7.75.216c.24 0 .43-.193.43-.43a.429.429 0 00-.43-.431c-.24 0-.43.193-.43.431 0 .237.19.43.43.43zm7.75 0c.23 0 .43-.193.43-.43a.435.435 0 00-.87 0c0 .237.2.43.44.43zm7.74 0c.24 0 .43-.193.43-.43a.429.429 0 00-.43-.431c-.24 0-.43.193-.43.431 0 .237.19.43.43.43zm7.75 0c.24 0 .43-.193.43-.43a.429.429 0 00-.43-.431c-.24 0-.43.193-.43.431 0 .237.19.43.43.43zm7.75.215a.645.645 0 10-.01-1.29.645.645 0 00.01 1.29zm7.74 0c.36 0 .65-.289.65-.646a.645.645 0 10-.65.646zm7.75 0c.36 0 .65-.289.65-.646a.647.647 0 00-.65-.645c-.36 0-.65.289-.65.645 0 .357.29.646.65.646zm7.75 0a.645.645 0 10-.01-1.29.645.645 0 00.01 1.29zm7.74 0c.36 0 .65-.289.65-.646a.645.645 0 10-.65.646zm7.75 0c.36 0 .65-.289.65-.646a.647.647 0 00-.65-.645c-.36 0-.65.289-.65.645 0 .357.29.646.65.646zm7.75 0a.645.645 0 10-.01-1.29.645.645 0 00.01 1.29zm7.74 0c.36 0 .65-.289.65-.646a.645.645 0 10-.65.646zm7.75 0c.36 0 .65-.289.65-.646a.647.647 0 00-.65-.645c-.36 0-.65.289-.65.645 0 .357.29.646.65.646zm7.75-.215c.24 0 .43-.193.43-.43a.429.429 0 00-.43-.431c-.24 0-.43.193-.43.431 0 .237.19.43.43.43zm7.74 0c.24 0 .43-.193.43-.43a.429.429 0 00-.43-.431c-.23 0-.43.193-.43.431 0 .237.2.43.43.43zm7.75 0c.24 0 .43-.193.43-.43a.429.429 0 00-.43-.431c-.24 0-.43.193-.43.431 0 .237.19.43.43.43zm7.75 0c.24 0 .43-.193.43-.43a.429.429 0 00-.43-.431c-.24 0-.43.193-.43.431 0 .237.19.43.43.43zm7.74-.216c.12 0 .22-.096.22-.215s-.1-.215-.22-.215c-.11 0-.21.096-.21.215s.1.215.21.215zm7.75 0c.12 0 .22-.096.22-.215s-.1-.215-.22-.215a.21.21 0 00-.21.215c0 .119.09.215.21.215zm7.75 0a.21.21 0 00.21-.215.21.21 0 00-.21-.215c-.12 0-.22.096-.22.215s.1.215.22.215zm-154.94 7.748c.12 0 .22-.096.22-.215s-.1-.215-.22-.215a.21.21 0 00-.21.215c0 .119.09.215.21.215zm7.75 0a.21.21 0 00.21-.215.21.21 0 00-.21-.215c-.12 0-.22.096-.22.215s.1.215.22.215zm7.75 0c.11 0 .21-.096.21-.215s-.1-.215-.21-.215c-.12 0-.22.096-.22.215s.1.215.22.215zm7.74.215c.24 0 .43-.193.43-.431s-.19-.43-.43-.43-.43.192-.43.43.19.431.43.431zm7.75 0c.24 0 .43-.193.43-.431s-.19-.43-.43-.43-.43.192-.43.43.19.431.43.431zm7.75 0c.23 0 .43-.193.43-.431s-.2-.43-.43-.43c-.24 0-.43.192-.43.43s.19.431.43.431zm7.74 0c.24 0 .43-.193.43-.431s-.19-.43-.43-.43-.43.192-.43.43.19.431.43.431zm7.75 0c.24 0 .43-.193.43-.431s-.19-.43-.43-.43-.43.192-.43.43.19.431.43.431zm7.75 0c.23 0 .43-.193.43-.431s-.2-.43-.43-.43c-.24 0-.43.192-.43.43s.19.431.43.431zm7.74 0c.24 0 .43-.193.43-.431s-.19-.43-.43-.43c-.23 0-.43.192-.43.43s.2.431.43.431zm7.75 0c.24 0 .43-.193.43-.431s-.19-.43-.43-.43-.43.192-.43.43.19.431.43.431zm7.75 0c.23 0 .43-.193.43-.431s-.2-.43-.43-.43c-.24 0-.43.192-.43.43s.19.431.43.431zm7.74 0c.24 0 .43-.193.43-.431s-.19-.43-.43-.43c-.23 0-.43.192-.43.43s.2.431.43.431zm7.75 0c.24 0 .43-.193.43-.431s-.19-.43-.43-.43-.43.192-.43.43.19.431.43.431zm7.75 0c.24 0 .43-.193.43-.431s-.19-.43-.43-.43-.43.192-.43.43.19.431.43.431zm7.74 0c.24 0 .43-.193.43-.431s-.19-.43-.43-.43c-.23 0-.43.192-.43.43s.2.431.43.431zm7.75-.215c.12 0 .22-.096.22-.215s-.1-.215-.22-.215a.21.21 0 00-.21.215c0 .119.09.215.21.215zm7.75 0a.21.21 0 00.21-.215.21.21 0 00-.21-.215c-.12 0-.22.096-.22.215s.1.215.22.215zm7.74 0c.12 0 .22-.096.22-.215s-.1-.215-.22-.215c-.11 0-.21.096-.21.215s.1.215.21.215zm-131.69 7.746a.21.21 0 00.21-.216.21.21 0 00-.21-.215c-.12 0-.22.097-.22.215 0 .119.1.216.22.216zm7.75 0c.11 0 .21-.097.21-.216 0-.118-.1-.215-.21-.215-.12 0-.22.097-.22.215 0 .119.1.216.22.216zm7.74 0a.22.22 0 00.22-.216c0-.118-.1-.215-.22-.215a.21.21 0 00-.21.215c0 .119.09.216.21.216zm7.75 0a.21.21 0 00.21-.216.21.21 0 00-.21-.215c-.12 0-.22.097-.22.215 0 .119.1.216.22.216zm7.75 0c.11 0 .21-.097.21-.216 0-.118-.1-.215-.21-.215-.12 0-.22.097-.22.215 0 .119.1.216.22.216zm7.74.215c.24 0 .43-.193.43-.43a.429.429 0 00-.43-.431c-.24 0-.43.193-.43.431 0 .237.19.43.43.43zm7.75 0c.24 0 .43-.193.43-.43a.429.429 0 00-.43-.431c-.24 0-.43.193-.43.431 0 .237.19.43.43.43zm7.75 0c.23 0 .43-.193.43-.43 0-.238-.2-.431-.43-.431-.24 0-.43.193-.43.431 0 .237.19.43.43.43zm7.74 0c.24 0 .43-.193.43-.43a.429.429 0 00-.43-.431c-.23 0-.43.193-.43.431 0 .237.2.43.43.43zm7.75 0c.24 0 .43-.193.43-.43a.429.429 0 00-.43-.431c-.24 0-.43.193-.43.431 0 .237.19.43.43.43zm7.75 0c.23 0 .43-.193.43-.43 0-.238-.2-.431-.43-.431-.24 0-.43.193-.43.431 0 .237.19.43.43.43zm7.74 0c.24 0 .43-.193.43-.43a.429.429 0 00-.43-.431c-.23 0-.43.193-.43.431 0 .237.2.43.43.43zm7.75-.215a.22.22 0 00.22-.216c0-.118-.1-.215-.22-.215a.21.21 0 00-.21.215c0 .119.09.216.21.216zm7.75 0a.21.21 0 00.21-.216.21.21 0 00-.21-.215c-.12 0-.22.097-.22.215 0 .119.1.216.22.216zm7.74 0a.22.22 0 00.22-.216c0-.118-.1-.215-.22-.215-.11 0-.21.097-.21.215 0 .119.1.216.21.216zm7.75 0a.22.22 0 00.22-.216c0-.118-.1-.215-.22-.215a.21.21 0 00-.21.215c0 .119.09.216.21.216zm7.75 0a.21.21 0 00.21-.216.21.21 0 00-.21-.215c-.12 0-.22.097-.22.215 0 .119.1.216.22.216zm-100.71 7.747a.21.21 0 00.21-.215.21.21 0 00-.21-.215c-.12 0-.22.096-.22.215s.1.215.22.215zm7.75 0c.11 0 .21-.096.21-.215s-.1-.215-.21-.215c-.12 0-.22.096-.22.215s.1.215.22.215zm7.74 0c.12 0 .22-.096.22-.215s-.1-.215-.22-.215a.21.21 0 00-.21.215c0 .119.09.215.21.215zm7.75 0a.21.21 0 00.21-.215.21.21 0 00-.21-.215c-.12 0-.22.096-.22.215s.1.215.22.215zm7.75 0a.21.21 0 00.21-.215.21.21 0 00-.21-.215c-.12 0-.22.096-.22.215s.1.215.22.215zm7.74 0c.12 0 .22-.096.22-.215s-.1-.215-.22-.215a.21.21 0 00-.21.215c0 .119.09.215.21.215zm7.75 0c.12 0 .22-.096.22-.215s-.1-.215-.22-.215a.21.21 0 00-.21.215c0 .119.09.215.21.215zm7.75 0a.21.21 0 00.21-.215.21.21 0 00-.21-.215c-.12 0-.22.096-.22.215s.1.215.22.215zm7.74 0c.12 0 .22-.096.22-.215s-.1-.215-.22-.215c-.11 0-.21.096-.21.215s.1.215.21.215zm7.75 0c.12 0 .22-.096.22-.215s-.1-.215-.22-.215a.21.21 0 00-.21.215c0 .119.09.215.21.215zm7.75 0a.21.21 0 00.21-.215.21.21 0 00-.21-.215c-.12 0-.22.096-.22.215s.1.215.22.215zm7.74 0c.12 0 .22-.096.22-.215s-.1-.215-.22-.215c-.11 0-.21.096-.21.215s.1.215.21.215zm-54.22 7.747a.21.21 0 00.21-.215.21.21 0 00-.21-.215c-.12 0-.22.096-.22.215s.1.215.22.215zm7.74 0c.12 0 .22-.096.22-.215s-.1-.215-.22-.215a.21.21 0 00-.21.215c0 .119.09.215.21.215zm7.75 0c.12 0 .22-.096.22-.215s-.1-.215-.22-.215a.21.21 0 00-.21.215c0 .119.09.215.21.215z" fill="#01E482"/></svg>