<svg width="24" height="24" fill="none" xmlns="http://www.w3.org/2000/svg"><path d="M8.503 13.388a.81.81 0 01-.183-.02c-3.965-.88-5.662-3.402-6.384-5.362-.773-2.086-.614-3.96-.61-4.036a.843.843 0 01.844-.768h4.182c.506 0 .914.412.872.918a.847.847 0 01-.844.774H3.37a.334.334 0 00-.332.365c.056.61.192 1.402.501 2.222.849 2.246 2.583 3.67 5.142 4.242a.85.85 0 01.643 1.008.841.841 0 01-.82.657zm6.994 0c.06 0 .122-.005.183-.02 3.965-.88 5.658-3.402 6.384-5.362.774-2.086.614-3.96.61-4.036a.843.843 0 00-.844-.768h-4.181c-.507 0-.915.412-.872.918a.847.847 0 00.843.774h3.005c.197 0 .352.169.333.365a8.602 8.602 0 01-.502 2.222c-.848 2.246-2.582 3.67-5.142 4.242a.85.85 0 00-.642 1.008.85.85 0 00.825.657zm-1.833 1.593l.572-.947H9.764l.572.947a4.39 4.39 0 01.614 2.264c0 .497-.08.99-.234 1.449l-.356 1.05h3.28l-.356-1.05a4.552 4.552 0 01-.234-1.449c0-.81.216-1.603.614-2.264z" fill="#00AD52"/><path d="M13.205 16.055a4.552 4.552 0 00.075 2.634l.356 1.05h-1.04l-.357-1.05a4.551 4.551 0 01-.075-2.634c.103-.38.258-.746.455-1.074l.572-.947h1.04l-.571.947a4.533 4.533 0 00-.455 1.074z" fill="#039140"/><path d="M12 14.71a6.346 6.346 0 01-6.347-6.348V1.67h12.694v6.693A6.346 6.346 0 0112 14.71z" fill="#00CC69"/><path d="M18.347 2.016v6.347a6.346 6.346 0 01-6.881 6.323 6.35 6.35 0 005.812-6.323V2.016h1.07z" fill="#04B554"/><path d="M18.769 2.016H5.23a.445.445 0 01-.445-.446V.445c0-.248.202-.445.445-.445h13.543c.248 0 .445.202.445.445v1.12a.45.45 0 01-.45.45z" fill="#00AD52"/><path d="M19.219.445v1.12a.445.445 0 01-.445.446h-1.027a.445.445 0 00.445-.445V.446A.445.445 0 0017.747 0h1.027c.243 0 .445.202.445.445z" fill="#039140"/><path d="M12.45 5.662l.464.943c.075.15.216.248.375.272l1.04.15c.413.06.577.562.277.853l-.75.73a.507.507 0 00-.145.446l.178 1.036a.502.502 0 01-.726.53l-.928-.488a.507.507 0 00-.465 0l-.928.488a.501.501 0 01-.726-.53l.178-1.036a.508.508 0 00-.146-.445l-.75-.731a.5.5 0 01.277-.853l1.04-.15a.494.494 0 00.376-.272l.464-.943a.5.5 0 01.895 0z" fill="#F9F7F8"/><path d="M13.856 8.616a.508.508 0 00-.145.445l.178 1.036a.502.502 0 01-.727.53l-.38-.202a.575.575 0 00.095-.436l-.211-1.223a.603.603 0 01.168-.525l.886-.868a.56.56 0 00.178-.407l.427.06a.5.5 0 01.277.854l-.746.736z" fill="#EFEDEF"/><path d="M15.853 22.477H8.147V20.55c0-.666.539-1.205 1.205-1.205h5.301c.666 0 1.205.54 1.205 1.205l-.005 1.927z" fill="#9C9C9C"/><path d="M15.853 20.555v1.12h-.947v-1.12c0-.666-.539-1.205-1.204-1.205h.951c.661 0 1.2.54 1.2 1.205z" fill="#838383"/><path d="M17.536 24H6.464a.314.314 0 01-.314-.314v-1.701c0-.174.14-.315.314-.315h11.072c.173 0 .314.141.314.314v1.702c0 .174-.14.314-.314.314z" fill="#5A5A5A"/><path d="M17.85 21.985v1.701c0 .174-.14.314-.314.314h-.966c.174 0 .314-.14.314-.314v-1.701a.314.314 0 00-.314-.315h.966a.32.32 0 01.314.314z" fill="#444"/></svg>