<svg width="263" height="84" fill="none" xmlns="http://www.w3.org/2000/svg"><g filter="url(#filter0_d)"><path d="M17.06 12.022A10 10 0 0126.861 4H178.78c6.318 0 11.052 5.786 9.803 11.978l-4.642 23A10 10 0 01174.138 47H22.22c-6.318 0-11.052-5.785-9.803-11.978l4.642-23z" fill="#fff"/></g><path d="M40.99 37h-4.05l.03-3.45h-4.68L30.91 37h-4.32l9.48-21.36h3.96L40.99 37zm-4.08-7.05l.03-8.37-3.21 8.37h3.18zM42.736 37l4.26-21.36h5.43c1.72 0 2.99.41 3.81 1.23.72.72 1.08 1.73 1.08 3.03 0 .9-.08 1.75-.24 2.55-.52 2.6-1.31 4.39-2.37 5.37-1.06.96-2.54 1.44-4.44 1.44h-1.98L46.756 37h-4.02zm6.27-11.34h1.47c.78 0 1.34-.24 1.68-.72.36-.5.66-1.33.9-2.49.14-.7.21-1.26.21-1.68 0-.52-.12-.9-.36-1.14-.24-.26-.65-.39-1.23-.39h-1.38l-1.29 6.42zM58.876 37l3.54-17.76h-3.42l.72-3.6h10.86l-.72 3.6h-3.42L62.897 37h-4.02zm9.582 0l4.26-21.36h9.36l-.72 3.6h-5.34l-1.05 5.19h4.59l-.72 3.6h-4.59l-1.05 5.37h5.34l-.72 3.6h-9.36zm4.65-22.77l.72-3.6h3.45l-.72 3.6h-3.45zm5.61 0l.72-3.6h3.45l-.72 3.6h-3.45zM80.265 37l4.26-21.36h3.54l1.62 10.32 5.79-10.32h3.54L94.755 37h-4.02l2.25-11.25-3.69 7.29h-2.07l-.69-7.29L84.285 37h-4.02zm22.441 0l4.26-21.36h3.54l1.62 10.32 5.79-10.32h3.54L117.196 37h-4.02l2.25-11.25-3.69 7.29h-2.07l-.69-7.29-2.25 11.25h-4.02zm19.138-10.68c.62-3.04 1.14-5.16 1.56-6.36.44-1.22 1.01-2.18 1.71-2.88 1.12-1.12 2.61-1.68 4.47-1.68 2.06 0 3.48.69 4.26 2.07.46.82.69 1.85.69 3.09 0 1.26-.27 3.18-.81 5.76-.62 3.04-1.15 5.17-1.59 6.39-.42 1.2-.98 2.15-1.68 2.85-1.12 1.12-2.61 1.68-4.47 1.68-2.06 0-3.48-.69-4.26-2.07-.46-.82-.69-1.85-.69-3.09 0-1.26.27-3.18.81-5.76zm4.02 0c-.54 2.7-.81 4.6-.81 5.7 0 1.08.44 1.62 1.32 1.62.48 0 .91-.19 1.29-.57.34-.34.65-.98.93-1.92s.65-2.55 1.11-4.83c.54-2.7.81-4.6.81-5.7 0-1.08-.44-1.62-1.32-1.62-.48 0-.91.19-1.29.57-.34.34-.65.98-.93 1.92s-.65 2.55-1.11 4.83zM134.113 37l4.26-21.36h5.43c1.72 0 2.99.41 3.81 1.23.72.72 1.08 1.73 1.08 3.03 0 .9-.08 1.75-.24 2.55-.52 2.6-1.31 4.39-2.37 5.37-1.06.96-2.54 1.44-4.44 1.44h-1.98l-1.53 7.74h-4.02zm6.27-11.34h1.47c.78 0 1.34-.24 1.68-.72.36-.5.66-1.33.9-2.49.14-.7.21-1.26.21-1.68 0-.52-.12-.9-.36-1.14-.24-.26-.65-.39-1.23-.39h-1.38l-1.29 6.42zm9.117.66c.62-3.04 1.14-5.16 1.56-6.36.44-1.22 1.01-2.18 1.71-2.88 1.12-1.12 2.61-1.68 4.47-1.68 2.06 0 3.48.69 4.26 2.07.46.82.69 1.85.69 3.09 0 1.26-.27 3.18-.81 5.76-.62 3.04-1.15 5.17-1.59 6.39-.42 1.2-.98 2.15-1.68 2.85-1.12 1.12-2.61 1.68-4.47 1.68-2.06 0-3.48-.69-4.26-2.07-.46-.82-.69-1.85-.69-3.09 0-1.26.27-3.18.81-5.76zm4.02 0c-.54 2.7-.81 4.6-.81 5.7 0 1.08.44 1.62 1.32 1.62.48 0 .91-.19 1.29-.57.34-.34.65-.98.93-1.92s.65-2.55 1.11-4.83c.54-2.7.81-4.6.81-5.7 0-1.08-.44-1.62-1.32-1.62-.48 0-.91.19-1.29.57-.34.34-.65.98-.93 1.92s-.65 2.55-1.11 4.83zm9.283 9.69c-.86-.86-1.29-2.05-1.29-3.57 0-.54.04-1.01.12-1.41h4.08c-.08.4-.12.76-.12 1.08 0 .54.13.94.39 1.2.22.22.56.33 1.02.33.54 0 .96-.17 1.26-.51.34-.36.65-1.21.93-2.55.1-.56.15-.99.15-1.29 0-.46-.09-.81-.27-1.05-.24-.3-.63-.45-1.17-.45h-1.62l.72-3.48h1.53c.58 0 1.03-.16 1.35-.48.3-.3.55-.97.75-2.01.12-.6.18-1.09.18-1.47 0-.44-.11-.77-.33-.99-.24-.24-.56-.36-.96-.36-.58 0-1.03.19-1.35.57-.34.38-.61 1.07-.81 2.07h-3.99c.46-2.28 1.21-3.89 2.25-4.83 1.02-.94 2.45-1.41 4.29-1.41 1.72 0 2.98.4 3.78 1.2.78.78 1.17 1.74 1.17 2.88 0 .7-.08 1.45-.24 2.25-.16.82-.33 1.44-.51 1.86-.18.42-.45.84-.81 1.26-.3.4-.8.81-1.5 1.23 1.04.68 1.56 1.69 1.56 3.03 0 .42-.08 1.03-.24 1.83-.28 1.42-.56 2.44-.84 3.06-.26.62-.67 1.21-1.23 1.77-.98.98-2.4 1.47-4.26 1.47-1.84 0-3.17-.41-3.99-1.23z" fill="#181820"/><g filter="url(#filter1_d)"><path d="M81.148 45.69A5 5 0 0185.974 42H237.46c3.295 0 5.689 3.131 4.825 6.31l-5.433 20a5 5 0 01-4.825 3.69H80.54c-3.295 0-5.69-3.131-4.825-6.31l5.433-20z" fill="#01E482"/></g><path d="M91.18 57.4h-5.84v-1.9h5.84v1.9zm10.816 4.6h-2.04v-8.36h-2.94v2.94c0 1.053-.074 1.94-.22 2.66-.147.72-.367 1.28-.66 1.68-.294.387-.634.667-1.02.84-.374.16-.82.24-1.34.24h-.96v-1.8h.32c.213 0 .393-.013.54-.04.146-.04.313-.133.5-.28.2-.16.353-.373.46-.64.12-.28.22-.687.3-1.22a13.6 13.6 0 00.12-1.94v-4.22h6.94V62zm11.673 0h-2.04v-6.98l-4.34 6.98h-2.04V51.86h2.04v6.88l4.34-6.88h2.04V62zm6.002-8.36v1.62c0 1.933-.32 3.587-.96 4.96h3.82v-6.58h-2.86zm-1.94-1.78h6.84v8.36h1.4v4.38h-1.96V62h-6.58v2.6h-1.94v-4.38h1.08c.387-.76.674-1.553.86-2.38.2-.84.3-1.973.3-3.4v-2.58zm18.235 5.66h-6.58c0 .893.22 1.593.66 2.1.453.493 1.093.74 1.92.74.546 0 1-.08 1.36-.24.36-.16.726-.427 1.1-.8l1.3 1.22c-.547.547-1.107.947-1.68 1.2-.56.253-1.267.38-2.12.38-1.387 0-2.494-.413-3.32-1.24-.827-.827-1.24-2.147-1.24-3.96 0-1.627.386-2.893 1.16-3.8.773-.92 1.82-1.38 3.14-1.38 1.346 0 2.4.447 3.16 1.34.76.893 1.14 2.087 1.14 3.58v.86zm-2.02-1.42c-.04-.6-.134-1.06-.28-1.38-.387-.853-1.054-1.28-2-1.28-.96 0-1.634.427-2.02 1.28-.16.347-.247.807-.26 1.38h4.56zm13.021.82c0 2.093-.38 3.527-1.14 4.3-.6.6-1.42.9-2.46.9-1.133 0-2.02-.387-2.66-1.16v5.14h-2.04V51.86h2v1.08c.667-.8 1.56-1.2 2.68-1.2 1.053 0 1.88.3 2.48.9.76.773 1.14 2.2 1.14 4.28zm-2.12 1.3c.053-.36.08-.793.08-1.3s-.027-.94-.08-1.3a3.527 3.527 0 00-.28-1.04 1.502 1.502 0 00-.64-.76c-.293-.173-.66-.26-1.1-.26-.453 0-.827.087-1.12.26a1.61 1.61 0 00-.66.76c-.133.333-.227.68-.28 1.04-.04.36-.06.793-.06 1.3s.02.94.06 1.3c.053.36.147.713.28 1.06.147.333.367.587.66.76.307.173.68.26 1.12.26.44 0 .807-.087 1.1-.26.293-.173.507-.427.64-.76.147-.347.24-.7.28-1.06zM156.626 62h-2.06V51.86h2.06V62zm6.62 0h-2.5l-4.1-5.28 3.86-4.86h2.44l-4.04 4.76 4.34 5.38zm9.202-5.08c0 .933-.087 1.713-.26 2.34a3.91 3.91 0 01-.94 1.66c-.774.8-1.787 1.2-3.04 1.2-1.24 0-2.247-.4-3.02-1.2a3.888 3.888 0 01-.94-1.66c-.174-.627-.26-1.407-.26-2.34 0-.92.086-1.693.26-2.32a3.74 3.74 0 01.94-1.66c.773-.8 1.78-1.2 3.02-1.2 1.253 0 2.266.4 3.04 1.2a3.76 3.76 0 01.94 1.66c.173.627.26 1.4.26 2.32zm-2.74 2.78c.466-.467.7-1.393.7-2.78 0-1.387-.234-2.313-.7-2.78-.387-.387-.887-.58-1.5-.58-.6 0-1.094.193-1.48.58-.467.467-.7 1.393-.7 2.78 0 1.387.233 2.313.7 2.78.4.4.893.6 1.48.6.6 0 1.1-.2 1.5-.6zM185.29 62h-2.04v-6.5l-2.34 4.64h-1.28l-2.38-4.64V62h-2.04V51.86h2.02l3.04 6.04 3.02-6.04h2V62zm10.72 0h-2v-.92c-.374.373-.767.64-1.18.8-.4.16-.907.24-1.52.24-1.2 0-2.107-.307-2.72-.92-.534-.56-.8-1.287-.8-2.18 0-.88.3-1.587.9-2.12.613-.533 1.486-.8 2.62-.8h2.66v-.72c0-.653-.174-1.133-.52-1.44-.347-.307-.914-.46-1.7-.46-.534 0-.967.08-1.3.24-.32.147-.627.4-.92.76l-1.32-1.26c.466-.547.966-.927 1.5-1.14.546-.227 1.253-.34 2.12-.34 2.786 0 4.18 1.16 4.18 3.48V62zm-2.04-3.66v-.82h-2.34c-1.24 0-1.86.487-1.86 1.46 0 .96.64 1.44 1.92 1.44.813 0 1.426-.193 1.84-.58.293-.28.44-.78.44-1.5zM207.275 62h-2.04v-4.32h-4.04V62h-2.04V51.86h2.04v4.04h4.04v-4.04h2.04V62zm6.01-8.36v1.62c0 1.933-.32 3.587-.96 4.96h3.82v-6.58h-2.86zm-1.94-1.78h6.84v8.36h1.4v4.38h-1.96V62h-6.58v2.6h-1.94v-4.38h1.08c.386-.76.673-1.553.86-2.38.2-.84.3-1.973.3-3.4v-2.58zM233.232 62h-2.04V51.86h2.04V62zm-4.36-5.44c.613.587.92 1.347.92 2.28 0 .933-.307 1.693-.92 2.28-.6.587-1.393.88-2.38.88h-4.7V51.86h2.04v3.82h2.66c.987 0 1.78.293 2.38.88zm-1.54 3.38c.293-.267.44-.633.44-1.1 0-.467-.147-.827-.44-1.08-.28-.267-.673-.4-1.18-.4h-2.32v2.98h2.32c.507 0 .9-.133 1.18-.4z" fill="#000"/><defs><filter id="filter0_d" x=".216" y="0" width="200.567" height="67" filterUnits="userSpaceOnUse" color-interpolation-filters="sRGB"><feFlood flood-opacity="0" result="BackgroundImageFix"/><feColorMatrix in="SourceAlpha" values="0 0 0 0 0 0 0 0 0 0 0 0 0 0 0 0 0 0 127 0" result="hardAlpha"/><feOffset dy="8"/><feGaussianBlur stdDeviation="6"/><feComposite in2="hardAlpha" operator="out"/><feColorMatrix values="0 0 0 0 0 0 0 0 0 0 0 0 0 0 0 0 0 0 0.15 0"/><feBlend in2="BackgroundImageFix" result="effect1_dropShadow"/><feBlend in="SourceGraphic" in2="effect1_dropShadow" result="shape"/></filter><filter id="filter1_d" x="71.537" y="30" width="190.926" height="54" filterUnits="userSpaceOnUse" color-interpolation-filters="sRGB"><feFlood flood-opacity="0" result="BackgroundImageFix"/><feColorMatrix in="SourceAlpha" values="0 0 0 0 0 0 0 0 0 0 0 0 0 0 0 0 0 0 127 0" result="hardAlpha"/><feOffset dx="8"/><feGaussianBlur stdDeviation="6"/><feComposite in2="hardAlpha" operator="out"/><feColorMatrix values="0 0 0 0 0 0 0 0 0 0 0 0 0 0 0 0 0 0 0.25 0"/><feBlend in2="BackgroundImageFix" result="effect1_dropShadow"/><feBlend in="SourceGraphic" in2="effect1_dropShadow" result="shape"/></filter></defs></svg>