<svg width="24" height="25" fill="none" xmlns="http://www.w3.org/2000/svg"><path d="M18.964 15.557c-.492-.518-1.084-.795-1.712-.795-.623 0-1.221.272-1.733.79l-1.6 1.615c-.132-.072-.264-.139-.39-.205-.183-.093-.355-.18-.502-.272-1.5-.964-2.862-2.22-4.169-3.845-.633-.81-1.058-1.492-1.367-2.184.415-.385.8-.785 1.175-1.169.142-.144.284-.292.425-.436 1.064-1.076 1.064-2.47 0-3.548l-1.382-1.4c-.157-.158-.32-.322-.472-.486a24.06 24.06 0 00-.952-.954c-.491-.492-1.079-.753-1.697-.753-.618 0-1.215.261-1.722.753l-.01.01-1.722 1.759a3.77 3.77 0 00-1.1 2.384c-.121 1.497.315 2.891.649 3.804.82 2.24 2.046 4.317 3.875 6.542 2.219 2.681 4.888 4.798 7.937 6.29 1.165.56 2.72 1.22 4.458 1.333.106.006.218.01.319.01 1.17 0 2.153-.425 2.923-1.27.005-.011.015-.016.02-.027.263-.323.567-.615.886-.927.218-.21.441-.431.659-.662.501-.528.765-1.143.765-1.774 0-.635-.269-1.245-.78-1.758l-2.781-2.825zm1.813 5.399c-.005 0-.005.005 0 0-.197.215-.4.41-.618.625-.33.318-.663.651-.977 1.025-.512.554-1.115.816-1.905.816-.076 0-.157 0-.233-.006-1.504-.097-2.902-.692-3.951-1.2-2.867-1.404-5.384-3.398-7.476-5.926-1.728-2.107-2.883-4.055-3.648-6.147-.47-1.277-.643-2.271-.567-3.21.05-.6.279-1.096.7-1.522l1.726-1.748c.249-.236.512-.364.77-.364.32 0 .578.195.74.359l.015.015c.31.292.603.595.912.918.157.164.319.328.481.497l1.383 1.4c.537.543.537 1.046 0 1.589-.147.149-.289.297-.436.44-.425.442-.83.852-1.271 1.252-.01.01-.02.015-.025.025-.436.441-.355.872-.264 1.164l.015.046c.36.882.867 1.713 1.637 2.702l.005.005c1.398 1.743 2.872 3.102 4.498 4.143.207.133.42.24.623.343.182.093.354.18.501.272.02.01.04.026.06.036.173.087.335.128.502.128.42 0 .684-.267.77-.354l1.733-1.753c.172-.174.445-.385.764-.385.315 0 .573.2.73.375a.967.967 0 00.01.01l2.791 2.825c.522.523.522 1.061.005 1.605zm-7.81-14.669a6.398 6.398 0 013.495 1.835 6.563 6.563 0 011.813 3.538.682.682 0 00.674.574c.04 0 .076-.005.116-.01a.692.692 0 00.563-.8 7.94 7.94 0 00-2.194-4.28 7.781 7.781 0 00-4.23-2.22.688.688 0 00-.79.563.684.684 0 00.553.8zm11.001 4.938a13.063 13.063 0 00-3.611-7.05A12.802 12.802 0 0013.392.52a.682.682 0 00-.785.564.694.694 0 00.562.8c2.36.405 4.513 1.538 6.225 3.265a11.662 11.662 0 013.227 6.301.682.682 0 00.674.574c.04 0 .076-.005.116-.01a.678.678 0 00.557-.79z" fill="#fff"/></svg>