<svg width="73" height="73" fill="none" xmlns="http://www.w3.org/2000/svg"><g clip-path="url(#clip0)" fill="#01E482"><path d="M29.32 25.54a54.874 54.874 0 00-.12 3.66c0 6.094 1.818 9.733 4.866 9.733 3.84 0 4.866-4.589 4.866-7.3a1.215 1.215 0 10-2.433 0c0 .049-.105 4.867-2.433 4.867-1.41 0-2.434-3.07-2.434-7.3 0-14.185 4.979-15.8 5.135-15.847a1.216 1.216 0 00-.508-2.38c-.243.05-1.124.282-2.185 1.19.001-.209.019-.418.075-.626a2.42 2.42 0 011.133-1.478 2.417 2.417 0 011.846-.242 2.436 2.436 0 01.586 4.458 1.217 1.217 0 001.218 2.107 4.876 4.876 0 001.781-6.648 4.837 4.837 0 00-2.955-2.268 4.835 4.835 0 00-3.692.486 4.832 4.832 0 00-2.268 2.956c-.315 1.175-.167 2.395.406 3.507-1.044 1.698-2.02 4.227-2.562 7.988-1.822-2.181-2.876-4.96-2.876-7.802 0-6.709 5.458-12.167 12.166-12.167 6.707 0 12.167 5.458 12.167 12.167 0 6.708-5.46 12.166-12.167 12.166-1.322 0-2.62-.21-3.861-.624a1.216 1.216 0 10-.77 2.307 14.6 14.6 0 004.631.75c8.05 0 14.6-6.55 14.6-14.6S46.982.002 38.932.002s-14.6 6.55-14.6 14.6c0 4.148 1.863 8.179 4.988 10.94zM15.816 46.233h9.733c1.419 0 3.833 1.81 5.962 3.407 2.67 2.002 5.19 3.893 7.421 3.893h7.3c1.847 0 2.766.838 2.79.86a1.213 1.213 0 001.72 0 1.217 1.217 0 000-1.72c-.16-.162-1.656-1.573-4.51-1.573h-7.3c-1.42 0-3.832-1.81-5.961-3.407-2.67-2.002-5.192-3.893-7.422-3.893h-9.733a1.216 1.216 0 100 2.433zm37.603-21.509l12.28 12.28v4.363h-4.363l-.504-.504v-3.146c0-.673-.544-1.217-1.217-1.217H58.4v-1.216c0-.673-.544-1.217-1.217-1.217h-3.145l-.505-.505v-3.145c0-.673-.544-1.216-1.216-1.216H49.17l-.118-.118a1.215 1.215 0 00-1.72 0 1.215 1.215 0 000 1.72l.474.474c.228.228.537.357.86.357H51.1v2.43c0 .323.128.632.355.86l1.217 1.219c.227.228.538.358.861.358h2.434v1.216c0 .672.543 1.217 1.216 1.217H58.4v2.433c0 .322.127.632.356.86l1.217 1.217c.227.227.536.356.86.356h6.083c.673 0 1.217-.545 1.217-1.216V36.5c0-.322-.13-.632-.357-.86L55.14 23.004a1.215 1.215 0 10-1.72 1.72zM6.083 65.091a1.827 1.827 0 00-1.825-1.825 1.827 1.827 0 00-1.825 1.825c0 1.006.82 1.825 1.825 1.825a1.827 1.827 0 001.825-1.825z"/><path d="M8.516 38.933h-7.3a1.216 1.216 0 100 2.434h7.3c.67 0 1.217.545 1.217 1.216V69.35a1.22 1.22 0 01-1.217 1.217h-7.3a1.216 1.216 0 100 2.433h7.3a3.654 3.654 0 003.65-3.65V42.583a3.654 3.654 0 00-3.65-3.65zM72.346 51.1c-1.342-2.325-4.329-3.12-6.572-1.822l-14.002 6.816c-2.178 1.089-4.374 1.089-9.19 1.089-4.707 0-11.895-1.189-11.966-1.2a1.215 1.215 0 00-1.4 1 1.217 1.217 0 001 1.4c.302.05 7.456 1.233 12.366 1.233 5.052 0 7.587 0 10.265-1.34l14.068-6.85a2.418 2.418 0 011.846-.243 2.41 2.41 0 011.477 1.133 2.438 2.438 0 01-.925 3.345L52.864 65.9c-.034.022-3.544 2.234-11.498 2.234-6.897 0-17.553-5.872-17.706-5.956-.11-.054-2.749-1.344-7.844-1.344a1.216 1.216 0 100 2.433c4.425 0 6.705 1.064 6.709 1.064.46.255 11.312 6.236 18.84 6.236 8.784 0 12.68-2.53 12.81-2.617l16.39-10.201a4.833 4.833 0 002.267-2.956 4.832 4.832 0 00-.486-3.692z"/></g><defs><clipPath id="clip0"><path fill="#fff" d="M0 0h73v73H0z"/></clipPath></defs></svg>