<svg width="71" height="71" fill="none" xmlns="http://www.w3.org/2000/svg"><path d="M39.952 47.128a1.04 1.04 0 00-1.04 1.04v3.842a1.04 1.04 0 102.08 0v-3.842a1.04 1.04 0 00-1.04-1.04zM35.5 17.888a5.414 5.414 0 00-5.408 5.409 5.414 5.414 0 005.408 5.408 5.414 5.414 0 005.408-5.408 5.414 5.414 0 00-5.408-5.408zm0 8.737a3.332 3.332 0 01-3.328-3.328 3.332 3.332 0 013.328-3.328 3.332 3.332 0 013.328 3.328 3.332 3.332 0 01-3.328 3.328zm33.905 4.43c.88 0 1.595-.715 1.595-1.594v-3.05c0-.88-.715-1.596-1.595-1.596h-1.121l-3.017-11.564a3.815 3.815 0 00-3.69-2.85H60.45V2.01C60.45.902 59.548 0 58.44 0h-7.11c-1.109 0-2.01.902-2.01 2.01v8.39h-3.289l-7.615-9.043A3.806 3.806 0 0035.5 0c-1.127 0-2.19.495-2.917 1.357L24.968 10.4h-6.623a1.04 1.04 0 100 2.08h4.87L12.83 24.816H4.866l2.88-11.039a1.734 1.734 0 011.677-1.296h4.069a1.04 1.04 0 100-2.08h-4.07a3.815 3.815 0 00-3.689 2.851L2.716 24.815H1.595c-.88 0-1.595.716-1.595 1.595v3.05c0 .88.715 1.596 1.595 1.596H4.16V64.03h-.676A3.488 3.488 0 000 67.515 3.488 3.488 0 003.484 71h64.032A3.488 3.488 0 0071 67.516a3.488 3.488 0 00-3.484-3.485h-.676V31.056h2.565zM51.4 2.08h6.97v8.32H51.4V2.08zm10.177 10.4c.788 0 1.478.533 1.677 1.296l2.88 11.04h-7.963L47.784 12.48h13.793zm5.939 53.631c.774 0 1.404.63 1.404 1.404 0 .775-.63 1.405-1.404 1.405H3.484c-.774 0-1.404-.63-1.404-1.404 0-.775.63-1.405 1.404-1.405h64.032zm-23.404-8.55a1.04 1.04 0 00-1.04 1.04v5.43H27.928V37.82c0-.191.156-.347.347-.347h14.45c.191 0 .347.156.347.347v15.928a1.04 1.04 0 102.08 0V37.82a2.43 2.43 0 00-2.427-2.427h-14.45a2.43 2.43 0 00-2.427 2.427v26.211H6.24V31.056h7.718c1.127 0 2.19-.495 2.917-1.358L35.5 7.581l18.625 22.117a3.805 3.805 0 002.917 1.358h7.718V64.03H45.152V58.6a1.04 1.04 0 00-1.04-1.04zm12.93-28.585a1.73 1.73 0 01-1.326-.617L36.72 5.8a1.591 1.591 0 00-2.44 0L15.284 28.36a1.73 1.73 0 01-1.326.616H2.08v-2.08h10.974a1.59 1.59 0 001.22-.567l19.9-23.631A1.73 1.73 0 0135.5 2.08c.513 0 .996.225 1.326.617l19.9 23.631c.304.36.748.567 1.22.567H68.92v2.08H57.042z" fill="#01E482"/></svg>